%TF.GenerationSoftware,KiCad,Pcbnew,7.0.7*%
%TF.CreationDate,2025-10-27T22:40:16+01:00*%
%TF.ProjectId,pcb1,70636231-2e6b-4696-9361-645f70636258,rev?*%
%TF.SameCoordinates,Original*%
%TF.FileFunction,Soldermask,Top*%
%TF.FilePolarity,Negative*%
%FSLAX46Y46*%
G04 Gerber Fmt 4.6, Leading zero omitted, Abs format (unit mm)*
G04 Created by KiCad (PCBNEW 7.0.7) date 2025-10-27 22:40:16*
%MOMM*%
%LPD*%
G01*
G04 APERTURE LIST*
G04 Aperture macros list*
%AMRoundRect*
0 Rectangle with rounded corners*
0 $1 Rounding radius*
0 $2 $3 $4 $5 $6 $7 $8 $9 X,Y pos of 4 corners*
0 Add a 4 corners polygon primitive as box body*
4,1,4,$2,$3,$4,$5,$6,$7,$8,$9,$2,$3,0*
0 Add four circle primitives for the rounded corners*
1,1,$1+$1,$2,$3*
1,1,$1+$1,$4,$5*
1,1,$1+$1,$6,$7*
1,1,$1+$1,$8,$9*
0 Add four rect primitives between the rounded corners*
20,1,$1+$1,$2,$3,$4,$5,0*
20,1,$1+$1,$4,$5,$6,$7,0*
20,1,$1+$1,$6,$7,$8,$9,0*
20,1,$1+$1,$8,$9,$2,$3,0*%
G04 Aperture macros list end*
%ADD10R,1.700000X1.700000*%
%ADD11O,1.700000X1.700000*%
%ADD12C,5.000000*%
%ADD13R,1.050000X1.500000*%
%ADD14O,1.050000X1.500000*%
%ADD15C,1.400000*%
%ADD16O,1.400000X1.400000*%
%ADD17R,2.000000X1.500000*%
%ADD18R,2.000000X3.800000*%
%ADD19C,1.397000*%
%ADD20RoundRect,0.102000X0.750000X0.450000X-0.750000X0.450000X-0.750000X-0.450000X0.750000X-0.450000X0*%
%ADD21RoundRect,0.102000X0.350000X0.350000X-0.350000X0.350000X-0.350000X-0.350000X0.350000X-0.350000X0*%
%ADD22R,1.200000X1.200000*%
%ADD23C,1.200000*%
%ADD24R,3.000000X3.000000*%
%ADD25C,3.000000*%
%ADD26C,1.600000*%
%ADD27R,2.500000X2.500000*%
%ADD28O,2.500000X2.500000*%
%ADD29RoundRect,0.102000X0.754000X0.754000X-0.754000X0.754000X-0.754000X-0.754000X0.754000X-0.754000X0*%
%ADD30C,1.712000*%
G04 APERTURE END LIST*
D10*
%TO.C,Rele*%
X178760000Y-96610000D03*
D11*
X178760000Y-99150000D03*
X178760000Y-101690000D03*
%TD*%
D12*
%TO.C,REF3*%
X179240000Y-88760000D03*
%TD*%
D13*
%TO.C,Q2*%
X217000000Y-146020000D03*
D14*
X218270000Y-146020000D03*
X219540000Y-146020000D03*
%TD*%
D15*
%TO.C,R4*%
X192320000Y-92850000D03*
D16*
X187240000Y-92850000D03*
%TD*%
D17*
%TO.C,U2*%
X210340000Y-105680000D03*
X210340000Y-107980000D03*
X210340000Y-110280000D03*
D18*
X216640000Y-107980000D03*
%TD*%
D19*
%TO.C,Reset*%
X177330000Y-118660000D03*
X184950000Y-118660000D03*
X177330000Y-123740000D03*
X184950000Y-123740000D03*
%TD*%
D15*
%TO.C,R3*%
X199760000Y-99730000D03*
D16*
X204840000Y-99730000D03*
%TD*%
D20*
%TO.C,U1*%
X194380000Y-141820000D03*
X194380000Y-140320000D03*
X194380000Y-138820000D03*
X194380000Y-137320000D03*
X194380000Y-135820000D03*
X194380000Y-134320000D03*
X194380000Y-132820000D03*
X194380000Y-131320000D03*
X194380000Y-129820000D03*
X176880000Y-129820000D03*
X176880000Y-131320000D03*
X176880000Y-132820000D03*
X176880000Y-134320000D03*
X176880000Y-135820000D03*
X176880000Y-137320000D03*
X176880000Y-138820000D03*
X176880000Y-140320000D03*
X176880000Y-141820000D03*
D21*
X185770000Y-136720000D03*
X184670000Y-136720000D03*
X183570000Y-136720000D03*
X185770000Y-135620000D03*
X184670000Y-135620000D03*
X183570000Y-135620000D03*
X185770000Y-134520000D03*
X184670000Y-134520000D03*
X183570000Y-134520000D03*
%TD*%
D12*
%TO.C,REF3*%
X236000000Y-88510000D03*
%TD*%
D19*
%TO.C,Boot*%
X177360000Y-107530000D03*
X184980000Y-107530000D03*
X177360000Y-112610000D03*
X184980000Y-112610000D03*
%TD*%
D12*
%TO.C,REF3*%
X236130000Y-146150000D03*
%TD*%
D10*
%TO.C,LedPrueba*%
X211950000Y-144125000D03*
D11*
X211950000Y-146665000D03*
%TD*%
D22*
%TO.C,C1*%
X216580000Y-117120000D03*
D23*
X218080000Y-117120000D03*
%TD*%
D24*
%TO.C,Alimentacion220V*%
X235580000Y-99880000D03*
D25*
X235580000Y-94800000D03*
%TD*%
D15*
%TO.C,R2*%
X199940000Y-95070000D03*
D16*
X205020000Y-95070000D03*
%TD*%
D13*
%TO.C,Q1*%
X226730000Y-146040000D03*
D14*
X228000000Y-146040000D03*
X229270000Y-146040000D03*
%TD*%
D22*
%TO.C,C2*%
X210300000Y-118190000D03*
D23*
X211800000Y-118190000D03*
%TD*%
D10*
%TO.C,Uart*%
X212500000Y-129190000D03*
D11*
X212500000Y-131730000D03*
X212500000Y-134270000D03*
X212500000Y-136810000D03*
%TD*%
D24*
%TO.C,Entrada*%
X235740000Y-106130000D03*
D25*
X235740000Y-111210000D03*
%TD*%
D10*
%TO.C,Sensor*%
X198130000Y-143865000D03*
D11*
X198130000Y-146405000D03*
%TD*%
D26*
%TO.C,R1*%
X211065000Y-94710000D03*
X216145000Y-94710000D03*
%TD*%
D27*
%TO.C,Rele2*%
X235507500Y-132630000D03*
D28*
X233507500Y-126630000D03*
X221307500Y-126630000D03*
X221307500Y-138630000D03*
X233507500Y-138630000D03*
%TD*%
D10*
%TO.C,SensorAPDS9960*%
X200740000Y-88080000D03*
D11*
X203280000Y-88080000D03*
X205820000Y-88080000D03*
X208360000Y-88080000D03*
X210900000Y-88080000D03*
%TD*%
D29*
%TO.C,PS1*%
X222192400Y-104400000D03*
D30*
X222192400Y-109400000D03*
X192792400Y-99200000D03*
X192792400Y-114600000D03*
%TD*%
M02*
