%TF.GenerationSoftware,KiCad,Pcbnew,7.0.7*%
%TF.CreationDate,2025-10-27T22:40:16+01:00*%
%TF.ProjectId,pcb1,70636231-2e6b-4696-9361-645f70636258,rev?*%
%TF.SameCoordinates,Original*%
%TF.FileFunction,Copper,L1,Top*%
%TF.FilePolarity,Positive*%
%FSLAX46Y46*%
G04 Gerber Fmt 4.6, Leading zero omitted, Abs format (unit mm)*
G04 Created by KiCad (PCBNEW 7.0.7) date 2025-10-27 22:40:16*
%MOMM*%
%LPD*%
G01*
G04 APERTURE LIST*
%TA.AperFunction,ComponentPad*%
%ADD10R,1.700000X1.700000*%
%TD*%
%TA.AperFunction,ComponentPad*%
%ADD11O,1.700000X1.700000*%
%TD*%
%TA.AperFunction,ComponentPad*%
%ADD12C,5.000000*%
%TD*%
%TA.AperFunction,ComponentPad*%
%ADD13R,1.050000X1.500000*%
%TD*%
%TA.AperFunction,ComponentPad*%
%ADD14O,1.050000X1.500000*%
%TD*%
%TA.AperFunction,ComponentPad*%
%ADD15C,1.400000*%
%TD*%
%TA.AperFunction,ComponentPad*%
%ADD16O,1.400000X1.400000*%
%TD*%
%TA.AperFunction,SMDPad,CuDef*%
%ADD17R,2.000000X1.500000*%
%TD*%
%TA.AperFunction,SMDPad,CuDef*%
%ADD18R,2.000000X3.800000*%
%TD*%
%TA.AperFunction,ComponentPad*%
%ADD19C,1.397000*%
%TD*%
%TA.AperFunction,SMDPad,CuDef*%
%ADD20R,1.500000X0.900000*%
%TD*%
%TA.AperFunction,SMDPad,CuDef*%
%ADD21R,0.700000X0.700000*%
%TD*%
%TA.AperFunction,ComponentPad*%
%ADD22C,0.400000*%
%TD*%
%TA.AperFunction,ComponentPad*%
%ADD23R,1.200000X1.200000*%
%TD*%
%TA.AperFunction,ComponentPad*%
%ADD24C,1.200000*%
%TD*%
%TA.AperFunction,ComponentPad*%
%ADD25R,3.000000X3.000000*%
%TD*%
%TA.AperFunction,ComponentPad*%
%ADD26C,3.000000*%
%TD*%
%TA.AperFunction,ComponentPad*%
%ADD27C,1.600000*%
%TD*%
%TA.AperFunction,ComponentPad*%
%ADD28R,2.500000X2.500000*%
%TD*%
%TA.AperFunction,ComponentPad*%
%ADD29O,2.500000X2.500000*%
%TD*%
%TA.AperFunction,ComponentPad*%
%ADD30R,1.508000X1.508000*%
%TD*%
%TA.AperFunction,ComponentPad*%
%ADD31C,1.508000*%
%TD*%
%TA.AperFunction,ViaPad*%
%ADD32C,0.800000*%
%TD*%
%TA.AperFunction,Conductor*%
%ADD33C,0.250000*%
%TD*%
%TA.AperFunction,Conductor*%
%ADD34C,3.000000*%
%TD*%
G04 APERTURE END LIST*
D10*
%TO.P,Rele,1,Pin_1*%
%TO.N,+5V*%
X178760000Y-96610000D03*
D11*
%TO.P,Rele,2,Pin_2*%
%TO.N,E*%
X178760000Y-99150000D03*
%TO.P,Rele,3,Pin_3*%
%TO.N,GND*%
X178760000Y-101690000D03*
%TD*%
D12*
%TO.P,REF3,1*%
%TO.N,N/C*%
X179240000Y-88760000D03*
%TD*%
D13*
%TO.P,Q2,1,C*%
%TO.N,Net-(Q2-C)*%
X217000000Y-146020000D03*
D14*
%TO.P,Q2,2,B*%
%TO.N,Net-(Q2-B)*%
X218270000Y-146020000D03*
%TO.P,Q2,3,E*%
%TO.N,GND*%
X219540000Y-146020000D03*
%TD*%
D15*
%TO.P,R4,1*%
%TO.N,Net-(Sensor1-Pin_1)*%
X192320000Y-92850000D03*
D16*
%TO.P,R4,2*%
%TO.N,+3V3*%
X187240000Y-92850000D03*
%TD*%
D17*
%TO.P,U2,1,GND*%
%TO.N,GND*%
X210340000Y-105680000D03*
%TO.P,U2,2,VO*%
%TO.N,+3V3*%
X210340000Y-107980000D03*
%TO.P,U2,3,VI*%
%TO.N,+5V*%
X210340000Y-110280000D03*
D18*
%TO.P,U2,4*%
%TO.N,N/C*%
X216640000Y-107980000D03*
%TD*%
D19*
%TO.P,Reset,1,Pin_1*%
%TO.N,GND*%
X177330000Y-118660000D03*
X184950000Y-118660000D03*
%TO.P,Reset,2,Pin_2*%
%TO.N,+3V3*%
X177330000Y-123740000D03*
X184950000Y-123740000D03*
%TD*%
D15*
%TO.P,R3,1*%
%TO.N,rele*%
X199760000Y-99730000D03*
D16*
%TO.P,R3,2*%
%TO.N,Net-(Q2-B)*%
X204840000Y-99730000D03*
%TD*%
D20*
%TO.P,U1,1,3V3*%
%TO.N,+3V3*%
X194380000Y-141820000D03*
%TO.P,U1,2,EN*%
%TO.N,Net-(Reset1-Pin_4)*%
X194380000Y-140320000D03*
%TO.P,U1,3,IO4*%
%TO.N,unconnected-(U1-IO4-Pad3)*%
X194380000Y-138820000D03*
%TO.P,U1,4,IO5*%
%TO.N,unconnected-(U1-IO5-Pad4)*%
X194380000Y-137320000D03*
%TO.P,U1,5,IO6*%
%TO.N,SDA*%
X194380000Y-135820000D03*
%TO.P,U1,6,IO7*%
%TO.N,SCL*%
X194380000Y-134320000D03*
%TO.P,U1,7,IO8*%
%TO.N,+3V3*%
X194380000Y-132820000D03*
%TO.P,U1,8,IO9*%
%TO.N,boot*%
X194380000Y-131320000D03*
%TO.P,U1,9,GND*%
%TO.N,GND*%
X194380000Y-129820000D03*
%TO.P,U1,10,IO10*%
%TO.N,rele*%
X176880000Y-129820000D03*
%TO.P,U1,11,RXD*%
%TO.N,Net-(U1-RXD)*%
X176880000Y-131320000D03*
%TO.P,U1,12,TXD*%
%TO.N,Net-(U1-TXD)*%
X176880000Y-132820000D03*
%TO.P,U1,13,IO18*%
%TO.N,LP*%
X176880000Y-134320000D03*
%TO.P,U1,14,IO19*%
%TO.N,ReD*%
X176880000Y-135820000D03*
%TO.P,U1,15,IO3*%
%TO.N,INT*%
X176880000Y-137320000D03*
%TO.P,U1,16,IO2*%
%TO.N,sen*%
X176880000Y-138820000D03*
%TO.P,U1,17,IO1*%
%TO.N,unconnected-(U1-IO1-Pad17)*%
X176880000Y-140320000D03*
%TO.P,U1,18,IO0*%
%TO.N,unconnected-(U1-IO0-Pad18)*%
X176880000Y-141820000D03*
D21*
%TO.P,U1,19,GND*%
%TO.N,GND*%
X185770000Y-136720000D03*
%TO.P,U1,20,GND*%
X184670000Y-136720000D03*
%TO.P,U1,21,GND*%
X183570000Y-136720000D03*
%TO.P,U1,22,GND*%
X185770000Y-135620000D03*
%TO.P,U1,23,GND*%
X184670000Y-135620000D03*
%TO.P,U1,24,GND*%
X183570000Y-135620000D03*
%TO.P,U1,25,GND*%
X185770000Y-134520000D03*
%TO.P,U1,26,GND*%
X184670000Y-134520000D03*
%TO.P,U1,27,GND*%
X183570000Y-134520000D03*
D22*
%TO.P,U1,28,GND*%
X185220000Y-136720000D03*
%TO.P,U1,29,GND*%
X184120000Y-136720000D03*
%TO.P,U1,30,GND*%
X185770000Y-136170000D03*
%TO.P,U1,31,GND*%
X184670000Y-136170000D03*
%TO.P,U1,32,GND*%
X183570000Y-136170000D03*
%TO.P,U1,33,GND*%
X185220000Y-135620000D03*
%TO.P,U1,34,GND*%
X184120000Y-135620000D03*
%TO.P,U1,35,GND*%
X185770000Y-135070000D03*
%TO.P,U1,36,GND*%
X184670000Y-135070000D03*
%TO.P,U1,37,GND*%
X183570000Y-135070000D03*
%TO.P,U1,38,GND*%
X185220000Y-134520000D03*
%TO.P,U1,39,GND*%
X184120000Y-134520000D03*
%TD*%
D12*
%TO.P,REF3,1*%
%TO.N,N/C*%
X236000000Y-88510000D03*
%TD*%
D19*
%TO.P,Boot,1,Pin_1*%
%TO.N,unconnected-(Boot1-Pin_1-Pad1)*%
X177360000Y-107530000D03*
X184980000Y-107530000D03*
%TO.P,Boot,2,Pin_2*%
%TO.N,GND*%
X177360000Y-112610000D03*
X184980000Y-112610000D03*
%TD*%
D12*
%TO.P,REF3,1*%
%TO.N,N/C*%
X236130000Y-146150000D03*
%TD*%
D10*
%TO.P,LedPrueba,1,Pin_1*%
%TO.N,Net-(LedPrueba1-Pin_1)*%
X211950000Y-144125000D03*
D11*
%TO.P,LedPrueba,2,Pin_2*%
%TO.N,GND*%
X211950000Y-146665000D03*
%TD*%
D23*
%TO.P,C1,1*%
%TO.N,+5V*%
X216580000Y-117120000D03*
D24*
%TO.P,C1,2*%
%TO.N,GND*%
X218080000Y-117120000D03*
%TD*%
D25*
%TO.P,Alimentacion220V,1,Pin_1*%
%TO.N,AC*%
X235580000Y-99880000D03*
D26*
%TO.P,Alimentacion220V,2,Pin_2*%
%TO.N,Earth*%
X235580000Y-94800000D03*
%TD*%
D15*
%TO.P,R2,1*%
%TO.N,ReD*%
X199940000Y-95070000D03*
D16*
%TO.P,R2,2*%
%TO.N,Net-(Q1-B)*%
X205020000Y-95070000D03*
%TD*%
D13*
%TO.P,Q1,1,C*%
%TO.N,GND*%
X226730000Y-146040000D03*
D14*
%TO.P,Q1,2,B*%
%TO.N,Net-(Q1-B)*%
X228000000Y-146040000D03*
%TO.P,Q1,3,E*%
%TO.N,E*%
X229270000Y-146040000D03*
%TD*%
D23*
%TO.P,C2,1*%
%TO.N,+3V3*%
X210300000Y-118190000D03*
D24*
%TO.P,C2,2*%
%TO.N,GND*%
X211800000Y-118190000D03*
%TD*%
D10*
%TO.P,Uart,1,Pin_1*%
%TO.N,+5V*%
X212500000Y-129190000D03*
D11*
%TO.P,Uart,2,Pin_2*%
%TO.N,Net-(U1-RXD)*%
X212500000Y-131730000D03*
%TO.P,Uart,3,Pin_3*%
%TO.N,Net-(U1-TXD)*%
X212500000Y-134270000D03*
%TO.P,Uart,4,Pin_4*%
%TO.N,GND*%
X212500000Y-136810000D03*
%TD*%
D25*
%TO.P,Entrada,1,Pin_1*%
%TO.N,Net-(Entrada1-Pin_1)*%
X235740000Y-106130000D03*
D26*
%TO.P,Entrada,2,Pin_2*%
%TO.N,Net-(Entrada1-Pin_2)*%
X235740000Y-111210000D03*
%TD*%
D10*
%TO.P,Sensor,1,Pin_1*%
%TO.N,Net-(Sensor1-Pin_1)*%
X198130000Y-143865000D03*
D11*
%TO.P,Sensor,2,Pin_2*%
%TO.N,sen*%
X198130000Y-146405000D03*
%TD*%
D27*
%TO.P,R1,1*%
%TO.N,LP*%
X211065000Y-94710000D03*
%TO.P,R1,2*%
%TO.N,Net-(LedPrueba1-Pin_1)*%
X216145000Y-94710000D03*
%TD*%
D28*
%TO.P,Rele2,1*%
%TO.N,Net-(Entrada1-Pin_2)*%
X235507500Y-132630000D03*
D29*
%TO.P,Rele2,2*%
%TO.N,Net-(Q2-C)*%
X233507500Y-126630000D03*
%TO.P,Rele2,3*%
%TO.N,unconnected-(Rele2-Pad3)*%
X221307500Y-126630000D03*
%TO.P,Rele2,4*%
%TO.N,Net-(Entrada1-Pin_1)*%
X221307500Y-138630000D03*
%TO.P,Rele2,5*%
%TO.N,+5V*%
X233507500Y-138630000D03*
%TD*%
D10*
%TO.P,SensorAPDS9960,1,Pin_1*%
%TO.N,INT*%
X200740000Y-88080000D03*
D11*
%TO.P,SensorAPDS9960,2,Pin_2*%
%TO.N,SDA*%
X203280000Y-88080000D03*
%TO.P,SensorAPDS9960,3,Pin_3*%
%TO.N,SCL*%
X205820000Y-88080000D03*
%TO.P,SensorAPDS9960,4,Pin_4*%
%TO.N,GND*%
X208360000Y-88080000D03*
%TO.P,SensorAPDS9960,5,Pin_5*%
%TO.N,+3V3*%
X210900000Y-88080000D03*
%TD*%
D30*
%TO.P,PS1,1,AC1*%
%TO.N,AC*%
X222192400Y-104400000D03*
D31*
%TO.P,PS1,2,AC2*%
%TO.N,Earth*%
X222192400Y-109400000D03*
%TO.P,PS1,3,-VO*%
%TO.N,GND*%
X192792400Y-99200000D03*
%TO.P,PS1,4,+VO*%
%TO.N,+5V*%
X192792400Y-114600000D03*
%TD*%
D32*
%TO.N,GND*%
X202480000Y-124810000D03*
X230230000Y-108530000D03*
X186890000Y-132590000D03*
X232350000Y-121040000D03*
X203520000Y-131820000D03*
X195870000Y-120590000D03*
X181050000Y-139710000D03*
X197760000Y-129860000D03*
X225270000Y-111740000D03*
X228780000Y-138350000D03*
X215400000Y-122020000D03*
X198840000Y-110070000D03*
X230390000Y-99850000D03*
X187830000Y-94800000D03*
X189010000Y-134720000D03*
X189500000Y-125610000D03*
X200330000Y-145360000D03*
X221910000Y-114890000D03*
X198360000Y-106880000D03*
X188620000Y-121540000D03*
X224480000Y-97200000D03*
X232040000Y-136120000D03*
X222500000Y-89730000D03*
X217940000Y-89510000D03*
X190690000Y-89830000D03*
X185040000Y-139550000D03*
X206150000Y-90360000D03*
X195630000Y-89780000D03*
X203530000Y-107790000D03*
X204000000Y-137400000D03*
X197780000Y-125130000D03*
X203230000Y-120130000D03*
X207010000Y-121400000D03*
X231030000Y-114350000D03*
X222480000Y-131180000D03*
X186890000Y-103430000D03*
X222790000Y-121040000D03*
X200960000Y-122100000D03*
X191510000Y-105020000D03*
X216920000Y-100620000D03*
X185000000Y-89620000D03*
%TO.N,Earth*%
X230390000Y-94750000D03*
%TO.N,+3V3*%
X194300000Y-106250000D03*
X185360000Y-99110000D03*
%TO.N,SCL*%
X201030000Y-115590000D03*
X197160000Y-134310000D03*
X198160000Y-120130000D03*
%TO.N,SDA*%
X230950000Y-89570000D03*
%TO.N,INT*%
X179070000Y-137280000D03*
%TO.N,Net-(Q1-B)*%
X229600000Y-124380000D03*
%TO.N,boot*%
X197670000Y-131350000D03*
%TO.N,Net-(Sensor1-Pin_1)*%
X176730000Y-91920000D03*
X185450000Y-115630000D03*
X198140000Y-139940000D03*
%TO.N,sen*%
X182120000Y-138430000D03*
%TD*%
D33*
%TO.N,+5V*%
X203777000Y-99341900D02*
X204976900Y-98142000D01*
X236437000Y-92836900D02*
X213124900Y-92836900D01*
X233507500Y-138630000D02*
X233507500Y-137626000D01*
X207514800Y-114600000D02*
X209374800Y-116460000D01*
X192800000Y-114600000D02*
X207514800Y-114600000D01*
X212520000Y-129270000D02*
X212520000Y-128094900D01*
X218564300Y-118050400D02*
X219019700Y-117595000D01*
X213124900Y-88628800D02*
X213124900Y-92836900D01*
X189578100Y-86887000D02*
X211383100Y-86887000D01*
X214247500Y-109651000D02*
X214247500Y-107368000D01*
X178640000Y-96650000D02*
X179815100Y-96650000D01*
X208960800Y-109438300D02*
X208960800Y-104604800D01*
X204976900Y-98142000D02*
X209957300Y-98142000D01*
X214247500Y-107368000D02*
X211484300Y-104604800D01*
X210340000Y-110817500D02*
X210340000Y-111355100D01*
X213124900Y-94974400D02*
X213124900Y-92836900D01*
X239071400Y-95471300D02*
X236437000Y-92836900D01*
X211383100Y-86887000D02*
X213124900Y-88628800D01*
X219019700Y-114423200D02*
X214247500Y-109651000D01*
X233507500Y-137626000D02*
X239071400Y-132062100D01*
X208960800Y-104604800D02*
X208255600Y-104604800D01*
X208255600Y-104604800D02*
X203777000Y-100126200D01*
X209374800Y-114600000D02*
X209374800Y-116460000D01*
X209374800Y-112320300D02*
X210340000Y-111355100D01*
X219019700Y-117595000D02*
X219019700Y-114423200D01*
X210340000Y-110280000D02*
X210340000Y-110817500D01*
X211484300Y-104604800D02*
X208960800Y-104604800D01*
X216580000Y-117120000D02*
X217510400Y-118050400D01*
X209374800Y-114600000D02*
X209374800Y-112320300D01*
X209374800Y-116460000D02*
X209374800Y-124949700D01*
X209374800Y-124949700D02*
X212520000Y-128094900D01*
X239071400Y-132062100D02*
X239071400Y-95471300D01*
X217510400Y-118050400D02*
X218564300Y-118050400D01*
X203777000Y-100126200D02*
X203777000Y-99341900D01*
X210340000Y-110817500D02*
X208960800Y-109438300D01*
X209957300Y-98142000D02*
X213124900Y-94974400D01*
X179815100Y-96650000D02*
X189578100Y-86887000D01*
%TO.N,GND*%
X184670000Y-136720000D02*
X185220000Y-136720000D01*
X185220000Y-135620000D02*
X184670000Y-135620000D01*
X197760000Y-129860000D02*
X197720000Y-129820000D01*
X183570000Y-136170000D02*
X183570000Y-136720000D01*
X213797300Y-112606000D02*
X218080000Y-116888700D01*
X185770000Y-136170000D02*
X185770000Y-135620000D01*
X197800000Y-129820000D02*
X197760000Y-129860000D01*
X185220000Y-136720000D02*
X185770000Y-136720000D01*
X210340000Y-105680000D02*
X213797300Y-109137300D01*
X219540000Y-146020000D02*
X219752600Y-146020000D01*
X186445100Y-134520000D02*
X191145100Y-129820000D01*
X218080000Y-116888700D02*
X218080000Y-117120000D01*
X185770000Y-136720000D02*
X185770000Y-136170000D01*
X183570000Y-135070000D02*
X183570000Y-134520000D01*
X183570000Y-135620000D02*
X184120000Y-135620000D01*
X185770000Y-135620000D02*
X185220000Y-135620000D01*
X184120000Y-134520000D02*
X183570000Y-134520000D01*
X207772500Y-88080000D02*
X208360000Y-88080000D01*
X219752600Y-146258700D02*
X219752600Y-146020000D01*
X184670000Y-134520000D02*
X184120000Y-134520000D01*
X212520000Y-136890000D02*
X212355000Y-136890000D01*
X184670000Y-136170000D02*
X184670000Y-136720000D01*
X212011100Y-146885000D02*
X211980000Y-146885000D01*
X200960000Y-122100000D02*
X201260000Y-122100000D01*
X184120000Y-135620000D02*
X184670000Y-135620000D01*
X185220000Y-134520000D02*
X184670000Y-134520000D01*
X225270000Y-111740000D02*
X225060000Y-111740000D01*
X184670000Y-135070000D02*
X184670000Y-134520000D01*
X197720000Y-129820000D02*
X194380000Y-129820000D01*
X201260000Y-122100000D02*
X203230000Y-120130000D01*
X185770000Y-134520000D02*
X185220000Y-134520000D01*
X185770000Y-134520000D02*
X185770000Y-135070000D01*
X191145100Y-129820000D02*
X194380000Y-129820000D01*
X225060000Y-111740000D02*
X221910000Y-114890000D01*
X184120000Y-136720000D02*
X184670000Y-136720000D01*
X185770000Y-135070000D02*
X185770000Y-135620000D01*
X213797300Y-109137300D02*
X213797300Y-112606000D01*
X185770000Y-134520000D02*
X186445100Y-134520000D01*
X183570000Y-136720000D02*
X184120000Y-136720000D01*
%TO.N,AC*%
X235670000Y-99770000D02*
X233844900Y-99770000D01*
X233844900Y-99770000D02*
X229214900Y-104400000D01*
X229214900Y-104400000D02*
X222200000Y-104400000D01*
%TO.N,Earth*%
X221071700Y-103525200D02*
X229906900Y-94690000D01*
X230330000Y-94690000D02*
X230390000Y-94750000D01*
X221071700Y-108271700D02*
X221071700Y-103525200D01*
X222200000Y-109400000D02*
X221071700Y-108271700D01*
X230450000Y-94690000D02*
X235670000Y-94690000D01*
X230390000Y-94750000D02*
X230450000Y-94690000D01*
X229906900Y-94690000D02*
X230330000Y-94690000D01*
%TO.N,+3V3*%
X205338000Y-129044400D02*
X187851800Y-129044400D01*
X210900000Y-89255100D02*
X212224400Y-90579500D01*
X213741000Y-122556100D02*
X213741000Y-130445200D01*
X194380000Y-141820000D02*
X193804800Y-141820000D01*
X191713100Y-123720000D02*
X194500000Y-123720000D01*
X210300000Y-119115100D02*
X213741000Y-122556100D01*
X212224400Y-95191500D02*
X210107900Y-97308000D01*
X191713100Y-110769200D02*
X191713100Y-121020000D01*
X204096400Y-123720000D02*
X210821600Y-130445200D01*
X194221150Y-108261150D02*
X191713100Y-110769200D01*
X185360000Y-99110000D02*
X185140000Y-99120000D01*
X185010000Y-123720000D02*
X191713100Y-123720000D01*
X213741000Y-134805100D02*
X213020900Y-135525200D01*
X210340000Y-107980000D02*
X211694400Y-109334400D01*
X212224400Y-90579500D02*
X212224400Y-95191500D01*
X213020900Y-135525200D02*
X211818800Y-135525200D01*
X192304800Y-140320000D02*
X191432400Y-139447600D01*
X211818800Y-135525200D02*
X205338000Y-129044400D01*
X194300000Y-108182300D02*
X194221150Y-108261150D01*
X210300000Y-118190000D02*
X210300000Y-119115100D01*
X193955200Y-132820000D02*
X189380000Y-137395200D01*
X211694400Y-115870500D02*
X210300000Y-117264900D01*
X185130000Y-99110000D02*
X185360000Y-99110000D01*
X210900000Y-88080000D02*
X210900000Y-89255100D01*
X177390000Y-123720000D02*
X185010000Y-123720000D01*
X194380000Y-140320000D02*
X192304800Y-140320000D01*
X194300000Y-106250000D02*
X194300000Y-108182300D01*
X193955000Y-132820000D02*
X194380000Y-132820000D01*
X185130000Y-94960000D02*
X185130000Y-96660000D01*
X185130000Y-96660000D02*
X185130000Y-99110000D01*
X191432400Y-139447600D02*
X189380000Y-137395200D01*
X187240000Y-92850000D02*
X185130000Y-94960000D01*
X210821600Y-130445200D02*
X213741000Y-130445200D01*
X213741000Y-130445200D02*
X213741000Y-134805100D01*
X205174300Y-97308000D02*
X194221150Y-108261150D01*
X194380000Y-132820000D02*
X193955200Y-132820000D01*
X193804800Y-141820000D02*
X191432400Y-139447600D01*
X194413100Y-123720000D02*
X191713100Y-121020000D01*
X210107900Y-97308000D02*
X205174300Y-97308000D01*
X194500000Y-123720000D02*
X204096400Y-123720000D01*
X182998700Y-137395200D02*
X189380000Y-137395200D01*
X185130000Y-96660000D02*
X185130000Y-96810000D01*
X194500000Y-123720000D02*
X194413100Y-123720000D01*
X187851800Y-129044400D02*
X182894800Y-134001400D01*
X182894800Y-134001400D02*
X182894800Y-137291300D01*
X211694400Y-109334400D02*
X211694400Y-115870500D01*
X182894800Y-137291300D02*
X182998700Y-137395200D01*
X210300000Y-117264900D02*
X210300000Y-118190000D01*
%TO.N,ReD*%
X175354700Y-122869100D02*
X177472400Y-120751400D01*
X175804900Y-135820000D02*
X175354700Y-135369800D01*
X175354700Y-135369800D02*
X175354700Y-122869100D01*
X177472400Y-120751400D02*
X184412600Y-120751400D01*
X184412600Y-120751400D02*
X186985900Y-118178100D01*
X176880000Y-135820000D02*
X175804900Y-135820000D01*
X186985900Y-108024100D02*
X199940000Y-95070000D01*
X186985900Y-118178100D02*
X186985900Y-108024100D01*
%TO.N,SCL*%
X197160000Y-134350000D02*
X197160000Y-134350000D01*
X197120000Y-134310000D02*
X197160000Y-134310000D01*
X198160000Y-120130000D02*
X198160000Y-118450000D01*
X201030000Y-115590000D02*
X200790000Y-115820000D01*
X198160000Y-118450000D02*
X201030000Y-115590000D01*
X197130000Y-134320000D02*
X197120000Y-134310000D01*
X197160000Y-134310000D02*
X197160000Y-134350000D01*
X194380000Y-134320000D02*
X197130000Y-134320000D01*
%TO.N,SDA*%
X197070300Y-135820000D02*
X209334000Y-148083700D01*
X178238000Y-100460000D02*
X189481400Y-100460000D01*
X230950000Y-89570000D02*
X230676600Y-89570000D01*
X228657400Y-148083700D02*
X239571000Y-137170100D01*
X232711100Y-91604500D02*
X230950000Y-89843400D01*
X194380000Y-135820000D02*
X197070300Y-135820000D01*
X239571000Y-95312000D02*
X235863500Y-91604500D01*
X239571000Y-137170100D02*
X239571000Y-95312000D01*
X209334000Y-148083700D02*
X228657400Y-148083700D01*
X202104900Y-88911000D02*
X202104900Y-88080000D01*
X186713900Y-86410000D02*
X177454400Y-95669500D01*
X189481400Y-100460000D02*
X200108300Y-89833100D01*
X177454400Y-95669500D02*
X177454400Y-99676400D01*
X230676600Y-89570000D02*
X227516600Y-86410000D01*
X235863500Y-91604500D02*
X232711100Y-91604500D01*
X200108300Y-89833100D02*
X201182800Y-89833100D01*
X227516600Y-86410000D02*
X186713900Y-86410000D01*
X203280000Y-88080000D02*
X202104900Y-88080000D01*
X230950000Y-89843400D02*
X230950000Y-89570000D01*
X201182800Y-89833100D02*
X202104900Y-88911000D01*
X177454400Y-99676400D02*
X178238000Y-100460000D01*
%TO.N,INT*%
X176880000Y-137320000D02*
X179030000Y-137320000D01*
X179030000Y-137320000D02*
X179070000Y-137280000D01*
D34*
%TO.N,Net-(Entrada1-Pin_1)*%
X225928000Y-134010000D02*
X225928000Y-115862000D01*
D33*
X221307500Y-138630000D02*
X222882600Y-138630000D01*
D34*
X225928000Y-115862000D02*
X235720000Y-106070000D01*
D33*
X222882600Y-137055400D02*
X222882600Y-138630000D01*
D34*
X222882600Y-137055400D02*
X225928000Y-134010000D01*
X221308000Y-138630000D02*
X222882600Y-137055400D01*
%TO.N,Net-(Entrada1-Pin_2)*%
X235720000Y-111150000D02*
X235720000Y-113840000D01*
X237200000Y-130938000D02*
X237200000Y-124510000D01*
X235508000Y-132630000D02*
X236354000Y-131784000D01*
D33*
X237180000Y-124490000D02*
X237180000Y-124550000D01*
X236353500Y-131784000D02*
X235507500Y-132630000D01*
X236354000Y-131784000D02*
X236353500Y-131784000D01*
D34*
X237180000Y-115300000D02*
X237180000Y-124490000D01*
X236354000Y-131784000D02*
X237200000Y-130938000D01*
X235720000Y-113840000D02*
X237180000Y-115300000D01*
D33*
X237200000Y-124510000D02*
X237180000Y-124490000D01*
%TO.N,Net-(LedPrueba1-Pin_1)*%
X219967400Y-123448200D02*
X219967400Y-98532400D01*
X211980000Y-144345000D02*
X211980000Y-143169900D01*
X219019700Y-136130200D02*
X219019700Y-124395900D01*
X211980000Y-143169900D02*
X219019700Y-136130200D01*
X219967400Y-98532400D02*
X216145000Y-94710000D01*
X219019700Y-124395900D02*
X219967400Y-123448200D01*
%TO.N,rele*%
X188336000Y-111154000D02*
X199760000Y-99730000D01*
X176332600Y-129272600D02*
X176332600Y-123315600D01*
X177996600Y-121651600D02*
X184870700Y-121651600D01*
X188336000Y-118186300D02*
X188336000Y-111154000D01*
X176880000Y-129820000D02*
X176332600Y-129272600D01*
X184870700Y-121651600D02*
X188336000Y-118186300D01*
X176332600Y-123315600D02*
X177996600Y-121651600D01*
%TO.N,Net-(Q2-C)*%
X217000000Y-145581500D02*
X217000000Y-146020000D01*
X233507500Y-129074000D02*
X217000000Y-145581500D01*
X233507500Y-126630000D02*
X233507500Y-129074000D01*
%TO.N,boot*%
X197620000Y-131320000D02*
X197590000Y-131320000D01*
X194380000Y-131320000D02*
X197560000Y-131320000D01*
X197670000Y-131350000D02*
X197620000Y-131320000D01*
X197560000Y-131320000D02*
X197670000Y-131350000D01*
%TO.N,Net-(Q2-B)*%
X210995500Y-145520200D02*
X210804900Y-145329600D01*
X218270000Y-146020000D02*
X218270000Y-147095100D01*
X218542200Y-124143400D02*
X219508800Y-123176800D01*
X219508800Y-123176800D02*
X219508800Y-107489000D01*
X218542200Y-134046900D02*
X218542200Y-124143400D01*
X219508800Y-107489000D02*
X211749800Y-99730000D01*
X214109700Y-145520200D02*
X210995500Y-145520200D01*
X218270000Y-147095100D02*
X215684600Y-147095100D01*
X211749800Y-99730000D02*
X204840000Y-99730000D01*
X215684600Y-147095100D02*
X214109700Y-145520200D01*
X210804900Y-145329600D02*
X210804900Y-141784200D01*
X210804900Y-141784200D02*
X218542200Y-134046900D01*
%TO.N,LP*%
X201182000Y-96792700D02*
X208982300Y-96792700D01*
X176880000Y-134320000D02*
X175804900Y-134320000D01*
X175804900Y-134320000D02*
X175804900Y-123136700D01*
X184606100Y-121201500D02*
X187436000Y-118371600D01*
X187436000Y-110538700D02*
X201182000Y-96792700D01*
X187436000Y-118371600D02*
X187436000Y-110538700D01*
X208982300Y-96792700D02*
X211065000Y-94710000D01*
X175804900Y-123136700D02*
X177740100Y-121201500D01*
X177740100Y-121201500D02*
X184606100Y-121201500D01*
%TO.N,Net-(U1-RXD)*%
X183586900Y-128144200D02*
X207679100Y-128144200D01*
X207679100Y-128144200D02*
X211344900Y-131810000D01*
X176880000Y-131320000D02*
X180411100Y-131320000D01*
X212520000Y-131810000D02*
X211344900Y-131810000D01*
X180411100Y-131320000D02*
X183586900Y-128144200D01*
%TO.N,Net-(U1-TXD)*%
X212520000Y-134350000D02*
X211344900Y-134350000D01*
X179836100Y-132820000D02*
X176880000Y-132820000D01*
X211344900Y-134350000D02*
X205589200Y-128594300D01*
X205589200Y-128594300D02*
X184061800Y-128594300D01*
X184061800Y-128594300D02*
X179836100Y-132820000D01*
%TO.N,Net-(Sensor1-Pin_1)*%
X185440000Y-115550000D02*
X185360000Y-115550000D01*
X175550000Y-114230000D02*
X176590000Y-115270000D01*
X175550000Y-92950000D02*
X175550000Y-114230000D01*
X198130000Y-139950000D02*
X198130000Y-143865000D01*
X176590000Y-115270000D02*
X176870000Y-115550000D01*
X176870000Y-115550000D02*
X185280000Y-115550000D01*
X198140000Y-139940000D02*
X198130000Y-139950000D01*
X185450000Y-115630000D02*
X185440000Y-115550000D01*
X176710000Y-91790000D02*
X175550000Y-92950000D01*
X185280000Y-115550000D02*
X185450000Y-115630000D01*
%TO.N,sen*%
X182120000Y-138430000D02*
X181730000Y-138820000D01*
X181730000Y-138820000D02*
X176880000Y-138820000D01*
%TD*%
M02*
