M48
; DRILL file {KiCad 7.0.7} date Mon Oct 27 22:40:19 2025
; FORMAT={-:-/ absolute / inch / decimal}
; #@! TF.CreationDate,2025-10-27T22:40:19+01:00
; #@! TF.GenerationSoftware,Kicad,Pcbnew,7.0.7
; #@! TF.FileFunction,MixedPlating,1,2
FMAT,2
INCH
; #@! TA.AperFunction,Plated,PTH,ComponentDrill
T1C0.0118
; #@! TA.AperFunction,Plated,PTH,ViaDrill
T2C0.0157
; #@! TA.AperFunction,Plated,PTH,ComponentDrill
T3C0.0236
; #@! TA.AperFunction,Plated,PTH,ComponentDrill
T4C0.0276
; #@! TA.AperFunction,Plated,PTH,ComponentDrill
T5C0.0295
; #@! TA.AperFunction,Plated,PTH,ComponentDrill
T6C0.0315
; #@! TA.AperFunction,Plated,PTH,ComponentDrill
T7C0.0320
; #@! TA.AperFunction,Plated,PTH,ComponentDrill
T8C0.0394
; #@! TA.AperFunction,Plated,PTH,ComponentDrill
T9C0.0512
; #@! TA.AperFunction,Plated,PTH,ComponentDrill
T10C0.0598
; #@! TA.AperFunction,Plated,PTH,ComponentDrill
T11C0.0984
%
G90
G05
T1
X7.2272Y-5.3177
X7.2272Y-5.361
X7.2488Y-5.2961
X7.2488Y-5.3394
X7.2488Y-5.3827
X7.2705Y-5.3177
X7.2705Y-5.361
X7.2921Y-5.2961
X7.2921Y-5.3394
X7.2921Y-5.3827
X7.3138Y-5.3177
X7.3138Y-5.361
T2
X6.9579Y-3.6189
X7.05Y-5.4047
X7.128Y-5.5004
X7.1701Y-5.45
X7.2835Y-3.5283
X7.285Y-5.4941
X7.2976Y-3.902
X7.3012Y-4.5524
X7.3579Y-4.072
X7.3579Y-5.2201
X7.3949Y-3.7323
X7.426Y-4.785
X7.4413Y-5.3039
X7.4606Y-4.9453
X7.5075Y-3.5366
X7.5398Y-4.1346
X7.6496Y-4.1831
X7.702Y-3.5346
X7.7114Y-4.7476
X7.7622Y-5.2878
X7.7823Y-5.1713
X7.7858Y-5.1126
X7.7866Y-4.9264
X7.8008Y-5.5094
X7.8016Y-4.7295
X7.8094Y-4.2079
X7.8283Y-4.3335
X7.887Y-5.7228
X7.9118Y-4.8071
X7.9146Y-4.5508
X7.9717Y-4.9138
X8.0012Y-4.7295
X8.0126Y-5.1898
X8.013Y-4.2437
X8.0315Y-5.4094
X8.1161Y-3.5575
X8.15Y-4.7795
X8.4803Y-4.8039
X8.5402Y-3.9614
X8.5803Y-3.524
X8.7366Y-4.5232
X8.7591Y-5.1646
X8.7598Y-3.5327
X8.7713Y-4.7654
X8.8378Y-3.8268
X8.8689Y-4.3992
X9.0071Y-5.4469
X9.0394Y-4.8969
X9.0642Y-4.2728
X9.0705Y-3.7303
X9.0705Y-3.9311
X9.0925Y-3.5264
X9.0957Y-4.502
X9.1354Y-5.3591
X9.1476Y-4.7654
T3
X8.2795Y-4.6531
X8.3386Y-4.6531
X8.5268Y-4.611
X8.5858Y-4.611
T4
X7.3717Y-3.6555
X7.5717Y-3.6555
X7.8646Y-3.9264
X7.8717Y-3.7429
X8.0646Y-3.9264
X8.0717Y-3.7429
T5
X8.5433Y-5.7488
X8.5933Y-5.7488
X8.6433Y-5.7488
X8.9264Y-5.7496
X8.9764Y-5.7496
X9.0264Y-5.7496
T6
X8.3096Y-3.7287
X8.5096Y-3.7287
T7
X6.9815Y-4.6717
X6.9815Y-4.8717
X6.9827Y-4.2335
X6.9827Y-4.4335
X7.2815Y-4.6717
X7.2815Y-4.8717
X7.2827Y-4.2335
X7.2827Y-4.4335
T8
X7.0378Y-3.8035
X7.0378Y-3.9035
X7.0378Y-4.0035
X7.5903Y-3.9055
X7.5903Y-4.5118
X7.8004Y-5.664
X7.8004Y-5.764
X7.9031Y-3.4677
X8.0031Y-3.4677
X8.1031Y-3.4677
X8.2031Y-3.4677
X8.3031Y-3.4677
X8.3445Y-5.6742
X8.3445Y-5.7742
X8.3661Y-5.0862
X8.3661Y-5.1862
X8.3661Y-5.2862
X8.3661Y-5.3862
X8.7477Y-4.1102
X8.7477Y-4.3071
T9
X8.7129Y-4.9854
X8.7129Y-5.4579
X9.1932Y-4.9854
X9.1932Y-5.4579
X9.2719Y-5.2217
T10
X9.2748Y-3.7323
X9.2748Y-3.9323
X9.2811Y-4.1783
X9.2811Y-4.3783
T11
X7.0567Y-3.4945
X9.2913Y-3.4846
X9.2965Y-5.7539
T0
M30
