%TF.GenerationSoftware,KiCad,Pcbnew,7.0.7*%
%TF.CreationDate,2025-10-27T22:40:16+01:00*%
%TF.ProjectId,pcb1,70636231-2e6b-4696-9361-645f70636258,rev?*%
%TF.SameCoordinates,Original*%
%TF.FileFunction,Legend,Bot*%
%TF.FilePolarity,Positive*%
%FSLAX46Y46*%
G04 Gerber Fmt 4.6, Leading zero omitted, Abs format (unit mm)*
G04 Created by KiCad (PCBNEW 7.0.7) date 2025-10-27 22:40:16*
%MOMM*%
%LPD*%
G01*
G04 APERTURE LIST*
%ADD10C,0.150000*%
%ADD11C,0.127000*%
%ADD12C,0.200000*%
G04 APERTURE END LIST*
D10*
X222531685Y-96419819D02*
X222531685Y-95419819D01*
X222531685Y-95419819D02*
X222150733Y-95419819D01*
X222150733Y-95419819D02*
X222055495Y-95467438D01*
X222055495Y-95467438D02*
X222007876Y-95515057D01*
X222007876Y-95515057D02*
X221960257Y-95610295D01*
X221960257Y-95610295D02*
X221960257Y-95753152D01*
X221960257Y-95753152D02*
X222007876Y-95848390D01*
X222007876Y-95848390D02*
X222055495Y-95896009D01*
X222055495Y-95896009D02*
X222150733Y-95943628D01*
X222150733Y-95943628D02*
X222531685Y-95943628D01*
X221579304Y-96372200D02*
X221436447Y-96419819D01*
X221436447Y-96419819D02*
X221198352Y-96419819D01*
X221198352Y-96419819D02*
X221103114Y-96372200D01*
X221103114Y-96372200D02*
X221055495Y-96324580D01*
X221055495Y-96324580D02*
X221007876Y-96229342D01*
X221007876Y-96229342D02*
X221007876Y-96134104D01*
X221007876Y-96134104D02*
X221055495Y-96038866D01*
X221055495Y-96038866D02*
X221103114Y-95991247D01*
X221103114Y-95991247D02*
X221198352Y-95943628D01*
X221198352Y-95943628D02*
X221388828Y-95896009D01*
X221388828Y-95896009D02*
X221484066Y-95848390D01*
X221484066Y-95848390D02*
X221531685Y-95800771D01*
X221531685Y-95800771D02*
X221579304Y-95705533D01*
X221579304Y-95705533D02*
X221579304Y-95610295D01*
X221579304Y-95610295D02*
X221531685Y-95515057D01*
X221531685Y-95515057D02*
X221484066Y-95467438D01*
X221484066Y-95467438D02*
X221388828Y-95419819D01*
X221388828Y-95419819D02*
X221150733Y-95419819D01*
X221150733Y-95419819D02*
X221007876Y-95467438D01*
X220055495Y-96419819D02*
X220626923Y-96419819D01*
X220341209Y-96419819D02*
X220341209Y-95419819D01*
X220341209Y-95419819D02*
X220436447Y-95562676D01*
X220436447Y-95562676D02*
X220531685Y-95657914D01*
X220531685Y-95657914D02*
X220626923Y-95705533D01*
D11*
%TO.C,PS1*%
X224492400Y-116900000D02*
X190492400Y-116900000D01*
X224492400Y-96900000D02*
X224492400Y-116900000D01*
X190492400Y-116900000D02*
X190492400Y-96900000D01*
X190492400Y-96900000D02*
X224492400Y-96900000D01*
D12*
X226042600Y-104200000D02*
G75*
G03*
X226042600Y-104200000I-100000J0D01*
G01*
%TD*%
M02*
