%TF.GenerationSoftware,KiCad,Pcbnew,7.0.7*%
%TF.CreationDate,2025-10-27T22:40:16+01:00*%
%TF.ProjectId,pcb1,70636231-2e6b-4696-9361-645f70636258,rev?*%
%TF.SameCoordinates,Original*%
%TF.FileFunction,Copper,L2,Bot*%
%TF.FilePolarity,Positive*%
%FSLAX46Y46*%
G04 Gerber Fmt 4.6, Leading zero omitted, Abs format (unit mm)*
G04 Created by KiCad (PCBNEW 7.0.7) date 2025-10-27 22:40:16*
%MOMM*%
%LPD*%
G01*
G04 APERTURE LIST*
%TA.AperFunction,ComponentPad*%
%ADD10R,1.700000X1.700000*%
%TD*%
%TA.AperFunction,ComponentPad*%
%ADD11O,1.700000X1.700000*%
%TD*%
%TA.AperFunction,ComponentPad*%
%ADD12C,5.000000*%
%TD*%
%TA.AperFunction,ComponentPad*%
%ADD13R,1.050000X1.500000*%
%TD*%
%TA.AperFunction,ComponentPad*%
%ADD14O,1.050000X1.500000*%
%TD*%
%TA.AperFunction,ComponentPad*%
%ADD15C,1.400000*%
%TD*%
%TA.AperFunction,ComponentPad*%
%ADD16O,1.400000X1.400000*%
%TD*%
%TA.AperFunction,ComponentPad*%
%ADD17C,1.397000*%
%TD*%
%TA.AperFunction,ComponentPad*%
%ADD18C,0.400000*%
%TD*%
%TA.AperFunction,ComponentPad*%
%ADD19R,1.200000X1.200000*%
%TD*%
%TA.AperFunction,ComponentPad*%
%ADD20C,1.200000*%
%TD*%
%TA.AperFunction,ComponentPad*%
%ADD21R,3.000000X3.000000*%
%TD*%
%TA.AperFunction,ComponentPad*%
%ADD22C,3.000000*%
%TD*%
%TA.AperFunction,ComponentPad*%
%ADD23C,1.600000*%
%TD*%
%TA.AperFunction,ComponentPad*%
%ADD24R,2.500000X2.500000*%
%TD*%
%TA.AperFunction,ComponentPad*%
%ADD25O,2.500000X2.500000*%
%TD*%
%TA.AperFunction,ComponentPad*%
%ADD26R,1.508000X1.508000*%
%TD*%
%TA.AperFunction,ComponentPad*%
%ADD27C,1.508000*%
%TD*%
%TA.AperFunction,ViaPad*%
%ADD28C,0.800000*%
%TD*%
%TA.AperFunction,Conductor*%
%ADD29C,0.250000*%
%TD*%
G04 APERTURE END LIST*
D10*
%TO.P,Rele,1,Pin_1*%
%TO.N,+5V*%
X178760000Y-96610000D03*
D11*
%TO.P,Rele,2,Pin_2*%
%TO.N,E*%
X178760000Y-99150000D03*
%TO.P,Rele,3,Pin_3*%
%TO.N,GND*%
X178760000Y-101690000D03*
%TD*%
D12*
%TO.P,REF3,1*%
%TO.N,N/C*%
X179240000Y-88760000D03*
%TD*%
D13*
%TO.P,Q2,1,C*%
%TO.N,Net-(Q2-C)*%
X217000000Y-146020000D03*
D14*
%TO.P,Q2,2,B*%
%TO.N,Net-(Q2-B)*%
X218270000Y-146020000D03*
%TO.P,Q2,3,E*%
%TO.N,GND*%
X219540000Y-146020000D03*
%TD*%
D15*
%TO.P,R4,1*%
%TO.N,Net-(Sensor1-Pin_1)*%
X192320000Y-92850000D03*
D16*
%TO.P,R4,2*%
%TO.N,+3V3*%
X187240000Y-92850000D03*
%TD*%
D17*
%TO.P,Reset,1,Pin_1*%
%TO.N,GND*%
X177330000Y-118660000D03*
X184950000Y-118660000D03*
%TO.P,Reset,2,Pin_2*%
%TO.N,+3V3*%
X177330000Y-123740000D03*
X184950000Y-123740000D03*
%TD*%
D15*
%TO.P,R3,1*%
%TO.N,rele*%
X199760000Y-99730000D03*
D16*
%TO.P,R3,2*%
%TO.N,Net-(Q2-B)*%
X204840000Y-99730000D03*
%TD*%
D18*
%TO.P,U1,28,GND*%
%TO.N,GND*%
X185220000Y-136720000D03*
%TO.P,U1,29,GND*%
X184120000Y-136720000D03*
%TO.P,U1,30,GND*%
X185770000Y-136170000D03*
%TO.P,U1,31,GND*%
X184670000Y-136170000D03*
%TO.P,U1,32,GND*%
X183570000Y-136170000D03*
%TO.P,U1,33,GND*%
X185220000Y-135620000D03*
%TO.P,U1,34,GND*%
X184120000Y-135620000D03*
%TO.P,U1,35,GND*%
X185770000Y-135070000D03*
%TO.P,U1,36,GND*%
X184670000Y-135070000D03*
%TO.P,U1,37,GND*%
X183570000Y-135070000D03*
%TO.P,U1,38,GND*%
X185220000Y-134520000D03*
%TO.P,U1,39,GND*%
X184120000Y-134520000D03*
%TD*%
D12*
%TO.P,REF3,1*%
%TO.N,N/C*%
X236000000Y-88510000D03*
%TD*%
D17*
%TO.P,Boot,1,Pin_1*%
%TO.N,unconnected-(Boot1-Pin_1-Pad1)*%
X177360000Y-107530000D03*
X184980000Y-107530000D03*
%TO.P,Boot,2,Pin_2*%
%TO.N,GND*%
X177360000Y-112610000D03*
X184980000Y-112610000D03*
%TD*%
D12*
%TO.P,REF3,1*%
%TO.N,N/C*%
X236130000Y-146150000D03*
%TD*%
D10*
%TO.P,LedPrueba,1,Pin_1*%
%TO.N,Net-(LedPrueba1-Pin_1)*%
X211950000Y-144125000D03*
D11*
%TO.P,LedPrueba,2,Pin_2*%
%TO.N,GND*%
X211950000Y-146665000D03*
%TD*%
D19*
%TO.P,C1,1*%
%TO.N,+5V*%
X216580000Y-117120000D03*
D20*
%TO.P,C1,2*%
%TO.N,GND*%
X218080000Y-117120000D03*
%TD*%
D21*
%TO.P,Alimentacion220V,1,Pin_1*%
%TO.N,AC*%
X235580000Y-99880000D03*
D22*
%TO.P,Alimentacion220V,2,Pin_2*%
%TO.N,Earth*%
X235580000Y-94800000D03*
%TD*%
D15*
%TO.P,R2,1*%
%TO.N,ReD*%
X199940000Y-95070000D03*
D16*
%TO.P,R2,2*%
%TO.N,Net-(Q1-B)*%
X205020000Y-95070000D03*
%TD*%
D13*
%TO.P,Q1,1,C*%
%TO.N,GND*%
X226730000Y-146040000D03*
D14*
%TO.P,Q1,2,B*%
%TO.N,Net-(Q1-B)*%
X228000000Y-146040000D03*
%TO.P,Q1,3,E*%
%TO.N,E*%
X229270000Y-146040000D03*
%TD*%
D19*
%TO.P,C2,1*%
%TO.N,+3V3*%
X210300000Y-118190000D03*
D20*
%TO.P,C2,2*%
%TO.N,GND*%
X211800000Y-118190000D03*
%TD*%
D10*
%TO.P,Uart,1,Pin_1*%
%TO.N,+5V*%
X212500000Y-129190000D03*
D11*
%TO.P,Uart,2,Pin_2*%
%TO.N,Net-(U1-RXD)*%
X212500000Y-131730000D03*
%TO.P,Uart,3,Pin_3*%
%TO.N,Net-(U1-TXD)*%
X212500000Y-134270000D03*
%TO.P,Uart,4,Pin_4*%
%TO.N,GND*%
X212500000Y-136810000D03*
%TD*%
D21*
%TO.P,Entrada,1,Pin_1*%
%TO.N,Net-(Entrada1-Pin_1)*%
X235740000Y-106130000D03*
D22*
%TO.P,Entrada,2,Pin_2*%
%TO.N,Net-(Entrada1-Pin_2)*%
X235740000Y-111210000D03*
%TD*%
D10*
%TO.P,Sensor,1,Pin_1*%
%TO.N,Net-(Sensor1-Pin_1)*%
X198130000Y-143865000D03*
D11*
%TO.P,Sensor,2,Pin_2*%
%TO.N,sen*%
X198130000Y-146405000D03*
%TD*%
D23*
%TO.P,R1,1*%
%TO.N,LP*%
X211065000Y-94710000D03*
%TO.P,R1,2*%
%TO.N,Net-(LedPrueba1-Pin_1)*%
X216145000Y-94710000D03*
%TD*%
D24*
%TO.P,Rele2,1*%
%TO.N,Net-(Entrada1-Pin_2)*%
X235507500Y-132630000D03*
D25*
%TO.P,Rele2,2*%
%TO.N,Net-(Q2-C)*%
X233507500Y-126630000D03*
%TO.P,Rele2,3*%
%TO.N,unconnected-(Rele2-Pad3)*%
X221307500Y-126630000D03*
%TO.P,Rele2,4*%
%TO.N,Net-(Entrada1-Pin_1)*%
X221307500Y-138630000D03*
%TO.P,Rele2,5*%
%TO.N,+5V*%
X233507500Y-138630000D03*
%TD*%
D10*
%TO.P,SensorAPDS9960,1,Pin_1*%
%TO.N,INT*%
X200740000Y-88080000D03*
D11*
%TO.P,SensorAPDS9960,2,Pin_2*%
%TO.N,SDA*%
X203280000Y-88080000D03*
%TO.P,SensorAPDS9960,3,Pin_3*%
%TO.N,SCL*%
X205820000Y-88080000D03*
%TO.P,SensorAPDS9960,4,Pin_4*%
%TO.N,GND*%
X208360000Y-88080000D03*
%TO.P,SensorAPDS9960,5,Pin_5*%
%TO.N,+3V3*%
X210900000Y-88080000D03*
%TD*%
D26*
%TO.P,PS1,1,AC1*%
%TO.N,AC*%
X222192400Y-104400000D03*
D27*
%TO.P,PS1,2,AC2*%
%TO.N,Earth*%
X222192400Y-109400000D03*
%TO.P,PS1,3,-VO*%
%TO.N,GND*%
X192792400Y-99200000D03*
%TO.P,PS1,4,+VO*%
%TO.N,+5V*%
X192792400Y-114600000D03*
%TD*%
D28*
%TO.N,GND*%
X202480000Y-124810000D03*
X230230000Y-108530000D03*
X186890000Y-132590000D03*
X232350000Y-121040000D03*
X203520000Y-131820000D03*
X195870000Y-120590000D03*
X181050000Y-139710000D03*
X197760000Y-129860000D03*
X225270000Y-111740000D03*
X228780000Y-138350000D03*
X215400000Y-122020000D03*
X198840000Y-110070000D03*
X230390000Y-99850000D03*
X187830000Y-94800000D03*
X189010000Y-134720000D03*
X189500000Y-125610000D03*
X200330000Y-145360000D03*
X221910000Y-114890000D03*
X198360000Y-106880000D03*
X188620000Y-121540000D03*
X224480000Y-97200000D03*
X232040000Y-136120000D03*
X222500000Y-89730000D03*
X217940000Y-89510000D03*
X190690000Y-89830000D03*
X185040000Y-139550000D03*
X206150000Y-90360000D03*
X195630000Y-89780000D03*
X203530000Y-107790000D03*
X204000000Y-137400000D03*
X197780000Y-125130000D03*
X203230000Y-120130000D03*
X207010000Y-121400000D03*
X231030000Y-114350000D03*
X222480000Y-131180000D03*
X186890000Y-103430000D03*
X222790000Y-121040000D03*
X200960000Y-122100000D03*
X191510000Y-105020000D03*
X216920000Y-100620000D03*
X185000000Y-89620000D03*
%TO.N,Earth*%
X230390000Y-94750000D03*
%TO.N,+3V3*%
X194300000Y-106250000D03*
X185360000Y-99110000D03*
%TO.N,SCL*%
X201030000Y-115590000D03*
X197160000Y-134310000D03*
X198160000Y-120130000D03*
%TO.N,SDA*%
X230950000Y-89570000D03*
%TO.N,INT*%
X179070000Y-137280000D03*
%TO.N,Net-(Q1-B)*%
X229600000Y-124380000D03*
%TO.N,boot*%
X197670000Y-131350000D03*
%TO.N,Net-(Sensor1-Pin_1)*%
X176730000Y-91920000D03*
X185450000Y-115630000D03*
X198140000Y-139940000D03*
%TO.N,sen*%
X182120000Y-138430000D03*
%TD*%
D29*
%TO.N,+3V3*%
X194310000Y-106250000D02*
X194255000Y-106195000D01*
X194300000Y-106250000D02*
X194310000Y-106250000D01*
X185360000Y-99110000D02*
X187170000Y-99110000D01*
X187170000Y-99110000D02*
X194300000Y-106240000D01*
X194300000Y-106240000D02*
X194300000Y-106250000D01*
%TO.N,SCL*%
X197160000Y-134310000D02*
X199570000Y-131900000D01*
X199570000Y-131900000D02*
X199570000Y-121460000D01*
X205865000Y-110755000D02*
X205865000Y-97364569D01*
X201030000Y-115590000D02*
X205865000Y-110755000D01*
X198160000Y-120130000D02*
X198320000Y-120210000D01*
X199570000Y-121460000D02*
X198160000Y-120130000D01*
X205865000Y-97364569D02*
X203995000Y-95494569D01*
X203995000Y-95494569D02*
X203995000Y-89905000D01*
X203995000Y-89905000D02*
X205820000Y-88080000D01*
%TO.N,INT*%
X179070000Y-137280000D02*
X179010000Y-137280000D01*
X200740000Y-88080000D02*
X190805000Y-98015000D01*
X177465000Y-105685000D02*
X179010000Y-107230000D01*
X177465000Y-98703299D02*
X177465000Y-105685000D01*
X179010000Y-107230000D02*
X179070000Y-137280000D01*
X190805000Y-98015000D02*
X178153299Y-98015000D01*
X178153299Y-98015000D02*
X177465000Y-98703299D01*
%TO.N,E*%
X179842081Y-99190000D02*
X211287081Y-130635000D01*
X178640000Y-99190000D02*
X179842081Y-99190000D01*
X229270000Y-144340000D02*
X229270000Y-146040000D01*
X211287081Y-130635000D02*
X215565000Y-130635000D01*
X215565000Y-130635000D02*
X229270000Y-144340000D01*
%TO.N,Net-(Q1-B)*%
X229622082Y-147115000D02*
X230120000Y-146617082D01*
X228850000Y-147115000D02*
X229622082Y-147115000D01*
X228000000Y-146265000D02*
X228850000Y-147115000D01*
X230120000Y-120170000D02*
X205020000Y-95070000D01*
X228000000Y-146040000D02*
X228000000Y-146265000D01*
X230120000Y-123860000D02*
X230120000Y-120170000D01*
X230120000Y-124900000D02*
X229600000Y-124380000D01*
X229600000Y-124380000D02*
X230120000Y-123860000D01*
X230120000Y-146617082D02*
X230120000Y-124900000D01*
%TO.N,boot*%
X197770000Y-131350000D02*
X199120000Y-130000000D01*
X191721000Y-114011000D02*
X186170000Y-108460000D01*
X185950000Y-108460000D02*
X186170000Y-108460000D01*
X185010000Y-107520000D02*
X185950000Y-108460000D01*
X199120000Y-130000000D02*
X191721000Y-122601000D01*
X197670000Y-131350000D02*
X197770000Y-131350000D01*
X191721000Y-122601000D02*
X191721000Y-114011000D01*
%TO.N,Net-(Sensor1-Pin_1)*%
X185450000Y-115630000D02*
X185973500Y-116153500D01*
X181810000Y-92590000D02*
X177510000Y-92590000D01*
X185973500Y-116153500D02*
X185973500Y-127763500D01*
X198140000Y-139940000D02*
X198150000Y-139940000D01*
X176730000Y-91920000D02*
X176730000Y-91810000D01*
X185973500Y-127763500D02*
X198140000Y-139930000D01*
X176710000Y-91790000D02*
X176780000Y-91610000D01*
X190455000Y-90985000D02*
X183415000Y-90985000D01*
X176840000Y-91920000D02*
X176730000Y-91920000D01*
X177510000Y-92590000D02*
X176840000Y-91920000D01*
X198150000Y-139940000D02*
X198180000Y-139970000D01*
X198140000Y-139930000D02*
X198140000Y-139940000D01*
X192320000Y-92850000D02*
X190455000Y-90985000D01*
X176730000Y-91810000D02*
X176710000Y-91790000D01*
X183415000Y-90985000D02*
X181810000Y-92590000D01*
%TO.N,sen*%
X198130000Y-146405000D02*
X198130000Y-146030000D01*
X182120000Y-138430000D02*
X182170000Y-138430000D01*
X190530000Y-138430000D02*
X182120000Y-138430000D01*
X198130000Y-146030000D02*
X190530000Y-138430000D01*
%TD*%
%TA.AperFunction,Conductor*%
%TO.N,GND*%
G36*
X202261746Y-88989391D02*
G01*
X202293545Y-89014236D01*
X202356760Y-89082906D01*
X202534424Y-89221189D01*
X202534425Y-89221189D01*
X202534427Y-89221191D01*
X202594314Y-89253600D01*
X202732426Y-89328342D01*
X202945365Y-89401444D01*
X203167431Y-89438500D01*
X203317829Y-89438500D01*
X203384868Y-89458185D01*
X203430623Y-89510989D01*
X203440567Y-89580147D01*
X203431626Y-89611756D01*
X203430477Y-89614409D01*
X203426621Y-89623318D01*
X203424054Y-89628558D01*
X203401303Y-89669941D01*
X203401303Y-89669942D01*
X203396225Y-89689720D01*
X203389925Y-89708122D01*
X203381818Y-89726857D01*
X203374431Y-89773495D01*
X203373246Y-89779216D01*
X203361500Y-89824965D01*
X203361500Y-89845384D01*
X203359973Y-89864783D01*
X203356780Y-89884941D01*
X203356780Y-89884942D01*
X203361225Y-89931966D01*
X203361500Y-89937804D01*
X203361500Y-95410935D01*
X203359761Y-95426682D01*
X203360032Y-95426708D01*
X203359298Y-95434474D01*
X203361500Y-95504526D01*
X203361500Y-95534428D01*
X203362384Y-95541425D01*
X203362842Y-95547248D01*
X203364326Y-95594458D01*
X203364327Y-95594460D01*
X203370022Y-95614064D01*
X203373967Y-95633111D01*
X203376526Y-95653366D01*
X203376527Y-95653369D01*
X203376528Y-95653372D01*
X203393914Y-95697285D01*
X203395806Y-95702813D01*
X203408981Y-95748161D01*
X203419372Y-95765731D01*
X203427932Y-95783204D01*
X203435447Y-95802186D01*
X203463209Y-95840396D01*
X203466416Y-95845279D01*
X203490458Y-95885931D01*
X203490462Y-95885935D01*
X203504889Y-95900362D01*
X203517526Y-95915157D01*
X203529528Y-95931676D01*
X203565931Y-95961791D01*
X203570231Y-95965704D01*
X204413027Y-96808500D01*
X205195181Y-97590654D01*
X205228666Y-97651977D01*
X205231500Y-97678335D01*
X205231500Y-98422171D01*
X205211815Y-98489210D01*
X205159011Y-98534965D01*
X205089853Y-98544909D01*
X205075408Y-98541946D01*
X205050663Y-98535316D01*
X205050660Y-98535315D01*
X205050655Y-98535314D01*
X205050652Y-98535313D01*
X205050649Y-98535313D01*
X204840002Y-98516884D01*
X204839998Y-98516884D01*
X204629350Y-98535313D01*
X204629339Y-98535315D01*
X204425097Y-98590041D01*
X204425090Y-98590043D01*
X204425090Y-98590044D01*
X204403603Y-98600063D01*
X204233443Y-98679410D01*
X204233441Y-98679411D01*
X204060221Y-98800700D01*
X203910700Y-98950221D01*
X203789411Y-99123441D01*
X203789410Y-99123443D01*
X203700045Y-99315088D01*
X203700041Y-99315097D01*
X203645315Y-99519339D01*
X203645313Y-99519350D01*
X203626884Y-99729998D01*
X203626884Y-99730001D01*
X203645313Y-99940649D01*
X203645315Y-99940660D01*
X203700041Y-100144902D01*
X203700043Y-100144906D01*
X203700044Y-100144910D01*
X203703773Y-100152906D01*
X203789410Y-100336556D01*
X203789411Y-100336558D01*
X203910700Y-100509778D01*
X204060221Y-100659299D01*
X204060224Y-100659301D01*
X204233442Y-100780589D01*
X204425090Y-100869956D01*
X204629345Y-100924686D01*
X204779812Y-100937850D01*
X204839998Y-100943116D01*
X204840000Y-100943116D01*
X204840002Y-100943116D01*
X204892663Y-100938508D01*
X205050655Y-100924686D01*
X205075405Y-100918054D01*
X205145254Y-100919715D01*
X205203117Y-100958877D01*
X205230623Y-101023104D01*
X205231500Y-101037828D01*
X205231500Y-110441232D01*
X205211815Y-110508271D01*
X205195181Y-110528913D01*
X201078914Y-114645181D01*
X201017591Y-114678666D01*
X200991233Y-114681500D01*
X200934513Y-114681500D01*
X200747714Y-114721205D01*
X200573246Y-114798883D01*
X200418745Y-114911135D01*
X200290959Y-115053057D01*
X200195473Y-115218443D01*
X200195470Y-115218450D01*
X200136459Y-115400068D01*
X200136458Y-115400072D01*
X200116496Y-115590000D01*
X200136458Y-115779928D01*
X200136459Y-115779931D01*
X200195470Y-115961549D01*
X200195473Y-115961556D01*
X200290960Y-116126944D01*
X200418747Y-116268866D01*
X200573248Y-116381118D01*
X200747712Y-116458794D01*
X200934513Y-116498500D01*
X201125487Y-116498500D01*
X201312288Y-116458794D01*
X201486752Y-116381118D01*
X201641253Y-116268866D01*
X201769040Y-116126944D01*
X201864527Y-115961556D01*
X201923542Y-115779928D01*
X201940981Y-115613997D01*
X201967564Y-115549387D01*
X201976611Y-115539291D01*
X206253815Y-111262087D01*
X206266180Y-111252183D01*
X206266006Y-111251973D01*
X206272012Y-111247003D01*
X206272018Y-111247000D01*
X206319999Y-111195904D01*
X206341135Y-111174769D01*
X206345458Y-111169195D01*
X206349257Y-111164747D01*
X206381585Y-111130322D01*
X206391420Y-111112432D01*
X206402098Y-111096174D01*
X206414614Y-111080040D01*
X206433374Y-111036686D01*
X206435935Y-111031458D01*
X206458695Y-110990060D01*
X206463774Y-110970274D01*
X206470072Y-110951882D01*
X206478181Y-110933145D01*
X206485569Y-110886497D01*
X206486751Y-110880786D01*
X206498500Y-110835030D01*
X206498500Y-110814615D01*
X206500027Y-110795214D01*
X206503220Y-110775057D01*
X206498775Y-110728033D01*
X206498500Y-110722195D01*
X206498500Y-97743765D01*
X206518185Y-97676726D01*
X206570989Y-97630971D01*
X206640147Y-97621027D01*
X206703703Y-97650052D01*
X206710166Y-97656070D01*
X217994563Y-108940466D01*
X229450181Y-120396084D01*
X229483666Y-120457407D01*
X229486500Y-120483765D01*
X229486500Y-123374915D01*
X229466815Y-123441954D01*
X229414011Y-123487709D01*
X229388282Y-123496205D01*
X229317713Y-123511205D01*
X229143244Y-123588884D01*
X228988745Y-123701135D01*
X228860959Y-123843057D01*
X228765473Y-124008443D01*
X228765470Y-124008450D01*
X228708092Y-124185042D01*
X228706458Y-124190072D01*
X228686496Y-124380000D01*
X228706458Y-124569928D01*
X228706459Y-124569931D01*
X228765470Y-124751549D01*
X228765473Y-124751556D01*
X228860960Y-124916944D01*
X228988747Y-125058866D01*
X229143248Y-125171118D01*
X229317712Y-125248794D01*
X229329474Y-125251294D01*
X229388281Y-125263794D01*
X229449763Y-125296986D01*
X229483539Y-125358149D01*
X229486500Y-125385084D01*
X229486500Y-143361233D01*
X229466815Y-143428272D01*
X229414011Y-143474027D01*
X229344853Y-143483971D01*
X229281297Y-143454946D01*
X229274819Y-143448914D01*
X216072088Y-130246183D01*
X216062187Y-130233823D01*
X216061977Y-130233998D01*
X216057002Y-130227986D01*
X216057000Y-130227982D01*
X216030658Y-130203245D01*
X216005922Y-130180016D01*
X215984768Y-130158863D01*
X215982792Y-130157331D01*
X215979183Y-130154531D01*
X215974750Y-130150744D01*
X215940321Y-130118414D01*
X215940319Y-130118412D01*
X215922431Y-130108578D01*
X215906170Y-130097897D01*
X215890039Y-130085384D01*
X215846693Y-130066627D01*
X215841445Y-130064056D01*
X215814251Y-130049106D01*
X215800060Y-130041305D01*
X215796660Y-130040432D01*
X215780287Y-130036228D01*
X215761881Y-130029926D01*
X215743144Y-130021818D01*
X215743146Y-130021818D01*
X215696496Y-130014430D01*
X215690781Y-130013246D01*
X215670612Y-130008068D01*
X215645032Y-130001500D01*
X215645030Y-130001500D01*
X215624616Y-130001500D01*
X215605217Y-129999973D01*
X215585058Y-129996780D01*
X215585057Y-129996780D01*
X215538034Y-130001225D01*
X215532196Y-130001500D01*
X213982500Y-130001500D01*
X213915461Y-129981815D01*
X213869706Y-129929011D01*
X213858500Y-129877500D01*
X213858500Y-128291362D01*
X213858499Y-128291345D01*
X213855157Y-128260270D01*
X213851989Y-128230799D01*
X213800889Y-128093796D01*
X213713261Y-127976739D01*
X213596204Y-127889111D01*
X213579807Y-127882995D01*
X213459203Y-127838011D01*
X213398654Y-127831500D01*
X213398638Y-127831500D01*
X211601362Y-127831500D01*
X211601345Y-127831500D01*
X211540797Y-127838011D01*
X211540795Y-127838011D01*
X211403795Y-127889111D01*
X211286739Y-127976739D01*
X211199111Y-128093795D01*
X211148011Y-128230795D01*
X211148011Y-128230797D01*
X211141500Y-128291345D01*
X211141500Y-129294152D01*
X211121815Y-129361191D01*
X211069011Y-129406946D01*
X210999853Y-129416890D01*
X210936297Y-129387865D01*
X210929819Y-129381833D01*
X208177990Y-126630004D01*
X219544069Y-126630004D01*
X219563764Y-126892823D01*
X219563765Y-126892826D01*
X219622413Y-127149780D01*
X219718704Y-127395124D01*
X219850485Y-127623376D01*
X219970171Y-127773457D01*
X220014817Y-127829442D01*
X220114889Y-127922294D01*
X220208019Y-128008706D01*
X220425785Y-128157176D01*
X220663246Y-128271532D01*
X220915100Y-128349218D01*
X220915101Y-128349218D01*
X220915104Y-128349219D01*
X221175711Y-128388499D01*
X221175716Y-128388499D01*
X221175719Y-128388500D01*
X221175720Y-128388500D01*
X221439280Y-128388500D01*
X221439281Y-128388500D01*
X221439288Y-128388499D01*
X221699895Y-128349219D01*
X221699896Y-128349218D01*
X221699900Y-128349218D01*
X221951754Y-128271532D01*
X222189216Y-128157176D01*
X222406981Y-128008706D01*
X222600186Y-127829438D01*
X222764515Y-127623376D01*
X222896296Y-127395124D01*
X222992587Y-127149780D01*
X223051235Y-126892826D01*
X223070931Y-126630000D01*
X223051235Y-126367174D01*
X222992587Y-126110220D01*
X222896296Y-125864876D01*
X222764515Y-125636624D01*
X222600186Y-125430562D01*
X222600185Y-125430561D01*
X222600182Y-125430557D01*
X222406981Y-125251294D01*
X222403314Y-125248794D01*
X222189216Y-125102824D01*
X222189212Y-125102822D01*
X222189211Y-125102821D01*
X222042051Y-125031953D01*
X221951754Y-124988468D01*
X221951748Y-124988466D01*
X221951740Y-124988463D01*
X221699905Y-124910783D01*
X221699895Y-124910780D01*
X221439288Y-124871500D01*
X221439281Y-124871500D01*
X221175719Y-124871500D01*
X221175711Y-124871500D01*
X220915104Y-124910780D01*
X220915098Y-124910782D01*
X220663245Y-124988468D01*
X220425788Y-125102822D01*
X220425784Y-125102824D01*
X220208021Y-125251292D01*
X220014817Y-125430557D01*
X219850485Y-125636624D01*
X219718704Y-125864875D01*
X219622415Y-126110214D01*
X219622410Y-126110231D01*
X219563764Y-126367176D01*
X219544069Y-126629995D01*
X219544069Y-126630004D01*
X208177990Y-126630004D01*
X200386640Y-118838654D01*
X209191500Y-118838654D01*
X209198011Y-118899202D01*
X209198011Y-118899204D01*
X209241288Y-119015230D01*
X209249111Y-119036204D01*
X209336739Y-119153261D01*
X209453796Y-119240889D01*
X209590799Y-119291989D01*
X209618050Y-119294918D01*
X209651345Y-119298499D01*
X209651362Y-119298500D01*
X210948638Y-119298500D01*
X210948654Y-119298499D01*
X210975692Y-119295591D01*
X211009201Y-119291989D01*
X211146204Y-119240889D01*
X211200790Y-119200026D01*
X211266252Y-119175609D01*
X211319894Y-119183666D01*
X211497678Y-119252539D01*
X211698072Y-119290000D01*
X211901928Y-119290000D01*
X212102321Y-119252539D01*
X212292414Y-119178897D01*
X212380688Y-119124240D01*
X211910263Y-118653816D01*
X211876778Y-118592493D01*
X211881762Y-118522802D01*
X211923633Y-118466868D01*
X211932658Y-118460713D01*
X212005610Y-118415543D01*
X212073201Y-118326038D01*
X212073200Y-118326038D01*
X212080126Y-118316868D01*
X212083547Y-118319451D01*
X212115631Y-118284725D01*
X212183263Y-118267186D01*
X212249642Y-118288996D01*
X212266995Y-118303442D01*
X212737465Y-118773912D01*
X212739247Y-118771552D01*
X212739249Y-118771550D01*
X212830113Y-118589069D01*
X212830116Y-118589063D01*
X212885902Y-118392992D01*
X212885903Y-118392989D01*
X212904713Y-118190000D01*
X212904713Y-118189999D01*
X212885903Y-117987010D01*
X212885902Y-117987007D01*
X212830116Y-117790936D01*
X212830113Y-117790930D01*
X212819021Y-117768654D01*
X215471500Y-117768654D01*
X215478011Y-117829202D01*
X215478011Y-117829204D01*
X215514911Y-117928133D01*
X215529111Y-117966204D01*
X215616739Y-118083261D01*
X215733796Y-118170889D01*
X215870799Y-118221989D01*
X215898050Y-118224918D01*
X215931345Y-118228499D01*
X215931362Y-118228500D01*
X217228638Y-118228500D01*
X217228654Y-118228499D01*
X217255692Y-118225591D01*
X217289201Y-118221989D01*
X217426204Y-118170889D01*
X217480790Y-118130026D01*
X217546252Y-118105609D01*
X217599894Y-118113666D01*
X217777678Y-118182539D01*
X217978072Y-118220000D01*
X218181928Y-118220000D01*
X218382321Y-118182539D01*
X218572414Y-118108897D01*
X218660688Y-118054240D01*
X218190263Y-117583816D01*
X218156778Y-117522493D01*
X218161762Y-117452802D01*
X218203633Y-117396868D01*
X218212658Y-117390713D01*
X218285610Y-117345543D01*
X218353201Y-117256038D01*
X218353200Y-117256038D01*
X218360126Y-117246868D01*
X218363547Y-117249451D01*
X218395631Y-117214725D01*
X218463263Y-117197186D01*
X218529642Y-117218996D01*
X218546995Y-117233442D01*
X219017465Y-117703912D01*
X219019247Y-117701552D01*
X219019249Y-117701550D01*
X219110113Y-117519069D01*
X219110116Y-117519063D01*
X219165902Y-117322992D01*
X219165903Y-117322989D01*
X219184713Y-117120000D01*
X219184713Y-117119999D01*
X219165903Y-116917010D01*
X219165902Y-116917007D01*
X219110116Y-116720936D01*
X219110113Y-116720930D01*
X219019244Y-116538441D01*
X219017466Y-116536086D01*
X219017465Y-116536085D01*
X218543119Y-117010432D01*
X218481796Y-117043917D01*
X218412104Y-117038933D01*
X218356171Y-116997061D01*
X218344440Y-116978028D01*
X218323552Y-116936078D01*
X218240666Y-116860516D01*
X218234511Y-116858131D01*
X218179110Y-116815561D01*
X218155518Y-116749795D01*
X218171228Y-116681714D01*
X218191623Y-116654824D01*
X218660688Y-116185758D01*
X218660687Y-116185757D01*
X218572418Y-116131104D01*
X218572411Y-116131100D01*
X218382321Y-116057460D01*
X218181928Y-116020000D01*
X217978072Y-116020000D01*
X217777676Y-116057460D01*
X217599893Y-116126333D01*
X217530270Y-116132195D01*
X217480789Y-116109973D01*
X217426204Y-116069111D01*
X217289203Y-116018011D01*
X217228654Y-116011500D01*
X217228638Y-116011500D01*
X215931362Y-116011500D01*
X215931345Y-116011500D01*
X215870797Y-116018011D01*
X215870795Y-116018011D01*
X215733795Y-116069111D01*
X215616739Y-116156739D01*
X215529111Y-116273795D01*
X215478011Y-116410795D01*
X215478011Y-116410797D01*
X215471500Y-116471345D01*
X215471500Y-117768654D01*
X212819021Y-117768654D01*
X212739244Y-117608441D01*
X212737466Y-117606086D01*
X212737465Y-117606085D01*
X212263119Y-118080432D01*
X212201796Y-118113917D01*
X212132104Y-118108933D01*
X212076171Y-118067061D01*
X212064440Y-118048028D01*
X212043552Y-118006078D01*
X212043205Y-118005762D01*
X211960667Y-117930517D01*
X211960666Y-117930516D01*
X211954511Y-117928131D01*
X211899110Y-117885561D01*
X211875518Y-117819795D01*
X211891228Y-117751714D01*
X211911623Y-117724824D01*
X212380688Y-117255758D01*
X212380687Y-117255757D01*
X212292418Y-117201104D01*
X212292411Y-117201100D01*
X212102321Y-117127460D01*
X211901928Y-117090000D01*
X211698072Y-117090000D01*
X211497676Y-117127460D01*
X211319893Y-117196333D01*
X211250270Y-117202195D01*
X211200789Y-117179973D01*
X211146204Y-117139111D01*
X211009203Y-117088011D01*
X210948654Y-117081500D01*
X210948638Y-117081500D01*
X209651362Y-117081500D01*
X209651345Y-117081500D01*
X209590797Y-117088011D01*
X209590795Y-117088011D01*
X209453795Y-117139111D01*
X209336739Y-117226739D01*
X209249111Y-117343795D01*
X209198011Y-117480795D01*
X209198011Y-117480797D01*
X209191500Y-117541345D01*
X209191500Y-118838654D01*
X200386640Y-118838654D01*
X180408167Y-98860181D01*
X180374682Y-98798858D01*
X180379666Y-98729166D01*
X180421538Y-98673233D01*
X180487002Y-98648816D01*
X180495848Y-98648500D01*
X184384026Y-98648500D01*
X184451065Y-98668185D01*
X184496820Y-98720989D01*
X184506764Y-98790147D01*
X184501956Y-98810818D01*
X184466458Y-98920072D01*
X184446496Y-99110000D01*
X184466458Y-99299928D01*
X184466459Y-99299931D01*
X184525470Y-99481549D01*
X184525473Y-99481556D01*
X184620960Y-99646944D01*
X184748747Y-99788866D01*
X184903248Y-99901118D01*
X185077712Y-99978794D01*
X185264513Y-100018500D01*
X185455487Y-100018500D01*
X185642288Y-99978794D01*
X185816752Y-99901118D01*
X185971253Y-99788866D01*
X185975159Y-99784527D01*
X186034646Y-99747879D01*
X186067309Y-99743500D01*
X186856234Y-99743500D01*
X186923273Y-99763185D01*
X186943915Y-99779819D01*
X193352204Y-106188108D01*
X193385689Y-106249431D01*
X193387844Y-106262827D01*
X193406458Y-106439928D01*
X193406459Y-106439931D01*
X193465470Y-106621549D01*
X193465473Y-106621556D01*
X193560960Y-106786944D01*
X193688747Y-106928866D01*
X193843248Y-107041118D01*
X194017712Y-107118794D01*
X194204513Y-107158500D01*
X194395487Y-107158500D01*
X194582288Y-107118794D01*
X194756752Y-107041118D01*
X194911253Y-106928866D01*
X195039040Y-106786944D01*
X195134527Y-106621556D01*
X195193542Y-106439928D01*
X195213504Y-106250000D01*
X195193542Y-106060072D01*
X195134527Y-105878444D01*
X195039040Y-105713056D01*
X194911253Y-105571134D01*
X194756752Y-105458882D01*
X194582288Y-105381206D01*
X194582286Y-105381205D01*
X194395487Y-105341500D01*
X194348766Y-105341500D01*
X194281727Y-105321815D01*
X194261085Y-105305181D01*
X188155905Y-99200000D01*
X191533610Y-99200000D01*
X191552733Y-99418582D01*
X191552735Y-99418592D01*
X191609521Y-99630524D01*
X191609524Y-99630533D01*
X191702255Y-99829393D01*
X191702256Y-99829395D01*
X191746402Y-99892442D01*
X191746402Y-99892443D01*
X192183449Y-99455395D01*
X192244772Y-99421910D01*
X192314463Y-99426894D01*
X192370397Y-99468765D01*
X192375445Y-99476036D01*
X192410638Y-99530797D01*
X192526002Y-99630759D01*
X192523693Y-99633422D01*
X192558406Y-99673499D01*
X192568335Y-99742660D01*
X192539298Y-99806210D01*
X192533282Y-99812669D01*
X192099955Y-100245995D01*
X192099956Y-100245996D01*
X192163004Y-100290143D01*
X192163006Y-100290144D01*
X192361866Y-100382875D01*
X192361875Y-100382878D01*
X192573807Y-100439664D01*
X192573817Y-100439666D01*
X192792399Y-100458790D01*
X192792401Y-100458790D01*
X193010982Y-100439666D01*
X193010992Y-100439664D01*
X193222924Y-100382878D01*
X193222933Y-100382874D01*
X193421792Y-100290145D01*
X193484843Y-100245996D01*
X193051516Y-99812669D01*
X193018031Y-99751346D01*
X193023015Y-99681654D01*
X193060041Y-99632193D01*
X193058798Y-99630759D01*
X193065500Y-99624952D01*
X193174161Y-99530798D01*
X193209355Y-99476034D01*
X193262154Y-99430283D01*
X193331313Y-99420338D01*
X193394869Y-99449362D01*
X193401349Y-99455395D01*
X193838396Y-99892443D01*
X193882545Y-99829392D01*
X193928892Y-99730001D01*
X198546884Y-99730001D01*
X198565313Y-99940649D01*
X198565315Y-99940660D01*
X198620041Y-100144902D01*
X198620043Y-100144906D01*
X198620044Y-100144910D01*
X198623773Y-100152906D01*
X198709410Y-100336556D01*
X198709411Y-100336558D01*
X198830700Y-100509778D01*
X198980221Y-100659299D01*
X198980224Y-100659301D01*
X199153442Y-100780589D01*
X199345090Y-100869956D01*
X199549345Y-100924686D01*
X199699812Y-100937850D01*
X199759998Y-100943116D01*
X199760000Y-100943116D01*
X199760002Y-100943116D01*
X199812663Y-100938508D01*
X199970655Y-100924686D01*
X200174910Y-100869956D01*
X200366558Y-100780589D01*
X200539776Y-100659301D01*
X200689301Y-100509776D01*
X200810589Y-100336558D01*
X200899956Y-100144910D01*
X200954686Y-99940655D01*
X200973116Y-99730000D01*
X200954686Y-99519345D01*
X200899956Y-99315090D01*
X200810589Y-99123442D01*
X200717262Y-98990156D01*
X200689299Y-98950221D01*
X200539778Y-98800700D01*
X200366558Y-98679411D01*
X200366556Y-98679410D01*
X200297387Y-98647156D01*
X200174910Y-98590044D01*
X200174906Y-98590043D01*
X200174902Y-98590041D01*
X199970660Y-98535315D01*
X199970656Y-98535314D01*
X199970655Y-98535314D01*
X199970654Y-98535313D01*
X199970649Y-98535313D01*
X199760002Y-98516884D01*
X199759998Y-98516884D01*
X199549350Y-98535313D01*
X199549339Y-98535315D01*
X199345097Y-98590041D01*
X199345090Y-98590043D01*
X199345090Y-98590044D01*
X199323603Y-98600063D01*
X199153443Y-98679410D01*
X199153441Y-98679411D01*
X198980221Y-98800700D01*
X198830700Y-98950221D01*
X198709411Y-99123441D01*
X198709410Y-99123443D01*
X198620045Y-99315088D01*
X198620041Y-99315097D01*
X198565315Y-99519339D01*
X198565313Y-99519350D01*
X198546884Y-99729998D01*
X198546884Y-99730001D01*
X193928892Y-99730001D01*
X193975274Y-99630533D01*
X193975278Y-99630524D01*
X194032064Y-99418592D01*
X194032066Y-99418582D01*
X194051190Y-99200000D01*
X194051190Y-99199999D01*
X194032066Y-98981417D01*
X194032064Y-98981407D01*
X193975278Y-98769475D01*
X193975275Y-98769466D01*
X193882544Y-98570606D01*
X193882543Y-98570604D01*
X193838396Y-98507556D01*
X193838396Y-98507555D01*
X193401349Y-98944603D01*
X193340026Y-98978088D01*
X193270334Y-98973104D01*
X193214401Y-98931232D01*
X193209352Y-98923961D01*
X193206850Y-98920068D01*
X193174161Y-98869202D01*
X193065500Y-98775048D01*
X193065499Y-98775047D01*
X193058798Y-98769241D01*
X193061098Y-98766585D01*
X193026360Y-98726428D01*
X193016474Y-98657261D01*
X193045552Y-98593729D01*
X193051516Y-98587329D01*
X193484843Y-98154002D01*
X193421795Y-98109856D01*
X193421793Y-98109855D01*
X193222933Y-98017124D01*
X193222924Y-98017121D01*
X193010992Y-97960335D01*
X193010982Y-97960333D01*
X192792401Y-97941210D01*
X192792399Y-97941210D01*
X192573817Y-97960333D01*
X192573807Y-97960335D01*
X192361875Y-98017121D01*
X192361866Y-98017124D01*
X192163002Y-98109857D01*
X192099955Y-98154001D01*
X192099955Y-98154002D01*
X192533283Y-98587330D01*
X192566768Y-98648653D01*
X192561784Y-98718345D01*
X192524757Y-98767805D01*
X192526002Y-98769241D01*
X192410637Y-98869203D01*
X192375446Y-98923962D01*
X192322642Y-98969717D01*
X192253484Y-98979661D01*
X192189928Y-98950636D01*
X192183450Y-98944604D01*
X191746401Y-98507555D01*
X191702257Y-98570602D01*
X191609524Y-98769466D01*
X191609521Y-98769475D01*
X191552735Y-98981407D01*
X191552733Y-98981417D01*
X191533610Y-99199999D01*
X191533610Y-99200000D01*
X188155905Y-99200000D01*
X187816086Y-98860181D01*
X187782601Y-98798858D01*
X187787585Y-98729166D01*
X187829457Y-98673233D01*
X187894921Y-98648816D01*
X187903767Y-98648500D01*
X190721366Y-98648500D01*
X190737113Y-98650238D01*
X190737139Y-98649968D01*
X190744905Y-98650701D01*
X190744909Y-98650702D01*
X190814958Y-98648500D01*
X190844856Y-98648500D01*
X190844857Y-98648500D01*
X190846222Y-98648327D01*
X190851862Y-98647614D01*
X190857685Y-98647156D01*
X190883708Y-98646338D01*
X190904890Y-98645673D01*
X190914681Y-98642827D01*
X190924481Y-98639980D01*
X190943538Y-98636032D01*
X190963797Y-98633474D01*
X191007721Y-98616082D01*
X191013221Y-98614199D01*
X191058593Y-98601018D01*
X191076165Y-98590625D01*
X191093632Y-98582068D01*
X191112617Y-98574552D01*
X191150826Y-98546790D01*
X191155704Y-98543585D01*
X191196362Y-98519542D01*
X191210802Y-98505100D01*
X191225592Y-98492470D01*
X191242107Y-98480472D01*
X191272222Y-98444067D01*
X191276126Y-98439776D01*
X194645902Y-95070001D01*
X198726884Y-95070001D01*
X198745313Y-95280649D01*
X198745315Y-95280660D01*
X198800041Y-95484902D01*
X198800043Y-95484906D01*
X198800044Y-95484910D01*
X198827751Y-95544328D01*
X198889410Y-95676556D01*
X198889411Y-95676558D01*
X199010700Y-95849778D01*
X199160221Y-95999299D01*
X199160224Y-95999301D01*
X199333442Y-96120589D01*
X199525090Y-96209956D01*
X199729345Y-96264686D01*
X199879812Y-96277850D01*
X199939998Y-96283116D01*
X199940000Y-96283116D01*
X199940002Y-96283116D01*
X199992663Y-96278508D01*
X200150655Y-96264686D01*
X200354910Y-96209956D01*
X200546558Y-96120589D01*
X200719776Y-95999301D01*
X200869301Y-95849776D01*
X200990589Y-95676558D01*
X201079956Y-95484910D01*
X201134686Y-95280655D01*
X201150483Y-95100093D01*
X201153116Y-95070001D01*
X201153116Y-95069998D01*
X201141575Y-94938087D01*
X201134686Y-94859345D01*
X201079956Y-94655090D01*
X200990589Y-94463442D01*
X200869301Y-94290224D01*
X200869299Y-94290221D01*
X200719778Y-94140700D01*
X200546558Y-94019411D01*
X200546556Y-94019410D01*
X200500520Y-93997943D01*
X200354910Y-93930044D01*
X200354906Y-93930043D01*
X200354902Y-93930041D01*
X200150660Y-93875315D01*
X200150656Y-93875314D01*
X200150655Y-93875314D01*
X200150654Y-93875313D01*
X200150649Y-93875313D01*
X199940002Y-93856884D01*
X199939998Y-93856884D01*
X199729350Y-93875313D01*
X199729339Y-93875315D01*
X199525097Y-93930041D01*
X199525088Y-93930045D01*
X199333443Y-94019410D01*
X199333441Y-94019411D01*
X199160221Y-94140700D01*
X199010700Y-94290221D01*
X198889411Y-94463441D01*
X198889410Y-94463443D01*
X198800045Y-94655088D01*
X198800041Y-94655097D01*
X198745315Y-94859339D01*
X198745313Y-94859350D01*
X198726884Y-95069998D01*
X198726884Y-95070001D01*
X194645902Y-95070001D01*
X200241085Y-89474819D01*
X200302409Y-89441334D01*
X200328767Y-89438500D01*
X201638638Y-89438500D01*
X201638654Y-89438499D01*
X201665692Y-89435591D01*
X201699201Y-89431989D01*
X201836204Y-89380889D01*
X201953261Y-89293261D01*
X202040889Y-89176204D01*
X202086138Y-89054887D01*
X202128009Y-88998956D01*
X202193474Y-88974539D01*
X202261746Y-88989391D01*
G37*
%TD.AperFunction*%
%TA.AperFunction,Conductor*%
G36*
X183890444Y-136208842D02*
G01*
X183901476Y-136218634D01*
X184071365Y-136388523D01*
X184104850Y-136449846D01*
X184099866Y-136519538D01*
X184057994Y-136575471D01*
X184045689Y-136583588D01*
X184042359Y-136585510D01*
X183985510Y-136642358D01*
X183983585Y-136645693D01*
X183933014Y-136693904D01*
X183864406Y-136707122D01*
X183799544Y-136681149D01*
X183788521Y-136671365D01*
X183668996Y-136551838D01*
X183618634Y-136501476D01*
X183585149Y-136440153D01*
X183590133Y-136370461D01*
X183632005Y-136314528D01*
X183644318Y-136306406D01*
X183647639Y-136304487D01*
X183647645Y-136304486D01*
X183704486Y-136247646D01*
X183704487Y-136247639D01*
X183706406Y-136244318D01*
X183756971Y-136196101D01*
X183825578Y-136182876D01*
X183890444Y-136208842D01*
G37*
%TD.AperFunction*%
%TA.AperFunction,Conductor*%
G36*
X184990444Y-136208842D02*
G01*
X185001476Y-136218634D01*
X185171365Y-136388523D01*
X185204850Y-136449846D01*
X185199866Y-136519538D01*
X185157994Y-136575471D01*
X185145689Y-136583588D01*
X185142359Y-136585510D01*
X185085510Y-136642358D01*
X185083585Y-136645693D01*
X185033014Y-136693904D01*
X184964406Y-136707122D01*
X184899544Y-136681149D01*
X184888521Y-136671365D01*
X184768996Y-136551838D01*
X184718634Y-136501476D01*
X184685149Y-136440153D01*
X184690133Y-136370461D01*
X184732005Y-136314528D01*
X184744318Y-136306406D01*
X184747639Y-136304487D01*
X184747645Y-136304486D01*
X184804486Y-136247646D01*
X184804487Y-136247639D01*
X184806406Y-136244318D01*
X184856971Y-136196101D01*
X184925578Y-136182876D01*
X184990444Y-136208842D01*
G37*
%TD.AperFunction*%
%TA.AperFunction,Conductor*%
G36*
X184469536Y-136190132D02*
G01*
X184525470Y-136232003D01*
X184533592Y-136244316D01*
X184535515Y-136247647D01*
X184592352Y-136304484D01*
X184595681Y-136306406D01*
X184643898Y-136356972D01*
X184657123Y-136425579D01*
X184631156Y-136490444D01*
X184621366Y-136501475D01*
X184571004Y-136551838D01*
X184451476Y-136671366D01*
X184390153Y-136704850D01*
X184320461Y-136699866D01*
X184264528Y-136657994D01*
X184256406Y-136645681D01*
X184254484Y-136642352D01*
X184197647Y-136585515D01*
X184194316Y-136583592D01*
X184146100Y-136533025D01*
X184132876Y-136464418D01*
X184158844Y-136399553D01*
X184168634Y-136388522D01*
X184309512Y-136247645D01*
X184338521Y-136218635D01*
X184399844Y-136185149D01*
X184469536Y-136190132D01*
G37*
%TD.AperFunction*%
%TA.AperFunction,Conductor*%
G36*
X185569536Y-136190132D02*
G01*
X185625470Y-136232003D01*
X185633592Y-136244316D01*
X185635515Y-136247647D01*
X185692352Y-136304484D01*
X185695681Y-136306406D01*
X185743898Y-136356972D01*
X185757123Y-136425579D01*
X185731156Y-136490444D01*
X185721366Y-136501475D01*
X185671004Y-136551838D01*
X185551476Y-136671366D01*
X185490153Y-136704850D01*
X185420461Y-136699866D01*
X185364528Y-136657994D01*
X185356406Y-136645681D01*
X185354484Y-136642352D01*
X185297647Y-136585515D01*
X185294316Y-136583592D01*
X185246100Y-136533025D01*
X185232876Y-136464418D01*
X185258844Y-136399553D01*
X185268634Y-136388522D01*
X185409512Y-136247645D01*
X185438521Y-136218635D01*
X185499844Y-136185149D01*
X185569536Y-136190132D01*
G37*
%TD.AperFunction*%
%TA.AperFunction,Conductor*%
G36*
X184440444Y-135658842D02*
G01*
X184451476Y-135668634D01*
X184621365Y-135838523D01*
X184654850Y-135899846D01*
X184649866Y-135969538D01*
X184607994Y-136025471D01*
X184595689Y-136033588D01*
X184592359Y-136035510D01*
X184535510Y-136092358D01*
X184533585Y-136095693D01*
X184483014Y-136143904D01*
X184414406Y-136157122D01*
X184349544Y-136131149D01*
X184338521Y-136121365D01*
X184218407Y-136001249D01*
X184168634Y-135951476D01*
X184135149Y-135890153D01*
X184140133Y-135820461D01*
X184182005Y-135764528D01*
X184194318Y-135756406D01*
X184197639Y-135754487D01*
X184197645Y-135754486D01*
X184254486Y-135697646D01*
X184254487Y-135697639D01*
X184256406Y-135694318D01*
X184306971Y-135646101D01*
X184375578Y-135632876D01*
X184440444Y-135658842D01*
G37*
%TD.AperFunction*%
%TA.AperFunction,Conductor*%
G36*
X185540444Y-135658842D02*
G01*
X185551476Y-135668634D01*
X185721365Y-135838523D01*
X185754850Y-135899846D01*
X185749866Y-135969538D01*
X185707994Y-136025471D01*
X185695689Y-136033588D01*
X185692359Y-136035510D01*
X185635510Y-136092358D01*
X185633585Y-136095693D01*
X185583014Y-136143904D01*
X185514406Y-136157122D01*
X185449544Y-136131149D01*
X185438521Y-136121365D01*
X185318407Y-136001249D01*
X185268634Y-135951476D01*
X185235149Y-135890153D01*
X185240133Y-135820461D01*
X185282005Y-135764528D01*
X185294318Y-135756406D01*
X185297639Y-135754487D01*
X185297645Y-135754486D01*
X185354486Y-135697646D01*
X185354487Y-135697639D01*
X185356406Y-135694318D01*
X185406971Y-135646101D01*
X185475578Y-135632876D01*
X185540444Y-135658842D01*
G37*
%TD.AperFunction*%
%TA.AperFunction,Conductor*%
G36*
X183919536Y-135640132D02*
G01*
X183975470Y-135682003D01*
X183983592Y-135694316D01*
X183985515Y-135697647D01*
X184042352Y-135754484D01*
X184045681Y-135756406D01*
X184093898Y-135806972D01*
X184107123Y-135875579D01*
X184081156Y-135940444D01*
X184071366Y-135951475D01*
X184021593Y-136001249D01*
X183901476Y-136121366D01*
X183840153Y-136154850D01*
X183770461Y-136149866D01*
X183714528Y-136107994D01*
X183706406Y-136095681D01*
X183704484Y-136092352D01*
X183647647Y-136035515D01*
X183644316Y-136033592D01*
X183596100Y-135983025D01*
X183582876Y-135914418D01*
X183608844Y-135849553D01*
X183618634Y-135838522D01*
X183759512Y-135697645D01*
X183788521Y-135668635D01*
X183849844Y-135635149D01*
X183919536Y-135640132D01*
G37*
%TD.AperFunction*%
%TA.AperFunction,Conductor*%
G36*
X185019536Y-135640132D02*
G01*
X185075470Y-135682003D01*
X185083592Y-135694316D01*
X185085515Y-135697647D01*
X185142354Y-135754486D01*
X185145683Y-135756408D01*
X185193899Y-135806975D01*
X185207122Y-135875582D01*
X185181154Y-135940447D01*
X185171366Y-135951474D01*
X185121594Y-136001249D01*
X185001476Y-136121365D01*
X184940152Y-136154849D01*
X184870460Y-136149864D01*
X184814527Y-136107993D01*
X184806408Y-136095683D01*
X184804486Y-136092354D01*
X184747647Y-136035515D01*
X184744316Y-136033592D01*
X184696100Y-135983025D01*
X184682876Y-135914418D01*
X184708844Y-135849553D01*
X184718634Y-135838522D01*
X184859512Y-135697645D01*
X184888521Y-135668635D01*
X184949844Y-135635149D01*
X185019536Y-135640132D01*
G37*
%TD.AperFunction*%
%TA.AperFunction,Conductor*%
G36*
X183890444Y-135108842D02*
G01*
X183901476Y-135118634D01*
X184071365Y-135288523D01*
X184104850Y-135349846D01*
X184099866Y-135419538D01*
X184057994Y-135475471D01*
X184045689Y-135483588D01*
X184042359Y-135485510D01*
X183985510Y-135542358D01*
X183983585Y-135545693D01*
X183933014Y-135593904D01*
X183864406Y-135607122D01*
X183799544Y-135581149D01*
X183788521Y-135571365D01*
X183628347Y-135411189D01*
X183618634Y-135401476D01*
X183585149Y-135340153D01*
X183590133Y-135270461D01*
X183632005Y-135214528D01*
X183644318Y-135206406D01*
X183647639Y-135204487D01*
X183647645Y-135204486D01*
X183704486Y-135147646D01*
X183704487Y-135147639D01*
X183706406Y-135144318D01*
X183756971Y-135096101D01*
X183825578Y-135082876D01*
X183890444Y-135108842D01*
G37*
%TD.AperFunction*%
%TA.AperFunction,Conductor*%
G36*
X184990444Y-135108842D02*
G01*
X185001476Y-135118634D01*
X185171365Y-135288523D01*
X185204850Y-135349846D01*
X185199866Y-135419538D01*
X185157994Y-135475471D01*
X185145689Y-135483588D01*
X185142359Y-135485510D01*
X185085510Y-135542358D01*
X185083585Y-135545693D01*
X185033014Y-135593904D01*
X184964406Y-135607122D01*
X184899544Y-135581149D01*
X184888521Y-135571365D01*
X184728347Y-135411189D01*
X184718634Y-135401476D01*
X184685149Y-135340153D01*
X184690133Y-135270461D01*
X184732005Y-135214528D01*
X184744318Y-135206406D01*
X184747639Y-135204487D01*
X184747645Y-135204486D01*
X184804486Y-135147646D01*
X184804487Y-135147639D01*
X184806406Y-135144318D01*
X184856971Y-135096101D01*
X184925578Y-135082876D01*
X184990444Y-135108842D01*
G37*
%TD.AperFunction*%
%TA.AperFunction,Conductor*%
G36*
X184469536Y-135090132D02*
G01*
X184525470Y-135132003D01*
X184533592Y-135144316D01*
X184535515Y-135147647D01*
X184592352Y-135204484D01*
X184595681Y-135206406D01*
X184643898Y-135256972D01*
X184657123Y-135325579D01*
X184631156Y-135390444D01*
X184621370Y-135401472D01*
X184451476Y-135571366D01*
X184390153Y-135604850D01*
X184320461Y-135599866D01*
X184264528Y-135557994D01*
X184256406Y-135545681D01*
X184254484Y-135542352D01*
X184197647Y-135485515D01*
X184194316Y-135483592D01*
X184146100Y-135433025D01*
X184132876Y-135364418D01*
X184158844Y-135299553D01*
X184168634Y-135288522D01*
X184309512Y-135147645D01*
X184338521Y-135118635D01*
X184399844Y-135085149D01*
X184469536Y-135090132D01*
G37*
%TD.AperFunction*%
%TA.AperFunction,Conductor*%
G36*
X185569536Y-135090132D02*
G01*
X185625470Y-135132003D01*
X185633592Y-135144316D01*
X185635515Y-135147647D01*
X185692352Y-135204484D01*
X185695681Y-135206406D01*
X185743898Y-135256972D01*
X185757123Y-135325579D01*
X185731156Y-135390444D01*
X185721370Y-135401472D01*
X185551476Y-135571366D01*
X185490153Y-135604850D01*
X185420461Y-135599866D01*
X185364528Y-135557994D01*
X185356406Y-135545681D01*
X185354484Y-135542352D01*
X185297647Y-135485515D01*
X185294316Y-135483592D01*
X185246100Y-135433025D01*
X185232876Y-135364418D01*
X185258844Y-135299553D01*
X185268634Y-135288522D01*
X185409512Y-135147645D01*
X185438521Y-135118635D01*
X185499844Y-135085149D01*
X185569536Y-135090132D01*
G37*
%TD.AperFunction*%
%TA.AperFunction,Conductor*%
G36*
X184440444Y-134558842D02*
G01*
X184451476Y-134568634D01*
X184621365Y-134738523D01*
X184654850Y-134799846D01*
X184649866Y-134869538D01*
X184607994Y-134925471D01*
X184595689Y-134933588D01*
X184592359Y-134935510D01*
X184535510Y-134992358D01*
X184533585Y-134995693D01*
X184483014Y-135043904D01*
X184414406Y-135057122D01*
X184349544Y-135031149D01*
X184338521Y-135021365D01*
X184218407Y-134901249D01*
X184168634Y-134851476D01*
X184135149Y-134790153D01*
X184140133Y-134720461D01*
X184182005Y-134664528D01*
X184194318Y-134656406D01*
X184197639Y-134654487D01*
X184197645Y-134654486D01*
X184254486Y-134597646D01*
X184254487Y-134597639D01*
X184256406Y-134594318D01*
X184306971Y-134546101D01*
X184375578Y-134532876D01*
X184440444Y-134558842D01*
G37*
%TD.AperFunction*%
%TA.AperFunction,Conductor*%
G36*
X185540444Y-134558842D02*
G01*
X185551476Y-134568634D01*
X185721365Y-134738523D01*
X185754850Y-134799846D01*
X185749866Y-134869538D01*
X185707994Y-134925471D01*
X185695689Y-134933588D01*
X185692359Y-134935510D01*
X185635510Y-134992358D01*
X185633585Y-134995693D01*
X185583014Y-135043904D01*
X185514406Y-135057122D01*
X185449544Y-135031149D01*
X185438521Y-135021365D01*
X185318407Y-134901249D01*
X185268634Y-134851476D01*
X185235149Y-134790153D01*
X185240133Y-134720461D01*
X185282005Y-134664528D01*
X185294318Y-134656406D01*
X185297639Y-134654487D01*
X185297645Y-134654486D01*
X185354486Y-134597646D01*
X185354487Y-134597639D01*
X185356406Y-134594318D01*
X185406971Y-134546101D01*
X185475578Y-134532876D01*
X185540444Y-134558842D01*
G37*
%TD.AperFunction*%
%TA.AperFunction,Conductor*%
G36*
X183919536Y-134540132D02*
G01*
X183975470Y-134582003D01*
X183983592Y-134594316D01*
X183985515Y-134597647D01*
X184042352Y-134654484D01*
X184045681Y-134656406D01*
X184093898Y-134706972D01*
X184107123Y-134775579D01*
X184081156Y-134840444D01*
X184071366Y-134851475D01*
X184021593Y-134901249D01*
X183901476Y-135021366D01*
X183840153Y-135054850D01*
X183770461Y-135049866D01*
X183714528Y-135007994D01*
X183706406Y-134995681D01*
X183704484Y-134992352D01*
X183647647Y-134935515D01*
X183644316Y-134933592D01*
X183596100Y-134883025D01*
X183582876Y-134814418D01*
X183608844Y-134749553D01*
X183618634Y-134738522D01*
X183759512Y-134597645D01*
X183788521Y-134568635D01*
X183849844Y-134535149D01*
X183919536Y-134540132D01*
G37*
%TD.AperFunction*%
%TA.AperFunction,Conductor*%
G36*
X185019536Y-134540132D02*
G01*
X185075470Y-134582003D01*
X185083592Y-134594316D01*
X185085515Y-134597647D01*
X185142354Y-134654486D01*
X185145683Y-134656408D01*
X185193899Y-134706975D01*
X185207122Y-134775582D01*
X185181154Y-134840447D01*
X185171366Y-134851474D01*
X185121594Y-134901249D01*
X185001476Y-135021366D01*
X184940153Y-135054850D01*
X184870461Y-135049866D01*
X184814528Y-135007994D01*
X184806406Y-134995681D01*
X184804484Y-134992352D01*
X184747647Y-134935515D01*
X184744316Y-134933592D01*
X184696100Y-134883025D01*
X184682876Y-134814418D01*
X184708844Y-134749553D01*
X184718634Y-134738522D01*
X184859512Y-134597645D01*
X184888521Y-134568635D01*
X184949844Y-134535149D01*
X185019536Y-134540132D01*
G37*
%TD.AperFunction*%
%TA.AperFunction,Conductor*%
G36*
X234666757Y-85602450D02*
G01*
X234713009Y-85654819D01*
X234723606Y-85723881D01*
X234695183Y-85787708D01*
X234656359Y-85818205D01*
X234493199Y-85900147D01*
X234200399Y-86092724D01*
X233931951Y-86317980D01*
X233931941Y-86317990D01*
X233691450Y-86572893D01*
X233691445Y-86572899D01*
X233482175Y-86853998D01*
X233306952Y-87157494D01*
X233306946Y-87157507D01*
X233168143Y-87479286D01*
X233067632Y-87815017D01*
X233067630Y-87815024D01*
X233006779Y-88160131D01*
X233006778Y-88160142D01*
X232986401Y-88509996D01*
X232986401Y-88510003D01*
X233006778Y-88859857D01*
X233006779Y-88859868D01*
X233067630Y-89204975D01*
X233067632Y-89204982D01*
X233168143Y-89540713D01*
X233306946Y-89862492D01*
X233306952Y-89862505D01*
X233482175Y-90166001D01*
X233691445Y-90447100D01*
X233691450Y-90447106D01*
X233798193Y-90560246D01*
X233931943Y-90702012D01*
X233931949Y-90702017D01*
X233931951Y-90702019D01*
X234175062Y-90906015D01*
X234200403Y-90927278D01*
X234493200Y-91119853D01*
X234806374Y-91277135D01*
X235135690Y-91396996D01*
X235135696Y-91396997D01*
X235135698Y-91396998D01*
X235476678Y-91477813D01*
X235476685Y-91477814D01*
X235476694Y-91477816D01*
X235824775Y-91518500D01*
X235824782Y-91518500D01*
X236175218Y-91518500D01*
X236175225Y-91518500D01*
X236523306Y-91477816D01*
X236523315Y-91477813D01*
X236523321Y-91477813D01*
X236801307Y-91411928D01*
X236864310Y-91396996D01*
X237193626Y-91277135D01*
X237506800Y-91119853D01*
X237799597Y-90927278D01*
X238068057Y-90702012D01*
X238308551Y-90447104D01*
X238517825Y-90166000D01*
X238693050Y-89862501D01*
X238831857Y-89540712D01*
X238932367Y-89204984D01*
X238950619Y-89101466D01*
X238981646Y-89038863D01*
X239041593Y-89002972D01*
X239111427Y-89005188D01*
X239168978Y-89044808D01*
X239195972Y-89109252D01*
X239196736Y-89122764D01*
X239302573Y-145410587D01*
X239283014Y-145477663D01*
X239230296Y-145523517D01*
X239161157Y-145533591D01*
X239097547Y-145504685D01*
X239059782Y-145446383D01*
X239049065Y-145410587D01*
X238961857Y-145119288D01*
X238823050Y-144797499D01*
X238647825Y-144494000D01*
X238647824Y-144493998D01*
X238438554Y-144212899D01*
X238438549Y-144212893D01*
X238322262Y-144089638D01*
X238198057Y-143957988D01*
X238198050Y-143957982D01*
X238198048Y-143957980D01*
X237929600Y-143732724D01*
X237918261Y-143725266D01*
X237636800Y-143540147D01*
X237631495Y-143537482D01*
X237323633Y-143382868D01*
X237323627Y-143382865D01*
X236994322Y-143263008D01*
X236994301Y-143263001D01*
X236653321Y-143182186D01*
X236653306Y-143182184D01*
X236653305Y-143182183D01*
X236305225Y-143141500D01*
X235954775Y-143141500D01*
X235650204Y-143177098D01*
X235606693Y-143182184D01*
X235606678Y-143182186D01*
X235265698Y-143263001D01*
X235265677Y-143263008D01*
X234936372Y-143382865D01*
X234936366Y-143382868D01*
X234623203Y-143540145D01*
X234330399Y-143732724D01*
X234061951Y-143957980D01*
X234061941Y-143957990D01*
X233821450Y-144212893D01*
X233821445Y-144212899D01*
X233612175Y-144493998D01*
X233436952Y-144797494D01*
X233436946Y-144797507D01*
X233298143Y-145119286D01*
X233197632Y-145455017D01*
X233197630Y-145455024D01*
X233136779Y-145800131D01*
X233136778Y-145800142D01*
X233116401Y-146149996D01*
X233116401Y-146150003D01*
X233136778Y-146499857D01*
X233136779Y-146499868D01*
X233197630Y-146844975D01*
X233197632Y-146844982D01*
X233298143Y-147180713D01*
X233436946Y-147502492D01*
X233436952Y-147502505D01*
X233612175Y-147806001D01*
X233821445Y-148087100D01*
X233821450Y-148087106D01*
X233945654Y-148218754D01*
X234061943Y-148342012D01*
X234330403Y-148567278D01*
X234623200Y-148759853D01*
X234936374Y-148917135D01*
X235265690Y-149036996D01*
X235265696Y-149036997D01*
X235265698Y-149036998D01*
X235603646Y-149117094D01*
X235664338Y-149151708D01*
X235696682Y-149213641D01*
X235690409Y-149283228D01*
X235647509Y-149338377D01*
X235581604Y-149361578D01*
X235575107Y-149361751D01*
X175464845Y-149389941D01*
X175397796Y-149370288D01*
X175352017Y-149317505D01*
X175340789Y-149265159D01*
X175342972Y-148920000D01*
X176630000Y-148920000D01*
X194630000Y-148920000D01*
X194630000Y-143725266D01*
X194649685Y-143658227D01*
X194702489Y-143612472D01*
X194771647Y-143602528D01*
X194835203Y-143631553D01*
X194841679Y-143637583D01*
X195960594Y-144756499D01*
X196880125Y-145676030D01*
X196913610Y-145737353D01*
X196908626Y-145807045D01*
X196906000Y-145813520D01*
X196840705Y-145962381D01*
X196840703Y-145962385D01*
X196785436Y-146180628D01*
X196785434Y-146180640D01*
X196766844Y-146404994D01*
X196766844Y-146405005D01*
X196785434Y-146629359D01*
X196785436Y-146629371D01*
X196840703Y-146847614D01*
X196931140Y-147053792D01*
X197054276Y-147242265D01*
X197054284Y-147242276D01*
X197206756Y-147407902D01*
X197206760Y-147407906D01*
X197384424Y-147546189D01*
X197384425Y-147546189D01*
X197384427Y-147546191D01*
X197475458Y-147595454D01*
X197582426Y-147653342D01*
X197795365Y-147726444D01*
X198017431Y-147763500D01*
X198242569Y-147763500D01*
X198464635Y-147726444D01*
X198677574Y-147653342D01*
X198875576Y-147546189D01*
X199053240Y-147407906D01*
X199178363Y-147271988D01*
X199205715Y-147242276D01*
X199205716Y-147242274D01*
X199205722Y-147242268D01*
X199328860Y-147053791D01*
X199419296Y-146847616D01*
X199474564Y-146629368D01*
X199474565Y-146629359D01*
X199493156Y-146405005D01*
X199493156Y-146404994D01*
X199474565Y-146180640D01*
X199474563Y-146180628D01*
X199457521Y-146113330D01*
X199419296Y-145962384D01*
X199328860Y-145756209D01*
X199321030Y-145744225D01*
X199242809Y-145624498D01*
X199205722Y-145567732D01*
X199205719Y-145567729D01*
X199205715Y-145567723D01*
X199060510Y-145409991D01*
X199029587Y-145347337D01*
X199037447Y-145277911D01*
X199081594Y-145223755D01*
X199108405Y-145209827D01*
X199188584Y-145179920D01*
X199226204Y-145165889D01*
X199343261Y-145078261D01*
X199384139Y-145023654D01*
X210591500Y-145023654D01*
X210598011Y-145084202D01*
X210598011Y-145084204D01*
X210647539Y-145216989D01*
X210649111Y-145221204D01*
X210736739Y-145338261D01*
X210815984Y-145397583D01*
X210842700Y-145417583D01*
X210853796Y-145425889D01*
X210983382Y-145474222D01*
X211039313Y-145516093D01*
X211063730Y-145581557D01*
X211048878Y-145649830D01*
X211027728Y-145678084D01*
X210911886Y-145793926D01*
X210776400Y-145987420D01*
X210776399Y-145987422D01*
X210676570Y-146201507D01*
X210676567Y-146201513D01*
X210619364Y-146414999D01*
X210619364Y-146415000D01*
X211336653Y-146415000D01*
X211403692Y-146434685D01*
X211449447Y-146487489D01*
X211459391Y-146556647D01*
X211455631Y-146573933D01*
X211450878Y-146590122D01*
X211450000Y-146593111D01*
X211450000Y-146736889D01*
X211452586Y-146745696D01*
X211455631Y-146756067D01*
X211455630Y-146825936D01*
X211417855Y-146884714D01*
X211354299Y-146913738D01*
X211336653Y-146915000D01*
X210619364Y-146915000D01*
X210676567Y-147128486D01*
X210676570Y-147128492D01*
X210776399Y-147342578D01*
X210911894Y-147536082D01*
X211078917Y-147703105D01*
X211272421Y-147838600D01*
X211486507Y-147938429D01*
X211486516Y-147938433D01*
X211700000Y-147995634D01*
X211700000Y-147277301D01*
X211719685Y-147210262D01*
X211772489Y-147164507D01*
X211841647Y-147154563D01*
X211914237Y-147165000D01*
X211914238Y-147165000D01*
X211985762Y-147165000D01*
X211985763Y-147165000D01*
X212058352Y-147154563D01*
X212127510Y-147164507D01*
X212180314Y-147210261D01*
X212199999Y-147277301D01*
X212199999Y-147995633D01*
X212413483Y-147938433D01*
X212413492Y-147938429D01*
X212627578Y-147838600D01*
X212821082Y-147703105D01*
X212988105Y-147536082D01*
X213123600Y-147342578D01*
X213223429Y-147128492D01*
X213223432Y-147128486D01*
X213280636Y-146915000D01*
X212563347Y-146915000D01*
X212496308Y-146895315D01*
X212450553Y-146842511D01*
X212447123Y-146818654D01*
X215966500Y-146818654D01*
X215973011Y-146879202D01*
X215973011Y-146879204D01*
X216024111Y-147016204D01*
X216111739Y-147133261D01*
X216228796Y-147220889D01*
X216343163Y-147263546D01*
X216365793Y-147271987D01*
X216365799Y-147271989D01*
X216393050Y-147274918D01*
X216426345Y-147278499D01*
X216426362Y-147278500D01*
X217573638Y-147278500D01*
X217573654Y-147278499D01*
X217600692Y-147275591D01*
X217634201Y-147271989D01*
X217634205Y-147271987D01*
X217634207Y-147271987D01*
X217771199Y-147220891D01*
X217771199Y-147220890D01*
X217771204Y-147220889D01*
X217771207Y-147220886D01*
X217778989Y-147216638D01*
X217780519Y-147219440D01*
X217831255Y-147200503D01*
X217876121Y-147205523D01*
X218067399Y-147263546D01*
X218067398Y-147263546D01*
X218087352Y-147265511D01*
X218270000Y-147283501D01*
X218472601Y-147263546D01*
X218667417Y-147204450D01*
X218846960Y-147108482D01*
X218846962Y-147108480D01*
X218852332Y-147105610D01*
X218853236Y-147107302D01*
X218911403Y-147089069D01*
X218972110Y-147103691D01*
X219145848Y-147196557D01*
X219290000Y-147240285D01*
X219290000Y-146504330D01*
X219309685Y-146437291D01*
X219362489Y-146391536D01*
X219431647Y-146381592D01*
X219454262Y-146387048D01*
X219477424Y-146395000D01*
X219571072Y-146395000D01*
X219571073Y-146395000D01*
X219645591Y-146382565D01*
X219714954Y-146390947D01*
X219768776Y-146435499D01*
X219789967Y-146502078D01*
X219789999Y-146504874D01*
X219789999Y-147240285D01*
X219790000Y-147240285D01*
X219934153Y-147196557D01*
X220112209Y-147101384D01*
X220112215Y-147101379D01*
X220268292Y-146973292D01*
X220396379Y-146817215D01*
X220396384Y-146817209D01*
X220491556Y-146639154D01*
X220550170Y-146445932D01*
X220565000Y-146295357D01*
X220565000Y-146270000D01*
X220028192Y-146270000D01*
X219961153Y-146250315D01*
X219915398Y-146197511D01*
X219905454Y-146128353D01*
X219907987Y-146115559D01*
X219908551Y-146113329D01*
X219918886Y-145988605D01*
X219912245Y-145962381D01*
X219902637Y-145924438D01*
X219905262Y-145854619D01*
X219945219Y-145797302D01*
X220009820Y-145770686D01*
X220022843Y-145770000D01*
X220565000Y-145770000D01*
X220565000Y-145744642D01*
X220550170Y-145594067D01*
X220491556Y-145400845D01*
X220396384Y-145222790D01*
X220396379Y-145222784D01*
X220268292Y-145066707D01*
X220112215Y-144938620D01*
X220112209Y-144938615D01*
X219934150Y-144843441D01*
X219790000Y-144799712D01*
X219790000Y-145535669D01*
X219770315Y-145602708D01*
X219717511Y-145648463D01*
X219648353Y-145658407D01*
X219625740Y-145652951D01*
X219602578Y-145645000D01*
X219602576Y-145645000D01*
X219508927Y-145645000D01*
X219508926Y-145645000D01*
X219434407Y-145657434D01*
X219365042Y-145649051D01*
X219311221Y-145604498D01*
X219290030Y-145537919D01*
X219289999Y-145535125D01*
X219289999Y-144799712D01*
X219145849Y-144843441D01*
X218972109Y-144936307D01*
X218903706Y-144950549D01*
X218853102Y-144932948D01*
X218852333Y-144934389D01*
X218667424Y-144835553D01*
X218667421Y-144835552D01*
X218667420Y-144835551D01*
X218667417Y-144835550D01*
X218472601Y-144776454D01*
X218472599Y-144776453D01*
X218472601Y-144776453D01*
X218270000Y-144756499D01*
X218067400Y-144776453D01*
X217876126Y-144834475D01*
X217806259Y-144835098D01*
X217779745Y-144821975D01*
X217778988Y-144823362D01*
X217771209Y-144819115D01*
X217771204Y-144819111D01*
X217710322Y-144796403D01*
X217634203Y-144768011D01*
X217573654Y-144761500D01*
X217573638Y-144761500D01*
X216426362Y-144761500D01*
X216426345Y-144761500D01*
X216365797Y-144768011D01*
X216365795Y-144768011D01*
X216228795Y-144819111D01*
X216111739Y-144906739D01*
X216024111Y-145023795D01*
X215973011Y-145160795D01*
X215973011Y-145160797D01*
X215966500Y-145221345D01*
X215966500Y-146818654D01*
X212447123Y-146818654D01*
X212440609Y-146773353D01*
X212444369Y-146756067D01*
X212447414Y-146745696D01*
X212450000Y-146736889D01*
X212450000Y-146593111D01*
X212449122Y-146590122D01*
X212444369Y-146573933D01*
X212444370Y-146504064D01*
X212482145Y-146445286D01*
X212545701Y-146416262D01*
X212563347Y-146415000D01*
X213280636Y-146415000D01*
X213280635Y-146414999D01*
X213223432Y-146201513D01*
X213223429Y-146201507D01*
X213123600Y-145987422D01*
X213123599Y-145987420D01*
X212988113Y-145793926D01*
X212988108Y-145793920D01*
X212872272Y-145678084D01*
X212838787Y-145616761D01*
X212843771Y-145547069D01*
X212885643Y-145491136D01*
X212916612Y-145474224D01*
X213046204Y-145425889D01*
X213163261Y-145338261D01*
X213250889Y-145221204D01*
X213301989Y-145084201D01*
X213305891Y-145047906D01*
X213308499Y-145023654D01*
X213308500Y-145023637D01*
X213308500Y-143226362D01*
X213308499Y-143226345D01*
X213305157Y-143195270D01*
X213301989Y-143165799D01*
X213250889Y-143028796D01*
X213163261Y-142911739D01*
X213046204Y-142824111D01*
X213046203Y-142824110D01*
X212909203Y-142773011D01*
X212848654Y-142766500D01*
X212848638Y-142766500D01*
X211051362Y-142766500D01*
X211051345Y-142766500D01*
X210990797Y-142773011D01*
X210990795Y-142773011D01*
X210853795Y-142824111D01*
X210736739Y-142911739D01*
X210649111Y-143028795D01*
X210598011Y-143165795D01*
X210598011Y-143165797D01*
X210591500Y-143226345D01*
X210591500Y-145023654D01*
X199384139Y-145023654D01*
X199430889Y-144961204D01*
X199481989Y-144824201D01*
X199485666Y-144790000D01*
X199488499Y-144763654D01*
X199488500Y-144763637D01*
X199488500Y-142966362D01*
X199488499Y-142966345D01*
X199485157Y-142935270D01*
X199481989Y-142905799D01*
X199430889Y-142768796D01*
X199343261Y-142651739D01*
X199226204Y-142564111D01*
X199226203Y-142564110D01*
X199089203Y-142513011D01*
X199028654Y-142506500D01*
X199028638Y-142506500D01*
X197231362Y-142506500D01*
X197231345Y-142506500D01*
X197170797Y-142513011D01*
X197170795Y-142513011D01*
X197033795Y-142564111D01*
X196916739Y-142651739D01*
X196829111Y-142768795D01*
X196778011Y-142905795D01*
X196778011Y-142905797D01*
X196771500Y-142966345D01*
X196771500Y-143476232D01*
X196751815Y-143543271D01*
X196699011Y-143589026D01*
X196629853Y-143598970D01*
X196566297Y-143569945D01*
X196559819Y-143563913D01*
X191037088Y-138041183D01*
X191027187Y-138028823D01*
X191026977Y-138028998D01*
X191022002Y-138022986D01*
X191022000Y-138022982D01*
X190995658Y-137998245D01*
X190970922Y-137975016D01*
X190949768Y-137953863D01*
X190947792Y-137952331D01*
X190944183Y-137949531D01*
X190939750Y-137945744D01*
X190905321Y-137913414D01*
X190905319Y-137913412D01*
X190887431Y-137903578D01*
X190871170Y-137892897D01*
X190855039Y-137880384D01*
X190811693Y-137861627D01*
X190806445Y-137859056D01*
X190779251Y-137844106D01*
X190765060Y-137836305D01*
X190761660Y-137835432D01*
X190745287Y-137831228D01*
X190726881Y-137824926D01*
X190708144Y-137816818D01*
X190708146Y-137816818D01*
X190661496Y-137809430D01*
X190655781Y-137808246D01*
X190635612Y-137803068D01*
X190610032Y-137796500D01*
X190610030Y-137796500D01*
X190589616Y-137796500D01*
X190570217Y-137794973D01*
X190550058Y-137791780D01*
X190550057Y-137791780D01*
X190503034Y-137796225D01*
X190497196Y-137796500D01*
X182827309Y-137796500D01*
X182760270Y-137776815D01*
X182735160Y-137755473D01*
X182731254Y-137751135D01*
X182594187Y-137651549D01*
X182576752Y-137638882D01*
X182402288Y-137561206D01*
X182402286Y-137561205D01*
X182215487Y-137521500D01*
X182024513Y-137521500D01*
X181837714Y-137561205D01*
X181663246Y-137638883D01*
X181508745Y-137751135D01*
X181380959Y-137893057D01*
X181285473Y-138058443D01*
X181285470Y-138058450D01*
X181226459Y-138240068D01*
X181226458Y-138240072D01*
X181206496Y-138430000D01*
X181226458Y-138619928D01*
X181226459Y-138619931D01*
X181285470Y-138801549D01*
X181285473Y-138801556D01*
X181380960Y-138966944D01*
X181508747Y-139108866D01*
X181663248Y-139221118D01*
X181837712Y-139298794D01*
X182024513Y-139338500D01*
X182215487Y-139338500D01*
X182402288Y-139298794D01*
X182576752Y-139221118D01*
X182731253Y-139108866D01*
X182735159Y-139104527D01*
X182794646Y-139067879D01*
X182827309Y-139063500D01*
X190216234Y-139063500D01*
X190283273Y-139083185D01*
X190303915Y-139099819D01*
X193912414Y-142708319D01*
X193945899Y-142769642D01*
X193940915Y-142839334D01*
X193899043Y-142895267D01*
X193833579Y-142919684D01*
X193824733Y-142920000D01*
X176630000Y-142920000D01*
X176630000Y-148920000D01*
X175342972Y-148920000D01*
X175502213Y-123740001D01*
X176118388Y-123740001D01*
X176136795Y-123950388D01*
X176136797Y-123950399D01*
X176191455Y-124154387D01*
X176191457Y-124154391D01*
X176191458Y-124154395D01*
X176273203Y-124329699D01*
X176280714Y-124345806D01*
X176280716Y-124345810D01*
X176401848Y-124518804D01*
X176401853Y-124518810D01*
X176551189Y-124668146D01*
X176551195Y-124668151D01*
X176724189Y-124789283D01*
X176724191Y-124789284D01*
X176724194Y-124789286D01*
X176915605Y-124878542D01*
X176915611Y-124878543D01*
X176915612Y-124878544D01*
X176958527Y-124890043D01*
X177119606Y-124933204D01*
X177269887Y-124946351D01*
X177329998Y-124951611D01*
X177330000Y-124951611D01*
X177330002Y-124951611D01*
X177382598Y-124947009D01*
X177540394Y-124933204D01*
X177744395Y-124878542D01*
X177935806Y-124789286D01*
X178108809Y-124668148D01*
X178199631Y-124577325D01*
X178260950Y-124543843D01*
X178330642Y-124548827D01*
X178386576Y-124590698D01*
X178410993Y-124656162D01*
X178411309Y-124664761D01*
X178435099Y-136579549D01*
X178415548Y-136646628D01*
X178403250Y-136662768D01*
X178330961Y-136743054D01*
X178330957Y-136743059D01*
X178235473Y-136908443D01*
X178235470Y-136908450D01*
X178187568Y-137055878D01*
X178176458Y-137090072D01*
X178156496Y-137280000D01*
X178176458Y-137469928D01*
X178176459Y-137469931D01*
X178235470Y-137651549D01*
X178235473Y-137651556D01*
X178330960Y-137816944D01*
X178458747Y-137958866D01*
X178613248Y-138071118D01*
X178787712Y-138148794D01*
X178974513Y-138188500D01*
X179165487Y-138188500D01*
X179352288Y-138148794D01*
X179526752Y-138071118D01*
X179681253Y-137958866D01*
X179809040Y-137816944D01*
X179904527Y-137651556D01*
X179963542Y-137469928D01*
X179983504Y-137280000D01*
X179963542Y-137090072D01*
X179904527Y-136908444D01*
X179809040Y-136743056D01*
X179774639Y-136704850D01*
X179733947Y-136659656D01*
X179703717Y-136596664D01*
X179702097Y-136576932D01*
X179702047Y-136551838D01*
X179701285Y-136170000D01*
X182864859Y-136170000D01*
X182885348Y-136338748D01*
X182885349Y-136338751D01*
X182945629Y-136497694D01*
X182951278Y-136505879D01*
X183238523Y-136218634D01*
X183299846Y-136185149D01*
X183369537Y-136190133D01*
X183425471Y-136232004D01*
X183433592Y-136244316D01*
X183435515Y-136247647D01*
X183492352Y-136304484D01*
X183495681Y-136306406D01*
X183543898Y-136356972D01*
X183557123Y-136425579D01*
X183531156Y-136490444D01*
X183521365Y-136501476D01*
X183237039Y-136785800D01*
X183319954Y-136829318D01*
X183319956Y-136829319D01*
X183359192Y-136838989D01*
X183419573Y-136874144D01*
X183445461Y-136915414D01*
X183495629Y-137047694D01*
X183501278Y-137055879D01*
X183788523Y-136768634D01*
X183849846Y-136735149D01*
X183919537Y-136740133D01*
X183975471Y-136782004D01*
X183983592Y-136794316D01*
X183985515Y-136797647D01*
X184042352Y-136854484D01*
X184045681Y-136856406D01*
X184093898Y-136906972D01*
X184107123Y-136975579D01*
X184081156Y-137040444D01*
X184071365Y-137051476D01*
X183787039Y-137335800D01*
X183869951Y-137379317D01*
X184035006Y-137420000D01*
X184204994Y-137420000D01*
X184370046Y-137379317D01*
X184452959Y-137335800D01*
X184168635Y-137051476D01*
X184135150Y-136990153D01*
X184140134Y-136920461D01*
X184182006Y-136864528D01*
X184194316Y-136856408D01*
X184197642Y-136854487D01*
X184197642Y-136854486D01*
X184197645Y-136854486D01*
X184254486Y-136797646D01*
X184254487Y-136797640D01*
X184256407Y-136794317D01*
X184306974Y-136746101D01*
X184375581Y-136732877D01*
X184440446Y-136758845D01*
X184451476Y-136768634D01*
X184670000Y-136987157D01*
X184888523Y-136768634D01*
X184949846Y-136735149D01*
X185019537Y-136740133D01*
X185075471Y-136782004D01*
X185083592Y-136794316D01*
X185085515Y-136797647D01*
X185142352Y-136854484D01*
X185145681Y-136856406D01*
X185193898Y-136906972D01*
X185207123Y-136975579D01*
X185181156Y-137040444D01*
X185171365Y-137051476D01*
X184887039Y-137335800D01*
X184969951Y-137379317D01*
X185135006Y-137420000D01*
X185304994Y-137420000D01*
X185470046Y-137379317D01*
X185552959Y-137335800D01*
X185268635Y-137051476D01*
X185235150Y-136990153D01*
X185240134Y-136920461D01*
X185282006Y-136864528D01*
X185294316Y-136856408D01*
X185297642Y-136854487D01*
X185297642Y-136854486D01*
X185297645Y-136854486D01*
X185354486Y-136797646D01*
X185354487Y-136797639D01*
X185356406Y-136794318D01*
X185406971Y-136746101D01*
X185475578Y-136732876D01*
X185540444Y-136758842D01*
X185551476Y-136768634D01*
X185838720Y-137055879D01*
X185838720Y-137055878D01*
X185844370Y-137047695D01*
X185844370Y-137047694D01*
X185894538Y-136915415D01*
X185936716Y-136859712D01*
X185980808Y-136838989D01*
X186020043Y-136829319D01*
X186102959Y-136785800D01*
X185818634Y-136501476D01*
X185785149Y-136440153D01*
X185790133Y-136370462D01*
X185832004Y-136314528D01*
X185844318Y-136306406D01*
X185847639Y-136304487D01*
X185847645Y-136304486D01*
X185904486Y-136247646D01*
X185904487Y-136247640D01*
X185906407Y-136244317D01*
X185956974Y-136196101D01*
X186025581Y-136182877D01*
X186090446Y-136208845D01*
X186101476Y-136218635D01*
X186388720Y-136505879D01*
X186388720Y-136505878D01*
X186394369Y-136497696D01*
X186454650Y-136338751D01*
X186454651Y-136338748D01*
X186475141Y-136170000D01*
X186475141Y-136169999D01*
X186454651Y-136001249D01*
X186454650Y-136001245D01*
X186394371Y-135842304D01*
X186388721Y-135834119D01*
X186101476Y-136121365D01*
X186040153Y-136154850D01*
X185970461Y-136149866D01*
X185914528Y-136107994D01*
X185906406Y-136095681D01*
X185904484Y-136092352D01*
X185847647Y-136035515D01*
X185844316Y-136033592D01*
X185796100Y-135983025D01*
X185782876Y-135914418D01*
X185808844Y-135849553D01*
X185818634Y-135838523D01*
X186037157Y-135620000D01*
X186037157Y-135619999D01*
X185818634Y-135401476D01*
X185785149Y-135340153D01*
X185790133Y-135270461D01*
X185832005Y-135214528D01*
X185844318Y-135206406D01*
X185847639Y-135204487D01*
X185847645Y-135204486D01*
X185904486Y-135147646D01*
X185904487Y-135147640D01*
X185906407Y-135144317D01*
X185956974Y-135096101D01*
X186025581Y-135082877D01*
X186090446Y-135108845D01*
X186101476Y-135118635D01*
X186388720Y-135405879D01*
X186388720Y-135405878D01*
X186394369Y-135397696D01*
X186454650Y-135238751D01*
X186454651Y-135238748D01*
X186475141Y-135070000D01*
X186475141Y-135069999D01*
X186454651Y-134901249D01*
X186454650Y-134901245D01*
X186394371Y-134742304D01*
X186388721Y-134734119D01*
X186101476Y-135021365D01*
X186040153Y-135054850D01*
X185970461Y-135049866D01*
X185914528Y-135007994D01*
X185906406Y-134995681D01*
X185904484Y-134992352D01*
X185847647Y-134935515D01*
X185844316Y-134933592D01*
X185796100Y-134883025D01*
X185782876Y-134814418D01*
X185808844Y-134749553D01*
X185818634Y-134738523D01*
X186102959Y-134454198D01*
X186020041Y-134410680D01*
X185980803Y-134401008D01*
X185920423Y-134365851D01*
X185894538Y-134324583D01*
X185844371Y-134192304D01*
X185838721Y-134184119D01*
X185551476Y-134471365D01*
X185490153Y-134504850D01*
X185420461Y-134499866D01*
X185364528Y-134457994D01*
X185356406Y-134445681D01*
X185354484Y-134442352D01*
X185297647Y-134385515D01*
X185294316Y-134383592D01*
X185246100Y-134333025D01*
X185232876Y-134264418D01*
X185258844Y-134199553D01*
X185268634Y-134188523D01*
X185552959Y-133904198D01*
X185470044Y-133860681D01*
X185304994Y-133820000D01*
X185135006Y-133820000D01*
X184969955Y-133860681D01*
X184887039Y-133904198D01*
X185171365Y-134188523D01*
X185204850Y-134249846D01*
X185199866Y-134319537D01*
X185157995Y-134375471D01*
X185145689Y-134383588D01*
X185142359Y-134385510D01*
X185085512Y-134442356D01*
X185083589Y-134445688D01*
X185033020Y-134493902D01*
X184964413Y-134507122D01*
X184899549Y-134481152D01*
X184888523Y-134471365D01*
X184670001Y-134252842D01*
X184670000Y-134252842D01*
X184451476Y-134471365D01*
X184390153Y-134504850D01*
X184320461Y-134499866D01*
X184264528Y-134457994D01*
X184256406Y-134445681D01*
X184254484Y-134442352D01*
X184197647Y-134385515D01*
X184194316Y-134383592D01*
X184146100Y-134333025D01*
X184132876Y-134264418D01*
X184158844Y-134199553D01*
X184168634Y-134188523D01*
X184452959Y-133904198D01*
X184370044Y-133860681D01*
X184204994Y-133820000D01*
X184035006Y-133820000D01*
X183869955Y-133860681D01*
X183787039Y-133904198D01*
X184071365Y-134188523D01*
X184104850Y-134249846D01*
X184099866Y-134319537D01*
X184057995Y-134375471D01*
X184045689Y-134383588D01*
X184042359Y-134385510D01*
X183985510Y-134442358D01*
X183983585Y-134445693D01*
X183933014Y-134493904D01*
X183864406Y-134507122D01*
X183799544Y-134481149D01*
X183788522Y-134471365D01*
X183501277Y-134184120D01*
X183495629Y-134192304D01*
X183445461Y-134324584D01*
X183403282Y-134380286D01*
X183359197Y-134401008D01*
X183319957Y-134410680D01*
X183237039Y-134454198D01*
X183521365Y-134738523D01*
X183554850Y-134799846D01*
X183549866Y-134869537D01*
X183507995Y-134925471D01*
X183495689Y-134933588D01*
X183492359Y-134935510D01*
X183435510Y-134992358D01*
X183433585Y-134995693D01*
X183383014Y-135043904D01*
X183314406Y-135057122D01*
X183249544Y-135031149D01*
X183238522Y-135021365D01*
X182951277Y-134734120D01*
X182945628Y-134742305D01*
X182885349Y-134901245D01*
X182885349Y-134901249D01*
X182864859Y-135069999D01*
X182864859Y-135070000D01*
X182885348Y-135238748D01*
X182885349Y-135238751D01*
X182945629Y-135397694D01*
X182951278Y-135405879D01*
X183238523Y-135118634D01*
X183299846Y-135085149D01*
X183369537Y-135090133D01*
X183425471Y-135132004D01*
X183433592Y-135144316D01*
X183435515Y-135147647D01*
X183492352Y-135204484D01*
X183495681Y-135206406D01*
X183543898Y-135256972D01*
X183557123Y-135325579D01*
X183531156Y-135390444D01*
X183521365Y-135401476D01*
X183302842Y-135619999D01*
X183302842Y-135620000D01*
X183521365Y-135838523D01*
X183554850Y-135899846D01*
X183549866Y-135969537D01*
X183507995Y-136025471D01*
X183495689Y-136033588D01*
X183492359Y-136035510D01*
X183435510Y-136092358D01*
X183433585Y-136095693D01*
X183383014Y-136143904D01*
X183314406Y-136157122D01*
X183249544Y-136131149D01*
X183238522Y-136121365D01*
X182951277Y-135834120D01*
X182945628Y-135842305D01*
X182885349Y-136001245D01*
X182885349Y-136001249D01*
X182864859Y-136169999D01*
X182864859Y-136170000D01*
X179701285Y-136170000D01*
X179676466Y-123740001D01*
X183738388Y-123740001D01*
X183756795Y-123950388D01*
X183756797Y-123950399D01*
X183811455Y-124154387D01*
X183811457Y-124154391D01*
X183811458Y-124154395D01*
X183893203Y-124329699D01*
X183900714Y-124345806D01*
X183900716Y-124345810D01*
X184021848Y-124518804D01*
X184021853Y-124518810D01*
X184171189Y-124668146D01*
X184171195Y-124668151D01*
X184344189Y-124789283D01*
X184344191Y-124789284D01*
X184344194Y-124789286D01*
X184535605Y-124878542D01*
X184535611Y-124878543D01*
X184535612Y-124878544D01*
X184578527Y-124890043D01*
X184739606Y-124933204D01*
X184889887Y-124946351D01*
X184949998Y-124951611D01*
X184950000Y-124951611D01*
X184950002Y-124951611D01*
X185002598Y-124947009D01*
X185160394Y-124933204D01*
X185183905Y-124926904D01*
X185253752Y-124928565D01*
X185311616Y-124967726D01*
X185339122Y-125031953D01*
X185339999Y-125046678D01*
X185339999Y-127679873D01*
X185338261Y-127695619D01*
X185338531Y-127695645D01*
X185337797Y-127703404D01*
X185340000Y-127773457D01*
X185340000Y-127803359D01*
X185340884Y-127810356D01*
X185341342Y-127816179D01*
X185342826Y-127863389D01*
X185342827Y-127863391D01*
X185348522Y-127882995D01*
X185352467Y-127902042D01*
X185355026Y-127922297D01*
X185355027Y-127922300D01*
X185355028Y-127922303D01*
X185372414Y-127966216D01*
X185374306Y-127971744D01*
X185387481Y-128017092D01*
X185397872Y-128034662D01*
X185406432Y-128052135D01*
X185413947Y-128071117D01*
X185441709Y-128109327D01*
X185444918Y-128114212D01*
X185468955Y-128154858D01*
X185468962Y-128154866D01*
X185483389Y-128169293D01*
X185496026Y-128184088D01*
X185508028Y-128200607D01*
X185544431Y-128230722D01*
X185548731Y-128234635D01*
X191434164Y-134120068D01*
X197192204Y-139878108D01*
X197225689Y-139939431D01*
X197227844Y-139952827D01*
X197246458Y-140129928D01*
X197246459Y-140129931D01*
X197305470Y-140311549D01*
X197305473Y-140311556D01*
X197400960Y-140476944D01*
X197528747Y-140618866D01*
X197683248Y-140731118D01*
X197857712Y-140808794D01*
X198044513Y-140848500D01*
X198235487Y-140848500D01*
X198422288Y-140808794D01*
X198596752Y-140731118D01*
X198751253Y-140618866D01*
X198879040Y-140476944D01*
X198974527Y-140311556D01*
X199033542Y-140129928D01*
X199053504Y-139940000D01*
X199033542Y-139750072D01*
X198974527Y-139568444D01*
X198879040Y-139403056D01*
X198751253Y-139261134D01*
X198596752Y-139148882D01*
X198422288Y-139071206D01*
X198422286Y-139071205D01*
X198235487Y-139031500D01*
X198188767Y-139031500D01*
X198121728Y-139011815D01*
X198101086Y-138995181D01*
X186643319Y-127537413D01*
X186609834Y-127476090D01*
X186607000Y-127449732D01*
X186607000Y-116237131D01*
X186608739Y-116221379D01*
X186608468Y-116221354D01*
X186609200Y-116213598D01*
X186609202Y-116213591D01*
X186607000Y-116143528D01*
X186607000Y-116113644D01*
X186606114Y-116106641D01*
X186605657Y-116100822D01*
X186604174Y-116053611D01*
X186598476Y-116033999D01*
X186594533Y-116014966D01*
X186591974Y-115994703D01*
X186574585Y-115950786D01*
X186572696Y-115945266D01*
X186559518Y-115899907D01*
X186549126Y-115882335D01*
X186540566Y-115864862D01*
X186533052Y-115845883D01*
X186505294Y-115807679D01*
X186502087Y-115802796D01*
X186488564Y-115779931D01*
X186478042Y-115762138D01*
X186463608Y-115747704D01*
X186450971Y-115732909D01*
X186438972Y-115716393D01*
X186438971Y-115716392D01*
X186405251Y-115688496D01*
X186366145Y-115630596D01*
X186360973Y-115605920D01*
X186343542Y-115440072D01*
X186284527Y-115258444D01*
X186189040Y-115093056D01*
X186061253Y-114951134D01*
X185906752Y-114838882D01*
X185732288Y-114761206D01*
X185732286Y-114761205D01*
X185545487Y-114721500D01*
X185354513Y-114721500D01*
X185167714Y-114761205D01*
X184993246Y-114838883D01*
X184838745Y-114951135D01*
X184710959Y-115093057D01*
X184615473Y-115258443D01*
X184615470Y-115258450D01*
X184556459Y-115440068D01*
X184556458Y-115440072D01*
X184536496Y-115630000D01*
X184556458Y-115819928D01*
X184556459Y-115819931D01*
X184615470Y-116001549D01*
X184615473Y-116001556D01*
X184710960Y-116166944D01*
X184838747Y-116308866D01*
X184993248Y-116421118D01*
X185167712Y-116498794D01*
X185241783Y-116514538D01*
X185303262Y-116547728D01*
X185337039Y-116608891D01*
X185340000Y-116635827D01*
X185340000Y-117364316D01*
X185320315Y-117431355D01*
X185267511Y-117477110D01*
X185198353Y-117487054D01*
X185193215Y-117486205D01*
X185061055Y-117461500D01*
X184838945Y-117461500D01*
X184620607Y-117502315D01*
X184413497Y-117582549D01*
X184413494Y-117582551D01*
X184297760Y-117654208D01*
X184761374Y-118117821D01*
X184794859Y-118179144D01*
X184789875Y-118248835D01*
X184748004Y-118304769D01*
X184729990Y-118315986D01*
X184708146Y-118327116D01*
X184617116Y-118418146D01*
X184605986Y-118439990D01*
X184558011Y-118490785D01*
X184490189Y-118507579D01*
X184424055Y-118485040D01*
X184407821Y-118471374D01*
X183942210Y-118005762D01*
X183926651Y-118026367D01*
X183926646Y-118026374D01*
X183827649Y-118225186D01*
X183827643Y-118225201D01*
X183766860Y-118438831D01*
X183766859Y-118438833D01*
X183746366Y-118659999D01*
X183746366Y-118660000D01*
X183766859Y-118881166D01*
X183766860Y-118881168D01*
X183827643Y-119094798D01*
X183827649Y-119094813D01*
X183926646Y-119293626D01*
X183926651Y-119293634D01*
X183942209Y-119314235D01*
X184407821Y-118848624D01*
X184469144Y-118815139D01*
X184538835Y-118820123D01*
X184594769Y-118861994D01*
X184605987Y-118880011D01*
X184617115Y-118901852D01*
X184708147Y-118992884D01*
X184729984Y-119004010D01*
X184780781Y-119051983D01*
X184797578Y-119119804D01*
X184775042Y-119185939D01*
X184761373Y-119202177D01*
X184297760Y-119665790D01*
X184297761Y-119665791D01*
X184413488Y-119737445D01*
X184413495Y-119737449D01*
X184620607Y-119817684D01*
X184838945Y-119858500D01*
X185061054Y-119858500D01*
X185193214Y-119833794D01*
X185262729Y-119840825D01*
X185317408Y-119884322D01*
X185339891Y-119950476D01*
X185340000Y-119955683D01*
X185340000Y-122433321D01*
X185320315Y-122500360D01*
X185267511Y-122546115D01*
X185198353Y-122556059D01*
X185183908Y-122553096D01*
X185160402Y-122546798D01*
X185160399Y-122546797D01*
X185160394Y-122546796D01*
X185160391Y-122546795D01*
X185160388Y-122546795D01*
X184950002Y-122528389D01*
X184949998Y-122528389D01*
X184739611Y-122546795D01*
X184739600Y-122546797D01*
X184535612Y-122601455D01*
X184535603Y-122601459D01*
X184344196Y-122690713D01*
X184344194Y-122690714D01*
X184171188Y-122811853D01*
X184021853Y-122961188D01*
X183900714Y-123134194D01*
X183900713Y-123134196D01*
X183811459Y-123325603D01*
X183811455Y-123325612D01*
X183756797Y-123529600D01*
X183756795Y-123529611D01*
X183738388Y-123739998D01*
X183738388Y-123740001D01*
X179676466Y-123740001D01*
X179654242Y-112610000D01*
X183776366Y-112610000D01*
X183796859Y-112831166D01*
X183796860Y-112831168D01*
X183857643Y-113044798D01*
X183857649Y-113044813D01*
X183956646Y-113243626D01*
X183956651Y-113243634D01*
X183972209Y-113264235D01*
X184437821Y-112798624D01*
X184499144Y-112765139D01*
X184568835Y-112770123D01*
X184624769Y-112811994D01*
X184635987Y-112830011D01*
X184647115Y-112851852D01*
X184738147Y-112942884D01*
X184759984Y-112954010D01*
X184810781Y-113001983D01*
X184827578Y-113069804D01*
X184805042Y-113135939D01*
X184791373Y-113152177D01*
X184327760Y-113615790D01*
X184327761Y-113615791D01*
X184443488Y-113687445D01*
X184443495Y-113687449D01*
X184650607Y-113767684D01*
X184868945Y-113808500D01*
X185091055Y-113808500D01*
X185309392Y-113767684D01*
X185516503Y-113687450D01*
X185516509Y-113687447D01*
X185632237Y-113615791D01*
X185632238Y-113615790D01*
X185168625Y-113152178D01*
X185135140Y-113090855D01*
X185140124Y-113021164D01*
X185181995Y-112965230D01*
X185200014Y-112954011D01*
X185221852Y-112942884D01*
X185221851Y-112942884D01*
X185221854Y-112942883D01*
X185312883Y-112851854D01*
X185324010Y-112830014D01*
X185371984Y-112779217D01*
X185439805Y-112762420D01*
X185505940Y-112784956D01*
X185522178Y-112798625D01*
X185987788Y-113264235D01*
X185987789Y-113264235D01*
X186003349Y-113243632D01*
X186003350Y-113243629D01*
X186102350Y-113044813D01*
X186102356Y-113044798D01*
X186163139Y-112831168D01*
X186163140Y-112831166D01*
X186183634Y-112610000D01*
X186183634Y-112609999D01*
X186163140Y-112388833D01*
X186163139Y-112388831D01*
X186102356Y-112175201D01*
X186102350Y-112175186D01*
X186003351Y-111976370D01*
X186003349Y-111976367D01*
X185987788Y-111955762D01*
X185522177Y-112421374D01*
X185460854Y-112454859D01*
X185391162Y-112449875D01*
X185335229Y-112408003D01*
X185324013Y-112389990D01*
X185312883Y-112368146D01*
X185221854Y-112277117D01*
X185221852Y-112277115D01*
X185200011Y-112265987D01*
X185149215Y-112218014D01*
X185132419Y-112150193D01*
X185154956Y-112084058D01*
X185168624Y-112067821D01*
X185632238Y-111604208D01*
X185516503Y-111532550D01*
X185516504Y-111532550D01*
X185309392Y-111452315D01*
X185091055Y-111411500D01*
X184868945Y-111411500D01*
X184650607Y-111452315D01*
X184443497Y-111532549D01*
X184443494Y-111532551D01*
X184327760Y-111604208D01*
X184791374Y-112067821D01*
X184824859Y-112129144D01*
X184819875Y-112198835D01*
X184778004Y-112254769D01*
X184759990Y-112265986D01*
X184738146Y-112277116D01*
X184647116Y-112368146D01*
X184635986Y-112389990D01*
X184588011Y-112440785D01*
X184520189Y-112457579D01*
X184454055Y-112435040D01*
X184437821Y-112421374D01*
X183972210Y-111955762D01*
X183956651Y-111976367D01*
X183956646Y-111976374D01*
X183857649Y-112175186D01*
X183857643Y-112175201D01*
X183796860Y-112388831D01*
X183796859Y-112388833D01*
X183776366Y-112609999D01*
X183776366Y-112610000D01*
X179654242Y-112610000D01*
X179643666Y-107313129D01*
X179645335Y-107297895D01*
X179644967Y-107297861D01*
X179645699Y-107290100D01*
X179645702Y-107290091D01*
X179643479Y-107219389D01*
X179643419Y-107188879D01*
X179642610Y-107182580D01*
X179642135Y-107176622D01*
X179640674Y-107130111D01*
X179634764Y-107109770D01*
X179630851Y-107090965D01*
X179628156Y-107069971D01*
X179628156Y-107069968D01*
X179610935Y-107026725D01*
X179608997Y-107021082D01*
X179596018Y-106976407D01*
X179585241Y-106958185D01*
X179576770Y-106940937D01*
X179571962Y-106928864D01*
X179568937Y-106921266D01*
X179541496Y-106883655D01*
X179538226Y-106878686D01*
X179514542Y-106838638D01*
X179514537Y-106838632D01*
X179499570Y-106823665D01*
X179487080Y-106809071D01*
X179474599Y-106791964D01*
X179438680Y-106762370D01*
X179434262Y-106758358D01*
X178134819Y-105458914D01*
X178101334Y-105397591D01*
X178098500Y-105371233D01*
X178098500Y-103065738D01*
X178118185Y-102998699D01*
X178170989Y-102952944D01*
X178240147Y-102943000D01*
X178274907Y-102953357D01*
X178296507Y-102963430D01*
X178296516Y-102963433D01*
X178510000Y-103020634D01*
X178510000Y-102302301D01*
X178529685Y-102235262D01*
X178582489Y-102189507D01*
X178651647Y-102179563D01*
X178724237Y-102190000D01*
X178724238Y-102190000D01*
X178795762Y-102190000D01*
X178795763Y-102190000D01*
X178868353Y-102179563D01*
X178937512Y-102189507D01*
X178990315Y-102235262D01*
X179010000Y-102302301D01*
X179010000Y-103020633D01*
X179223483Y-102963433D01*
X179223492Y-102963429D01*
X179437578Y-102863600D01*
X179631082Y-102728105D01*
X179798105Y-102561082D01*
X179933600Y-102367578D01*
X180033429Y-102153492D01*
X180033432Y-102153486D01*
X180090636Y-101940000D01*
X179373347Y-101940000D01*
X179306308Y-101920315D01*
X179260553Y-101867511D01*
X179250609Y-101798353D01*
X179254369Y-101781067D01*
X179260000Y-101761888D01*
X179260000Y-101618111D01*
X179254369Y-101598933D01*
X179254370Y-101529064D01*
X179292145Y-101470286D01*
X179355701Y-101441262D01*
X179373347Y-101440000D01*
X180090636Y-101440000D01*
X180090635Y-101439999D01*
X180033432Y-101226513D01*
X180033429Y-101226507D01*
X179933600Y-101012422D01*
X179933599Y-101012420D01*
X179798113Y-100818926D01*
X179798108Y-100818920D01*
X179631082Y-100651894D01*
X179450197Y-100525236D01*
X179406572Y-100470659D01*
X179399380Y-100401160D01*
X179430902Y-100338806D01*
X179462300Y-100314608D01*
X179505576Y-100291189D01*
X179683240Y-100152906D01*
X179703964Y-100130393D01*
X179763847Y-100094404D01*
X179833685Y-100096503D01*
X179882873Y-100126696D01*
X192877173Y-113120996D01*
X192910658Y-113182319D01*
X192905674Y-113252011D01*
X192863802Y-113307944D01*
X192798338Y-113332361D01*
X192794403Y-113332501D01*
X192572337Y-113351929D01*
X192572329Y-113351930D01*
X192358954Y-113409104D01*
X192358943Y-113409108D01*
X192203078Y-113481789D01*
X192134001Y-113492281D01*
X192070217Y-113463761D01*
X192062993Y-113457088D01*
X186677088Y-108071183D01*
X186667187Y-108058823D01*
X186666977Y-108058998D01*
X186662002Y-108052986D01*
X186662000Y-108052982D01*
X186635658Y-108028245D01*
X186610922Y-108005016D01*
X186589768Y-107983863D01*
X186587792Y-107982331D01*
X186584183Y-107979531D01*
X186579750Y-107975744D01*
X186545321Y-107943414D01*
X186545319Y-107943412D01*
X186527431Y-107933578D01*
X186511170Y-107922897D01*
X186495039Y-107910384D01*
X186451693Y-107891627D01*
X186446445Y-107889056D01*
X186419251Y-107874106D01*
X186405060Y-107866305D01*
X186401660Y-107865432D01*
X186385287Y-107861228D01*
X186366881Y-107854926D01*
X186348144Y-107846818D01*
X186348146Y-107846818D01*
X186301495Y-107839430D01*
X186295771Y-107838244D01*
X186269376Y-107831466D01*
X186209339Y-107795726D01*
X186178155Y-107733201D01*
X186176689Y-107700555D01*
X186178606Y-107678654D01*
X186191611Y-107530000D01*
X186173204Y-107319606D01*
X186122429Y-107130111D01*
X186118544Y-107115612D01*
X186118543Y-107115611D01*
X186118542Y-107115605D01*
X186029286Y-106924195D01*
X185948676Y-106809071D01*
X185908149Y-106751192D01*
X185908145Y-106751188D01*
X185758809Y-106601852D01*
X185758805Y-106601849D01*
X185758804Y-106601848D01*
X185585810Y-106480716D01*
X185585806Y-106480714D01*
X185498346Y-106439931D01*
X185394395Y-106391458D01*
X185394391Y-106391457D01*
X185394387Y-106391455D01*
X185190399Y-106336797D01*
X185190395Y-106336796D01*
X185190394Y-106336796D01*
X185190393Y-106336795D01*
X185190388Y-106336795D01*
X184980002Y-106318389D01*
X184979998Y-106318389D01*
X184769611Y-106336795D01*
X184769600Y-106336797D01*
X184565612Y-106391455D01*
X184565603Y-106391459D01*
X184374196Y-106480713D01*
X184374194Y-106480714D01*
X184201188Y-106601853D01*
X184051853Y-106751188D01*
X183930714Y-106924194D01*
X183930713Y-106924196D01*
X183841459Y-107115603D01*
X183841455Y-107115612D01*
X183786797Y-107319600D01*
X183786795Y-107319611D01*
X183768388Y-107529998D01*
X183768388Y-107530001D01*
X183786795Y-107740388D01*
X183786797Y-107740399D01*
X183841455Y-107944387D01*
X183841457Y-107944391D01*
X183841458Y-107944395D01*
X183905106Y-108080889D01*
X183930714Y-108135806D01*
X183930716Y-108135810D01*
X184051848Y-108308804D01*
X184051853Y-108308810D01*
X184201189Y-108458146D01*
X184201195Y-108458151D01*
X184374189Y-108579283D01*
X184374191Y-108579284D01*
X184374194Y-108579286D01*
X184565605Y-108668542D01*
X184769606Y-108723204D01*
X184919887Y-108736351D01*
X184979998Y-108741611D01*
X184980000Y-108741611D01*
X184980002Y-108741611D01*
X185085197Y-108732407D01*
X185190394Y-108723204D01*
X185221327Y-108714915D01*
X185291173Y-108716576D01*
X185341102Y-108747007D01*
X185442911Y-108848815D01*
X185452818Y-108861181D01*
X185453028Y-108861008D01*
X185457998Y-108867017D01*
X185509079Y-108914984D01*
X185530224Y-108936130D01*
X185535813Y-108940466D01*
X185540245Y-108944252D01*
X185563996Y-108966554D01*
X185574680Y-108976587D01*
X185592562Y-108986417D01*
X185608829Y-108997102D01*
X185624960Y-109009615D01*
X185646838Y-109019081D01*
X185668307Y-109028371D01*
X185673533Y-109030931D01*
X185714940Y-109053695D01*
X185734716Y-109058772D01*
X185753124Y-109065075D01*
X185771850Y-109073179D01*
X185771852Y-109073180D01*
X185771853Y-109073180D01*
X185771855Y-109073181D01*
X185812784Y-109079663D01*
X185818503Y-109080569D01*
X185824212Y-109081751D01*
X185869970Y-109093500D01*
X185869975Y-109093500D01*
X185870910Y-109093618D01*
X185871595Y-109093916D01*
X185877527Y-109095440D01*
X185877281Y-109096396D01*
X185934955Y-109121547D01*
X185943056Y-109128960D01*
X191051181Y-114237085D01*
X191084666Y-114298408D01*
X191087500Y-114324766D01*
X191087499Y-122517366D01*
X191085762Y-122533113D01*
X191086032Y-122533139D01*
X191085298Y-122540905D01*
X191087500Y-122610957D01*
X191087500Y-122640859D01*
X191088384Y-122647856D01*
X191088842Y-122653679D01*
X191090326Y-122700889D01*
X191090327Y-122700891D01*
X191096022Y-122720495D01*
X191099967Y-122739542D01*
X191102526Y-122759797D01*
X191102527Y-122759800D01*
X191102528Y-122759803D01*
X191119914Y-122803716D01*
X191121806Y-122809244D01*
X191134981Y-122854592D01*
X191145372Y-122872162D01*
X191153932Y-122889635D01*
X191161447Y-122908617D01*
X191189209Y-122946827D01*
X191192416Y-122951710D01*
X191216458Y-122992362D01*
X191216462Y-122992366D01*
X191230889Y-123006793D01*
X191243526Y-123021588D01*
X191255528Y-123038107D01*
X191291931Y-123068222D01*
X191296231Y-123072135D01*
X193013379Y-124789283D01*
X198136413Y-129912318D01*
X198169898Y-129973641D01*
X198164914Y-130043333D01*
X198136413Y-130087680D01*
X197818913Y-130405181D01*
X197757590Y-130438666D01*
X197731232Y-130441500D01*
X197574513Y-130441500D01*
X197387714Y-130481205D01*
X197213246Y-130558883D01*
X197058745Y-130671135D01*
X196930959Y-130813057D01*
X196835473Y-130978443D01*
X196835470Y-130978450D01*
X196779215Y-131151586D01*
X196776458Y-131160072D01*
X196756496Y-131350000D01*
X196776458Y-131539928D01*
X196776459Y-131539931D01*
X196835470Y-131721549D01*
X196835473Y-131721556D01*
X196930960Y-131886944D01*
X197058747Y-132028866D01*
X197213248Y-132141118D01*
X197387712Y-132218794D01*
X197574513Y-132258500D01*
X197765487Y-132258500D01*
X197952288Y-132218794D01*
X198067538Y-132167481D01*
X198136785Y-132158197D01*
X198200062Y-132187825D01*
X198237275Y-132246960D01*
X198236610Y-132316826D01*
X198205652Y-132368442D01*
X197208914Y-133365181D01*
X197147591Y-133398666D01*
X197121233Y-133401500D01*
X197064513Y-133401500D01*
X196877714Y-133441205D01*
X196703246Y-133518883D01*
X196548745Y-133631135D01*
X196420959Y-133773057D01*
X196325473Y-133938443D01*
X196325470Y-133938450D01*
X196266459Y-134120068D01*
X196266458Y-134120072D01*
X196246496Y-134310000D01*
X196266458Y-134499928D01*
X196266459Y-134499931D01*
X196325470Y-134681549D01*
X196325473Y-134681556D01*
X196420960Y-134846944D01*
X196548747Y-134988866D01*
X196703248Y-135101118D01*
X196877712Y-135178794D01*
X197064513Y-135218500D01*
X197255487Y-135218500D01*
X197442288Y-135178794D01*
X197616752Y-135101118D01*
X197771253Y-134988866D01*
X197899040Y-134846944D01*
X197994527Y-134681556D01*
X198053542Y-134499928D01*
X198070981Y-134333997D01*
X198097564Y-134269387D01*
X198106611Y-134259291D01*
X199958815Y-132407087D01*
X199971180Y-132397183D01*
X199971006Y-132396973D01*
X199977012Y-132392003D01*
X199977018Y-132392000D01*
X200024999Y-132340904D01*
X200046135Y-132319769D01*
X200050458Y-132314195D01*
X200054257Y-132309747D01*
X200058530Y-132305196D01*
X200086586Y-132275321D01*
X200096420Y-132257429D01*
X200107103Y-132241167D01*
X200119614Y-132225041D01*
X200138371Y-132181691D01*
X200140941Y-132176447D01*
X200163693Y-132135064D01*
X200163693Y-132135063D01*
X200163695Y-132135060D01*
X200168774Y-132115273D01*
X200175070Y-132096885D01*
X200183181Y-132078145D01*
X200190569Y-132031497D01*
X200191751Y-132025786D01*
X200203500Y-131980030D01*
X200203500Y-131959606D01*
X200205026Y-131940222D01*
X200208220Y-131920057D01*
X200203775Y-131873033D01*
X200203500Y-131867195D01*
X200203500Y-126892823D01*
X200203500Y-121532447D01*
X200205747Y-121508958D01*
X200207185Y-121501513D01*
X200203613Y-121442669D01*
X200203500Y-121438916D01*
X200203500Y-121420144D01*
X200201338Y-121403035D01*
X200200965Y-121399032D01*
X200197489Y-121341749D01*
X200197489Y-121341747D01*
X200194642Y-121332919D01*
X200189635Y-121310397D01*
X200188474Y-121301206D01*
X200188474Y-121301203D01*
X200167338Y-121247821D01*
X200165980Y-121244033D01*
X200148366Y-121189410D01*
X200143419Y-121181577D01*
X200132965Y-121161005D01*
X200129552Y-121152383D01*
X200095808Y-121105938D01*
X200093559Y-121102620D01*
X200062905Y-121054079D01*
X200062903Y-121054077D01*
X200056154Y-121047711D01*
X200040920Y-121030392D01*
X200035471Y-121022892D01*
X200035468Y-121022889D01*
X199991248Y-120986306D01*
X199988233Y-120983643D01*
X199105861Y-120151336D01*
X199070603Y-120091018D01*
X199067629Y-120074111D01*
X199053542Y-119940072D01*
X198994527Y-119758444D01*
X198899040Y-119593056D01*
X198771253Y-119451134D01*
X198616752Y-119338882D01*
X198442288Y-119261206D01*
X198442286Y-119261205D01*
X198255487Y-119221500D01*
X198064513Y-119221500D01*
X197877714Y-119261205D01*
X197703246Y-119338883D01*
X197548745Y-119451135D01*
X197420959Y-119593057D01*
X197325473Y-119758443D01*
X197325470Y-119758450D01*
X197266459Y-119940068D01*
X197266458Y-119940072D01*
X197246496Y-120130000D01*
X197266458Y-120319928D01*
X197266459Y-120319931D01*
X197325470Y-120501549D01*
X197325473Y-120501556D01*
X197420960Y-120666944D01*
X197548747Y-120808866D01*
X197703248Y-120921118D01*
X197877712Y-120998794D01*
X198064513Y-121038500D01*
X198150650Y-121038500D01*
X198217689Y-121058185D01*
X198235734Y-121072296D01*
X198897586Y-121696596D01*
X198932845Y-121756914D01*
X198936500Y-121786797D01*
X198936500Y-128621233D01*
X198916815Y-128688272D01*
X198864011Y-128734027D01*
X198794853Y-128743971D01*
X198731297Y-128714946D01*
X198724819Y-128708914D01*
X192390819Y-122374914D01*
X192357334Y-122313591D01*
X192354500Y-122287233D01*
X192354500Y-115951301D01*
X192374185Y-115884262D01*
X192426989Y-115838507D01*
X192496147Y-115828563D01*
X192510587Y-115831525D01*
X192572332Y-115848070D01*
X192729523Y-115861822D01*
X192792398Y-115867323D01*
X192792400Y-115867323D01*
X192792402Y-115867323D01*
X192847417Y-115862509D01*
X193012468Y-115848070D01*
X193225850Y-115790894D01*
X193426062Y-115697534D01*
X193607020Y-115570826D01*
X193763226Y-115414620D01*
X193889934Y-115233662D01*
X193983294Y-115033450D01*
X194040470Y-114820068D01*
X194059723Y-114600000D01*
X194060195Y-114594607D01*
X194062111Y-114594774D01*
X194079408Y-114535869D01*
X194132212Y-114490114D01*
X194201370Y-114480170D01*
X194264926Y-114509195D01*
X194271404Y-114515227D01*
X210779991Y-131023814D01*
X210789897Y-131036178D01*
X210790107Y-131036005D01*
X210795082Y-131042019D01*
X210846175Y-131089999D01*
X210867305Y-131111129D01*
X210867311Y-131111134D01*
X210872883Y-131115456D01*
X210877323Y-131119249D01*
X210911759Y-131151586D01*
X210929648Y-131161420D01*
X210945914Y-131172104D01*
X210962040Y-131184613D01*
X211005379Y-131203367D01*
X211010626Y-131205937D01*
X211052021Y-131228695D01*
X211071799Y-131233773D01*
X211090196Y-131240071D01*
X211108936Y-131248181D01*
X211108937Y-131248181D01*
X211112727Y-131249821D01*
X211166436Y-131294510D01*
X211187457Y-131361143D01*
X211183688Y-131394062D01*
X211155437Y-131505624D01*
X211155434Y-131505640D01*
X211136844Y-131729994D01*
X211136844Y-131730005D01*
X211155434Y-131954359D01*
X211155436Y-131954371D01*
X211210703Y-132172614D01*
X211301140Y-132378792D01*
X211424276Y-132567265D01*
X211424284Y-132567276D01*
X211576756Y-132732902D01*
X211576760Y-132732906D01*
X211754424Y-132871189D01*
X211754429Y-132871191D01*
X211754431Y-132871193D01*
X211790930Y-132890946D01*
X211840520Y-132940165D01*
X211855628Y-133008382D01*
X211831457Y-133073937D01*
X211790930Y-133109054D01*
X211754431Y-133128806D01*
X211754422Y-133128812D01*
X211576761Y-133267092D01*
X211576756Y-133267097D01*
X211424284Y-133432723D01*
X211424276Y-133432734D01*
X211301140Y-133621207D01*
X211210703Y-133827385D01*
X211155436Y-134045628D01*
X211155434Y-134045640D01*
X211136844Y-134269994D01*
X211136844Y-134270005D01*
X211155434Y-134494359D01*
X211155436Y-134494371D01*
X211210703Y-134712614D01*
X211301140Y-134918792D01*
X211424276Y-135107265D01*
X211424284Y-135107276D01*
X211574509Y-135270461D01*
X211576760Y-135272906D01*
X211754424Y-135411189D01*
X211797695Y-135434606D01*
X211847286Y-135483825D01*
X211862394Y-135552042D01*
X211838224Y-135617597D01*
X211809802Y-135645236D01*
X211628922Y-135771890D01*
X211628920Y-135771891D01*
X211461891Y-135938920D01*
X211461886Y-135938926D01*
X211326400Y-136132420D01*
X211326399Y-136132422D01*
X211226570Y-136346507D01*
X211226567Y-136346513D01*
X211169364Y-136559999D01*
X211169364Y-136560000D01*
X211886653Y-136560000D01*
X211953692Y-136579685D01*
X211999447Y-136632489D01*
X212009391Y-136701647D01*
X212005631Y-136718933D01*
X212000000Y-136738111D01*
X212000000Y-136881888D01*
X212005631Y-136901067D01*
X212005630Y-136970936D01*
X211967855Y-137029714D01*
X211904299Y-137058738D01*
X211886653Y-137060000D01*
X211169364Y-137060000D01*
X211226567Y-137273486D01*
X211226570Y-137273492D01*
X211326399Y-137487578D01*
X211461894Y-137681082D01*
X211628917Y-137848105D01*
X211822421Y-137983600D01*
X212036507Y-138083429D01*
X212036516Y-138083433D01*
X212250000Y-138140634D01*
X212250000Y-137422301D01*
X212269685Y-137355262D01*
X212322489Y-137309507D01*
X212391647Y-137299563D01*
X212464237Y-137310000D01*
X212464238Y-137310000D01*
X212535762Y-137310000D01*
X212535763Y-137310000D01*
X212608353Y-137299563D01*
X212677512Y-137309507D01*
X212730315Y-137355262D01*
X212750000Y-137422301D01*
X212750000Y-138140633D01*
X212963483Y-138083433D01*
X212963492Y-138083429D01*
X213177578Y-137983600D01*
X213371082Y-137848105D01*
X213538105Y-137681082D01*
X213673600Y-137487578D01*
X213773429Y-137273492D01*
X213773432Y-137273486D01*
X213830636Y-137060000D01*
X213113347Y-137060000D01*
X213046308Y-137040315D01*
X213000553Y-136987511D01*
X212990609Y-136918353D01*
X212994369Y-136901067D01*
X213000000Y-136881888D01*
X213000000Y-136738111D01*
X212994369Y-136718933D01*
X212994370Y-136649064D01*
X213032145Y-136590286D01*
X213095701Y-136561262D01*
X213113347Y-136560000D01*
X213830636Y-136560000D01*
X213830635Y-136559999D01*
X213773432Y-136346513D01*
X213773429Y-136346507D01*
X213673600Y-136132422D01*
X213673599Y-136132420D01*
X213538113Y-135938926D01*
X213538108Y-135938920D01*
X213371082Y-135771894D01*
X213190197Y-135645236D01*
X213146572Y-135590659D01*
X213139380Y-135521160D01*
X213170902Y-135458806D01*
X213202300Y-135434608D01*
X213245576Y-135411189D01*
X213423240Y-135272906D01*
X213565259Y-135118634D01*
X213575715Y-135107276D01*
X213575716Y-135107274D01*
X213575722Y-135107268D01*
X213698860Y-134918791D01*
X213789296Y-134712616D01*
X213844564Y-134494368D01*
X213844565Y-134494359D01*
X213863156Y-134270005D01*
X213863156Y-134269994D01*
X213844565Y-134045640D01*
X213844563Y-134045628D01*
X213789296Y-133827385D01*
X213765465Y-133773056D01*
X213698860Y-133621209D01*
X213575722Y-133432732D01*
X213575719Y-133432729D01*
X213575715Y-133432723D01*
X213423243Y-133267097D01*
X213423238Y-133267092D01*
X213245577Y-133128812D01*
X213245572Y-133128808D01*
X213209068Y-133109053D01*
X213159478Y-133059833D01*
X213144371Y-132991616D01*
X213168542Y-132926061D01*
X213209069Y-132890945D01*
X213245576Y-132871189D01*
X213423240Y-132732906D01*
X213575722Y-132567268D01*
X213698860Y-132378791D01*
X213789296Y-132172616D01*
X213844564Y-131954368D01*
X213851545Y-131870124D01*
X213863156Y-131730005D01*
X213863156Y-131729994D01*
X213844565Y-131505640D01*
X213844563Y-131505627D01*
X213823624Y-131422940D01*
X213826249Y-131353119D01*
X213866206Y-131295802D01*
X213930807Y-131269186D01*
X213943830Y-131268500D01*
X215251234Y-131268500D01*
X215318273Y-131288185D01*
X215338915Y-131304819D01*
X220792343Y-136758247D01*
X220825828Y-136819570D01*
X220820844Y-136889262D01*
X220778972Y-136945195D01*
X220741212Y-136964419D01*
X220663245Y-136988468D01*
X220425788Y-137102822D01*
X220425784Y-137102824D01*
X220208021Y-137251292D01*
X220014817Y-137430557D01*
X219850485Y-137636624D01*
X219718704Y-137864875D01*
X219622415Y-138110214D01*
X219622410Y-138110231D01*
X219563764Y-138367176D01*
X219544069Y-138629995D01*
X219544069Y-138630004D01*
X219563764Y-138892823D01*
X219621624Y-139146324D01*
X219622413Y-139149780D01*
X219718704Y-139395124D01*
X219850485Y-139623376D01*
X219951519Y-139750068D01*
X220014817Y-139829442D01*
X220107054Y-139915024D01*
X220208019Y-140008706D01*
X220425785Y-140157176D01*
X220663246Y-140271532D01*
X220915100Y-140349218D01*
X220915101Y-140349218D01*
X220915104Y-140349219D01*
X221175711Y-140388499D01*
X221175716Y-140388499D01*
X221175719Y-140388500D01*
X221175720Y-140388500D01*
X221439280Y-140388500D01*
X221439281Y-140388500D01*
X221439288Y-140388499D01*
X221699895Y-140349219D01*
X221699896Y-140349218D01*
X221699900Y-140349218D01*
X221951754Y-140271532D01*
X222189216Y-140157176D01*
X222406981Y-140008706D01*
X222600186Y-139829438D01*
X222764515Y-139623376D01*
X222896296Y-139395124D01*
X222977311Y-139188701D01*
X223020126Y-139133489D01*
X223085996Y-139110188D01*
X223154006Y-139126199D01*
X223180419Y-139146324D01*
X228600181Y-144566085D01*
X228633666Y-144627408D01*
X228636500Y-144653766D01*
X228636500Y-144776461D01*
X228616815Y-144843500D01*
X228564011Y-144889255D01*
X228494853Y-144899199D01*
X228454046Y-144885819D01*
X228397420Y-144855551D01*
X228368074Y-144846649D01*
X228202601Y-144796454D01*
X228202599Y-144796453D01*
X228202601Y-144796453D01*
X228000000Y-144776499D01*
X227797400Y-144796453D01*
X227713266Y-144821975D01*
X227602583Y-144855550D01*
X227602579Y-144855551D01*
X227596754Y-144857319D01*
X227596052Y-144855007D01*
X227537152Y-144861313D01*
X227499806Y-144848130D01*
X227497095Y-144846650D01*
X227362376Y-144796402D01*
X227362372Y-144796401D01*
X227302844Y-144790000D01*
X226980000Y-144790000D01*
X226980000Y-145555669D01*
X226960315Y-145622708D01*
X226907511Y-145668463D01*
X226838353Y-145678407D01*
X226815740Y-145672951D01*
X226792578Y-145665000D01*
X226792576Y-145665000D01*
X226698927Y-145665000D01*
X226698926Y-145665000D01*
X226624408Y-145677434D01*
X226555043Y-145669052D01*
X226501222Y-145624498D01*
X226480031Y-145557919D01*
X226480000Y-145555125D01*
X226480000Y-144790000D01*
X226157155Y-144790000D01*
X226097627Y-144796401D01*
X226097620Y-144796403D01*
X225962913Y-144846645D01*
X225962906Y-144846649D01*
X225847812Y-144932809D01*
X225847809Y-144932812D01*
X225761649Y-145047906D01*
X225761645Y-145047913D01*
X225711403Y-145182620D01*
X225711401Y-145182627D01*
X225705000Y-145242155D01*
X225705000Y-145790000D01*
X226241808Y-145790000D01*
X226308847Y-145809685D01*
X226354602Y-145862489D01*
X226364546Y-145931647D01*
X226362013Y-145944441D01*
X226361448Y-145946670D01*
X226351113Y-146071392D01*
X226367363Y-146135560D01*
X226364738Y-146205381D01*
X226324781Y-146262698D01*
X226260180Y-146289314D01*
X226247157Y-146290000D01*
X225705000Y-146290000D01*
X225705000Y-146837844D01*
X225711401Y-146897372D01*
X225711403Y-146897379D01*
X225761645Y-147032086D01*
X225761649Y-147032093D01*
X225847809Y-147147187D01*
X225847812Y-147147190D01*
X225962906Y-147233350D01*
X225962913Y-147233354D01*
X226097620Y-147283596D01*
X226097627Y-147283598D01*
X226157155Y-147289999D01*
X226157172Y-147290000D01*
X226480000Y-147290000D01*
X226480000Y-146524330D01*
X226499685Y-146457291D01*
X226552489Y-146411536D01*
X226621647Y-146401592D01*
X226644262Y-146407048D01*
X226667424Y-146415000D01*
X226761072Y-146415000D01*
X226761073Y-146415000D01*
X226835592Y-146402565D01*
X226904955Y-146410947D01*
X226958777Y-146455500D01*
X226979968Y-146522078D01*
X226980000Y-146524874D01*
X226980000Y-147290000D01*
X227302828Y-147290000D01*
X227302844Y-147289999D01*
X227362372Y-147283598D01*
X227362376Y-147283597D01*
X227497088Y-147233352D01*
X227499792Y-147231876D01*
X227502802Y-147231220D01*
X227505398Y-147230253D01*
X227505537Y-147230626D01*
X227568065Y-147217022D01*
X227596435Y-147223727D01*
X227596753Y-147222681D01*
X227602580Y-147224448D01*
X227602583Y-147224450D01*
X227797399Y-147283546D01*
X227797398Y-147283546D01*
X227819533Y-147285726D01*
X228000000Y-147303501D01*
X228071447Y-147296463D01*
X228140090Y-147309481D01*
X228171281Y-147332185D01*
X228342910Y-147503814D01*
X228352816Y-147516178D01*
X228353026Y-147516005D01*
X228358001Y-147522019D01*
X228409095Y-147570000D01*
X228430224Y-147591129D01*
X228430228Y-147591132D01*
X228430231Y-147591135D01*
X228435805Y-147595458D01*
X228440245Y-147599251D01*
X228461856Y-147619544D01*
X228474679Y-147631586D01*
X228474683Y-147631589D01*
X228492563Y-147641418D01*
X228508827Y-147652101D01*
X228524960Y-147664614D01*
X228568301Y-147683369D01*
X228573550Y-147685941D01*
X228582080Y-147690630D01*
X228614940Y-147708695D01*
X228634718Y-147713773D01*
X228653119Y-147720073D01*
X228671855Y-147728181D01*
X228716362Y-147735229D01*
X228718503Y-147735569D01*
X228724212Y-147736751D01*
X228769970Y-147748500D01*
X228790384Y-147748500D01*
X228809783Y-147750027D01*
X228829943Y-147753220D01*
X228876965Y-147748775D01*
X228882804Y-147748500D01*
X229538448Y-147748500D01*
X229554195Y-147750238D01*
X229554221Y-147749968D01*
X229561987Y-147750701D01*
X229561991Y-147750702D01*
X229632040Y-147748500D01*
X229661938Y-147748500D01*
X229661939Y-147748500D01*
X229663304Y-147748327D01*
X229668944Y-147747614D01*
X229674767Y-147747156D01*
X229700790Y-147746338D01*
X229721972Y-147745673D01*
X229731763Y-147742827D01*
X229741563Y-147739980D01*
X229760620Y-147736032D01*
X229780879Y-147733474D01*
X229824803Y-147716082D01*
X229830303Y-147714199D01*
X229875675Y-147701018D01*
X229893247Y-147690625D01*
X229910714Y-147682068D01*
X229929699Y-147674552D01*
X229967908Y-147646790D01*
X229972786Y-147643585D01*
X230013444Y-147619542D01*
X230027884Y-147605100D01*
X230042674Y-147592470D01*
X230059189Y-147580472D01*
X230089304Y-147544067D01*
X230093208Y-147539776D01*
X230508815Y-147124169D01*
X230521180Y-147114265D01*
X230521006Y-147114055D01*
X230527012Y-147109085D01*
X230527018Y-147109082D01*
X230574999Y-147057986D01*
X230596134Y-147036852D01*
X230600463Y-147031269D01*
X230604242Y-147026845D01*
X230636586Y-146992403D01*
X230646423Y-146974506D01*
X230657097Y-146958256D01*
X230669613Y-146942123D01*
X230688372Y-146898771D01*
X230690933Y-146893544D01*
X230713695Y-146852142D01*
X230718774Y-146832356D01*
X230725072Y-146813964D01*
X230733181Y-146795227D01*
X230740568Y-146748583D01*
X230741748Y-146742876D01*
X230753500Y-146697112D01*
X230753500Y-146676691D01*
X230755027Y-146657291D01*
X230758219Y-146637139D01*
X230753775Y-146590122D01*
X230753500Y-146584285D01*
X230753500Y-138630004D01*
X231744069Y-138630004D01*
X231763764Y-138892823D01*
X231821624Y-139146324D01*
X231822413Y-139149780D01*
X231918704Y-139395124D01*
X232050485Y-139623376D01*
X232151519Y-139750068D01*
X232214817Y-139829442D01*
X232307054Y-139915024D01*
X232408019Y-140008706D01*
X232625785Y-140157176D01*
X232863246Y-140271532D01*
X233115100Y-140349218D01*
X233115101Y-140349218D01*
X233115104Y-140349219D01*
X233375711Y-140388499D01*
X233375716Y-140388499D01*
X233375719Y-140388500D01*
X233375720Y-140388500D01*
X233639280Y-140388500D01*
X233639281Y-140388500D01*
X233639288Y-140388499D01*
X233899895Y-140349219D01*
X233899896Y-140349218D01*
X233899900Y-140349218D01*
X234151754Y-140271532D01*
X234389216Y-140157176D01*
X234606981Y-140008706D01*
X234800186Y-139829438D01*
X234964515Y-139623376D01*
X235096296Y-139395124D01*
X235192587Y-139149780D01*
X235251235Y-138892826D01*
X235270931Y-138630000D01*
X235270176Y-138619931D01*
X235251235Y-138367176D01*
X235251235Y-138367174D01*
X235192587Y-138110220D01*
X235096296Y-137864876D01*
X234964515Y-137636624D01*
X234800186Y-137430562D01*
X234800185Y-137430561D01*
X234800182Y-137430557D01*
X234606981Y-137251294D01*
X234583012Y-137234952D01*
X234389216Y-137102824D01*
X234389212Y-137102822D01*
X234389211Y-137102821D01*
X234237402Y-137029714D01*
X234151754Y-136988468D01*
X234151748Y-136988466D01*
X234151740Y-136988463D01*
X233899905Y-136910783D01*
X233899895Y-136910780D01*
X233639288Y-136871500D01*
X233639281Y-136871500D01*
X233375719Y-136871500D01*
X233375711Y-136871500D01*
X233115104Y-136910780D01*
X233115098Y-136910782D01*
X232863245Y-136988468D01*
X232625788Y-137102822D01*
X232625784Y-137102824D01*
X232408021Y-137251292D01*
X232214817Y-137430557D01*
X232050485Y-137636624D01*
X231918704Y-137864875D01*
X231822415Y-138110214D01*
X231822410Y-138110231D01*
X231763764Y-138367176D01*
X231744069Y-138629995D01*
X231744069Y-138630004D01*
X230753500Y-138630004D01*
X230753500Y-133928637D01*
X233748999Y-133928637D01*
X233749000Y-133928654D01*
X233755511Y-133989202D01*
X233755511Y-133989204D01*
X233804322Y-134120068D01*
X233806611Y-134126204D01*
X233894239Y-134243261D01*
X234011296Y-134330889D01*
X234148299Y-134381989D01*
X234175550Y-134384918D01*
X234208845Y-134388499D01*
X234208862Y-134388500D01*
X236806138Y-134388500D01*
X236806154Y-134388499D01*
X236833950Y-134385510D01*
X236866701Y-134381989D01*
X237003704Y-134330889D01*
X237120761Y-134243261D01*
X237208389Y-134126204D01*
X237259489Y-133989201D01*
X237263091Y-133955692D01*
X237265999Y-133928654D01*
X237266000Y-133928637D01*
X237266000Y-131331362D01*
X237265999Y-131331345D01*
X237262038Y-131294510D01*
X237259489Y-131270799D01*
X237258887Y-131269186D01*
X237218692Y-131161420D01*
X237208389Y-131133796D01*
X237120761Y-131016739D01*
X237003704Y-130929111D01*
X237003703Y-130929110D01*
X236866703Y-130878011D01*
X236806154Y-130871500D01*
X236806138Y-130871500D01*
X234208862Y-130871500D01*
X234208845Y-130871500D01*
X234148297Y-130878011D01*
X234148295Y-130878011D01*
X234011295Y-130929111D01*
X233894239Y-131016739D01*
X233806611Y-131133795D01*
X233755511Y-131270795D01*
X233755511Y-131270797D01*
X233749000Y-131331345D01*
X233748999Y-131331362D01*
X233748999Y-133928637D01*
X230753500Y-133928637D01*
X230753500Y-126630004D01*
X231744069Y-126630004D01*
X231763764Y-126892823D01*
X231763765Y-126892826D01*
X231822413Y-127149780D01*
X231918704Y-127395124D01*
X232050485Y-127623376D01*
X232170171Y-127773457D01*
X232214817Y-127829442D01*
X232314889Y-127922294D01*
X232408019Y-128008706D01*
X232625785Y-128157176D01*
X232863246Y-128271532D01*
X233115100Y-128349218D01*
X233115101Y-128349218D01*
X233115104Y-128349219D01*
X233375711Y-128388499D01*
X233375716Y-128388499D01*
X233375719Y-128388500D01*
X233375720Y-128388500D01*
X233639280Y-128388500D01*
X233639281Y-128388500D01*
X233639288Y-128388499D01*
X233899895Y-128349219D01*
X233899896Y-128349218D01*
X233899900Y-128349218D01*
X234151754Y-128271532D01*
X234389216Y-128157176D01*
X234606981Y-128008706D01*
X234800186Y-127829438D01*
X234964515Y-127623376D01*
X235096296Y-127395124D01*
X235192587Y-127149780D01*
X235251235Y-126892826D01*
X235270931Y-126630000D01*
X235251235Y-126367174D01*
X235192587Y-126110220D01*
X235096296Y-125864876D01*
X234964515Y-125636624D01*
X234800186Y-125430562D01*
X234800185Y-125430561D01*
X234800182Y-125430557D01*
X234606981Y-125251294D01*
X234603314Y-125248794D01*
X234389216Y-125102824D01*
X234389212Y-125102822D01*
X234389211Y-125102821D01*
X234242051Y-125031953D01*
X234151754Y-124988468D01*
X234151748Y-124988466D01*
X234151740Y-124988463D01*
X233899905Y-124910783D01*
X233899895Y-124910780D01*
X233639288Y-124871500D01*
X233639281Y-124871500D01*
X233375719Y-124871500D01*
X233375711Y-124871500D01*
X233115104Y-124910780D01*
X233115098Y-124910782D01*
X232863245Y-124988468D01*
X232625788Y-125102822D01*
X232625784Y-125102824D01*
X232408021Y-125251292D01*
X232214817Y-125430557D01*
X232050485Y-125636624D01*
X231918704Y-125864875D01*
X231822415Y-126110214D01*
X231822410Y-126110231D01*
X231763764Y-126367176D01*
X231744069Y-126629995D01*
X231744069Y-126630004D01*
X230753500Y-126630004D01*
X230753500Y-124983631D01*
X230755238Y-124967881D01*
X230754968Y-124967856D01*
X230755701Y-124960094D01*
X230755702Y-124960091D01*
X230753500Y-124890042D01*
X230753500Y-124860144D01*
X230752614Y-124853136D01*
X230752156Y-124847314D01*
X230750673Y-124800111D01*
X230750672Y-124800109D01*
X230744977Y-124780509D01*
X230741032Y-124761459D01*
X230738474Y-124741203D01*
X230721084Y-124697283D01*
X230719195Y-124691763D01*
X230712334Y-124668148D01*
X230706018Y-124646407D01*
X230695622Y-124628829D01*
X230687066Y-124611362D01*
X230679552Y-124592383D01*
X230651794Y-124554179D01*
X230648587Y-124549296D01*
X230638873Y-124532871D01*
X230624542Y-124508638D01*
X230610108Y-124494204D01*
X230597471Y-124479409D01*
X230585472Y-124462893D01*
X230585471Y-124462892D01*
X230584206Y-124461545D01*
X230583549Y-124460246D01*
X230580886Y-124456581D01*
X230581477Y-124456151D01*
X230552666Y-124399199D01*
X230559839Y-124329699D01*
X230586921Y-124288982D01*
X230596135Y-124279770D01*
X230600461Y-124274192D01*
X230604250Y-124269755D01*
X230636586Y-124235321D01*
X230646419Y-124217432D01*
X230657102Y-124201169D01*
X230669614Y-124185041D01*
X230688371Y-124141691D01*
X230690941Y-124136447D01*
X230713693Y-124095064D01*
X230713693Y-124095063D01*
X230713695Y-124095060D01*
X230718774Y-124075273D01*
X230725070Y-124056885D01*
X230733181Y-124038145D01*
X230740569Y-123991497D01*
X230741751Y-123985786D01*
X230753500Y-123940030D01*
X230753500Y-123919606D01*
X230755026Y-123900222D01*
X230758220Y-123880057D01*
X230753775Y-123833033D01*
X230753500Y-123827195D01*
X230753500Y-120253626D01*
X230755238Y-120237881D01*
X230754967Y-120237856D01*
X230755701Y-120230093D01*
X230753500Y-120160059D01*
X230753500Y-120130150D01*
X230753500Y-120130144D01*
X230752615Y-120123140D01*
X230752156Y-120117311D01*
X230750673Y-120070109D01*
X230744979Y-120050514D01*
X230741032Y-120031457D01*
X230738474Y-120011203D01*
X230721088Y-119967291D01*
X230719196Y-119961764D01*
X230712892Y-119940068D01*
X230706018Y-119916406D01*
X230695625Y-119898833D01*
X230687063Y-119881355D01*
X230679552Y-119862383D01*
X230679550Y-119862380D01*
X230679549Y-119862378D01*
X230651794Y-119824177D01*
X230648586Y-119819293D01*
X230640633Y-119805847D01*
X230624542Y-119778637D01*
X230610108Y-119764203D01*
X230597469Y-119749406D01*
X230588782Y-119737449D01*
X230585472Y-119732893D01*
X230549084Y-119702790D01*
X230544762Y-119698857D01*
X222055904Y-111209999D01*
X233726807Y-111209999D01*
X233745557Y-111484130D01*
X233745558Y-111484132D01*
X233801458Y-111753141D01*
X233801463Y-111753158D01*
X233893476Y-112012056D01*
X234019889Y-112256024D01*
X234019893Y-112256030D01*
X234178340Y-112480499D01*
X234178343Y-112480502D01*
X234365889Y-112681314D01*
X234579031Y-112854718D01*
X234579033Y-112854719D01*
X234579034Y-112854720D01*
X234813801Y-112997485D01*
X234922762Y-113044813D01*
X235065823Y-113106953D01*
X235330404Y-113181085D01*
X235569720Y-113213978D01*
X235602614Y-113218500D01*
X235602615Y-113218500D01*
X235877386Y-113218500D01*
X235906733Y-113214466D01*
X236149596Y-113181085D01*
X236414177Y-113106953D01*
X236666200Y-112997484D01*
X236900969Y-112854718D01*
X237114111Y-112681314D01*
X237301657Y-112480502D01*
X237460111Y-112256023D01*
X237586523Y-112012058D01*
X237678538Y-111753153D01*
X237678539Y-111753146D01*
X237678541Y-111753141D01*
X237724380Y-111532549D01*
X237734442Y-111484130D01*
X237753193Y-111210000D01*
X237734442Y-110935870D01*
X237705213Y-110795214D01*
X237678541Y-110666858D01*
X237678536Y-110666841D01*
X237586523Y-110407943D01*
X237586523Y-110407942D01*
X237460111Y-110163977D01*
X237460110Y-110163975D01*
X237460106Y-110163969D01*
X237301659Y-109939500D01*
X237261370Y-109896361D01*
X237114111Y-109738686D01*
X236900969Y-109565282D01*
X236900967Y-109565281D01*
X236900965Y-109565279D01*
X236666198Y-109422514D01*
X236414178Y-109313047D01*
X236149602Y-109238916D01*
X236149597Y-109238915D01*
X236149596Y-109238915D01*
X236013490Y-109220207D01*
X235877386Y-109201500D01*
X235877385Y-109201500D01*
X235602615Y-109201500D01*
X235602614Y-109201500D01*
X235330404Y-109238915D01*
X235330397Y-109238916D01*
X235065821Y-109313047D01*
X234813801Y-109422514D01*
X234579034Y-109565279D01*
X234365892Y-109738683D01*
X234178340Y-109939500D01*
X234019893Y-110163969D01*
X234019889Y-110163975D01*
X233893476Y-110407943D01*
X233801463Y-110666841D01*
X233801458Y-110666858D01*
X233745558Y-110935867D01*
X233745557Y-110935869D01*
X233726807Y-111209999D01*
X222055904Y-111209999D01*
X221646114Y-110800209D01*
X221612629Y-110738886D01*
X221617613Y-110669194D01*
X221659485Y-110613261D01*
X221724949Y-110588844D01*
X221765887Y-110592752D01*
X221972332Y-110648070D01*
X222129523Y-110661822D01*
X222192398Y-110667323D01*
X222192400Y-110667323D01*
X222192402Y-110667323D01*
X222247416Y-110662509D01*
X222412468Y-110648070D01*
X222625850Y-110590894D01*
X222826062Y-110497534D01*
X223007020Y-110370826D01*
X223163226Y-110214620D01*
X223289934Y-110033662D01*
X223383294Y-109833450D01*
X223440470Y-109620068D01*
X223459723Y-109400000D01*
X223440470Y-109179932D01*
X223383294Y-108966550D01*
X223289934Y-108766339D01*
X223163226Y-108585380D01*
X223007020Y-108429174D01*
X223007016Y-108429171D01*
X223007015Y-108429170D01*
X222826066Y-108302468D01*
X222826062Y-108302466D01*
X222826061Y-108302465D01*
X222625850Y-108209106D01*
X222625847Y-108209105D01*
X222625845Y-108209104D01*
X222412470Y-108151930D01*
X222412462Y-108151929D01*
X222192402Y-108132677D01*
X222192398Y-108132677D01*
X221972337Y-108151929D01*
X221972329Y-108151930D01*
X221758954Y-108209104D01*
X221758948Y-108209107D01*
X221558740Y-108302465D01*
X221558738Y-108302466D01*
X221377777Y-108429175D01*
X221221575Y-108585377D01*
X221094866Y-108766338D01*
X221094865Y-108766340D01*
X221001507Y-108966548D01*
X221001504Y-108966554D01*
X220944330Y-109179929D01*
X220944329Y-109179937D01*
X220925077Y-109399997D01*
X220925077Y-109400002D01*
X220944329Y-109620062D01*
X220944331Y-109620073D01*
X220999646Y-109826511D01*
X220997983Y-109896361D01*
X220958820Y-109954223D01*
X220894592Y-109981727D01*
X220825690Y-109970140D01*
X220792190Y-109946285D01*
X218524559Y-107678654D01*
X233731500Y-107678654D01*
X233738011Y-107739202D01*
X233738011Y-107739204D01*
X233782620Y-107858801D01*
X233789111Y-107876204D01*
X233876739Y-107993261D01*
X233993796Y-108080889D01*
X234130799Y-108131989D01*
X234158050Y-108134918D01*
X234191345Y-108138499D01*
X234191362Y-108138500D01*
X237288638Y-108138500D01*
X237288654Y-108138499D01*
X237315692Y-108135591D01*
X237349201Y-108131989D01*
X237486204Y-108080889D01*
X237603261Y-107993261D01*
X237690889Y-107876204D01*
X237741989Y-107739201D01*
X237746144Y-107700555D01*
X237748499Y-107678654D01*
X237748500Y-107678637D01*
X237748500Y-104581362D01*
X237748499Y-104581345D01*
X237745157Y-104550270D01*
X237741989Y-104520799D01*
X237690889Y-104383796D01*
X237603261Y-104266739D01*
X237486204Y-104179111D01*
X237486203Y-104179111D01*
X237349203Y-104128011D01*
X237288654Y-104121500D01*
X237288638Y-104121500D01*
X234191362Y-104121500D01*
X234191345Y-104121500D01*
X234130797Y-104128011D01*
X234130795Y-104128011D01*
X233993795Y-104179111D01*
X233876739Y-104266739D01*
X233789111Y-104383795D01*
X233738011Y-104520795D01*
X233738011Y-104520797D01*
X233731500Y-104581345D01*
X233731500Y-107678654D01*
X218524559Y-107678654D01*
X216048559Y-105202654D01*
X220929900Y-105202654D01*
X220936411Y-105263202D01*
X220936411Y-105263204D01*
X220965615Y-105341500D01*
X220987511Y-105400204D01*
X221075139Y-105517261D01*
X221192196Y-105604889D01*
X221329199Y-105655989D01*
X221356450Y-105658918D01*
X221389745Y-105662499D01*
X221389762Y-105662500D01*
X222995038Y-105662500D01*
X222995054Y-105662499D01*
X223022092Y-105659591D01*
X223055601Y-105655989D01*
X223192604Y-105604889D01*
X223309661Y-105517261D01*
X223397289Y-105400204D01*
X223448389Y-105263201D01*
X223451991Y-105229692D01*
X223454899Y-105202654D01*
X223454900Y-105202637D01*
X223454900Y-103597362D01*
X223454899Y-103597345D01*
X223451557Y-103566270D01*
X223448389Y-103536799D01*
X223397289Y-103399796D01*
X223309661Y-103282739D01*
X223192604Y-103195111D01*
X223192603Y-103195111D01*
X223055603Y-103144011D01*
X222995054Y-103137500D01*
X222995038Y-103137500D01*
X221389762Y-103137500D01*
X221389745Y-103137500D01*
X221329197Y-103144011D01*
X221329195Y-103144011D01*
X221192195Y-103195111D01*
X221075139Y-103282739D01*
X220987511Y-103399795D01*
X220936411Y-103536795D01*
X220936411Y-103536797D01*
X220929900Y-103597345D01*
X220929900Y-105202654D01*
X216048559Y-105202654D01*
X212274559Y-101428654D01*
X233571500Y-101428654D01*
X233578011Y-101489202D01*
X233578011Y-101489204D01*
X233618939Y-101598933D01*
X233629111Y-101626204D01*
X233716739Y-101743261D01*
X233833796Y-101830889D01*
X233970799Y-101881989D01*
X233998050Y-101884918D01*
X234031345Y-101888499D01*
X234031362Y-101888500D01*
X237128638Y-101888500D01*
X237128654Y-101888499D01*
X237155692Y-101885591D01*
X237189201Y-101881989D01*
X237326204Y-101830889D01*
X237443261Y-101743261D01*
X237530889Y-101626204D01*
X237581989Y-101489201D01*
X237587143Y-101441262D01*
X237588499Y-101428654D01*
X237588500Y-101428637D01*
X237588500Y-98331362D01*
X237588499Y-98331345D01*
X237584434Y-98293543D01*
X237581989Y-98270799D01*
X237578848Y-98262378D01*
X237554169Y-98196211D01*
X237530889Y-98133796D01*
X237443261Y-98016739D01*
X237326204Y-97929111D01*
X237189203Y-97878011D01*
X237128654Y-97871500D01*
X237128638Y-97871500D01*
X234031362Y-97871500D01*
X234031345Y-97871500D01*
X233970797Y-97878011D01*
X233970795Y-97878011D01*
X233833795Y-97929111D01*
X233716739Y-98016739D01*
X233629111Y-98133795D01*
X233578011Y-98270795D01*
X233578011Y-98270797D01*
X233571500Y-98331345D01*
X233571500Y-101428654D01*
X212274559Y-101428654D01*
X206246685Y-95400780D01*
X206213200Y-95339457D01*
X206214474Y-95286120D01*
X206213745Y-95285992D01*
X206214592Y-95281186D01*
X206214596Y-95280987D01*
X206214686Y-95280655D01*
X206230483Y-95100093D01*
X206233116Y-95070001D01*
X206233116Y-95069998D01*
X206221575Y-94938087D01*
X206214686Y-94859345D01*
X206174669Y-94710001D01*
X209751502Y-94710001D01*
X209771456Y-94938081D01*
X209771457Y-94938089D01*
X209830714Y-95159238D01*
X209830718Y-95159249D01*
X209916468Y-95343141D01*
X209927477Y-95366749D01*
X210058802Y-95554300D01*
X210220700Y-95716198D01*
X210408251Y-95847523D01*
X210521565Y-95900362D01*
X210615750Y-95944281D01*
X210615752Y-95944281D01*
X210615757Y-95944284D01*
X210836913Y-96003543D01*
X210999832Y-96017796D01*
X211064998Y-96023498D01*
X211065000Y-96023498D01*
X211065002Y-96023498D01*
X211122021Y-96018509D01*
X211293087Y-96003543D01*
X211514243Y-95944284D01*
X211721749Y-95847523D01*
X211909300Y-95716198D01*
X212071198Y-95554300D01*
X212202523Y-95366749D01*
X212299284Y-95159243D01*
X212358543Y-94938087D01*
X212378498Y-94710001D01*
X214831502Y-94710001D01*
X214851456Y-94938081D01*
X214851457Y-94938089D01*
X214910714Y-95159238D01*
X214910718Y-95159249D01*
X214996468Y-95343141D01*
X215007477Y-95366749D01*
X215138802Y-95554300D01*
X215300700Y-95716198D01*
X215488251Y-95847523D01*
X215601565Y-95900362D01*
X215695750Y-95944281D01*
X215695752Y-95944281D01*
X215695757Y-95944284D01*
X215916913Y-96003543D01*
X216079832Y-96017796D01*
X216144998Y-96023498D01*
X216145000Y-96023498D01*
X216145002Y-96023498D01*
X216202021Y-96018509D01*
X216373087Y-96003543D01*
X216594243Y-95944284D01*
X216801749Y-95847523D01*
X216989300Y-95716198D01*
X217151198Y-95554300D01*
X217282523Y-95366749D01*
X217379284Y-95159243D01*
X217438543Y-94938087D01*
X217454998Y-94750000D01*
X229476496Y-94750000D01*
X229496458Y-94939928D01*
X229496459Y-94939931D01*
X229555470Y-95121549D01*
X229555473Y-95121556D01*
X229650960Y-95286944D01*
X229722813Y-95366745D01*
X229776780Y-95426682D01*
X229778747Y-95428866D01*
X229933248Y-95541118D01*
X230107712Y-95618794D01*
X230294513Y-95658500D01*
X230485487Y-95658500D01*
X230672288Y-95618794D01*
X230846752Y-95541118D01*
X231001253Y-95428866D01*
X231129040Y-95286944D01*
X231224527Y-95121556D01*
X231283542Y-94939928D01*
X231298249Y-94799999D01*
X233566807Y-94799999D01*
X233585557Y-95074130D01*
X233585558Y-95074132D01*
X233641458Y-95343141D01*
X233641463Y-95343158D01*
X233733476Y-95602056D01*
X233859889Y-95846024D01*
X233859893Y-95846030D01*
X234018340Y-96070499D01*
X234018343Y-96070502D01*
X234205889Y-96271314D01*
X234419031Y-96444718D01*
X234419033Y-96444719D01*
X234419034Y-96444720D01*
X234653801Y-96587485D01*
X234858348Y-96676331D01*
X234905823Y-96696953D01*
X235170404Y-96771085D01*
X235409720Y-96803978D01*
X235442614Y-96808500D01*
X235442615Y-96808500D01*
X235717386Y-96808500D01*
X235746733Y-96804466D01*
X235989596Y-96771085D01*
X236254177Y-96696953D01*
X236506200Y-96587484D01*
X236740969Y-96444718D01*
X236954111Y-96271314D01*
X237141657Y-96070502D01*
X237300111Y-95846023D01*
X237426523Y-95602058D01*
X237518538Y-95343153D01*
X237518539Y-95343146D01*
X237518541Y-95343141D01*
X237556756Y-95159238D01*
X237574442Y-95074130D01*
X237593193Y-94800000D01*
X237574442Y-94525870D01*
X237543808Y-94378450D01*
X237518541Y-94256858D01*
X237518536Y-94256841D01*
X237434153Y-94019411D01*
X237426523Y-93997942D01*
X237300111Y-93753977D01*
X237300110Y-93753975D01*
X237300106Y-93753969D01*
X237141659Y-93529500D01*
X237091426Y-93475714D01*
X236954111Y-93328686D01*
X236740969Y-93155282D01*
X236740967Y-93155281D01*
X236740965Y-93155279D01*
X236506198Y-93012514D01*
X236254178Y-92903047D01*
X235989602Y-92828916D01*
X235989597Y-92828915D01*
X235989596Y-92828915D01*
X235853490Y-92810207D01*
X235717386Y-92791500D01*
X235717385Y-92791500D01*
X235442615Y-92791500D01*
X235442614Y-92791500D01*
X235170404Y-92828915D01*
X235170397Y-92828916D01*
X234905821Y-92903047D01*
X234653801Y-93012514D01*
X234419034Y-93155279D01*
X234205892Y-93328683D01*
X234018340Y-93529500D01*
X233859893Y-93753969D01*
X233859889Y-93753975D01*
X233733476Y-93997943D01*
X233641463Y-94256841D01*
X233641458Y-94256858D01*
X233585558Y-94525867D01*
X233585557Y-94525869D01*
X233566807Y-94799999D01*
X231298249Y-94799999D01*
X231303504Y-94750000D01*
X231283542Y-94560072D01*
X231224527Y-94378444D01*
X231129040Y-94213056D01*
X231001253Y-94071134D01*
X230846752Y-93958882D01*
X230672288Y-93881206D01*
X230672286Y-93881205D01*
X230485487Y-93841500D01*
X230294513Y-93841500D01*
X230107714Y-93881205D01*
X229933246Y-93958883D01*
X229778745Y-94071135D01*
X229650959Y-94213057D01*
X229555473Y-94378443D01*
X229555470Y-94378450D01*
X229507572Y-94525867D01*
X229496458Y-94560072D01*
X229476496Y-94750000D01*
X217454998Y-94750000D01*
X217458498Y-94710000D01*
X217438543Y-94481913D01*
X217379284Y-94260757D01*
X217282523Y-94053251D01*
X217151198Y-93865700D01*
X216989300Y-93703802D01*
X216801749Y-93572477D01*
X216801745Y-93572475D01*
X216594249Y-93475718D01*
X216594238Y-93475714D01*
X216373089Y-93416457D01*
X216373081Y-93416456D01*
X216145002Y-93396502D01*
X216144998Y-93396502D01*
X215916918Y-93416456D01*
X215916910Y-93416457D01*
X215695761Y-93475714D01*
X215695750Y-93475718D01*
X215488254Y-93572475D01*
X215488252Y-93572476D01*
X215488249Y-93572477D01*
X215488251Y-93572477D01*
X215300700Y-93703802D01*
X215300698Y-93703803D01*
X215300695Y-93703806D01*
X215138806Y-93865695D01*
X215138803Y-93865698D01*
X215138802Y-93865700D01*
X215098140Y-93923771D01*
X215007476Y-94053252D01*
X215007475Y-94053254D01*
X214910718Y-94260750D01*
X214910714Y-94260761D01*
X214851457Y-94481910D01*
X214851456Y-94481918D01*
X214831502Y-94709998D01*
X214831502Y-94710001D01*
X212378498Y-94710001D01*
X212378498Y-94710000D01*
X212358543Y-94481913D01*
X212299284Y-94260757D01*
X212202523Y-94053251D01*
X212071198Y-93865700D01*
X211909300Y-93703802D01*
X211721749Y-93572477D01*
X211721745Y-93572475D01*
X211514249Y-93475718D01*
X211514238Y-93475714D01*
X211293089Y-93416457D01*
X211293081Y-93416456D01*
X211065002Y-93396502D01*
X211064998Y-93396502D01*
X210836918Y-93416456D01*
X210836910Y-93416457D01*
X210615761Y-93475714D01*
X210615750Y-93475718D01*
X210408254Y-93572475D01*
X210408252Y-93572476D01*
X210408249Y-93572477D01*
X210408251Y-93572477D01*
X210220700Y-93703802D01*
X210220698Y-93703803D01*
X210220695Y-93703806D01*
X210058806Y-93865695D01*
X210058803Y-93865698D01*
X210058802Y-93865700D01*
X210018140Y-93923771D01*
X209927476Y-94053252D01*
X209927475Y-94053254D01*
X209830718Y-94260750D01*
X209830714Y-94260761D01*
X209771457Y-94481910D01*
X209771456Y-94481918D01*
X209751502Y-94709998D01*
X209751502Y-94710001D01*
X206174669Y-94710001D01*
X206159956Y-94655090D01*
X206070589Y-94463442D01*
X205949301Y-94290224D01*
X205949299Y-94290221D01*
X205799778Y-94140700D01*
X205626558Y-94019411D01*
X205626556Y-94019410D01*
X205580520Y-93997943D01*
X205434910Y-93930044D01*
X205434906Y-93930043D01*
X205434902Y-93930041D01*
X205230660Y-93875315D01*
X205230656Y-93875314D01*
X205230655Y-93875314D01*
X205230654Y-93875313D01*
X205230649Y-93875313D01*
X205020002Y-93856884D01*
X205019998Y-93856884D01*
X204809350Y-93875313D01*
X204809336Y-93875316D01*
X204784592Y-93881946D01*
X204714742Y-93880283D01*
X204656880Y-93841119D01*
X204629377Y-93776891D01*
X204628500Y-93762171D01*
X204628500Y-92070221D01*
X204628500Y-90218762D01*
X204648184Y-90151727D01*
X204664813Y-90131090D01*
X205225903Y-89570000D01*
X230036496Y-89570000D01*
X230056458Y-89759928D01*
X230056459Y-89759931D01*
X230115470Y-89941549D01*
X230115473Y-89941556D01*
X230210960Y-90106944D01*
X230338747Y-90248866D01*
X230493248Y-90361118D01*
X230667712Y-90438794D01*
X230854513Y-90478500D01*
X231045487Y-90478500D01*
X231232288Y-90438794D01*
X231406752Y-90361118D01*
X231561253Y-90248866D01*
X231689040Y-90106944D01*
X231784527Y-89941556D01*
X231843542Y-89759928D01*
X231863504Y-89570000D01*
X231843542Y-89380072D01*
X231784527Y-89198444D01*
X231689040Y-89033056D01*
X231561253Y-88891134D01*
X231406752Y-88778882D01*
X231232288Y-88701206D01*
X231232286Y-88701205D01*
X231045487Y-88661500D01*
X230854513Y-88661500D01*
X230667714Y-88701205D01*
X230493246Y-88778883D01*
X230338745Y-88891135D01*
X230210959Y-89033057D01*
X230115473Y-89198443D01*
X230115470Y-89198450D01*
X230057062Y-89378212D01*
X230056458Y-89380072D01*
X230036496Y-89570000D01*
X205225903Y-89570000D01*
X205363009Y-89432894D01*
X205424330Y-89399411D01*
X205481128Y-89400371D01*
X205485359Y-89401442D01*
X205485365Y-89401444D01*
X205707431Y-89438500D01*
X205932569Y-89438500D01*
X206154635Y-89401444D01*
X206367574Y-89328342D01*
X206565576Y-89221189D01*
X206743240Y-89082906D01*
X206864594Y-88951082D01*
X206895715Y-88917276D01*
X206895715Y-88917275D01*
X206895722Y-88917268D01*
X206989749Y-88773347D01*
X207042894Y-88727994D01*
X207112125Y-88718570D01*
X207175461Y-88748072D01*
X207195130Y-88770048D01*
X207321890Y-88951078D01*
X207488917Y-89118105D01*
X207682421Y-89253600D01*
X207896507Y-89353429D01*
X207896516Y-89353433D01*
X208109999Y-89410633D01*
X208109999Y-88692301D01*
X208129683Y-88625262D01*
X208182487Y-88579507D01*
X208251646Y-88569563D01*
X208258380Y-88570531D01*
X208324237Y-88580000D01*
X208324238Y-88580000D01*
X208395762Y-88580000D01*
X208395763Y-88580000D01*
X208468353Y-88569563D01*
X208537512Y-88579507D01*
X208590315Y-88625262D01*
X208610000Y-88692301D01*
X208610000Y-89410633D01*
X208823483Y-89353433D01*
X208823492Y-89353429D01*
X209037578Y-89253600D01*
X209231082Y-89118105D01*
X209398105Y-88951082D01*
X209524868Y-88770048D01*
X209579445Y-88726423D01*
X209648944Y-88719231D01*
X209711298Y-88750753D01*
X209730251Y-88773350D01*
X209824276Y-88917265D01*
X209824284Y-88917276D01*
X209976756Y-89082902D01*
X209976761Y-89082907D01*
X210010609Y-89109252D01*
X210154424Y-89221189D01*
X210154425Y-89221189D01*
X210154427Y-89221191D01*
X210214314Y-89253600D01*
X210352426Y-89328342D01*
X210565365Y-89401444D01*
X210787431Y-89438500D01*
X211012569Y-89438500D01*
X211234635Y-89401444D01*
X211447574Y-89328342D01*
X211645576Y-89221189D01*
X211823240Y-89082906D01*
X211944594Y-88951082D01*
X211975715Y-88917276D01*
X211975717Y-88917273D01*
X211975722Y-88917268D01*
X212098860Y-88728791D01*
X212189296Y-88522616D01*
X212244564Y-88304368D01*
X212263156Y-88080000D01*
X212261915Y-88065024D01*
X212244565Y-87855640D01*
X212244563Y-87855628D01*
X212189296Y-87637385D01*
X212168702Y-87590436D01*
X212098860Y-87431209D01*
X212071905Y-87389952D01*
X211975723Y-87242734D01*
X211975715Y-87242723D01*
X211823243Y-87077097D01*
X211823238Y-87077092D01*
X211645577Y-86938812D01*
X211645572Y-86938808D01*
X211447580Y-86831661D01*
X211447577Y-86831659D01*
X211447574Y-86831658D01*
X211447571Y-86831657D01*
X211447569Y-86831656D01*
X211234637Y-86758556D01*
X211012569Y-86721500D01*
X210787431Y-86721500D01*
X210565362Y-86758556D01*
X210352430Y-86831656D01*
X210352419Y-86831661D01*
X210154427Y-86938808D01*
X210154422Y-86938812D01*
X209976761Y-87077092D01*
X209976756Y-87077097D01*
X209824284Y-87242723D01*
X209824276Y-87242734D01*
X209730251Y-87386650D01*
X209677105Y-87432007D01*
X209607873Y-87441430D01*
X209544538Y-87411928D01*
X209524868Y-87389951D01*
X209398113Y-87208926D01*
X209398108Y-87208920D01*
X209231082Y-87041894D01*
X209037578Y-86906399D01*
X208823492Y-86806570D01*
X208823486Y-86806567D01*
X208610000Y-86749364D01*
X208610000Y-87467698D01*
X208590315Y-87534737D01*
X208537511Y-87580492D01*
X208468355Y-87590436D01*
X208395766Y-87580000D01*
X208395763Y-87580000D01*
X208324237Y-87580000D01*
X208324233Y-87580000D01*
X208251644Y-87590436D01*
X208182486Y-87580492D01*
X208129683Y-87534736D01*
X208109999Y-87467698D01*
X208109999Y-86749364D01*
X207896513Y-86806567D01*
X207896507Y-86806570D01*
X207682422Y-86906399D01*
X207682420Y-86906400D01*
X207488926Y-87041886D01*
X207488920Y-87041891D01*
X207321891Y-87208920D01*
X207321890Y-87208922D01*
X207195131Y-87389952D01*
X207140554Y-87433577D01*
X207071055Y-87440769D01*
X207008701Y-87409247D01*
X206989752Y-87386656D01*
X206895722Y-87242732D01*
X206895715Y-87242725D01*
X206895715Y-87242723D01*
X206743243Y-87077097D01*
X206743238Y-87077092D01*
X206565577Y-86938812D01*
X206565572Y-86938808D01*
X206367580Y-86831661D01*
X206367577Y-86831659D01*
X206367574Y-86831658D01*
X206367571Y-86831657D01*
X206367569Y-86831656D01*
X206154637Y-86758556D01*
X205932569Y-86721500D01*
X205707431Y-86721500D01*
X205485362Y-86758556D01*
X205272430Y-86831656D01*
X205272419Y-86831661D01*
X205074427Y-86938808D01*
X205074422Y-86938812D01*
X204896761Y-87077092D01*
X204896756Y-87077097D01*
X204744284Y-87242723D01*
X204744276Y-87242734D01*
X204653807Y-87381206D01*
X204600660Y-87426563D01*
X204531429Y-87435986D01*
X204468093Y-87406483D01*
X204446191Y-87381206D01*
X204355722Y-87242732D01*
X204355717Y-87242727D01*
X204355715Y-87242723D01*
X204203243Y-87077097D01*
X204203238Y-87077092D01*
X204025577Y-86938812D01*
X204025572Y-86938808D01*
X203827580Y-86831661D01*
X203827577Y-86831659D01*
X203827574Y-86831658D01*
X203827571Y-86831657D01*
X203827569Y-86831656D01*
X203614637Y-86758556D01*
X203392569Y-86721500D01*
X203167431Y-86721500D01*
X202945362Y-86758556D01*
X202732430Y-86831656D01*
X202732419Y-86831661D01*
X202534427Y-86938808D01*
X202534422Y-86938812D01*
X202356761Y-87077092D01*
X202293548Y-87145760D01*
X202233661Y-87181750D01*
X202163823Y-87179649D01*
X202106207Y-87140124D01*
X202086138Y-87105110D01*
X202040889Y-86983796D01*
X202007214Y-86938812D01*
X201953261Y-86866739D01*
X201836204Y-86779111D01*
X201699203Y-86728011D01*
X201638654Y-86721500D01*
X201638638Y-86721500D01*
X199841362Y-86721500D01*
X199841345Y-86721500D01*
X199780797Y-86728011D01*
X199780795Y-86728011D01*
X199643795Y-86779111D01*
X199526739Y-86866739D01*
X199439111Y-86983795D01*
X199388011Y-87120795D01*
X199388011Y-87120797D01*
X199381500Y-87181345D01*
X199381500Y-88491233D01*
X199361815Y-88558272D01*
X199345181Y-88578914D01*
X190578914Y-97345181D01*
X190517591Y-97378666D01*
X190491233Y-97381500D01*
X180242500Y-97381500D01*
X180175461Y-97361815D01*
X180129706Y-97309011D01*
X180118500Y-97257500D01*
X180118500Y-95711362D01*
X180118499Y-95711345D01*
X180114758Y-95676556D01*
X180111989Y-95650799D01*
X180098287Y-95614064D01*
X180071194Y-95541425D01*
X180060889Y-95513796D01*
X179973261Y-95396739D01*
X179856204Y-95309111D01*
X179796773Y-95286944D01*
X179719203Y-95258011D01*
X179658654Y-95251500D01*
X179658638Y-95251500D01*
X177861362Y-95251500D01*
X177861345Y-95251500D01*
X177800797Y-95258011D01*
X177800795Y-95258011D01*
X177663795Y-95309111D01*
X177546739Y-95396739D01*
X177459111Y-95513795D01*
X177408011Y-95650795D01*
X177408011Y-95650797D01*
X177401500Y-95711345D01*
X177401500Y-97508654D01*
X177408010Y-97569201D01*
X177460351Y-97709528D01*
X177465335Y-97779219D01*
X177431851Y-97840543D01*
X177431850Y-97840543D01*
X177076182Y-98196211D01*
X177063820Y-98206115D01*
X177063994Y-98206325D01*
X177057985Y-98211296D01*
X177010015Y-98262378D01*
X176988872Y-98283521D01*
X176988857Y-98283538D01*
X176984531Y-98289113D01*
X176980747Y-98293543D01*
X176948419Y-98327970D01*
X176948412Y-98327980D01*
X176938579Y-98345866D01*
X176927903Y-98362119D01*
X176915386Y-98378256D01*
X176915385Y-98378258D01*
X176896625Y-98421609D01*
X176894055Y-98426855D01*
X176871303Y-98468240D01*
X176871303Y-98468241D01*
X176866225Y-98488019D01*
X176859925Y-98506421D01*
X176851818Y-98525156D01*
X176844431Y-98571794D01*
X176843246Y-98577515D01*
X176831500Y-98623264D01*
X176831500Y-98643683D01*
X176829973Y-98663082D01*
X176826780Y-98683240D01*
X176826780Y-98683241D01*
X176831225Y-98730265D01*
X176831500Y-98736103D01*
X176831500Y-105601366D01*
X176829761Y-105617113D01*
X176830032Y-105617139D01*
X176829298Y-105624905D01*
X176831500Y-105694957D01*
X176831500Y-105724859D01*
X176832384Y-105731856D01*
X176832842Y-105737679D01*
X176834326Y-105784889D01*
X176834327Y-105784891D01*
X176840022Y-105804495D01*
X176843967Y-105823542D01*
X176846526Y-105843797D01*
X176846527Y-105843800D01*
X176846528Y-105843803D01*
X176863914Y-105887716D01*
X176865806Y-105893244D01*
X176878981Y-105938592D01*
X176889372Y-105956162D01*
X176897932Y-105973635D01*
X176905447Y-105992617D01*
X176933209Y-106030827D01*
X176936416Y-106035710D01*
X176960458Y-106076362D01*
X176960462Y-106076366D01*
X176974889Y-106090793D01*
X176987526Y-106105588D01*
X176999528Y-106122107D01*
X177035931Y-106152222D01*
X177040231Y-106156135D01*
X177053959Y-106169863D01*
X177087444Y-106231186D01*
X177082460Y-106300878D01*
X177040588Y-106356811D01*
X176998372Y-106377319D01*
X176945609Y-106391456D01*
X176945603Y-106391459D01*
X176754196Y-106480713D01*
X176754194Y-106480714D01*
X176581188Y-106601853D01*
X176431853Y-106751188D01*
X176310714Y-106924194D01*
X176310713Y-106924196D01*
X176221459Y-107115603D01*
X176221455Y-107115612D01*
X176166797Y-107319600D01*
X176166795Y-107319611D01*
X176148388Y-107529998D01*
X176148388Y-107530001D01*
X176166795Y-107740388D01*
X176166797Y-107740399D01*
X176221455Y-107944387D01*
X176221457Y-107944391D01*
X176221458Y-107944395D01*
X176285106Y-108080889D01*
X176310714Y-108135806D01*
X176310716Y-108135810D01*
X176431848Y-108308804D01*
X176431853Y-108308810D01*
X176581189Y-108458146D01*
X176581195Y-108458151D01*
X176754189Y-108579283D01*
X176754191Y-108579284D01*
X176754194Y-108579286D01*
X176945605Y-108668542D01*
X177149606Y-108723204D01*
X177299887Y-108736351D01*
X177359998Y-108741611D01*
X177360000Y-108741611D01*
X177360002Y-108741611D01*
X177412598Y-108737009D01*
X177570394Y-108723204D01*
X177774395Y-108668542D01*
X177965806Y-108579286D01*
X178138809Y-108458148D01*
X178167387Y-108429569D01*
X178228706Y-108396086D01*
X178298398Y-108401070D01*
X178354332Y-108442940D01*
X178378750Y-108508404D01*
X178379066Y-108517004D01*
X178385793Y-111886148D01*
X178366242Y-111953227D01*
X178349474Y-111974077D01*
X177902177Y-112421374D01*
X177840854Y-112454859D01*
X177771162Y-112449875D01*
X177715229Y-112408003D01*
X177704013Y-112389990D01*
X177692883Y-112368146D01*
X177601854Y-112277117D01*
X177601852Y-112277115D01*
X177580011Y-112265987D01*
X177529215Y-112218014D01*
X177512419Y-112150193D01*
X177534956Y-112084058D01*
X177548624Y-112067821D01*
X178012238Y-111604208D01*
X177896503Y-111532550D01*
X177896504Y-111532550D01*
X177689392Y-111452315D01*
X177471055Y-111411500D01*
X177248945Y-111411500D01*
X177030607Y-111452315D01*
X176823497Y-111532549D01*
X176823494Y-111532551D01*
X176707760Y-111604208D01*
X177171374Y-112067821D01*
X177204859Y-112129144D01*
X177199875Y-112198835D01*
X177158004Y-112254769D01*
X177139990Y-112265986D01*
X177118146Y-112277116D01*
X177027116Y-112368146D01*
X177015986Y-112389990D01*
X176968011Y-112440785D01*
X176900189Y-112457579D01*
X176834055Y-112435040D01*
X176817821Y-112421374D01*
X176352210Y-111955762D01*
X176336651Y-111976367D01*
X176336646Y-111976374D01*
X176237649Y-112175186D01*
X176237643Y-112175201D01*
X176176860Y-112388831D01*
X176176859Y-112388833D01*
X176156366Y-112609999D01*
X176156366Y-112610000D01*
X176176859Y-112831166D01*
X176176860Y-112831168D01*
X176237643Y-113044798D01*
X176237649Y-113044813D01*
X176336646Y-113243626D01*
X176336651Y-113243634D01*
X176352209Y-113264235D01*
X176817821Y-112798624D01*
X176879144Y-112765139D01*
X176948835Y-112770123D01*
X177004769Y-112811994D01*
X177015987Y-112830011D01*
X177027115Y-112851852D01*
X177118147Y-112942884D01*
X177139984Y-112954010D01*
X177190781Y-113001983D01*
X177207578Y-113069804D01*
X177185042Y-113135939D01*
X177171373Y-113152177D01*
X176707760Y-113615790D01*
X176707761Y-113615791D01*
X176823488Y-113687445D01*
X176823495Y-113687449D01*
X177030607Y-113767684D01*
X177248945Y-113808500D01*
X177471055Y-113808500D01*
X177689392Y-113767684D01*
X177896503Y-113687450D01*
X177896509Y-113687447D01*
X178012237Y-113615791D01*
X178012238Y-113615790D01*
X177548625Y-113152178D01*
X177515140Y-113090855D01*
X177520124Y-113021164D01*
X177561995Y-112965230D01*
X177580014Y-112954011D01*
X177601852Y-112942884D01*
X177601851Y-112942884D01*
X177601854Y-112942883D01*
X177692883Y-112851854D01*
X177704010Y-112830014D01*
X177751984Y-112779217D01*
X177819805Y-112762420D01*
X177885940Y-112784956D01*
X177902178Y-112798625D01*
X178352370Y-113248817D01*
X178385855Y-113310140D01*
X178388689Y-113336250D01*
X178397790Y-117894151D01*
X178378239Y-117961230D01*
X178361471Y-117982080D01*
X177872177Y-118471374D01*
X177810854Y-118504859D01*
X177741162Y-118499875D01*
X177685229Y-118458003D01*
X177674013Y-118439990D01*
X177662883Y-118418146D01*
X177571854Y-118327117D01*
X177571852Y-118327115D01*
X177550011Y-118315987D01*
X177499215Y-118268014D01*
X177482419Y-118200193D01*
X177504956Y-118134058D01*
X177518624Y-118117821D01*
X177982238Y-117654208D01*
X177866503Y-117582550D01*
X177866504Y-117582550D01*
X177659392Y-117502315D01*
X177441055Y-117461500D01*
X177218945Y-117461500D01*
X177000607Y-117502315D01*
X176793497Y-117582549D01*
X176793494Y-117582551D01*
X176677760Y-117654208D01*
X177141374Y-118117821D01*
X177174859Y-118179144D01*
X177169875Y-118248835D01*
X177128004Y-118304769D01*
X177109990Y-118315986D01*
X177088146Y-118327116D01*
X176997116Y-118418146D01*
X176985986Y-118439990D01*
X176938011Y-118490785D01*
X176870189Y-118507579D01*
X176804055Y-118485040D01*
X176787821Y-118471374D01*
X176322210Y-118005762D01*
X176306651Y-118026367D01*
X176306646Y-118026374D01*
X176207649Y-118225186D01*
X176207643Y-118225201D01*
X176146860Y-118438831D01*
X176146859Y-118438833D01*
X176126366Y-118659999D01*
X176126366Y-118660000D01*
X176146859Y-118881166D01*
X176146860Y-118881168D01*
X176207643Y-119094798D01*
X176207649Y-119094813D01*
X176306646Y-119293626D01*
X176306651Y-119293634D01*
X176322209Y-119314235D01*
X176787821Y-118848624D01*
X176849144Y-118815139D01*
X176918835Y-118820123D01*
X176974769Y-118861994D01*
X176985987Y-118880011D01*
X176997115Y-118901852D01*
X177088147Y-118992884D01*
X177109984Y-119004010D01*
X177160781Y-119051983D01*
X177177578Y-119119804D01*
X177155042Y-119185939D01*
X177141373Y-119202177D01*
X176677760Y-119665790D01*
X176677761Y-119665791D01*
X176793488Y-119737445D01*
X176793495Y-119737449D01*
X177000607Y-119817684D01*
X177218945Y-119858500D01*
X177441055Y-119858500D01*
X177659392Y-119817684D01*
X177866503Y-119737450D01*
X177866509Y-119737447D01*
X177982237Y-119665791D01*
X177982238Y-119665790D01*
X177518625Y-119202178D01*
X177485140Y-119140855D01*
X177490124Y-119071164D01*
X177531995Y-119015230D01*
X177550014Y-119004011D01*
X177571852Y-118992884D01*
X177571851Y-118992884D01*
X177571854Y-118992883D01*
X177662883Y-118901854D01*
X177674010Y-118880014D01*
X177721984Y-118829217D01*
X177789805Y-118812420D01*
X177855940Y-118834956D01*
X177872178Y-118848625D01*
X178364534Y-119340981D01*
X178398019Y-119402304D01*
X178400853Y-119428414D01*
X178407608Y-122811040D01*
X178388057Y-122878119D01*
X178335345Y-122923979D01*
X178266206Y-122934061D01*
X178202593Y-122905163D01*
X178195927Y-122898970D01*
X178169119Y-122872162D01*
X178108809Y-122811852D01*
X178108805Y-122811849D01*
X178108804Y-122811848D01*
X177935810Y-122690716D01*
X177935806Y-122690714D01*
X177935804Y-122690713D01*
X177744395Y-122601458D01*
X177744391Y-122601457D01*
X177744387Y-122601455D01*
X177540399Y-122546797D01*
X177540395Y-122546796D01*
X177540394Y-122546796D01*
X177540393Y-122546795D01*
X177540388Y-122546795D01*
X177330002Y-122528389D01*
X177329998Y-122528389D01*
X177119611Y-122546795D01*
X177119600Y-122546797D01*
X176915612Y-122601455D01*
X176915603Y-122601459D01*
X176724196Y-122690713D01*
X176724194Y-122690714D01*
X176551188Y-122811853D01*
X176401853Y-122961188D01*
X176280714Y-123134194D01*
X176280713Y-123134196D01*
X176191459Y-123325603D01*
X176191455Y-123325612D01*
X176136797Y-123529600D01*
X176136795Y-123529611D01*
X176118388Y-123739998D01*
X176118388Y-123740001D01*
X175502213Y-123740001D01*
X175700312Y-92415510D01*
X175720421Y-92348600D01*
X175773513Y-92303180D01*
X175842733Y-92293674D01*
X175906104Y-92323100D01*
X175931697Y-92354298D01*
X175990960Y-92456944D01*
X176118747Y-92598866D01*
X176273248Y-92711118D01*
X176447712Y-92788794D01*
X176634513Y-92828500D01*
X176801234Y-92828500D01*
X176868273Y-92848185D01*
X176888915Y-92864819D01*
X177002909Y-92978813D01*
X177012818Y-92991181D01*
X177013028Y-92991008D01*
X177017998Y-92997017D01*
X177069079Y-93044984D01*
X177090224Y-93066130D01*
X177095813Y-93070466D01*
X177100245Y-93074252D01*
X177121853Y-93094542D01*
X177134680Y-93106587D01*
X177152562Y-93116417D01*
X177168829Y-93127102D01*
X177184960Y-93139615D01*
X177206838Y-93149081D01*
X177228307Y-93158371D01*
X177233533Y-93160931D01*
X177274940Y-93183695D01*
X177294716Y-93188772D01*
X177313124Y-93195075D01*
X177331850Y-93203179D01*
X177331852Y-93203180D01*
X177331853Y-93203180D01*
X177331855Y-93203181D01*
X177372784Y-93209663D01*
X177378503Y-93210569D01*
X177384212Y-93211751D01*
X177429970Y-93223500D01*
X177450384Y-93223500D01*
X177469783Y-93225027D01*
X177489943Y-93228220D01*
X177536965Y-93223775D01*
X177542804Y-93223500D01*
X181726366Y-93223500D01*
X181742113Y-93225238D01*
X181742139Y-93224968D01*
X181749905Y-93225701D01*
X181749909Y-93225702D01*
X181819958Y-93223500D01*
X181849856Y-93223500D01*
X181849857Y-93223500D01*
X181851222Y-93223327D01*
X181856862Y-93222614D01*
X181862685Y-93222156D01*
X181888708Y-93221338D01*
X181909890Y-93220673D01*
X181919681Y-93217827D01*
X181929481Y-93214980D01*
X181948538Y-93211032D01*
X181968797Y-93208474D01*
X182012721Y-93191082D01*
X182018221Y-93189199D01*
X182063593Y-93176018D01*
X182081165Y-93165625D01*
X182098632Y-93157068D01*
X182117617Y-93149552D01*
X182155826Y-93121790D01*
X182160704Y-93118585D01*
X182201362Y-93094542D01*
X182215802Y-93080100D01*
X182230592Y-93067470D01*
X182247107Y-93055472D01*
X182277222Y-93019067D01*
X182281126Y-93014776D01*
X183641085Y-91654819D01*
X183702409Y-91621334D01*
X183728767Y-91618500D01*
X186498532Y-91618500D01*
X186565571Y-91638185D01*
X186611326Y-91690989D01*
X186621270Y-91760147D01*
X186592245Y-91823703D01*
X186569655Y-91844075D01*
X186460221Y-91920700D01*
X186310700Y-92070221D01*
X186189411Y-92243441D01*
X186189410Y-92243443D01*
X186100045Y-92435088D01*
X186100041Y-92435097D01*
X186045315Y-92639339D01*
X186045313Y-92639350D01*
X186026884Y-92849998D01*
X186026884Y-92850001D01*
X186045313Y-93060649D01*
X186045315Y-93060660D01*
X186100041Y-93264902D01*
X186100043Y-93264906D01*
X186100044Y-93264910D01*
X186170711Y-93416456D01*
X186189410Y-93456556D01*
X186189411Y-93456558D01*
X186310700Y-93629778D01*
X186460221Y-93779299D01*
X186460224Y-93779301D01*
X186633442Y-93900589D01*
X186825090Y-93989956D01*
X187029345Y-94044686D01*
X187179812Y-94057850D01*
X187239998Y-94063116D01*
X187240000Y-94063116D01*
X187240002Y-94063116D01*
X187292663Y-94058508D01*
X187450655Y-94044686D01*
X187654910Y-93989956D01*
X187846558Y-93900589D01*
X188019776Y-93779301D01*
X188169301Y-93629776D01*
X188290589Y-93456558D01*
X188379956Y-93264910D01*
X188434686Y-93060655D01*
X188453116Y-92850000D01*
X188434686Y-92639345D01*
X188379956Y-92435090D01*
X188290589Y-92243442D01*
X188169301Y-92070224D01*
X188169299Y-92070221D01*
X188019778Y-91920700D01*
X187910345Y-91844075D01*
X187866720Y-91789499D01*
X187859526Y-91720000D01*
X187891049Y-91657645D01*
X187951278Y-91622231D01*
X187981468Y-91618500D01*
X190141234Y-91618500D01*
X190208273Y-91638185D01*
X190228915Y-91654819D01*
X191093314Y-92519218D01*
X191126799Y-92580541D01*
X191125533Y-92633884D01*
X191126255Y-92634012D01*
X191125418Y-92638758D01*
X191125413Y-92638973D01*
X191125317Y-92639330D01*
X191125313Y-92639350D01*
X191106884Y-92849999D01*
X191106884Y-92850001D01*
X191125313Y-93060649D01*
X191125315Y-93060660D01*
X191180041Y-93264902D01*
X191180043Y-93264906D01*
X191180044Y-93264910D01*
X191250711Y-93416456D01*
X191269410Y-93456556D01*
X191269411Y-93456558D01*
X191390700Y-93629778D01*
X191540221Y-93779299D01*
X191540224Y-93779301D01*
X191713442Y-93900589D01*
X191905090Y-93989956D01*
X192109345Y-94044686D01*
X192259812Y-94057850D01*
X192319998Y-94063116D01*
X192320000Y-94063116D01*
X192320002Y-94063116D01*
X192372663Y-94058508D01*
X192530655Y-94044686D01*
X192734910Y-93989956D01*
X192926558Y-93900589D01*
X193099776Y-93779301D01*
X193249301Y-93629776D01*
X193370589Y-93456558D01*
X193459956Y-93264910D01*
X193514686Y-93060655D01*
X193533116Y-92850000D01*
X193514686Y-92639345D01*
X193459956Y-92435090D01*
X193370589Y-92243442D01*
X193249301Y-92070224D01*
X193249299Y-92070221D01*
X193099778Y-91920700D01*
X192926558Y-91799411D01*
X192926556Y-91799410D01*
X192905071Y-91789391D01*
X192734910Y-91710044D01*
X192734906Y-91710043D01*
X192734902Y-91710041D01*
X192530660Y-91655315D01*
X192530656Y-91655314D01*
X192530655Y-91655314D01*
X192530654Y-91655313D01*
X192530649Y-91655313D01*
X192320002Y-91636884D01*
X192319998Y-91636884D01*
X192109350Y-91655313D01*
X192109334Y-91655316D01*
X192108985Y-91655410D01*
X192108825Y-91655406D01*
X192104011Y-91656255D01*
X192103840Y-91655287D01*
X192039135Y-91653742D01*
X191989219Y-91623314D01*
X190962088Y-90596183D01*
X190952187Y-90583823D01*
X190951977Y-90583998D01*
X190947002Y-90577986D01*
X190947000Y-90577982D01*
X190920658Y-90553245D01*
X190895922Y-90530016D01*
X190874768Y-90508863D01*
X190872792Y-90507331D01*
X190869183Y-90504531D01*
X190864750Y-90500744D01*
X190830321Y-90468414D01*
X190830319Y-90468412D01*
X190812431Y-90458578D01*
X190796170Y-90447897D01*
X190780039Y-90435384D01*
X190736693Y-90416627D01*
X190731445Y-90414056D01*
X190704019Y-90398979D01*
X190690060Y-90391305D01*
X190686660Y-90390432D01*
X190670287Y-90386228D01*
X190651881Y-90379926D01*
X190633144Y-90371818D01*
X190633146Y-90371818D01*
X190586496Y-90364430D01*
X190580781Y-90363246D01*
X190560612Y-90358068D01*
X190535032Y-90351500D01*
X190535030Y-90351500D01*
X190514616Y-90351500D01*
X190495217Y-90349973D01*
X190475058Y-90346780D01*
X190475057Y-90346780D01*
X190428034Y-90351225D01*
X190422196Y-90351500D01*
X183498632Y-90351500D01*
X183482880Y-90349760D01*
X183482855Y-90350032D01*
X183475093Y-90349298D01*
X183475092Y-90349298D01*
X183405029Y-90351500D01*
X183375144Y-90351500D01*
X183375141Y-90351500D01*
X183375129Y-90351501D01*
X183368137Y-90352384D01*
X183362320Y-90352841D01*
X183315114Y-90354325D01*
X183315107Y-90354326D01*
X183295500Y-90360022D01*
X183276461Y-90363965D01*
X183256211Y-90366524D01*
X183256201Y-90366526D01*
X183212291Y-90383911D01*
X183206765Y-90385803D01*
X183161412Y-90398979D01*
X183161407Y-90398981D01*
X183143833Y-90409374D01*
X183126372Y-90417928D01*
X183107386Y-90425446D01*
X183107384Y-90425447D01*
X183069172Y-90453208D01*
X183064290Y-90456415D01*
X183023637Y-90480457D01*
X183009201Y-90494894D01*
X182994415Y-90507523D01*
X182977893Y-90519528D01*
X182977891Y-90519529D01*
X182977891Y-90519530D01*
X182977888Y-90519532D01*
X182947780Y-90555925D01*
X182943849Y-90560246D01*
X181583914Y-91920181D01*
X181522591Y-91953666D01*
X181496233Y-91956500D01*
X179859301Y-91956500D01*
X179792262Y-91936815D01*
X179746507Y-91884011D01*
X179736563Y-91814853D01*
X179765588Y-91751297D01*
X179824366Y-91713523D01*
X179830704Y-91711843D01*
X180071302Y-91654819D01*
X180104310Y-91646996D01*
X180433626Y-91527135D01*
X180746800Y-91369853D01*
X181039597Y-91177278D01*
X181308057Y-90952012D01*
X181548551Y-90697104D01*
X181757825Y-90416000D01*
X181933050Y-90112501D01*
X182071857Y-89790712D01*
X182172367Y-89454984D01*
X182180188Y-89410633D01*
X182233220Y-89109868D01*
X182233219Y-89109868D01*
X182233222Y-89109857D01*
X182252499Y-88778882D01*
X182253599Y-88760003D01*
X182253599Y-88759996D01*
X182243086Y-88579507D01*
X182233222Y-88410143D01*
X182214571Y-88304368D01*
X182172369Y-88065024D01*
X182172367Y-88065017D01*
X182138122Y-87950630D01*
X182071857Y-87729288D01*
X181933050Y-87407499D01*
X181757825Y-87104000D01*
X181757824Y-87103998D01*
X181548554Y-86822899D01*
X181548549Y-86822893D01*
X181432262Y-86699638D01*
X181308057Y-86567988D01*
X181308050Y-86567982D01*
X181308048Y-86567980D01*
X181039600Y-86342724D01*
X181000683Y-86317128D01*
X180955489Y-86263843D01*
X180946278Y-86194583D01*
X180975973Y-86131338D01*
X181035147Y-86094187D01*
X181067644Y-86089533D01*
X234599537Y-85583401D01*
X234666757Y-85602450D01*
G37*
%TD.AperFunction*%
%TD*%
M02*
