%TF.GenerationSoftware,KiCad,Pcbnew,7.0.7*%
%TF.CreationDate,2025-10-27T22:40:16+01:00*%
%TF.ProjectId,pcb1,70636231-2e6b-4696-9361-645f70636258,rev?*%
%TF.SameCoordinates,Original*%
%TF.FileFunction,Legend,Top*%
%TF.FilePolarity,Positive*%
%FSLAX46Y46*%
G04 Gerber Fmt 4.6, Leading zero omitted, Abs format (unit mm)*
G04 Created by KiCad (PCBNEW 7.0.7) date 2025-10-27 22:40:16*
%MOMM*%
%LPD*%
G01*
G04 APERTURE LIST*
%ADD10C,0.187500*%
%ADD11C,0.300000*%
%ADD12C,0.200000*%
%ADD13C,0.150000*%
%ADD14C,0.120000*%
%ADD15C,0.127000*%
G04 APERTURE END LIST*
D10*
X204926212Y-91752750D02*
X205033355Y-91788464D01*
X205033355Y-91788464D02*
X205211926Y-91788464D01*
X205211926Y-91788464D02*
X205283355Y-91752750D01*
X205283355Y-91752750D02*
X205319069Y-91717035D01*
X205319069Y-91717035D02*
X205354783Y-91645607D01*
X205354783Y-91645607D02*
X205354783Y-91574178D01*
X205354783Y-91574178D02*
X205319069Y-91502750D01*
X205319069Y-91502750D02*
X205283355Y-91467035D01*
X205283355Y-91467035D02*
X205211926Y-91431321D01*
X205211926Y-91431321D02*
X205069069Y-91395607D01*
X205069069Y-91395607D02*
X204997640Y-91359892D01*
X204997640Y-91359892D02*
X204961926Y-91324178D01*
X204961926Y-91324178D02*
X204926212Y-91252750D01*
X204926212Y-91252750D02*
X204926212Y-91181321D01*
X204926212Y-91181321D02*
X204961926Y-91109892D01*
X204961926Y-91109892D02*
X204997640Y-91074178D01*
X204997640Y-91074178D02*
X205069069Y-91038464D01*
X205069069Y-91038464D02*
X205247640Y-91038464D01*
X205247640Y-91038464D02*
X205354783Y-91074178D01*
X206104783Y-91717035D02*
X206069069Y-91752750D01*
X206069069Y-91752750D02*
X205961926Y-91788464D01*
X205961926Y-91788464D02*
X205890498Y-91788464D01*
X205890498Y-91788464D02*
X205783355Y-91752750D01*
X205783355Y-91752750D02*
X205711926Y-91681321D01*
X205711926Y-91681321D02*
X205676212Y-91609892D01*
X205676212Y-91609892D02*
X205640498Y-91467035D01*
X205640498Y-91467035D02*
X205640498Y-91359892D01*
X205640498Y-91359892D02*
X205676212Y-91217035D01*
X205676212Y-91217035D02*
X205711926Y-91145607D01*
X205711926Y-91145607D02*
X205783355Y-91074178D01*
X205783355Y-91074178D02*
X205890498Y-91038464D01*
X205890498Y-91038464D02*
X205961926Y-91038464D01*
X205961926Y-91038464D02*
X206069069Y-91074178D01*
X206069069Y-91074178D02*
X206104783Y-91109892D01*
X206783355Y-91788464D02*
X206426212Y-91788464D01*
X206426212Y-91788464D02*
X206426212Y-91038464D01*
X207744783Y-90996678D02*
X207673355Y-90960964D01*
X207673355Y-90960964D02*
X207566212Y-90960964D01*
X207566212Y-90960964D02*
X207459069Y-90996678D01*
X207459069Y-90996678D02*
X207387640Y-91068107D01*
X207387640Y-91068107D02*
X207351926Y-91139535D01*
X207351926Y-91139535D02*
X207316212Y-91282392D01*
X207316212Y-91282392D02*
X207316212Y-91389535D01*
X207316212Y-91389535D02*
X207351926Y-91532392D01*
X207351926Y-91532392D02*
X207387640Y-91603821D01*
X207387640Y-91603821D02*
X207459069Y-91675250D01*
X207459069Y-91675250D02*
X207566212Y-91710964D01*
X207566212Y-91710964D02*
X207637640Y-91710964D01*
X207637640Y-91710964D02*
X207744783Y-91675250D01*
X207744783Y-91675250D02*
X207780497Y-91639535D01*
X207780497Y-91639535D02*
X207780497Y-91389535D01*
X207780497Y-91389535D02*
X207637640Y-91389535D01*
X208101926Y-91710964D02*
X208101926Y-90960964D01*
X208101926Y-90960964D02*
X208530497Y-91710964D01*
X208530497Y-91710964D02*
X208530497Y-90960964D01*
X208887640Y-91710964D02*
X208887640Y-90960964D01*
X208887640Y-90960964D02*
X209066211Y-90960964D01*
X209066211Y-90960964D02*
X209173354Y-90996678D01*
X209173354Y-90996678D02*
X209244783Y-91068107D01*
X209244783Y-91068107D02*
X209280497Y-91139535D01*
X209280497Y-91139535D02*
X209316211Y-91282392D01*
X209316211Y-91282392D02*
X209316211Y-91389535D01*
X209316211Y-91389535D02*
X209280497Y-91532392D01*
X209280497Y-91532392D02*
X209244783Y-91603821D01*
X209244783Y-91603821D02*
X209173354Y-91675250D01*
X209173354Y-91675250D02*
X209066211Y-91710964D01*
X209066211Y-91710964D02*
X208887640Y-91710964D01*
X209194783Y-133828464D02*
X209623355Y-133828464D01*
X209409069Y-134578464D02*
X209409069Y-133828464D01*
X209801926Y-133828464D02*
X210301926Y-134578464D01*
X210301926Y-133828464D02*
X209801926Y-134578464D01*
X209620497Y-132168464D02*
X209370497Y-131811321D01*
X209191926Y-132168464D02*
X209191926Y-131418464D01*
X209191926Y-131418464D02*
X209477640Y-131418464D01*
X209477640Y-131418464D02*
X209549069Y-131454178D01*
X209549069Y-131454178D02*
X209584783Y-131489892D01*
X209584783Y-131489892D02*
X209620497Y-131561321D01*
X209620497Y-131561321D02*
X209620497Y-131668464D01*
X209620497Y-131668464D02*
X209584783Y-131739892D01*
X209584783Y-131739892D02*
X209549069Y-131775607D01*
X209549069Y-131775607D02*
X209477640Y-131811321D01*
X209477640Y-131811321D02*
X209191926Y-131811321D01*
X209870497Y-131418464D02*
X210370497Y-132168464D01*
X210370497Y-131418464D02*
X209870497Y-132168464D01*
X210160497Y-90958464D02*
X210624783Y-90958464D01*
X210624783Y-90958464D02*
X210374783Y-91244178D01*
X210374783Y-91244178D02*
X210481926Y-91244178D01*
X210481926Y-91244178D02*
X210553355Y-91279892D01*
X210553355Y-91279892D02*
X210589069Y-91315607D01*
X210589069Y-91315607D02*
X210624783Y-91387035D01*
X210624783Y-91387035D02*
X210624783Y-91565607D01*
X210624783Y-91565607D02*
X210589069Y-91637035D01*
X210589069Y-91637035D02*
X210553355Y-91672750D01*
X210553355Y-91672750D02*
X210481926Y-91708464D01*
X210481926Y-91708464D02*
X210267640Y-91708464D01*
X210267640Y-91708464D02*
X210196212Y-91672750D01*
X210196212Y-91672750D02*
X210160497Y-91637035D01*
X210839069Y-90958464D02*
X211089069Y-91708464D01*
X211089069Y-91708464D02*
X211339069Y-90958464D01*
X211517640Y-90958464D02*
X211981926Y-90958464D01*
X211981926Y-90958464D02*
X211731926Y-91244178D01*
X211731926Y-91244178D02*
X211839069Y-91244178D01*
X211839069Y-91244178D02*
X211910498Y-91279892D01*
X211910498Y-91279892D02*
X211946212Y-91315607D01*
X211946212Y-91315607D02*
X211981926Y-91387035D01*
X211981926Y-91387035D02*
X211981926Y-91565607D01*
X211981926Y-91565607D02*
X211946212Y-91637035D01*
X211946212Y-91637035D02*
X211910498Y-91672750D01*
X211910498Y-91672750D02*
X211839069Y-91708464D01*
X211839069Y-91708464D02*
X211624783Y-91708464D01*
X211624783Y-91708464D02*
X211553355Y-91672750D01*
X211553355Y-91672750D02*
X211517640Y-91637035D01*
X208804783Y-136444178D02*
X208733355Y-136408464D01*
X208733355Y-136408464D02*
X208626212Y-136408464D01*
X208626212Y-136408464D02*
X208519069Y-136444178D01*
X208519069Y-136444178D02*
X208447640Y-136515607D01*
X208447640Y-136515607D02*
X208411926Y-136587035D01*
X208411926Y-136587035D02*
X208376212Y-136729892D01*
X208376212Y-136729892D02*
X208376212Y-136837035D01*
X208376212Y-136837035D02*
X208411926Y-136979892D01*
X208411926Y-136979892D02*
X208447640Y-137051321D01*
X208447640Y-137051321D02*
X208519069Y-137122750D01*
X208519069Y-137122750D02*
X208626212Y-137158464D01*
X208626212Y-137158464D02*
X208697640Y-137158464D01*
X208697640Y-137158464D02*
X208804783Y-137122750D01*
X208804783Y-137122750D02*
X208840497Y-137087035D01*
X208840497Y-137087035D02*
X208840497Y-136837035D01*
X208840497Y-136837035D02*
X208697640Y-136837035D01*
X209161926Y-137158464D02*
X209161926Y-136408464D01*
X209161926Y-136408464D02*
X209340497Y-136408464D01*
X209340497Y-136408464D02*
X209447640Y-136444178D01*
X209447640Y-136444178D02*
X209519069Y-136515607D01*
X209519069Y-136515607D02*
X209554783Y-136587035D01*
X209554783Y-136587035D02*
X209590497Y-136729892D01*
X209590497Y-136729892D02*
X209590497Y-136837035D01*
X209590497Y-136837035D02*
X209554783Y-136979892D01*
X209554783Y-136979892D02*
X209519069Y-137051321D01*
X209519069Y-137051321D02*
X209447640Y-137122750D01*
X209447640Y-137122750D02*
X209340497Y-137158464D01*
X209340497Y-137158464D02*
X209161926Y-137158464D01*
X209911926Y-137158464D02*
X209911926Y-136408464D01*
X209911926Y-136408464D02*
X210340497Y-137158464D01*
X210340497Y-137158464D02*
X210340497Y-136408464D01*
X181199069Y-96098464D02*
X180841926Y-96098464D01*
X180841926Y-96098464D02*
X180806212Y-96455607D01*
X180806212Y-96455607D02*
X180841926Y-96419892D01*
X180841926Y-96419892D02*
X180913355Y-96384178D01*
X180913355Y-96384178D02*
X181091926Y-96384178D01*
X181091926Y-96384178D02*
X181163355Y-96419892D01*
X181163355Y-96419892D02*
X181199069Y-96455607D01*
X181199069Y-96455607D02*
X181234783Y-96527035D01*
X181234783Y-96527035D02*
X181234783Y-96705607D01*
X181234783Y-96705607D02*
X181199069Y-96777035D01*
X181199069Y-96777035D02*
X181163355Y-96812750D01*
X181163355Y-96812750D02*
X181091926Y-96848464D01*
X181091926Y-96848464D02*
X180913355Y-96848464D01*
X180913355Y-96848464D02*
X180841926Y-96812750D01*
X180841926Y-96812750D02*
X180806212Y-96777035D01*
X181449069Y-96098464D02*
X181699069Y-96848464D01*
X181699069Y-96848464D02*
X181949069Y-96098464D01*
X181664783Y-101414178D02*
X181593355Y-101378464D01*
X181593355Y-101378464D02*
X181486212Y-101378464D01*
X181486212Y-101378464D02*
X181379069Y-101414178D01*
X181379069Y-101414178D02*
X181307640Y-101485607D01*
X181307640Y-101485607D02*
X181271926Y-101557035D01*
X181271926Y-101557035D02*
X181236212Y-101699892D01*
X181236212Y-101699892D02*
X181236212Y-101807035D01*
X181236212Y-101807035D02*
X181271926Y-101949892D01*
X181271926Y-101949892D02*
X181307640Y-102021321D01*
X181307640Y-102021321D02*
X181379069Y-102092750D01*
X181379069Y-102092750D02*
X181486212Y-102128464D01*
X181486212Y-102128464D02*
X181557640Y-102128464D01*
X181557640Y-102128464D02*
X181664783Y-102092750D01*
X181664783Y-102092750D02*
X181700497Y-102057035D01*
X181700497Y-102057035D02*
X181700497Y-101807035D01*
X181700497Y-101807035D02*
X181557640Y-101807035D01*
X182021926Y-102128464D02*
X182021926Y-101378464D01*
X182021926Y-101378464D02*
X182200497Y-101378464D01*
X182200497Y-101378464D02*
X182307640Y-101414178D01*
X182307640Y-101414178D02*
X182379069Y-101485607D01*
X182379069Y-101485607D02*
X182414783Y-101557035D01*
X182414783Y-101557035D02*
X182450497Y-101699892D01*
X182450497Y-101699892D02*
X182450497Y-101807035D01*
X182450497Y-101807035D02*
X182414783Y-101949892D01*
X182414783Y-101949892D02*
X182379069Y-102021321D01*
X182379069Y-102021321D02*
X182307640Y-102092750D01*
X182307640Y-102092750D02*
X182200497Y-102128464D01*
X182200497Y-102128464D02*
X182021926Y-102128464D01*
X182771926Y-102128464D02*
X182771926Y-101378464D01*
X182771926Y-101378464D02*
X183200497Y-102128464D01*
X183200497Y-102128464D02*
X183200497Y-101378464D01*
X200291926Y-91738464D02*
X200291926Y-90988464D01*
X200649069Y-91238464D02*
X200649069Y-91738464D01*
X200649069Y-91309892D02*
X200684783Y-91274178D01*
X200684783Y-91274178D02*
X200756212Y-91238464D01*
X200756212Y-91238464D02*
X200863355Y-91238464D01*
X200863355Y-91238464D02*
X200934783Y-91274178D01*
X200934783Y-91274178D02*
X200970498Y-91345607D01*
X200970498Y-91345607D02*
X200970498Y-91738464D01*
X201220497Y-91238464D02*
X201506211Y-91238464D01*
X201327640Y-90988464D02*
X201327640Y-91631321D01*
X201327640Y-91631321D02*
X201363354Y-91702750D01*
X201363354Y-91702750D02*
X201434783Y-91738464D01*
X201434783Y-91738464D02*
X201506211Y-91738464D01*
D11*
X188503082Y-122500828D02*
X188503082Y-123572257D01*
X188503082Y-123572257D02*
X188431653Y-123786542D01*
X188431653Y-123786542D02*
X188288796Y-123929400D01*
X188288796Y-123929400D02*
X188074510Y-124000828D01*
X188074510Y-124000828D02*
X187931653Y-124000828D01*
X189217367Y-123857971D02*
X189288796Y-123929400D01*
X189288796Y-123929400D02*
X189217367Y-124000828D01*
X189217367Y-124000828D02*
X189145939Y-123929400D01*
X189145939Y-123929400D02*
X189217367Y-123857971D01*
X189217367Y-123857971D02*
X189217367Y-124000828D01*
X189931653Y-124000828D02*
X189931653Y-122500828D01*
X189931653Y-122500828D02*
X190431653Y-123572257D01*
X190431653Y-123572257D02*
X190931653Y-122500828D01*
X190931653Y-122500828D02*
X190931653Y-124000828D01*
X191645939Y-123857971D02*
X191717368Y-123929400D01*
X191717368Y-123929400D02*
X191645939Y-124000828D01*
X191645939Y-124000828D02*
X191574511Y-123929400D01*
X191574511Y-123929400D02*
X191645939Y-123857971D01*
X191645939Y-123857971D02*
X191645939Y-124000828D01*
X194288797Y-122572257D02*
X194145940Y-122500828D01*
X194145940Y-122500828D02*
X193931654Y-122500828D01*
X193931654Y-122500828D02*
X193717368Y-122572257D01*
X193717368Y-122572257D02*
X193574511Y-122715114D01*
X193574511Y-122715114D02*
X193503082Y-122857971D01*
X193503082Y-122857971D02*
X193431654Y-123143685D01*
X193431654Y-123143685D02*
X193431654Y-123357971D01*
X193431654Y-123357971D02*
X193503082Y-123643685D01*
X193503082Y-123643685D02*
X193574511Y-123786542D01*
X193574511Y-123786542D02*
X193717368Y-123929400D01*
X193717368Y-123929400D02*
X193931654Y-124000828D01*
X193931654Y-124000828D02*
X194074511Y-124000828D01*
X194074511Y-124000828D02*
X194288797Y-123929400D01*
X194288797Y-123929400D02*
X194360225Y-123857971D01*
X194360225Y-123857971D02*
X194360225Y-123357971D01*
X194360225Y-123357971D02*
X194074511Y-123357971D01*
X195217368Y-124000828D02*
X195074511Y-123929400D01*
X195074511Y-123929400D02*
X195003082Y-123857971D01*
X195003082Y-123857971D02*
X194931654Y-123715114D01*
X194931654Y-123715114D02*
X194931654Y-123286542D01*
X194931654Y-123286542D02*
X195003082Y-123143685D01*
X195003082Y-123143685D02*
X195074511Y-123072257D01*
X195074511Y-123072257D02*
X195217368Y-123000828D01*
X195217368Y-123000828D02*
X195431654Y-123000828D01*
X195431654Y-123000828D02*
X195574511Y-123072257D01*
X195574511Y-123072257D02*
X195645940Y-123143685D01*
X195645940Y-123143685D02*
X195717368Y-123286542D01*
X195717368Y-123286542D02*
X195717368Y-123715114D01*
X195717368Y-123715114D02*
X195645940Y-123857971D01*
X195645940Y-123857971D02*
X195574511Y-123929400D01*
X195574511Y-123929400D02*
X195431654Y-124000828D01*
X195431654Y-124000828D02*
X195217368Y-124000828D01*
X195503082Y-122429400D02*
X195288797Y-122643685D01*
X196360225Y-124000828D02*
X196360225Y-123000828D01*
X196360225Y-123143685D02*
X196431654Y-123072257D01*
X196431654Y-123072257D02*
X196574511Y-123000828D01*
X196574511Y-123000828D02*
X196788797Y-123000828D01*
X196788797Y-123000828D02*
X196931654Y-123072257D01*
X196931654Y-123072257D02*
X197003083Y-123215114D01*
X197003083Y-123215114D02*
X197003083Y-124000828D01*
X197003083Y-123215114D02*
X197074511Y-123072257D01*
X197074511Y-123072257D02*
X197217368Y-123000828D01*
X197217368Y-123000828D02*
X197431654Y-123000828D01*
X197431654Y-123000828D02*
X197574511Y-123072257D01*
X197574511Y-123072257D02*
X197645940Y-123215114D01*
X197645940Y-123215114D02*
X197645940Y-124000828D01*
X198931654Y-123929400D02*
X198788797Y-124000828D01*
X198788797Y-124000828D02*
X198503083Y-124000828D01*
X198503083Y-124000828D02*
X198360225Y-123929400D01*
X198360225Y-123929400D02*
X198288797Y-123786542D01*
X198288797Y-123786542D02*
X198288797Y-123215114D01*
X198288797Y-123215114D02*
X198360225Y-123072257D01*
X198360225Y-123072257D02*
X198503083Y-123000828D01*
X198503083Y-123000828D02*
X198788797Y-123000828D01*
X198788797Y-123000828D02*
X198931654Y-123072257D01*
X198931654Y-123072257D02*
X199003083Y-123215114D01*
X199003083Y-123215114D02*
X199003083Y-123357971D01*
X199003083Y-123357971D02*
X198288797Y-123500828D01*
X199503082Y-123000828D02*
X200288797Y-123000828D01*
X200288797Y-123000828D02*
X199503082Y-124000828D01*
X199503082Y-124000828D02*
X200288797Y-124000828D01*
X201788797Y-122500828D02*
X202288797Y-124000828D01*
X202288797Y-124000828D02*
X202788797Y-122500828D01*
X203931654Y-124000828D02*
X203931654Y-123215114D01*
X203931654Y-123215114D02*
X203860225Y-123072257D01*
X203860225Y-123072257D02*
X203717368Y-123000828D01*
X203717368Y-123000828D02*
X203431654Y-123000828D01*
X203431654Y-123000828D02*
X203288796Y-123072257D01*
X203931654Y-123929400D02*
X203788796Y-124000828D01*
X203788796Y-124000828D02*
X203431654Y-124000828D01*
X203431654Y-124000828D02*
X203288796Y-123929400D01*
X203288796Y-123929400D02*
X203217368Y-123786542D01*
X203217368Y-123786542D02*
X203217368Y-123643685D01*
X203217368Y-123643685D02*
X203288796Y-123500828D01*
X203288796Y-123500828D02*
X203431654Y-123429400D01*
X203431654Y-123429400D02*
X203788796Y-123429400D01*
X203788796Y-123429400D02*
X203931654Y-123357971D01*
X204645939Y-124000828D02*
X204645939Y-123000828D01*
X204645939Y-123286542D02*
X204717368Y-123143685D01*
X204717368Y-123143685D02*
X204788797Y-123072257D01*
X204788797Y-123072257D02*
X204931654Y-123000828D01*
X204931654Y-123000828D02*
X205074511Y-123000828D01*
X206217368Y-124000828D02*
X206217368Y-123215114D01*
X206217368Y-123215114D02*
X206145939Y-123072257D01*
X206145939Y-123072257D02*
X206003082Y-123000828D01*
X206003082Y-123000828D02*
X205717368Y-123000828D01*
X205717368Y-123000828D02*
X205574510Y-123072257D01*
X206217368Y-123929400D02*
X206074510Y-124000828D01*
X206074510Y-124000828D02*
X205717368Y-124000828D01*
X205717368Y-124000828D02*
X205574510Y-123929400D01*
X205574510Y-123929400D02*
X205503082Y-123786542D01*
X205503082Y-123786542D02*
X205503082Y-123643685D01*
X205503082Y-123643685D02*
X205574510Y-123500828D01*
X205574510Y-123500828D02*
X205717368Y-123429400D01*
X205717368Y-123429400D02*
X206074510Y-123429400D01*
X206074510Y-123429400D02*
X206217368Y-123357971D01*
X206860225Y-123929400D02*
X207003082Y-124000828D01*
X207003082Y-124000828D02*
X207288796Y-124000828D01*
X207288796Y-124000828D02*
X207431653Y-123929400D01*
X207431653Y-123929400D02*
X207503082Y-123786542D01*
X207503082Y-123786542D02*
X207503082Y-123715114D01*
X207503082Y-123715114D02*
X207431653Y-123572257D01*
X207431653Y-123572257D02*
X207288796Y-123500828D01*
X207288796Y-123500828D02*
X207074511Y-123500828D01*
X207074511Y-123500828D02*
X206931653Y-123429400D01*
X206931653Y-123429400D02*
X206860225Y-123286542D01*
X206860225Y-123286542D02*
X206860225Y-123215114D01*
X206860225Y-123215114D02*
X206931653Y-123072257D01*
X206931653Y-123072257D02*
X207074511Y-123000828D01*
X207074511Y-123000828D02*
X207288796Y-123000828D01*
X207288796Y-123000828D02*
X207431653Y-123072257D01*
D12*
X189019673Y-126087219D02*
X189019673Y-125087219D01*
X189019673Y-125087219D02*
X189400625Y-125087219D01*
X189400625Y-125087219D02*
X189495863Y-125134838D01*
X189495863Y-125134838D02*
X189543482Y-125182457D01*
X189543482Y-125182457D02*
X189591101Y-125277695D01*
X189591101Y-125277695D02*
X189591101Y-125420552D01*
X189591101Y-125420552D02*
X189543482Y-125515790D01*
X189543482Y-125515790D02*
X189495863Y-125563409D01*
X189495863Y-125563409D02*
X189400625Y-125611028D01*
X189400625Y-125611028D02*
X189019673Y-125611028D01*
X190019673Y-126087219D02*
X190019673Y-125420552D01*
X190019673Y-125611028D02*
X190067292Y-125515790D01*
X190067292Y-125515790D02*
X190114911Y-125468171D01*
X190114911Y-125468171D02*
X190210149Y-125420552D01*
X190210149Y-125420552D02*
X190305387Y-125420552D01*
X190781578Y-126087219D02*
X190686340Y-126039600D01*
X190686340Y-126039600D02*
X190638721Y-125991980D01*
X190638721Y-125991980D02*
X190591102Y-125896742D01*
X190591102Y-125896742D02*
X190591102Y-125611028D01*
X190591102Y-125611028D02*
X190638721Y-125515790D01*
X190638721Y-125515790D02*
X190686340Y-125468171D01*
X190686340Y-125468171D02*
X190781578Y-125420552D01*
X190781578Y-125420552D02*
X190924435Y-125420552D01*
X190924435Y-125420552D02*
X191019673Y-125468171D01*
X191019673Y-125468171D02*
X191067292Y-125515790D01*
X191067292Y-125515790D02*
X191114911Y-125611028D01*
X191114911Y-125611028D02*
X191114911Y-125896742D01*
X191114911Y-125896742D02*
X191067292Y-125991980D01*
X191067292Y-125991980D02*
X191019673Y-126039600D01*
X191019673Y-126039600D02*
X190924435Y-126087219D01*
X190924435Y-126087219D02*
X190781578Y-126087219D01*
X191448245Y-125420552D02*
X191686340Y-126087219D01*
X191924435Y-125420552D02*
X191686340Y-126087219D01*
X191686340Y-126087219D02*
X191591102Y-126325314D01*
X191591102Y-126325314D02*
X191543483Y-126372933D01*
X191543483Y-126372933D02*
X191448245Y-126420552D01*
X192686340Y-126039600D02*
X192591102Y-126087219D01*
X192591102Y-126087219D02*
X192400626Y-126087219D01*
X192400626Y-126087219D02*
X192305388Y-126039600D01*
X192305388Y-126039600D02*
X192257769Y-125944361D01*
X192257769Y-125944361D02*
X192257769Y-125563409D01*
X192257769Y-125563409D02*
X192305388Y-125468171D01*
X192305388Y-125468171D02*
X192400626Y-125420552D01*
X192400626Y-125420552D02*
X192591102Y-125420552D01*
X192591102Y-125420552D02*
X192686340Y-125468171D01*
X192686340Y-125468171D02*
X192733959Y-125563409D01*
X192733959Y-125563409D02*
X192733959Y-125658647D01*
X192733959Y-125658647D02*
X192257769Y-125753885D01*
X193591102Y-126039600D02*
X193495864Y-126087219D01*
X193495864Y-126087219D02*
X193305388Y-126087219D01*
X193305388Y-126087219D02*
X193210150Y-126039600D01*
X193210150Y-126039600D02*
X193162531Y-125991980D01*
X193162531Y-125991980D02*
X193114912Y-125896742D01*
X193114912Y-125896742D02*
X193114912Y-125611028D01*
X193114912Y-125611028D02*
X193162531Y-125515790D01*
X193162531Y-125515790D02*
X193210150Y-125468171D01*
X193210150Y-125468171D02*
X193305388Y-125420552D01*
X193305388Y-125420552D02*
X193495864Y-125420552D01*
X193495864Y-125420552D02*
X193591102Y-125468171D01*
X193876817Y-125420552D02*
X194257769Y-125420552D01*
X194019674Y-125087219D02*
X194019674Y-125944361D01*
X194019674Y-125944361D02*
X194067293Y-126039600D01*
X194067293Y-126039600D02*
X194162531Y-126087219D01*
X194162531Y-126087219D02*
X194257769Y-126087219D01*
X194733960Y-126087219D02*
X194638722Y-126039600D01*
X194638722Y-126039600D02*
X194591103Y-125991980D01*
X194591103Y-125991980D02*
X194543484Y-125896742D01*
X194543484Y-125896742D02*
X194543484Y-125611028D01*
X194543484Y-125611028D02*
X194591103Y-125515790D01*
X194591103Y-125515790D02*
X194638722Y-125468171D01*
X194638722Y-125468171D02*
X194733960Y-125420552D01*
X194733960Y-125420552D02*
X194876817Y-125420552D01*
X194876817Y-125420552D02*
X194972055Y-125468171D01*
X194972055Y-125468171D02*
X195019674Y-125515790D01*
X195019674Y-125515790D02*
X195067293Y-125611028D01*
X195067293Y-125611028D02*
X195067293Y-125896742D01*
X195067293Y-125896742D02*
X195019674Y-125991980D01*
X195019674Y-125991980D02*
X194972055Y-126039600D01*
X194972055Y-126039600D02*
X194876817Y-126087219D01*
X194876817Y-126087219D02*
X194733960Y-126087219D01*
X196591103Y-125563409D02*
X196257770Y-125563409D01*
X196257770Y-126087219D02*
X196257770Y-125087219D01*
X196257770Y-125087219D02*
X196733960Y-125087219D01*
X197114913Y-126087219D02*
X197114913Y-125420552D01*
X197114913Y-125087219D02*
X197067294Y-125134838D01*
X197067294Y-125134838D02*
X197114913Y-125182457D01*
X197114913Y-125182457D02*
X197162532Y-125134838D01*
X197162532Y-125134838D02*
X197114913Y-125087219D01*
X197114913Y-125087219D02*
X197114913Y-125182457D01*
X197591103Y-125420552D02*
X197591103Y-126087219D01*
X197591103Y-125515790D02*
X197638722Y-125468171D01*
X197638722Y-125468171D02*
X197733960Y-125420552D01*
X197733960Y-125420552D02*
X197876817Y-125420552D01*
X197876817Y-125420552D02*
X197972055Y-125468171D01*
X197972055Y-125468171D02*
X198019674Y-125563409D01*
X198019674Y-125563409D02*
X198019674Y-126087219D01*
X199686341Y-126087219D02*
X199686341Y-125087219D01*
X199686341Y-126039600D02*
X199591103Y-126087219D01*
X199591103Y-126087219D02*
X199400627Y-126087219D01*
X199400627Y-126087219D02*
X199305389Y-126039600D01*
X199305389Y-126039600D02*
X199257770Y-125991980D01*
X199257770Y-125991980D02*
X199210151Y-125896742D01*
X199210151Y-125896742D02*
X199210151Y-125611028D01*
X199210151Y-125611028D02*
X199257770Y-125515790D01*
X199257770Y-125515790D02*
X199305389Y-125468171D01*
X199305389Y-125468171D02*
X199400627Y-125420552D01*
X199400627Y-125420552D02*
X199591103Y-125420552D01*
X199591103Y-125420552D02*
X199686341Y-125468171D01*
X200543484Y-126039600D02*
X200448246Y-126087219D01*
X200448246Y-126087219D02*
X200257770Y-126087219D01*
X200257770Y-126087219D02*
X200162532Y-126039600D01*
X200162532Y-126039600D02*
X200114913Y-125944361D01*
X200114913Y-125944361D02*
X200114913Y-125563409D01*
X200114913Y-125563409D02*
X200162532Y-125468171D01*
X200162532Y-125468171D02*
X200257770Y-125420552D01*
X200257770Y-125420552D02*
X200448246Y-125420552D01*
X200448246Y-125420552D02*
X200543484Y-125468171D01*
X200543484Y-125468171D02*
X200591103Y-125563409D01*
X200591103Y-125563409D02*
X200591103Y-125658647D01*
X200591103Y-125658647D02*
X200114913Y-125753885D01*
X202305389Y-125134838D02*
X202210151Y-125087219D01*
X202210151Y-125087219D02*
X202067294Y-125087219D01*
X202067294Y-125087219D02*
X201924437Y-125134838D01*
X201924437Y-125134838D02*
X201829199Y-125230076D01*
X201829199Y-125230076D02*
X201781580Y-125325314D01*
X201781580Y-125325314D02*
X201733961Y-125515790D01*
X201733961Y-125515790D02*
X201733961Y-125658647D01*
X201733961Y-125658647D02*
X201781580Y-125849123D01*
X201781580Y-125849123D02*
X201829199Y-125944361D01*
X201829199Y-125944361D02*
X201924437Y-126039600D01*
X201924437Y-126039600D02*
X202067294Y-126087219D01*
X202067294Y-126087219D02*
X202162532Y-126087219D01*
X202162532Y-126087219D02*
X202305389Y-126039600D01*
X202305389Y-126039600D02*
X202353008Y-125991980D01*
X202353008Y-125991980D02*
X202353008Y-125658647D01*
X202353008Y-125658647D02*
X202162532Y-125658647D01*
X202781580Y-126087219D02*
X202781580Y-125420552D01*
X202781580Y-125611028D02*
X202829199Y-125515790D01*
X202829199Y-125515790D02*
X202876818Y-125468171D01*
X202876818Y-125468171D02*
X202972056Y-125420552D01*
X202972056Y-125420552D02*
X203067294Y-125420552D01*
X203829199Y-126087219D02*
X203829199Y-125563409D01*
X203829199Y-125563409D02*
X203781580Y-125468171D01*
X203781580Y-125468171D02*
X203686342Y-125420552D01*
X203686342Y-125420552D02*
X203495866Y-125420552D01*
X203495866Y-125420552D02*
X203400628Y-125468171D01*
X203829199Y-126039600D02*
X203733961Y-126087219D01*
X203733961Y-126087219D02*
X203495866Y-126087219D01*
X203495866Y-126087219D02*
X203400628Y-126039600D01*
X203400628Y-126039600D02*
X203353009Y-125944361D01*
X203353009Y-125944361D02*
X203353009Y-125849123D01*
X203353009Y-125849123D02*
X203400628Y-125753885D01*
X203400628Y-125753885D02*
X203495866Y-125706266D01*
X203495866Y-125706266D02*
X203733961Y-125706266D01*
X203733961Y-125706266D02*
X203829199Y-125658647D01*
X204733961Y-126087219D02*
X204733961Y-125087219D01*
X204733961Y-126039600D02*
X204638723Y-126087219D01*
X204638723Y-126087219D02*
X204448247Y-126087219D01*
X204448247Y-126087219D02*
X204353009Y-126039600D01*
X204353009Y-126039600D02*
X204305390Y-125991980D01*
X204305390Y-125991980D02*
X204257771Y-125896742D01*
X204257771Y-125896742D02*
X204257771Y-125611028D01*
X204257771Y-125611028D02*
X204305390Y-125515790D01*
X204305390Y-125515790D02*
X204353009Y-125468171D01*
X204353009Y-125468171D02*
X204448247Y-125420552D01*
X204448247Y-125420552D02*
X204638723Y-125420552D01*
X204638723Y-125420552D02*
X204733961Y-125468171D01*
X205353009Y-126087219D02*
X205257771Y-126039600D01*
X205257771Y-126039600D02*
X205210152Y-125991980D01*
X205210152Y-125991980D02*
X205162533Y-125896742D01*
X205162533Y-125896742D02*
X205162533Y-125611028D01*
X205162533Y-125611028D02*
X205210152Y-125515790D01*
X205210152Y-125515790D02*
X205257771Y-125468171D01*
X205257771Y-125468171D02*
X205353009Y-125420552D01*
X205353009Y-125420552D02*
X205495866Y-125420552D01*
X205495866Y-125420552D02*
X205591104Y-125468171D01*
X205591104Y-125468171D02*
X205638723Y-125515790D01*
X205638723Y-125515790D02*
X205686342Y-125611028D01*
X205686342Y-125611028D02*
X205686342Y-125896742D01*
X205686342Y-125896742D02*
X205638723Y-125991980D01*
X205638723Y-125991980D02*
X205591104Y-126039600D01*
X205591104Y-126039600D02*
X205495866Y-126087219D01*
X205495866Y-126087219D02*
X205353009Y-126087219D01*
D10*
X202166212Y-91752750D02*
X202273355Y-91788464D01*
X202273355Y-91788464D02*
X202451926Y-91788464D01*
X202451926Y-91788464D02*
X202523355Y-91752750D01*
X202523355Y-91752750D02*
X202559069Y-91717035D01*
X202559069Y-91717035D02*
X202594783Y-91645607D01*
X202594783Y-91645607D02*
X202594783Y-91574178D01*
X202594783Y-91574178D02*
X202559069Y-91502750D01*
X202559069Y-91502750D02*
X202523355Y-91467035D01*
X202523355Y-91467035D02*
X202451926Y-91431321D01*
X202451926Y-91431321D02*
X202309069Y-91395607D01*
X202309069Y-91395607D02*
X202237640Y-91359892D01*
X202237640Y-91359892D02*
X202201926Y-91324178D01*
X202201926Y-91324178D02*
X202166212Y-91252750D01*
X202166212Y-91252750D02*
X202166212Y-91181321D01*
X202166212Y-91181321D02*
X202201926Y-91109892D01*
X202201926Y-91109892D02*
X202237640Y-91074178D01*
X202237640Y-91074178D02*
X202309069Y-91038464D01*
X202309069Y-91038464D02*
X202487640Y-91038464D01*
X202487640Y-91038464D02*
X202594783Y-91074178D01*
X202916212Y-91788464D02*
X202916212Y-91038464D01*
X202916212Y-91038464D02*
X203094783Y-91038464D01*
X203094783Y-91038464D02*
X203201926Y-91074178D01*
X203201926Y-91074178D02*
X203273355Y-91145607D01*
X203273355Y-91145607D02*
X203309069Y-91217035D01*
X203309069Y-91217035D02*
X203344783Y-91359892D01*
X203344783Y-91359892D02*
X203344783Y-91467035D01*
X203344783Y-91467035D02*
X203309069Y-91609892D01*
X203309069Y-91609892D02*
X203273355Y-91681321D01*
X203273355Y-91681321D02*
X203201926Y-91752750D01*
X203201926Y-91752750D02*
X203094783Y-91788464D01*
X203094783Y-91788464D02*
X202916212Y-91788464D01*
X203630498Y-91574178D02*
X203987641Y-91574178D01*
X203559069Y-91788464D02*
X203809069Y-91038464D01*
X203809069Y-91038464D02*
X204059069Y-91788464D01*
X209509069Y-129048464D02*
X209151926Y-129048464D01*
X209151926Y-129048464D02*
X209116212Y-129405607D01*
X209116212Y-129405607D02*
X209151926Y-129369892D01*
X209151926Y-129369892D02*
X209223355Y-129334178D01*
X209223355Y-129334178D02*
X209401926Y-129334178D01*
X209401926Y-129334178D02*
X209473355Y-129369892D01*
X209473355Y-129369892D02*
X209509069Y-129405607D01*
X209509069Y-129405607D02*
X209544783Y-129477035D01*
X209544783Y-129477035D02*
X209544783Y-129655607D01*
X209544783Y-129655607D02*
X209509069Y-129727035D01*
X209509069Y-129727035D02*
X209473355Y-129762750D01*
X209473355Y-129762750D02*
X209401926Y-129798464D01*
X209401926Y-129798464D02*
X209223355Y-129798464D01*
X209223355Y-129798464D02*
X209151926Y-129762750D01*
X209151926Y-129762750D02*
X209116212Y-129727035D01*
X209759069Y-129048464D02*
X210009069Y-129798464D01*
X210009069Y-129798464D02*
X210259069Y-129048464D01*
D13*
X177950475Y-94734819D02*
X177617142Y-94258628D01*
X177379047Y-94734819D02*
X177379047Y-93734819D01*
X177379047Y-93734819D02*
X177759999Y-93734819D01*
X177759999Y-93734819D02*
X177855237Y-93782438D01*
X177855237Y-93782438D02*
X177902856Y-93830057D01*
X177902856Y-93830057D02*
X177950475Y-93925295D01*
X177950475Y-93925295D02*
X177950475Y-94068152D01*
X177950475Y-94068152D02*
X177902856Y-94163390D01*
X177902856Y-94163390D02*
X177855237Y-94211009D01*
X177855237Y-94211009D02*
X177759999Y-94258628D01*
X177759999Y-94258628D02*
X177379047Y-94258628D01*
X178759999Y-94687200D02*
X178664761Y-94734819D01*
X178664761Y-94734819D02*
X178474285Y-94734819D01*
X178474285Y-94734819D02*
X178379047Y-94687200D01*
X178379047Y-94687200D02*
X178331428Y-94591961D01*
X178331428Y-94591961D02*
X178331428Y-94211009D01*
X178331428Y-94211009D02*
X178379047Y-94115771D01*
X178379047Y-94115771D02*
X178474285Y-94068152D01*
X178474285Y-94068152D02*
X178664761Y-94068152D01*
X178664761Y-94068152D02*
X178759999Y-94115771D01*
X178759999Y-94115771D02*
X178807618Y-94211009D01*
X178807618Y-94211009D02*
X178807618Y-94306247D01*
X178807618Y-94306247D02*
X178331428Y-94401485D01*
X179379047Y-94734819D02*
X179283809Y-94687200D01*
X179283809Y-94687200D02*
X179236190Y-94591961D01*
X179236190Y-94591961D02*
X179236190Y-93734819D01*
X180140952Y-94687200D02*
X180045714Y-94734819D01*
X180045714Y-94734819D02*
X179855238Y-94734819D01*
X179855238Y-94734819D02*
X179760000Y-94687200D01*
X179760000Y-94687200D02*
X179712381Y-94591961D01*
X179712381Y-94591961D02*
X179712381Y-94211009D01*
X179712381Y-94211009D02*
X179760000Y-94115771D01*
X179760000Y-94115771D02*
X179855238Y-94068152D01*
X179855238Y-94068152D02*
X180045714Y-94068152D01*
X180045714Y-94068152D02*
X180140952Y-94115771D01*
X180140952Y-94115771D02*
X180188571Y-94211009D01*
X180188571Y-94211009D02*
X180188571Y-94306247D01*
X180188571Y-94306247D02*
X179712381Y-94401485D01*
X218174761Y-143010057D02*
X218079523Y-142962438D01*
X218079523Y-142962438D02*
X217984285Y-142867200D01*
X217984285Y-142867200D02*
X217841428Y-142724342D01*
X217841428Y-142724342D02*
X217746190Y-142676723D01*
X217746190Y-142676723D02*
X217650952Y-142676723D01*
X217698571Y-142914819D02*
X217603333Y-142867200D01*
X217603333Y-142867200D02*
X217508095Y-142771961D01*
X217508095Y-142771961D02*
X217460476Y-142581485D01*
X217460476Y-142581485D02*
X217460476Y-142248152D01*
X217460476Y-142248152D02*
X217508095Y-142057676D01*
X217508095Y-142057676D02*
X217603333Y-141962438D01*
X217603333Y-141962438D02*
X217698571Y-141914819D01*
X217698571Y-141914819D02*
X217889047Y-141914819D01*
X217889047Y-141914819D02*
X217984285Y-141962438D01*
X217984285Y-141962438D02*
X218079523Y-142057676D01*
X218079523Y-142057676D02*
X218127142Y-142248152D01*
X218127142Y-142248152D02*
X218127142Y-142581485D01*
X218127142Y-142581485D02*
X218079523Y-142771961D01*
X218079523Y-142771961D02*
X217984285Y-142867200D01*
X217984285Y-142867200D02*
X217889047Y-142914819D01*
X217889047Y-142914819D02*
X217698571Y-142914819D01*
X218508095Y-142010057D02*
X218555714Y-141962438D01*
X218555714Y-141962438D02*
X218650952Y-141914819D01*
X218650952Y-141914819D02*
X218889047Y-141914819D01*
X218889047Y-141914819D02*
X218984285Y-141962438D01*
X218984285Y-141962438D02*
X219031904Y-142010057D01*
X219031904Y-142010057D02*
X219079523Y-142105295D01*
X219079523Y-142105295D02*
X219079523Y-142200533D01*
X219079523Y-142200533D02*
X219031904Y-142343390D01*
X219031904Y-142343390D02*
X218460476Y-142914819D01*
X218460476Y-142914819D02*
X219079523Y-142914819D01*
X189613333Y-95224819D02*
X189280000Y-94748628D01*
X189041905Y-95224819D02*
X189041905Y-94224819D01*
X189041905Y-94224819D02*
X189422857Y-94224819D01*
X189422857Y-94224819D02*
X189518095Y-94272438D01*
X189518095Y-94272438D02*
X189565714Y-94320057D01*
X189565714Y-94320057D02*
X189613333Y-94415295D01*
X189613333Y-94415295D02*
X189613333Y-94558152D01*
X189613333Y-94558152D02*
X189565714Y-94653390D01*
X189565714Y-94653390D02*
X189518095Y-94701009D01*
X189518095Y-94701009D02*
X189422857Y-94748628D01*
X189422857Y-94748628D02*
X189041905Y-94748628D01*
X190470476Y-94558152D02*
X190470476Y-95224819D01*
X190232381Y-94177200D02*
X189994286Y-94891485D01*
X189994286Y-94891485D02*
X190613333Y-94891485D01*
X212728095Y-102934819D02*
X212728095Y-103744342D01*
X212728095Y-103744342D02*
X212775714Y-103839580D01*
X212775714Y-103839580D02*
X212823333Y-103887200D01*
X212823333Y-103887200D02*
X212918571Y-103934819D01*
X212918571Y-103934819D02*
X213109047Y-103934819D01*
X213109047Y-103934819D02*
X213204285Y-103887200D01*
X213204285Y-103887200D02*
X213251904Y-103839580D01*
X213251904Y-103839580D02*
X213299523Y-103744342D01*
X213299523Y-103744342D02*
X213299523Y-102934819D01*
X213728095Y-103030057D02*
X213775714Y-102982438D01*
X213775714Y-102982438D02*
X213870952Y-102934819D01*
X213870952Y-102934819D02*
X214109047Y-102934819D01*
X214109047Y-102934819D02*
X214204285Y-102982438D01*
X214204285Y-102982438D02*
X214251904Y-103030057D01*
X214251904Y-103030057D02*
X214299523Y-103125295D01*
X214299523Y-103125295D02*
X214299523Y-103220533D01*
X214299523Y-103220533D02*
X214251904Y-103363390D01*
X214251904Y-103363390D02*
X213680476Y-103934819D01*
X213680476Y-103934819D02*
X214299523Y-103934819D01*
X179901904Y-117034819D02*
X179568571Y-116558628D01*
X179330476Y-117034819D02*
X179330476Y-116034819D01*
X179330476Y-116034819D02*
X179711428Y-116034819D01*
X179711428Y-116034819D02*
X179806666Y-116082438D01*
X179806666Y-116082438D02*
X179854285Y-116130057D01*
X179854285Y-116130057D02*
X179901904Y-116225295D01*
X179901904Y-116225295D02*
X179901904Y-116368152D01*
X179901904Y-116368152D02*
X179854285Y-116463390D01*
X179854285Y-116463390D02*
X179806666Y-116511009D01*
X179806666Y-116511009D02*
X179711428Y-116558628D01*
X179711428Y-116558628D02*
X179330476Y-116558628D01*
X180711428Y-116987200D02*
X180616190Y-117034819D01*
X180616190Y-117034819D02*
X180425714Y-117034819D01*
X180425714Y-117034819D02*
X180330476Y-116987200D01*
X180330476Y-116987200D02*
X180282857Y-116891961D01*
X180282857Y-116891961D02*
X180282857Y-116511009D01*
X180282857Y-116511009D02*
X180330476Y-116415771D01*
X180330476Y-116415771D02*
X180425714Y-116368152D01*
X180425714Y-116368152D02*
X180616190Y-116368152D01*
X180616190Y-116368152D02*
X180711428Y-116415771D01*
X180711428Y-116415771D02*
X180759047Y-116511009D01*
X180759047Y-116511009D02*
X180759047Y-116606247D01*
X180759047Y-116606247D02*
X180282857Y-116701485D01*
X181140000Y-116987200D02*
X181235238Y-117034819D01*
X181235238Y-117034819D02*
X181425714Y-117034819D01*
X181425714Y-117034819D02*
X181520952Y-116987200D01*
X181520952Y-116987200D02*
X181568571Y-116891961D01*
X181568571Y-116891961D02*
X181568571Y-116844342D01*
X181568571Y-116844342D02*
X181520952Y-116749104D01*
X181520952Y-116749104D02*
X181425714Y-116701485D01*
X181425714Y-116701485D02*
X181282857Y-116701485D01*
X181282857Y-116701485D02*
X181187619Y-116653866D01*
X181187619Y-116653866D02*
X181140000Y-116558628D01*
X181140000Y-116558628D02*
X181140000Y-116511009D01*
X181140000Y-116511009D02*
X181187619Y-116415771D01*
X181187619Y-116415771D02*
X181282857Y-116368152D01*
X181282857Y-116368152D02*
X181425714Y-116368152D01*
X181425714Y-116368152D02*
X181520952Y-116415771D01*
X182378095Y-116987200D02*
X182282857Y-117034819D01*
X182282857Y-117034819D02*
X182092381Y-117034819D01*
X182092381Y-117034819D02*
X181997143Y-116987200D01*
X181997143Y-116987200D02*
X181949524Y-116891961D01*
X181949524Y-116891961D02*
X181949524Y-116511009D01*
X181949524Y-116511009D02*
X181997143Y-116415771D01*
X181997143Y-116415771D02*
X182092381Y-116368152D01*
X182092381Y-116368152D02*
X182282857Y-116368152D01*
X182282857Y-116368152D02*
X182378095Y-116415771D01*
X182378095Y-116415771D02*
X182425714Y-116511009D01*
X182425714Y-116511009D02*
X182425714Y-116606247D01*
X182425714Y-116606247D02*
X181949524Y-116701485D01*
X182711429Y-116368152D02*
X183092381Y-116368152D01*
X182854286Y-116034819D02*
X182854286Y-116891961D01*
X182854286Y-116891961D02*
X182901905Y-116987200D01*
X182901905Y-116987200D02*
X182997143Y-117034819D01*
X182997143Y-117034819D02*
X183092381Y-117034819D01*
X202133333Y-98264819D02*
X201800000Y-97788628D01*
X201561905Y-98264819D02*
X201561905Y-97264819D01*
X201561905Y-97264819D02*
X201942857Y-97264819D01*
X201942857Y-97264819D02*
X202038095Y-97312438D01*
X202038095Y-97312438D02*
X202085714Y-97360057D01*
X202085714Y-97360057D02*
X202133333Y-97455295D01*
X202133333Y-97455295D02*
X202133333Y-97598152D01*
X202133333Y-97598152D02*
X202085714Y-97693390D01*
X202085714Y-97693390D02*
X202038095Y-97741009D01*
X202038095Y-97741009D02*
X201942857Y-97788628D01*
X201942857Y-97788628D02*
X201561905Y-97788628D01*
X202466667Y-97264819D02*
X203085714Y-97264819D01*
X203085714Y-97264819D02*
X202752381Y-97645771D01*
X202752381Y-97645771D02*
X202895238Y-97645771D01*
X202895238Y-97645771D02*
X202990476Y-97693390D01*
X202990476Y-97693390D02*
X203038095Y-97741009D01*
X203038095Y-97741009D02*
X203085714Y-97836247D01*
X203085714Y-97836247D02*
X203085714Y-98074342D01*
X203085714Y-98074342D02*
X203038095Y-98169580D01*
X203038095Y-98169580D02*
X202990476Y-98217200D01*
X202990476Y-98217200D02*
X202895238Y-98264819D01*
X202895238Y-98264819D02*
X202609524Y-98264819D01*
X202609524Y-98264819D02*
X202514286Y-98217200D01*
X202514286Y-98217200D02*
X202466667Y-98169580D01*
X191443095Y-149459819D02*
X191443095Y-150269342D01*
X191443095Y-150269342D02*
X191490714Y-150364580D01*
X191490714Y-150364580D02*
X191538333Y-150412200D01*
X191538333Y-150412200D02*
X191633571Y-150459819D01*
X191633571Y-150459819D02*
X191824047Y-150459819D01*
X191824047Y-150459819D02*
X191919285Y-150412200D01*
X191919285Y-150412200D02*
X191966904Y-150364580D01*
X191966904Y-150364580D02*
X192014523Y-150269342D01*
X192014523Y-150269342D02*
X192014523Y-149459819D01*
X193014523Y-150459819D02*
X192443095Y-150459819D01*
X192728809Y-150459819D02*
X192728809Y-149459819D01*
X192728809Y-149459819D02*
X192633571Y-149602676D01*
X192633571Y-149602676D02*
X192538333Y-149697914D01*
X192538333Y-149697914D02*
X192443095Y-149745533D01*
X180050952Y-105381009D02*
X180193809Y-105428628D01*
X180193809Y-105428628D02*
X180241428Y-105476247D01*
X180241428Y-105476247D02*
X180289047Y-105571485D01*
X180289047Y-105571485D02*
X180289047Y-105714342D01*
X180289047Y-105714342D02*
X180241428Y-105809580D01*
X180241428Y-105809580D02*
X180193809Y-105857200D01*
X180193809Y-105857200D02*
X180098571Y-105904819D01*
X180098571Y-105904819D02*
X179717619Y-105904819D01*
X179717619Y-105904819D02*
X179717619Y-104904819D01*
X179717619Y-104904819D02*
X180050952Y-104904819D01*
X180050952Y-104904819D02*
X180146190Y-104952438D01*
X180146190Y-104952438D02*
X180193809Y-105000057D01*
X180193809Y-105000057D02*
X180241428Y-105095295D01*
X180241428Y-105095295D02*
X180241428Y-105190533D01*
X180241428Y-105190533D02*
X180193809Y-105285771D01*
X180193809Y-105285771D02*
X180146190Y-105333390D01*
X180146190Y-105333390D02*
X180050952Y-105381009D01*
X180050952Y-105381009D02*
X179717619Y-105381009D01*
X180860476Y-105904819D02*
X180765238Y-105857200D01*
X180765238Y-105857200D02*
X180717619Y-105809580D01*
X180717619Y-105809580D02*
X180670000Y-105714342D01*
X180670000Y-105714342D02*
X180670000Y-105428628D01*
X180670000Y-105428628D02*
X180717619Y-105333390D01*
X180717619Y-105333390D02*
X180765238Y-105285771D01*
X180765238Y-105285771D02*
X180860476Y-105238152D01*
X180860476Y-105238152D02*
X181003333Y-105238152D01*
X181003333Y-105238152D02*
X181098571Y-105285771D01*
X181098571Y-105285771D02*
X181146190Y-105333390D01*
X181146190Y-105333390D02*
X181193809Y-105428628D01*
X181193809Y-105428628D02*
X181193809Y-105714342D01*
X181193809Y-105714342D02*
X181146190Y-105809580D01*
X181146190Y-105809580D02*
X181098571Y-105857200D01*
X181098571Y-105857200D02*
X181003333Y-105904819D01*
X181003333Y-105904819D02*
X180860476Y-105904819D01*
X181765238Y-105904819D02*
X181670000Y-105857200D01*
X181670000Y-105857200D02*
X181622381Y-105809580D01*
X181622381Y-105809580D02*
X181574762Y-105714342D01*
X181574762Y-105714342D02*
X181574762Y-105428628D01*
X181574762Y-105428628D02*
X181622381Y-105333390D01*
X181622381Y-105333390D02*
X181670000Y-105285771D01*
X181670000Y-105285771D02*
X181765238Y-105238152D01*
X181765238Y-105238152D02*
X181908095Y-105238152D01*
X181908095Y-105238152D02*
X182003333Y-105285771D01*
X182003333Y-105285771D02*
X182050952Y-105333390D01*
X182050952Y-105333390D02*
X182098571Y-105428628D01*
X182098571Y-105428628D02*
X182098571Y-105714342D01*
X182098571Y-105714342D02*
X182050952Y-105809580D01*
X182050952Y-105809580D02*
X182003333Y-105857200D01*
X182003333Y-105857200D02*
X181908095Y-105904819D01*
X181908095Y-105904819D02*
X181765238Y-105904819D01*
X182384286Y-105238152D02*
X182765238Y-105238152D01*
X182527143Y-104904819D02*
X182527143Y-105761961D01*
X182527143Y-105761961D02*
X182574762Y-105857200D01*
X182574762Y-105857200D02*
X182670000Y-105904819D01*
X182670000Y-105904819D02*
X182765238Y-105904819D01*
X208783332Y-142249819D02*
X208307142Y-142249819D01*
X208307142Y-142249819D02*
X208307142Y-141249819D01*
X209497618Y-142202200D02*
X209402380Y-142249819D01*
X209402380Y-142249819D02*
X209211904Y-142249819D01*
X209211904Y-142249819D02*
X209116666Y-142202200D01*
X209116666Y-142202200D02*
X209069047Y-142106961D01*
X209069047Y-142106961D02*
X209069047Y-141726009D01*
X209069047Y-141726009D02*
X209116666Y-141630771D01*
X209116666Y-141630771D02*
X209211904Y-141583152D01*
X209211904Y-141583152D02*
X209402380Y-141583152D01*
X209402380Y-141583152D02*
X209497618Y-141630771D01*
X209497618Y-141630771D02*
X209545237Y-141726009D01*
X209545237Y-141726009D02*
X209545237Y-141821247D01*
X209545237Y-141821247D02*
X209069047Y-141916485D01*
X210402380Y-142249819D02*
X210402380Y-141249819D01*
X210402380Y-142202200D02*
X210307142Y-142249819D01*
X210307142Y-142249819D02*
X210116666Y-142249819D01*
X210116666Y-142249819D02*
X210021428Y-142202200D01*
X210021428Y-142202200D02*
X209973809Y-142154580D01*
X209973809Y-142154580D02*
X209926190Y-142059342D01*
X209926190Y-142059342D02*
X209926190Y-141773628D01*
X209926190Y-141773628D02*
X209973809Y-141678390D01*
X209973809Y-141678390D02*
X210021428Y-141630771D01*
X210021428Y-141630771D02*
X210116666Y-141583152D01*
X210116666Y-141583152D02*
X210307142Y-141583152D01*
X210307142Y-141583152D02*
X210402380Y-141630771D01*
X210878571Y-142249819D02*
X210878571Y-141249819D01*
X210878571Y-141249819D02*
X211259523Y-141249819D01*
X211259523Y-141249819D02*
X211354761Y-141297438D01*
X211354761Y-141297438D02*
X211402380Y-141345057D01*
X211402380Y-141345057D02*
X211449999Y-141440295D01*
X211449999Y-141440295D02*
X211449999Y-141583152D01*
X211449999Y-141583152D02*
X211402380Y-141678390D01*
X211402380Y-141678390D02*
X211354761Y-141726009D01*
X211354761Y-141726009D02*
X211259523Y-141773628D01*
X211259523Y-141773628D02*
X210878571Y-141773628D01*
X211878571Y-142249819D02*
X211878571Y-141583152D01*
X211878571Y-141773628D02*
X211926190Y-141678390D01*
X211926190Y-141678390D02*
X211973809Y-141630771D01*
X211973809Y-141630771D02*
X212069047Y-141583152D01*
X212069047Y-141583152D02*
X212164285Y-141583152D01*
X212926190Y-141583152D02*
X212926190Y-142249819D01*
X212497619Y-141583152D02*
X212497619Y-142106961D01*
X212497619Y-142106961D02*
X212545238Y-142202200D01*
X212545238Y-142202200D02*
X212640476Y-142249819D01*
X212640476Y-142249819D02*
X212783333Y-142249819D01*
X212783333Y-142249819D02*
X212878571Y-142202200D01*
X212878571Y-142202200D02*
X212926190Y-142154580D01*
X213783333Y-142202200D02*
X213688095Y-142249819D01*
X213688095Y-142249819D02*
X213497619Y-142249819D01*
X213497619Y-142249819D02*
X213402381Y-142202200D01*
X213402381Y-142202200D02*
X213354762Y-142106961D01*
X213354762Y-142106961D02*
X213354762Y-141726009D01*
X213354762Y-141726009D02*
X213402381Y-141630771D01*
X213402381Y-141630771D02*
X213497619Y-141583152D01*
X213497619Y-141583152D02*
X213688095Y-141583152D01*
X213688095Y-141583152D02*
X213783333Y-141630771D01*
X213783333Y-141630771D02*
X213830952Y-141726009D01*
X213830952Y-141726009D02*
X213830952Y-141821247D01*
X213830952Y-141821247D02*
X213354762Y-141916485D01*
X214259524Y-142249819D02*
X214259524Y-141249819D01*
X214259524Y-141630771D02*
X214354762Y-141583152D01*
X214354762Y-141583152D02*
X214545238Y-141583152D01*
X214545238Y-141583152D02*
X214640476Y-141630771D01*
X214640476Y-141630771D02*
X214688095Y-141678390D01*
X214688095Y-141678390D02*
X214735714Y-141773628D01*
X214735714Y-141773628D02*
X214735714Y-142059342D01*
X214735714Y-142059342D02*
X214688095Y-142154580D01*
X214688095Y-142154580D02*
X214640476Y-142202200D01*
X214640476Y-142202200D02*
X214545238Y-142249819D01*
X214545238Y-142249819D02*
X214354762Y-142249819D01*
X214354762Y-142249819D02*
X214259524Y-142202200D01*
X215592857Y-142249819D02*
X215592857Y-141726009D01*
X215592857Y-141726009D02*
X215545238Y-141630771D01*
X215545238Y-141630771D02*
X215450000Y-141583152D01*
X215450000Y-141583152D02*
X215259524Y-141583152D01*
X215259524Y-141583152D02*
X215164286Y-141630771D01*
X215592857Y-142202200D02*
X215497619Y-142249819D01*
X215497619Y-142249819D02*
X215259524Y-142249819D01*
X215259524Y-142249819D02*
X215164286Y-142202200D01*
X215164286Y-142202200D02*
X215116667Y-142106961D01*
X215116667Y-142106961D02*
X215116667Y-142011723D01*
X215116667Y-142011723D02*
X215164286Y-141916485D01*
X215164286Y-141916485D02*
X215259524Y-141868866D01*
X215259524Y-141868866D02*
X215497619Y-141868866D01*
X215497619Y-141868866D02*
X215592857Y-141821247D01*
X217163333Y-114229580D02*
X217115714Y-114277200D01*
X217115714Y-114277200D02*
X216972857Y-114324819D01*
X216972857Y-114324819D02*
X216877619Y-114324819D01*
X216877619Y-114324819D02*
X216734762Y-114277200D01*
X216734762Y-114277200D02*
X216639524Y-114181961D01*
X216639524Y-114181961D02*
X216591905Y-114086723D01*
X216591905Y-114086723D02*
X216544286Y-113896247D01*
X216544286Y-113896247D02*
X216544286Y-113753390D01*
X216544286Y-113753390D02*
X216591905Y-113562914D01*
X216591905Y-113562914D02*
X216639524Y-113467676D01*
X216639524Y-113467676D02*
X216734762Y-113372438D01*
X216734762Y-113372438D02*
X216877619Y-113324819D01*
X216877619Y-113324819D02*
X216972857Y-113324819D01*
X216972857Y-113324819D02*
X217115714Y-113372438D01*
X217115714Y-113372438D02*
X217163333Y-113420057D01*
X218115714Y-114324819D02*
X217544286Y-114324819D01*
X217830000Y-114324819D02*
X217830000Y-113324819D01*
X217830000Y-113324819D02*
X217734762Y-113467676D01*
X217734762Y-113467676D02*
X217639524Y-113562914D01*
X217639524Y-113562914D02*
X217544286Y-113610533D01*
X230669104Y-103792380D02*
X230669104Y-103316190D01*
X230954819Y-103887618D02*
X229954819Y-103554285D01*
X229954819Y-103554285D02*
X230954819Y-103220952D01*
X230954819Y-102744761D02*
X230907200Y-102839999D01*
X230907200Y-102839999D02*
X230811961Y-102887618D01*
X230811961Y-102887618D02*
X229954819Y-102887618D01*
X230954819Y-102363808D02*
X230288152Y-102363808D01*
X229954819Y-102363808D02*
X230002438Y-102411427D01*
X230002438Y-102411427D02*
X230050057Y-102363808D01*
X230050057Y-102363808D02*
X230002438Y-102316189D01*
X230002438Y-102316189D02*
X229954819Y-102363808D01*
X229954819Y-102363808D02*
X230050057Y-102363808D01*
X230954819Y-101887618D02*
X230288152Y-101887618D01*
X230383390Y-101887618D02*
X230335771Y-101839999D01*
X230335771Y-101839999D02*
X230288152Y-101744761D01*
X230288152Y-101744761D02*
X230288152Y-101601904D01*
X230288152Y-101601904D02*
X230335771Y-101506666D01*
X230335771Y-101506666D02*
X230431009Y-101459047D01*
X230431009Y-101459047D02*
X230954819Y-101459047D01*
X230431009Y-101459047D02*
X230335771Y-101411428D01*
X230335771Y-101411428D02*
X230288152Y-101316190D01*
X230288152Y-101316190D02*
X230288152Y-101173333D01*
X230288152Y-101173333D02*
X230335771Y-101078094D01*
X230335771Y-101078094D02*
X230431009Y-101030475D01*
X230431009Y-101030475D02*
X230954819Y-101030475D01*
X230907200Y-100173333D02*
X230954819Y-100268571D01*
X230954819Y-100268571D02*
X230954819Y-100459047D01*
X230954819Y-100459047D02*
X230907200Y-100554285D01*
X230907200Y-100554285D02*
X230811961Y-100601904D01*
X230811961Y-100601904D02*
X230431009Y-100601904D01*
X230431009Y-100601904D02*
X230335771Y-100554285D01*
X230335771Y-100554285D02*
X230288152Y-100459047D01*
X230288152Y-100459047D02*
X230288152Y-100268571D01*
X230288152Y-100268571D02*
X230335771Y-100173333D01*
X230335771Y-100173333D02*
X230431009Y-100125714D01*
X230431009Y-100125714D02*
X230526247Y-100125714D01*
X230526247Y-100125714D02*
X230621485Y-100601904D01*
X230288152Y-99697142D02*
X230954819Y-99697142D01*
X230383390Y-99697142D02*
X230335771Y-99649523D01*
X230335771Y-99649523D02*
X230288152Y-99554285D01*
X230288152Y-99554285D02*
X230288152Y-99411428D01*
X230288152Y-99411428D02*
X230335771Y-99316190D01*
X230335771Y-99316190D02*
X230431009Y-99268571D01*
X230431009Y-99268571D02*
X230954819Y-99268571D01*
X230288152Y-98935237D02*
X230288152Y-98554285D01*
X229954819Y-98792380D02*
X230811961Y-98792380D01*
X230811961Y-98792380D02*
X230907200Y-98744761D01*
X230907200Y-98744761D02*
X230954819Y-98649523D01*
X230954819Y-98649523D02*
X230954819Y-98554285D01*
X230954819Y-97792380D02*
X230431009Y-97792380D01*
X230431009Y-97792380D02*
X230335771Y-97839999D01*
X230335771Y-97839999D02*
X230288152Y-97935237D01*
X230288152Y-97935237D02*
X230288152Y-98125713D01*
X230288152Y-98125713D02*
X230335771Y-98220951D01*
X230907200Y-97792380D02*
X230954819Y-97887618D01*
X230954819Y-97887618D02*
X230954819Y-98125713D01*
X230954819Y-98125713D02*
X230907200Y-98220951D01*
X230907200Y-98220951D02*
X230811961Y-98268570D01*
X230811961Y-98268570D02*
X230716723Y-98268570D01*
X230716723Y-98268570D02*
X230621485Y-98220951D01*
X230621485Y-98220951D02*
X230573866Y-98125713D01*
X230573866Y-98125713D02*
X230573866Y-97887618D01*
X230573866Y-97887618D02*
X230526247Y-97792380D01*
X230907200Y-96887618D02*
X230954819Y-96982856D01*
X230954819Y-96982856D02*
X230954819Y-97173332D01*
X230954819Y-97173332D02*
X230907200Y-97268570D01*
X230907200Y-97268570D02*
X230859580Y-97316189D01*
X230859580Y-97316189D02*
X230764342Y-97363808D01*
X230764342Y-97363808D02*
X230478628Y-97363808D01*
X230478628Y-97363808D02*
X230383390Y-97316189D01*
X230383390Y-97316189D02*
X230335771Y-97268570D01*
X230335771Y-97268570D02*
X230288152Y-97173332D01*
X230288152Y-97173332D02*
X230288152Y-96982856D01*
X230288152Y-96982856D02*
X230335771Y-96887618D01*
X230954819Y-96459046D02*
X230288152Y-96459046D01*
X229954819Y-96459046D02*
X230002438Y-96506665D01*
X230002438Y-96506665D02*
X230050057Y-96459046D01*
X230050057Y-96459046D02*
X230002438Y-96411427D01*
X230002438Y-96411427D02*
X229954819Y-96459046D01*
X229954819Y-96459046D02*
X230050057Y-96459046D01*
X230954819Y-95839999D02*
X230907200Y-95935237D01*
X230907200Y-95935237D02*
X230859580Y-95982856D01*
X230859580Y-95982856D02*
X230764342Y-96030475D01*
X230764342Y-96030475D02*
X230478628Y-96030475D01*
X230478628Y-96030475D02*
X230383390Y-95982856D01*
X230383390Y-95982856D02*
X230335771Y-95935237D01*
X230335771Y-95935237D02*
X230288152Y-95839999D01*
X230288152Y-95839999D02*
X230288152Y-95697142D01*
X230288152Y-95697142D02*
X230335771Y-95601904D01*
X230335771Y-95601904D02*
X230383390Y-95554285D01*
X230383390Y-95554285D02*
X230478628Y-95506666D01*
X230478628Y-95506666D02*
X230764342Y-95506666D01*
X230764342Y-95506666D02*
X230859580Y-95554285D01*
X230859580Y-95554285D02*
X230907200Y-95601904D01*
X230907200Y-95601904D02*
X230954819Y-95697142D01*
X230954819Y-95697142D02*
X230954819Y-95839999D01*
X230288152Y-95078094D02*
X230954819Y-95078094D01*
X230383390Y-95078094D02*
X230335771Y-95030475D01*
X230335771Y-95030475D02*
X230288152Y-94935237D01*
X230288152Y-94935237D02*
X230288152Y-94792380D01*
X230288152Y-94792380D02*
X230335771Y-94697142D01*
X230335771Y-94697142D02*
X230431009Y-94649523D01*
X230431009Y-94649523D02*
X230954819Y-94649523D01*
X230050057Y-94220951D02*
X230002438Y-94173332D01*
X230002438Y-94173332D02*
X229954819Y-94078094D01*
X229954819Y-94078094D02*
X229954819Y-93839999D01*
X229954819Y-93839999D02*
X230002438Y-93744761D01*
X230002438Y-93744761D02*
X230050057Y-93697142D01*
X230050057Y-93697142D02*
X230145295Y-93649523D01*
X230145295Y-93649523D02*
X230240533Y-93649523D01*
X230240533Y-93649523D02*
X230383390Y-93697142D01*
X230383390Y-93697142D02*
X230954819Y-94268570D01*
X230954819Y-94268570D02*
X230954819Y-93649523D01*
X230050057Y-93268570D02*
X230002438Y-93220951D01*
X230002438Y-93220951D02*
X229954819Y-93125713D01*
X229954819Y-93125713D02*
X229954819Y-92887618D01*
X229954819Y-92887618D02*
X230002438Y-92792380D01*
X230002438Y-92792380D02*
X230050057Y-92744761D01*
X230050057Y-92744761D02*
X230145295Y-92697142D01*
X230145295Y-92697142D02*
X230240533Y-92697142D01*
X230240533Y-92697142D02*
X230383390Y-92744761D01*
X230383390Y-92744761D02*
X230954819Y-93316189D01*
X230954819Y-93316189D02*
X230954819Y-92697142D01*
X229954819Y-92078094D02*
X229954819Y-91982856D01*
X229954819Y-91982856D02*
X230002438Y-91887618D01*
X230002438Y-91887618D02*
X230050057Y-91839999D01*
X230050057Y-91839999D02*
X230145295Y-91792380D01*
X230145295Y-91792380D02*
X230335771Y-91744761D01*
X230335771Y-91744761D02*
X230573866Y-91744761D01*
X230573866Y-91744761D02*
X230764342Y-91792380D01*
X230764342Y-91792380D02*
X230859580Y-91839999D01*
X230859580Y-91839999D02*
X230907200Y-91887618D01*
X230907200Y-91887618D02*
X230954819Y-91982856D01*
X230954819Y-91982856D02*
X230954819Y-92078094D01*
X230954819Y-92078094D02*
X230907200Y-92173332D01*
X230907200Y-92173332D02*
X230859580Y-92220951D01*
X230859580Y-92220951D02*
X230764342Y-92268570D01*
X230764342Y-92268570D02*
X230573866Y-92316189D01*
X230573866Y-92316189D02*
X230335771Y-92316189D01*
X230335771Y-92316189D02*
X230145295Y-92268570D01*
X230145295Y-92268570D02*
X230050057Y-92220951D01*
X230050057Y-92220951D02*
X230002438Y-92173332D01*
X230002438Y-92173332D02*
X229954819Y-92078094D01*
X229954819Y-91459046D02*
X230954819Y-91125713D01*
X230954819Y-91125713D02*
X229954819Y-90792380D01*
X202313333Y-93604819D02*
X201980000Y-93128628D01*
X201741905Y-93604819D02*
X201741905Y-92604819D01*
X201741905Y-92604819D02*
X202122857Y-92604819D01*
X202122857Y-92604819D02*
X202218095Y-92652438D01*
X202218095Y-92652438D02*
X202265714Y-92700057D01*
X202265714Y-92700057D02*
X202313333Y-92795295D01*
X202313333Y-92795295D02*
X202313333Y-92938152D01*
X202313333Y-92938152D02*
X202265714Y-93033390D01*
X202265714Y-93033390D02*
X202218095Y-93081009D01*
X202218095Y-93081009D02*
X202122857Y-93128628D01*
X202122857Y-93128628D02*
X201741905Y-93128628D01*
X202694286Y-92700057D02*
X202741905Y-92652438D01*
X202741905Y-92652438D02*
X202837143Y-92604819D01*
X202837143Y-92604819D02*
X203075238Y-92604819D01*
X203075238Y-92604819D02*
X203170476Y-92652438D01*
X203170476Y-92652438D02*
X203218095Y-92700057D01*
X203218095Y-92700057D02*
X203265714Y-92795295D01*
X203265714Y-92795295D02*
X203265714Y-92890533D01*
X203265714Y-92890533D02*
X203218095Y-93033390D01*
X203218095Y-93033390D02*
X202646667Y-93604819D01*
X202646667Y-93604819D02*
X203265714Y-93604819D01*
X227904761Y-143030057D02*
X227809523Y-142982438D01*
X227809523Y-142982438D02*
X227714285Y-142887200D01*
X227714285Y-142887200D02*
X227571428Y-142744342D01*
X227571428Y-142744342D02*
X227476190Y-142696723D01*
X227476190Y-142696723D02*
X227380952Y-142696723D01*
X227428571Y-142934819D02*
X227333333Y-142887200D01*
X227333333Y-142887200D02*
X227238095Y-142791961D01*
X227238095Y-142791961D02*
X227190476Y-142601485D01*
X227190476Y-142601485D02*
X227190476Y-142268152D01*
X227190476Y-142268152D02*
X227238095Y-142077676D01*
X227238095Y-142077676D02*
X227333333Y-141982438D01*
X227333333Y-141982438D02*
X227428571Y-141934819D01*
X227428571Y-141934819D02*
X227619047Y-141934819D01*
X227619047Y-141934819D02*
X227714285Y-141982438D01*
X227714285Y-141982438D02*
X227809523Y-142077676D01*
X227809523Y-142077676D02*
X227857142Y-142268152D01*
X227857142Y-142268152D02*
X227857142Y-142601485D01*
X227857142Y-142601485D02*
X227809523Y-142791961D01*
X227809523Y-142791961D02*
X227714285Y-142887200D01*
X227714285Y-142887200D02*
X227619047Y-142934819D01*
X227619047Y-142934819D02*
X227428571Y-142934819D01*
X228809523Y-142934819D02*
X228238095Y-142934819D01*
X228523809Y-142934819D02*
X228523809Y-141934819D01*
X228523809Y-141934819D02*
X228428571Y-142077676D01*
X228428571Y-142077676D02*
X228333333Y-142172914D01*
X228333333Y-142172914D02*
X228238095Y-142220533D01*
X210883333Y-115299580D02*
X210835714Y-115347200D01*
X210835714Y-115347200D02*
X210692857Y-115394819D01*
X210692857Y-115394819D02*
X210597619Y-115394819D01*
X210597619Y-115394819D02*
X210454762Y-115347200D01*
X210454762Y-115347200D02*
X210359524Y-115251961D01*
X210359524Y-115251961D02*
X210311905Y-115156723D01*
X210311905Y-115156723D02*
X210264286Y-114966247D01*
X210264286Y-114966247D02*
X210264286Y-114823390D01*
X210264286Y-114823390D02*
X210311905Y-114632914D01*
X210311905Y-114632914D02*
X210359524Y-114537676D01*
X210359524Y-114537676D02*
X210454762Y-114442438D01*
X210454762Y-114442438D02*
X210597619Y-114394819D01*
X210597619Y-114394819D02*
X210692857Y-114394819D01*
X210692857Y-114394819D02*
X210835714Y-114442438D01*
X210835714Y-114442438D02*
X210883333Y-114490057D01*
X211264286Y-114490057D02*
X211311905Y-114442438D01*
X211311905Y-114442438D02*
X211407143Y-114394819D01*
X211407143Y-114394819D02*
X211645238Y-114394819D01*
X211645238Y-114394819D02*
X211740476Y-114442438D01*
X211740476Y-114442438D02*
X211788095Y-114490057D01*
X211788095Y-114490057D02*
X211835714Y-114585295D01*
X211835714Y-114585295D02*
X211835714Y-114680533D01*
X211835714Y-114680533D02*
X211788095Y-114823390D01*
X211788095Y-114823390D02*
X211216667Y-115394819D01*
X211216667Y-115394819D02*
X211835714Y-115394819D01*
X211166666Y-126314819D02*
X211166666Y-127124342D01*
X211166666Y-127124342D02*
X211214285Y-127219580D01*
X211214285Y-127219580D02*
X211261904Y-127267200D01*
X211261904Y-127267200D02*
X211357142Y-127314819D01*
X211357142Y-127314819D02*
X211547618Y-127314819D01*
X211547618Y-127314819D02*
X211642856Y-127267200D01*
X211642856Y-127267200D02*
X211690475Y-127219580D01*
X211690475Y-127219580D02*
X211738094Y-127124342D01*
X211738094Y-127124342D02*
X211738094Y-126314819D01*
X212642856Y-127314819D02*
X212642856Y-126791009D01*
X212642856Y-126791009D02*
X212595237Y-126695771D01*
X212595237Y-126695771D02*
X212499999Y-126648152D01*
X212499999Y-126648152D02*
X212309523Y-126648152D01*
X212309523Y-126648152D02*
X212214285Y-126695771D01*
X212642856Y-127267200D02*
X212547618Y-127314819D01*
X212547618Y-127314819D02*
X212309523Y-127314819D01*
X212309523Y-127314819D02*
X212214285Y-127267200D01*
X212214285Y-127267200D02*
X212166666Y-127171961D01*
X212166666Y-127171961D02*
X212166666Y-127076723D01*
X212166666Y-127076723D02*
X212214285Y-126981485D01*
X212214285Y-126981485D02*
X212309523Y-126933866D01*
X212309523Y-126933866D02*
X212547618Y-126933866D01*
X212547618Y-126933866D02*
X212642856Y-126886247D01*
X213119047Y-127314819D02*
X213119047Y-126648152D01*
X213119047Y-126838628D02*
X213166666Y-126743390D01*
X213166666Y-126743390D02*
X213214285Y-126695771D01*
X213214285Y-126695771D02*
X213309523Y-126648152D01*
X213309523Y-126648152D02*
X213404761Y-126648152D01*
X213595238Y-126648152D02*
X213976190Y-126648152D01*
X213738095Y-126314819D02*
X213738095Y-127171961D01*
X213738095Y-127171961D02*
X213785714Y-127267200D01*
X213785714Y-127267200D02*
X213880952Y-127314819D01*
X213880952Y-127314819D02*
X213976190Y-127314819D01*
X230421009Y-111399047D02*
X230421009Y-111065714D01*
X230944819Y-110922857D02*
X230944819Y-111399047D01*
X230944819Y-111399047D02*
X229944819Y-111399047D01*
X229944819Y-111399047D02*
X229944819Y-110922857D01*
X230278152Y-110494285D02*
X230944819Y-110494285D01*
X230373390Y-110494285D02*
X230325771Y-110446666D01*
X230325771Y-110446666D02*
X230278152Y-110351428D01*
X230278152Y-110351428D02*
X230278152Y-110208571D01*
X230278152Y-110208571D02*
X230325771Y-110113333D01*
X230325771Y-110113333D02*
X230421009Y-110065714D01*
X230421009Y-110065714D02*
X230944819Y-110065714D01*
X230278152Y-109732380D02*
X230278152Y-109351428D01*
X229944819Y-109589523D02*
X230801961Y-109589523D01*
X230801961Y-109589523D02*
X230897200Y-109541904D01*
X230897200Y-109541904D02*
X230944819Y-109446666D01*
X230944819Y-109446666D02*
X230944819Y-109351428D01*
X230944819Y-109018094D02*
X230278152Y-109018094D01*
X230468628Y-109018094D02*
X230373390Y-108970475D01*
X230373390Y-108970475D02*
X230325771Y-108922856D01*
X230325771Y-108922856D02*
X230278152Y-108827618D01*
X230278152Y-108827618D02*
X230278152Y-108732380D01*
X230944819Y-107970475D02*
X230421009Y-107970475D01*
X230421009Y-107970475D02*
X230325771Y-108018094D01*
X230325771Y-108018094D02*
X230278152Y-108113332D01*
X230278152Y-108113332D02*
X230278152Y-108303808D01*
X230278152Y-108303808D02*
X230325771Y-108399046D01*
X230897200Y-107970475D02*
X230944819Y-108065713D01*
X230944819Y-108065713D02*
X230944819Y-108303808D01*
X230944819Y-108303808D02*
X230897200Y-108399046D01*
X230897200Y-108399046D02*
X230801961Y-108446665D01*
X230801961Y-108446665D02*
X230706723Y-108446665D01*
X230706723Y-108446665D02*
X230611485Y-108399046D01*
X230611485Y-108399046D02*
X230563866Y-108303808D01*
X230563866Y-108303808D02*
X230563866Y-108065713D01*
X230563866Y-108065713D02*
X230516247Y-107970475D01*
X230944819Y-107065713D02*
X229944819Y-107065713D01*
X230897200Y-107065713D02*
X230944819Y-107160951D01*
X230944819Y-107160951D02*
X230944819Y-107351427D01*
X230944819Y-107351427D02*
X230897200Y-107446665D01*
X230897200Y-107446665D02*
X230849580Y-107494284D01*
X230849580Y-107494284D02*
X230754342Y-107541903D01*
X230754342Y-107541903D02*
X230468628Y-107541903D01*
X230468628Y-107541903D02*
X230373390Y-107494284D01*
X230373390Y-107494284D02*
X230325771Y-107446665D01*
X230325771Y-107446665D02*
X230278152Y-107351427D01*
X230278152Y-107351427D02*
X230278152Y-107160951D01*
X230278152Y-107160951D02*
X230325771Y-107065713D01*
X230944819Y-106160951D02*
X230421009Y-106160951D01*
X230421009Y-106160951D02*
X230325771Y-106208570D01*
X230325771Y-106208570D02*
X230278152Y-106303808D01*
X230278152Y-106303808D02*
X230278152Y-106494284D01*
X230278152Y-106494284D02*
X230325771Y-106589522D01*
X230897200Y-106160951D02*
X230944819Y-106256189D01*
X230944819Y-106256189D02*
X230944819Y-106494284D01*
X230944819Y-106494284D02*
X230897200Y-106589522D01*
X230897200Y-106589522D02*
X230801961Y-106637141D01*
X230801961Y-106637141D02*
X230706723Y-106637141D01*
X230706723Y-106637141D02*
X230611485Y-106589522D01*
X230611485Y-106589522D02*
X230563866Y-106494284D01*
X230563866Y-106494284D02*
X230563866Y-106256189D01*
X230563866Y-106256189D02*
X230516247Y-106160951D01*
X195796666Y-141942200D02*
X195939523Y-141989819D01*
X195939523Y-141989819D02*
X196177618Y-141989819D01*
X196177618Y-141989819D02*
X196272856Y-141942200D01*
X196272856Y-141942200D02*
X196320475Y-141894580D01*
X196320475Y-141894580D02*
X196368094Y-141799342D01*
X196368094Y-141799342D02*
X196368094Y-141704104D01*
X196368094Y-141704104D02*
X196320475Y-141608866D01*
X196320475Y-141608866D02*
X196272856Y-141561247D01*
X196272856Y-141561247D02*
X196177618Y-141513628D01*
X196177618Y-141513628D02*
X195987142Y-141466009D01*
X195987142Y-141466009D02*
X195891904Y-141418390D01*
X195891904Y-141418390D02*
X195844285Y-141370771D01*
X195844285Y-141370771D02*
X195796666Y-141275533D01*
X195796666Y-141275533D02*
X195796666Y-141180295D01*
X195796666Y-141180295D02*
X195844285Y-141085057D01*
X195844285Y-141085057D02*
X195891904Y-141037438D01*
X195891904Y-141037438D02*
X195987142Y-140989819D01*
X195987142Y-140989819D02*
X196225237Y-140989819D01*
X196225237Y-140989819D02*
X196368094Y-141037438D01*
X197177618Y-141942200D02*
X197082380Y-141989819D01*
X197082380Y-141989819D02*
X196891904Y-141989819D01*
X196891904Y-141989819D02*
X196796666Y-141942200D01*
X196796666Y-141942200D02*
X196749047Y-141846961D01*
X196749047Y-141846961D02*
X196749047Y-141466009D01*
X196749047Y-141466009D02*
X196796666Y-141370771D01*
X196796666Y-141370771D02*
X196891904Y-141323152D01*
X196891904Y-141323152D02*
X197082380Y-141323152D01*
X197082380Y-141323152D02*
X197177618Y-141370771D01*
X197177618Y-141370771D02*
X197225237Y-141466009D01*
X197225237Y-141466009D02*
X197225237Y-141561247D01*
X197225237Y-141561247D02*
X196749047Y-141656485D01*
X197653809Y-141323152D02*
X197653809Y-141989819D01*
X197653809Y-141418390D02*
X197701428Y-141370771D01*
X197701428Y-141370771D02*
X197796666Y-141323152D01*
X197796666Y-141323152D02*
X197939523Y-141323152D01*
X197939523Y-141323152D02*
X198034761Y-141370771D01*
X198034761Y-141370771D02*
X198082380Y-141466009D01*
X198082380Y-141466009D02*
X198082380Y-141989819D01*
X198510952Y-141942200D02*
X198606190Y-141989819D01*
X198606190Y-141989819D02*
X198796666Y-141989819D01*
X198796666Y-141989819D02*
X198891904Y-141942200D01*
X198891904Y-141942200D02*
X198939523Y-141846961D01*
X198939523Y-141846961D02*
X198939523Y-141799342D01*
X198939523Y-141799342D02*
X198891904Y-141704104D01*
X198891904Y-141704104D02*
X198796666Y-141656485D01*
X198796666Y-141656485D02*
X198653809Y-141656485D01*
X198653809Y-141656485D02*
X198558571Y-141608866D01*
X198558571Y-141608866D02*
X198510952Y-141513628D01*
X198510952Y-141513628D02*
X198510952Y-141466009D01*
X198510952Y-141466009D02*
X198558571Y-141370771D01*
X198558571Y-141370771D02*
X198653809Y-141323152D01*
X198653809Y-141323152D02*
X198796666Y-141323152D01*
X198796666Y-141323152D02*
X198891904Y-141370771D01*
X199510952Y-141989819D02*
X199415714Y-141942200D01*
X199415714Y-141942200D02*
X199368095Y-141894580D01*
X199368095Y-141894580D02*
X199320476Y-141799342D01*
X199320476Y-141799342D02*
X199320476Y-141513628D01*
X199320476Y-141513628D02*
X199368095Y-141418390D01*
X199368095Y-141418390D02*
X199415714Y-141370771D01*
X199415714Y-141370771D02*
X199510952Y-141323152D01*
X199510952Y-141323152D02*
X199653809Y-141323152D01*
X199653809Y-141323152D02*
X199749047Y-141370771D01*
X199749047Y-141370771D02*
X199796666Y-141418390D01*
X199796666Y-141418390D02*
X199844285Y-141513628D01*
X199844285Y-141513628D02*
X199844285Y-141799342D01*
X199844285Y-141799342D02*
X199796666Y-141894580D01*
X199796666Y-141894580D02*
X199749047Y-141942200D01*
X199749047Y-141942200D02*
X199653809Y-141989819D01*
X199653809Y-141989819D02*
X199510952Y-141989819D01*
X200272857Y-141989819D02*
X200272857Y-141323152D01*
X200272857Y-141513628D02*
X200320476Y-141418390D01*
X200320476Y-141418390D02*
X200368095Y-141370771D01*
X200368095Y-141370771D02*
X200463333Y-141323152D01*
X200463333Y-141323152D02*
X200558571Y-141323152D01*
X213438333Y-92644819D02*
X213105000Y-92168628D01*
X212866905Y-92644819D02*
X212866905Y-91644819D01*
X212866905Y-91644819D02*
X213247857Y-91644819D01*
X213247857Y-91644819D02*
X213343095Y-91692438D01*
X213343095Y-91692438D02*
X213390714Y-91740057D01*
X213390714Y-91740057D02*
X213438333Y-91835295D01*
X213438333Y-91835295D02*
X213438333Y-91978152D01*
X213438333Y-91978152D02*
X213390714Y-92073390D01*
X213390714Y-92073390D02*
X213343095Y-92121009D01*
X213343095Y-92121009D02*
X213247857Y-92168628D01*
X213247857Y-92168628D02*
X212866905Y-92168628D01*
X214390714Y-92644819D02*
X213819286Y-92644819D01*
X214105000Y-92644819D02*
X214105000Y-91644819D01*
X214105000Y-91644819D02*
X214009762Y-91787676D01*
X214009762Y-91787676D02*
X213914524Y-91882914D01*
X213914524Y-91882914D02*
X213819286Y-91930533D01*
X212797142Y-88217200D02*
X212939999Y-88264819D01*
X212939999Y-88264819D02*
X213178094Y-88264819D01*
X213178094Y-88264819D02*
X213273332Y-88217200D01*
X213273332Y-88217200D02*
X213320951Y-88169580D01*
X213320951Y-88169580D02*
X213368570Y-88074342D01*
X213368570Y-88074342D02*
X213368570Y-87979104D01*
X213368570Y-87979104D02*
X213320951Y-87883866D01*
X213320951Y-87883866D02*
X213273332Y-87836247D01*
X213273332Y-87836247D02*
X213178094Y-87788628D01*
X213178094Y-87788628D02*
X212987618Y-87741009D01*
X212987618Y-87741009D02*
X212892380Y-87693390D01*
X212892380Y-87693390D02*
X212844761Y-87645771D01*
X212844761Y-87645771D02*
X212797142Y-87550533D01*
X212797142Y-87550533D02*
X212797142Y-87455295D01*
X212797142Y-87455295D02*
X212844761Y-87360057D01*
X212844761Y-87360057D02*
X212892380Y-87312438D01*
X212892380Y-87312438D02*
X212987618Y-87264819D01*
X212987618Y-87264819D02*
X213225713Y-87264819D01*
X213225713Y-87264819D02*
X213368570Y-87312438D01*
X214178094Y-88217200D02*
X214082856Y-88264819D01*
X214082856Y-88264819D02*
X213892380Y-88264819D01*
X213892380Y-88264819D02*
X213797142Y-88217200D01*
X213797142Y-88217200D02*
X213749523Y-88121961D01*
X213749523Y-88121961D02*
X213749523Y-87741009D01*
X213749523Y-87741009D02*
X213797142Y-87645771D01*
X213797142Y-87645771D02*
X213892380Y-87598152D01*
X213892380Y-87598152D02*
X214082856Y-87598152D01*
X214082856Y-87598152D02*
X214178094Y-87645771D01*
X214178094Y-87645771D02*
X214225713Y-87741009D01*
X214225713Y-87741009D02*
X214225713Y-87836247D01*
X214225713Y-87836247D02*
X213749523Y-87931485D01*
X214654285Y-87598152D02*
X214654285Y-88264819D01*
X214654285Y-87693390D02*
X214701904Y-87645771D01*
X214701904Y-87645771D02*
X214797142Y-87598152D01*
X214797142Y-87598152D02*
X214939999Y-87598152D01*
X214939999Y-87598152D02*
X215035237Y-87645771D01*
X215035237Y-87645771D02*
X215082856Y-87741009D01*
X215082856Y-87741009D02*
X215082856Y-88264819D01*
X215511428Y-88217200D02*
X215606666Y-88264819D01*
X215606666Y-88264819D02*
X215797142Y-88264819D01*
X215797142Y-88264819D02*
X215892380Y-88217200D01*
X215892380Y-88217200D02*
X215939999Y-88121961D01*
X215939999Y-88121961D02*
X215939999Y-88074342D01*
X215939999Y-88074342D02*
X215892380Y-87979104D01*
X215892380Y-87979104D02*
X215797142Y-87931485D01*
X215797142Y-87931485D02*
X215654285Y-87931485D01*
X215654285Y-87931485D02*
X215559047Y-87883866D01*
X215559047Y-87883866D02*
X215511428Y-87788628D01*
X215511428Y-87788628D02*
X215511428Y-87741009D01*
X215511428Y-87741009D02*
X215559047Y-87645771D01*
X215559047Y-87645771D02*
X215654285Y-87598152D01*
X215654285Y-87598152D02*
X215797142Y-87598152D01*
X215797142Y-87598152D02*
X215892380Y-87645771D01*
X216511428Y-88264819D02*
X216416190Y-88217200D01*
X216416190Y-88217200D02*
X216368571Y-88169580D01*
X216368571Y-88169580D02*
X216320952Y-88074342D01*
X216320952Y-88074342D02*
X216320952Y-87788628D01*
X216320952Y-87788628D02*
X216368571Y-87693390D01*
X216368571Y-87693390D02*
X216416190Y-87645771D01*
X216416190Y-87645771D02*
X216511428Y-87598152D01*
X216511428Y-87598152D02*
X216654285Y-87598152D01*
X216654285Y-87598152D02*
X216749523Y-87645771D01*
X216749523Y-87645771D02*
X216797142Y-87693390D01*
X216797142Y-87693390D02*
X216844761Y-87788628D01*
X216844761Y-87788628D02*
X216844761Y-88074342D01*
X216844761Y-88074342D02*
X216797142Y-88169580D01*
X216797142Y-88169580D02*
X216749523Y-88217200D01*
X216749523Y-88217200D02*
X216654285Y-88264819D01*
X216654285Y-88264819D02*
X216511428Y-88264819D01*
X217273333Y-88264819D02*
X217273333Y-87598152D01*
X217273333Y-87788628D02*
X217320952Y-87693390D01*
X217320952Y-87693390D02*
X217368571Y-87645771D01*
X217368571Y-87645771D02*
X217463809Y-87598152D01*
X217463809Y-87598152D02*
X217559047Y-87598152D01*
X217844762Y-87979104D02*
X218320952Y-87979104D01*
X217749524Y-88264819D02*
X218082857Y-87264819D01*
X218082857Y-87264819D02*
X218416190Y-88264819D01*
X218749524Y-88264819D02*
X218749524Y-87264819D01*
X218749524Y-87264819D02*
X219130476Y-87264819D01*
X219130476Y-87264819D02*
X219225714Y-87312438D01*
X219225714Y-87312438D02*
X219273333Y-87360057D01*
X219273333Y-87360057D02*
X219320952Y-87455295D01*
X219320952Y-87455295D02*
X219320952Y-87598152D01*
X219320952Y-87598152D02*
X219273333Y-87693390D01*
X219273333Y-87693390D02*
X219225714Y-87741009D01*
X219225714Y-87741009D02*
X219130476Y-87788628D01*
X219130476Y-87788628D02*
X218749524Y-87788628D01*
X219749524Y-88264819D02*
X219749524Y-87264819D01*
X219749524Y-87264819D02*
X219987619Y-87264819D01*
X219987619Y-87264819D02*
X220130476Y-87312438D01*
X220130476Y-87312438D02*
X220225714Y-87407676D01*
X220225714Y-87407676D02*
X220273333Y-87502914D01*
X220273333Y-87502914D02*
X220320952Y-87693390D01*
X220320952Y-87693390D02*
X220320952Y-87836247D01*
X220320952Y-87836247D02*
X220273333Y-88026723D01*
X220273333Y-88026723D02*
X220225714Y-88121961D01*
X220225714Y-88121961D02*
X220130476Y-88217200D01*
X220130476Y-88217200D02*
X219987619Y-88264819D01*
X219987619Y-88264819D02*
X219749524Y-88264819D01*
X220701905Y-88217200D02*
X220844762Y-88264819D01*
X220844762Y-88264819D02*
X221082857Y-88264819D01*
X221082857Y-88264819D02*
X221178095Y-88217200D01*
X221178095Y-88217200D02*
X221225714Y-88169580D01*
X221225714Y-88169580D02*
X221273333Y-88074342D01*
X221273333Y-88074342D02*
X221273333Y-87979104D01*
X221273333Y-87979104D02*
X221225714Y-87883866D01*
X221225714Y-87883866D02*
X221178095Y-87836247D01*
X221178095Y-87836247D02*
X221082857Y-87788628D01*
X221082857Y-87788628D02*
X220892381Y-87741009D01*
X220892381Y-87741009D02*
X220797143Y-87693390D01*
X220797143Y-87693390D02*
X220749524Y-87645771D01*
X220749524Y-87645771D02*
X220701905Y-87550533D01*
X220701905Y-87550533D02*
X220701905Y-87455295D01*
X220701905Y-87455295D02*
X220749524Y-87360057D01*
X220749524Y-87360057D02*
X220797143Y-87312438D01*
X220797143Y-87312438D02*
X220892381Y-87264819D01*
X220892381Y-87264819D02*
X221130476Y-87264819D01*
X221130476Y-87264819D02*
X221273333Y-87312438D01*
X221749524Y-88264819D02*
X221940000Y-88264819D01*
X221940000Y-88264819D02*
X222035238Y-88217200D01*
X222035238Y-88217200D02*
X222082857Y-88169580D01*
X222082857Y-88169580D02*
X222178095Y-88026723D01*
X222178095Y-88026723D02*
X222225714Y-87836247D01*
X222225714Y-87836247D02*
X222225714Y-87455295D01*
X222225714Y-87455295D02*
X222178095Y-87360057D01*
X222178095Y-87360057D02*
X222130476Y-87312438D01*
X222130476Y-87312438D02*
X222035238Y-87264819D01*
X222035238Y-87264819D02*
X221844762Y-87264819D01*
X221844762Y-87264819D02*
X221749524Y-87312438D01*
X221749524Y-87312438D02*
X221701905Y-87360057D01*
X221701905Y-87360057D02*
X221654286Y-87455295D01*
X221654286Y-87455295D02*
X221654286Y-87693390D01*
X221654286Y-87693390D02*
X221701905Y-87788628D01*
X221701905Y-87788628D02*
X221749524Y-87836247D01*
X221749524Y-87836247D02*
X221844762Y-87883866D01*
X221844762Y-87883866D02*
X222035238Y-87883866D01*
X222035238Y-87883866D02*
X222130476Y-87836247D01*
X222130476Y-87836247D02*
X222178095Y-87788628D01*
X222178095Y-87788628D02*
X222225714Y-87693390D01*
X222701905Y-88264819D02*
X222892381Y-88264819D01*
X222892381Y-88264819D02*
X222987619Y-88217200D01*
X222987619Y-88217200D02*
X223035238Y-88169580D01*
X223035238Y-88169580D02*
X223130476Y-88026723D01*
X223130476Y-88026723D02*
X223178095Y-87836247D01*
X223178095Y-87836247D02*
X223178095Y-87455295D01*
X223178095Y-87455295D02*
X223130476Y-87360057D01*
X223130476Y-87360057D02*
X223082857Y-87312438D01*
X223082857Y-87312438D02*
X222987619Y-87264819D01*
X222987619Y-87264819D02*
X222797143Y-87264819D01*
X222797143Y-87264819D02*
X222701905Y-87312438D01*
X222701905Y-87312438D02*
X222654286Y-87360057D01*
X222654286Y-87360057D02*
X222606667Y-87455295D01*
X222606667Y-87455295D02*
X222606667Y-87693390D01*
X222606667Y-87693390D02*
X222654286Y-87788628D01*
X222654286Y-87788628D02*
X222701905Y-87836247D01*
X222701905Y-87836247D02*
X222797143Y-87883866D01*
X222797143Y-87883866D02*
X222987619Y-87883866D01*
X222987619Y-87883866D02*
X223082857Y-87836247D01*
X223082857Y-87836247D02*
X223130476Y-87788628D01*
X223130476Y-87788628D02*
X223178095Y-87693390D01*
X224035238Y-87264819D02*
X223844762Y-87264819D01*
X223844762Y-87264819D02*
X223749524Y-87312438D01*
X223749524Y-87312438D02*
X223701905Y-87360057D01*
X223701905Y-87360057D02*
X223606667Y-87502914D01*
X223606667Y-87502914D02*
X223559048Y-87693390D01*
X223559048Y-87693390D02*
X223559048Y-88074342D01*
X223559048Y-88074342D02*
X223606667Y-88169580D01*
X223606667Y-88169580D02*
X223654286Y-88217200D01*
X223654286Y-88217200D02*
X223749524Y-88264819D01*
X223749524Y-88264819D02*
X223940000Y-88264819D01*
X223940000Y-88264819D02*
X224035238Y-88217200D01*
X224035238Y-88217200D02*
X224082857Y-88169580D01*
X224082857Y-88169580D02*
X224130476Y-88074342D01*
X224130476Y-88074342D02*
X224130476Y-87836247D01*
X224130476Y-87836247D02*
X224082857Y-87741009D01*
X224082857Y-87741009D02*
X224035238Y-87693390D01*
X224035238Y-87693390D02*
X223940000Y-87645771D01*
X223940000Y-87645771D02*
X223749524Y-87645771D01*
X223749524Y-87645771D02*
X223654286Y-87693390D01*
X223654286Y-87693390D02*
X223606667Y-87741009D01*
X223606667Y-87741009D02*
X223559048Y-87836247D01*
X224749524Y-87264819D02*
X224844762Y-87264819D01*
X224844762Y-87264819D02*
X224940000Y-87312438D01*
X224940000Y-87312438D02*
X224987619Y-87360057D01*
X224987619Y-87360057D02*
X225035238Y-87455295D01*
X225035238Y-87455295D02*
X225082857Y-87645771D01*
X225082857Y-87645771D02*
X225082857Y-87883866D01*
X225082857Y-87883866D02*
X225035238Y-88074342D01*
X225035238Y-88074342D02*
X224987619Y-88169580D01*
X224987619Y-88169580D02*
X224940000Y-88217200D01*
X224940000Y-88217200D02*
X224844762Y-88264819D01*
X224844762Y-88264819D02*
X224749524Y-88264819D01*
X224749524Y-88264819D02*
X224654286Y-88217200D01*
X224654286Y-88217200D02*
X224606667Y-88169580D01*
X224606667Y-88169580D02*
X224559048Y-88074342D01*
X224559048Y-88074342D02*
X224511429Y-87883866D01*
X224511429Y-87883866D02*
X224511429Y-87645771D01*
X224511429Y-87645771D02*
X224559048Y-87455295D01*
X224559048Y-87455295D02*
X224606667Y-87360057D01*
X224606667Y-87360057D02*
X224654286Y-87312438D01*
X224654286Y-87312438D02*
X224749524Y-87264819D01*
D14*
%TO.C,Rele*%
X177430000Y-95280000D02*
X178760000Y-95280000D01*
X177430000Y-96610000D02*
X177430000Y-95280000D01*
X177430000Y-97880000D02*
X177430000Y-103020000D01*
X177430000Y-97880000D02*
X180090000Y-97880000D01*
X177430000Y-103020000D02*
X180090000Y-103020000D01*
X180090000Y-97880000D02*
X180090000Y-103020000D01*
%TO.C,Q2*%
X216470000Y-147870000D02*
X220070000Y-147870000D01*
X218270000Y-143420000D02*
G75*
G03*
X216431522Y-147858478I0J-2600000D01*
G01*
X220108478Y-147858478D02*
G75*
G03*
X218270000Y-143420000I-1838478J1838478D01*
G01*
%TO.C,R4*%
X191700000Y-93770000D02*
X187860000Y-93770000D01*
X191700000Y-91930000D02*
X187860000Y-91930000D01*
%TO.C,U2*%
X209390000Y-104570000D02*
X215400000Y-104570000D01*
X211640000Y-111390000D02*
X215400000Y-111390000D01*
X215400000Y-104570000D02*
X215400000Y-105830000D01*
X215400000Y-111390000D02*
X215400000Y-110130000D01*
%TO.C,Reset*%
X177330000Y-117390000D02*
X177330000Y-117690000D01*
X177330000Y-117390000D02*
X184950000Y-117390000D01*
X177330000Y-119630000D02*
X177330000Y-122770000D01*
X177330000Y-124710000D02*
X177330000Y-125010000D01*
X184950000Y-117390000D02*
X184950000Y-117690000D01*
X184950000Y-119630000D02*
X184950000Y-122770000D01*
X184950000Y-124710000D02*
X184950000Y-125010000D01*
X184950000Y-125010000D02*
X177330000Y-125010000D01*
X183680000Y-121200000D02*
G75*
G03*
X183680000Y-121200000I-2540000J0D01*
G01*
%TO.C,R3*%
X200380000Y-98810000D02*
X204220000Y-98810000D01*
X200380000Y-100650000D02*
X204220000Y-100650000D01*
D15*
%TO.C,U1*%
X194630000Y-148920000D02*
X194630000Y-142590000D01*
X194630000Y-128920000D02*
X194630000Y-129050000D01*
X194630000Y-128920000D02*
X176630000Y-128920000D01*
X176630000Y-148920000D02*
X194630000Y-148920000D01*
X176630000Y-142590000D02*
X176630000Y-148920000D01*
X176630000Y-128920000D02*
X176630000Y-129050000D01*
D12*
X196230000Y-141820000D02*
G75*
G03*
X196230000Y-141820000I-100000J0D01*
G01*
D14*
%TO.C,Boot*%
X177360000Y-106260000D02*
X177360000Y-106560000D01*
X177360000Y-106260000D02*
X184980000Y-106260000D01*
X177360000Y-108500000D02*
X177360000Y-111640000D01*
X177360000Y-113580000D02*
X177360000Y-113880000D01*
X184980000Y-106260000D02*
X184980000Y-106560000D01*
X184980000Y-108500000D02*
X184980000Y-111640000D01*
X184980000Y-113580000D02*
X184980000Y-113880000D01*
X184980000Y-113880000D02*
X177360000Y-113880000D01*
X183710000Y-110070000D02*
G75*
G03*
X183710000Y-110070000I-2540000J0D01*
G01*
%TO.C,LedPrueba*%
X210620000Y-142795000D02*
X211950000Y-142795000D01*
X210620000Y-144125000D02*
X210620000Y-142795000D01*
X210620000Y-145395000D02*
X210620000Y-147995000D01*
X210620000Y-145395000D02*
X213280000Y-145395000D01*
X210620000Y-147995000D02*
X213280000Y-147995000D01*
X213280000Y-145395000D02*
X213280000Y-147995000D01*
%TO.C,C1*%
X215060199Y-115925000D02*
X215460199Y-115925000D01*
X215260199Y-115725000D02*
X215260199Y-116125000D01*
X217330000Y-115040000D02*
X217330000Y-116280000D01*
X217330000Y-117960000D02*
X217330000Y-119200000D01*
X217370000Y-115040000D02*
X217370000Y-116280000D01*
X217370000Y-117960000D02*
X217370000Y-119200000D01*
X217410000Y-115041000D02*
X217410000Y-116280000D01*
X217410000Y-117960000D02*
X217410000Y-119199000D01*
X217450000Y-115043000D02*
X217450000Y-116280000D01*
X217450000Y-117960000D02*
X217450000Y-119197000D01*
X217490000Y-115046000D02*
X217490000Y-116280000D01*
X217490000Y-117960000D02*
X217490000Y-119194000D01*
X217530000Y-115049000D02*
X217530000Y-116280000D01*
X217530000Y-117960000D02*
X217530000Y-119191000D01*
X217570000Y-115053000D02*
X217570000Y-116280000D01*
X217570000Y-117960000D02*
X217570000Y-119187000D01*
X217610000Y-115058000D02*
X217610000Y-116280000D01*
X217610000Y-117960000D02*
X217610000Y-119182000D01*
X217650000Y-115064000D02*
X217650000Y-116280000D01*
X217650000Y-117960000D02*
X217650000Y-119176000D01*
X217690000Y-115070000D02*
X217690000Y-116280000D01*
X217690000Y-117960000D02*
X217690000Y-119170000D01*
X217730000Y-115078000D02*
X217730000Y-116280000D01*
X217730000Y-117960000D02*
X217730000Y-119162000D01*
X217770000Y-115086000D02*
X217770000Y-116280000D01*
X217770000Y-117960000D02*
X217770000Y-119154000D01*
X217810000Y-115095000D02*
X217810000Y-116280000D01*
X217810000Y-117960000D02*
X217810000Y-119145000D01*
X217850000Y-115104000D02*
X217850000Y-116280000D01*
X217850000Y-117960000D02*
X217850000Y-119136000D01*
X217890000Y-115115000D02*
X217890000Y-116280000D01*
X217890000Y-117960000D02*
X217890000Y-119125000D01*
X217930000Y-115126000D02*
X217930000Y-116280000D01*
X217930000Y-117960000D02*
X217930000Y-119114000D01*
X217970000Y-115138000D02*
X217970000Y-116280000D01*
X217970000Y-117960000D02*
X217970000Y-119102000D01*
X218010000Y-115152000D02*
X218010000Y-116280000D01*
X218010000Y-117960000D02*
X218010000Y-119088000D01*
X218051000Y-115166000D02*
X218051000Y-116280000D01*
X218051000Y-117960000D02*
X218051000Y-119074000D01*
X218091000Y-115180000D02*
X218091000Y-116280000D01*
X218091000Y-117960000D02*
X218091000Y-119060000D01*
X218131000Y-115196000D02*
X218131000Y-116280000D01*
X218131000Y-117960000D02*
X218131000Y-119044000D01*
X218171000Y-115213000D02*
X218171000Y-116280000D01*
X218171000Y-117960000D02*
X218171000Y-119027000D01*
X218211000Y-115231000D02*
X218211000Y-116280000D01*
X218211000Y-117960000D02*
X218211000Y-119009000D01*
X218251000Y-115250000D02*
X218251000Y-116280000D01*
X218251000Y-117960000D02*
X218251000Y-118990000D01*
X218291000Y-115269000D02*
X218291000Y-116280000D01*
X218291000Y-117960000D02*
X218291000Y-118971000D01*
X218331000Y-115290000D02*
X218331000Y-116280000D01*
X218331000Y-117960000D02*
X218331000Y-118950000D01*
X218371000Y-115312000D02*
X218371000Y-116280000D01*
X218371000Y-117960000D02*
X218371000Y-118928000D01*
X218411000Y-115335000D02*
X218411000Y-116280000D01*
X218411000Y-117960000D02*
X218411000Y-118905000D01*
X218451000Y-115360000D02*
X218451000Y-116280000D01*
X218451000Y-117960000D02*
X218451000Y-118880000D01*
X218491000Y-115385000D02*
X218491000Y-116280000D01*
X218491000Y-117960000D02*
X218491000Y-118855000D01*
X218531000Y-115412000D02*
X218531000Y-116280000D01*
X218531000Y-117960000D02*
X218531000Y-118828000D01*
X218571000Y-115440000D02*
X218571000Y-116280000D01*
X218571000Y-117960000D02*
X218571000Y-118800000D01*
X218611000Y-115470000D02*
X218611000Y-116280000D01*
X218611000Y-117960000D02*
X218611000Y-118770000D01*
X218651000Y-115501000D02*
X218651000Y-116280000D01*
X218651000Y-117960000D02*
X218651000Y-118739000D01*
X218691000Y-115533000D02*
X218691000Y-116280000D01*
X218691000Y-117960000D02*
X218691000Y-118707000D01*
X218731000Y-115568000D02*
X218731000Y-116280000D01*
X218731000Y-117960000D02*
X218731000Y-118672000D01*
X218771000Y-115604000D02*
X218771000Y-116280000D01*
X218771000Y-117960000D02*
X218771000Y-118636000D01*
X218811000Y-115642000D02*
X218811000Y-116280000D01*
X218811000Y-117960000D02*
X218811000Y-118598000D01*
X218851000Y-115682000D02*
X218851000Y-116280000D01*
X218851000Y-117960000D02*
X218851000Y-118558000D01*
X218891000Y-115724000D02*
X218891000Y-116280000D01*
X218891000Y-117960000D02*
X218891000Y-118516000D01*
X218931000Y-115769000D02*
X218931000Y-118471000D01*
X218971000Y-115816000D02*
X218971000Y-118424000D01*
X219011000Y-115866000D02*
X219011000Y-118374000D01*
X219051000Y-115920000D02*
X219051000Y-118320000D01*
X219091000Y-115978000D02*
X219091000Y-118262000D01*
X219131000Y-116040000D02*
X219131000Y-118200000D01*
X219171000Y-116107000D02*
X219171000Y-118133000D01*
X219211000Y-116180000D02*
X219211000Y-118060000D01*
X219251000Y-116261000D02*
X219251000Y-117979000D01*
X219291000Y-116352000D02*
X219291000Y-117888000D01*
X219331000Y-116456000D02*
X219331000Y-117784000D01*
X219371000Y-116583000D02*
X219371000Y-117657000D01*
X219411000Y-116750000D02*
X219411000Y-117490000D01*
X219450000Y-117120000D02*
G75*
G03*
X219450000Y-117120000I-2120000J0D01*
G01*
%TO.C,Alimentacion220V*%
X231770000Y-102420000D02*
X239390000Y-102420000D01*
X239390000Y-102420000D02*
X239390000Y-92260000D01*
X231770000Y-92260000D02*
X231770000Y-102420000D01*
X238120000Y-92260000D02*
X238120000Y-102420000D01*
X239390000Y-92260000D02*
X231770000Y-92260000D01*
%TO.C,R2*%
X200560000Y-94150000D02*
X204400000Y-94150000D01*
X200560000Y-95990000D02*
X204400000Y-95990000D01*
%TO.C,Q1*%
X226200000Y-147890000D02*
X229800000Y-147890000D01*
X228000000Y-143440000D02*
G75*
G03*
X226161522Y-147878478I0J-2600000D01*
G01*
X229838478Y-147878478D02*
G75*
G03*
X228000000Y-143440000I-1838478J1838478D01*
G01*
%TO.C,C2*%
X208780199Y-116995000D02*
X209180199Y-116995000D01*
X208980199Y-116795000D02*
X208980199Y-117195000D01*
X211050000Y-116110000D02*
X211050000Y-117350000D01*
X211050000Y-119030000D02*
X211050000Y-120270000D01*
X211090000Y-116110000D02*
X211090000Y-117350000D01*
X211090000Y-119030000D02*
X211090000Y-120270000D01*
X211130000Y-116111000D02*
X211130000Y-117350000D01*
X211130000Y-119030000D02*
X211130000Y-120269000D01*
X211170000Y-116113000D02*
X211170000Y-117350000D01*
X211170000Y-119030000D02*
X211170000Y-120267000D01*
X211210000Y-116116000D02*
X211210000Y-117350000D01*
X211210000Y-119030000D02*
X211210000Y-120264000D01*
X211250000Y-116119000D02*
X211250000Y-117350000D01*
X211250000Y-119030000D02*
X211250000Y-120261000D01*
X211290000Y-116123000D02*
X211290000Y-117350000D01*
X211290000Y-119030000D02*
X211290000Y-120257000D01*
X211330000Y-116128000D02*
X211330000Y-117350000D01*
X211330000Y-119030000D02*
X211330000Y-120252000D01*
X211370000Y-116134000D02*
X211370000Y-117350000D01*
X211370000Y-119030000D02*
X211370000Y-120246000D01*
X211410000Y-116140000D02*
X211410000Y-117350000D01*
X211410000Y-119030000D02*
X211410000Y-120240000D01*
X211450000Y-116148000D02*
X211450000Y-117350000D01*
X211450000Y-119030000D02*
X211450000Y-120232000D01*
X211490000Y-116156000D02*
X211490000Y-117350000D01*
X211490000Y-119030000D02*
X211490000Y-120224000D01*
X211530000Y-116165000D02*
X211530000Y-117350000D01*
X211530000Y-119030000D02*
X211530000Y-120215000D01*
X211570000Y-116174000D02*
X211570000Y-117350000D01*
X211570000Y-119030000D02*
X211570000Y-120206000D01*
X211610000Y-116185000D02*
X211610000Y-117350000D01*
X211610000Y-119030000D02*
X211610000Y-120195000D01*
X211650000Y-116196000D02*
X211650000Y-117350000D01*
X211650000Y-119030000D02*
X211650000Y-120184000D01*
X211690000Y-116208000D02*
X211690000Y-117350000D01*
X211690000Y-119030000D02*
X211690000Y-120172000D01*
X211730000Y-116222000D02*
X211730000Y-117350000D01*
X211730000Y-119030000D02*
X211730000Y-120158000D01*
X211771000Y-116236000D02*
X211771000Y-117350000D01*
X211771000Y-119030000D02*
X211771000Y-120144000D01*
X211811000Y-116250000D02*
X211811000Y-117350000D01*
X211811000Y-119030000D02*
X211811000Y-120130000D01*
X211851000Y-116266000D02*
X211851000Y-117350000D01*
X211851000Y-119030000D02*
X211851000Y-120114000D01*
X211891000Y-116283000D02*
X211891000Y-117350000D01*
X211891000Y-119030000D02*
X211891000Y-120097000D01*
X211931000Y-116301000D02*
X211931000Y-117350000D01*
X211931000Y-119030000D02*
X211931000Y-120079000D01*
X211971000Y-116320000D02*
X211971000Y-117350000D01*
X211971000Y-119030000D02*
X211971000Y-120060000D01*
X212011000Y-116339000D02*
X212011000Y-117350000D01*
X212011000Y-119030000D02*
X212011000Y-120041000D01*
X212051000Y-116360000D02*
X212051000Y-117350000D01*
X212051000Y-119030000D02*
X212051000Y-120020000D01*
X212091000Y-116382000D02*
X212091000Y-117350000D01*
X212091000Y-119030000D02*
X212091000Y-119998000D01*
X212131000Y-116405000D02*
X212131000Y-117350000D01*
X212131000Y-119030000D02*
X212131000Y-119975000D01*
X212171000Y-116430000D02*
X212171000Y-117350000D01*
X212171000Y-119030000D02*
X212171000Y-119950000D01*
X212211000Y-116455000D02*
X212211000Y-117350000D01*
X212211000Y-119030000D02*
X212211000Y-119925000D01*
X212251000Y-116482000D02*
X212251000Y-117350000D01*
X212251000Y-119030000D02*
X212251000Y-119898000D01*
X212291000Y-116510000D02*
X212291000Y-117350000D01*
X212291000Y-119030000D02*
X212291000Y-119870000D01*
X212331000Y-116540000D02*
X212331000Y-117350000D01*
X212331000Y-119030000D02*
X212331000Y-119840000D01*
X212371000Y-116571000D02*
X212371000Y-117350000D01*
X212371000Y-119030000D02*
X212371000Y-119809000D01*
X212411000Y-116603000D02*
X212411000Y-117350000D01*
X212411000Y-119030000D02*
X212411000Y-119777000D01*
X212451000Y-116638000D02*
X212451000Y-117350000D01*
X212451000Y-119030000D02*
X212451000Y-119742000D01*
X212491000Y-116674000D02*
X212491000Y-117350000D01*
X212491000Y-119030000D02*
X212491000Y-119706000D01*
X212531000Y-116712000D02*
X212531000Y-117350000D01*
X212531000Y-119030000D02*
X212531000Y-119668000D01*
X212571000Y-116752000D02*
X212571000Y-117350000D01*
X212571000Y-119030000D02*
X212571000Y-119628000D01*
X212611000Y-116794000D02*
X212611000Y-117350000D01*
X212611000Y-119030000D02*
X212611000Y-119586000D01*
X212651000Y-116839000D02*
X212651000Y-119541000D01*
X212691000Y-116886000D02*
X212691000Y-119494000D01*
X212731000Y-116936000D02*
X212731000Y-119444000D01*
X212771000Y-116990000D02*
X212771000Y-119390000D01*
X212811000Y-117048000D02*
X212811000Y-119332000D01*
X212851000Y-117110000D02*
X212851000Y-119270000D01*
X212891000Y-117177000D02*
X212891000Y-119203000D01*
X212931000Y-117250000D02*
X212931000Y-119130000D01*
X212971000Y-117331000D02*
X212971000Y-119049000D01*
X213011000Y-117422000D02*
X213011000Y-118958000D01*
X213051000Y-117526000D02*
X213051000Y-118854000D01*
X213091000Y-117653000D02*
X213091000Y-118727000D01*
X213131000Y-117820000D02*
X213131000Y-118560000D01*
X213170000Y-118190000D02*
G75*
G03*
X213170000Y-118190000I-2120000J0D01*
G01*
%TO.C,Uart*%
X211170000Y-127860000D02*
X212500000Y-127860000D01*
X211170000Y-129190000D02*
X211170000Y-127860000D01*
X211170000Y-130460000D02*
X211170000Y-138140000D01*
X211170000Y-130460000D02*
X213830000Y-130460000D01*
X211170000Y-138140000D02*
X213830000Y-138140000D01*
X213830000Y-130460000D02*
X213830000Y-138140000D01*
%TO.C,Entrada*%
X239550000Y-103590000D02*
X231930000Y-103590000D01*
X231930000Y-103590000D02*
X231930000Y-113750000D01*
X239550000Y-113750000D02*
X239550000Y-103590000D01*
X233200000Y-113750000D02*
X233200000Y-103590000D01*
X231930000Y-113750000D02*
X239550000Y-113750000D01*
%TO.C,Sensor*%
X196800000Y-142535000D02*
X198130000Y-142535000D01*
X196800000Y-143865000D02*
X196800000Y-142535000D01*
X196800000Y-145135000D02*
X196800000Y-147735000D01*
X196800000Y-145135000D02*
X199460000Y-145135000D01*
X196800000Y-147735000D02*
X199460000Y-147735000D01*
X199460000Y-145135000D02*
X199460000Y-147735000D01*
%TO.C,G\u002A\u002A\u002A*%
G36*
X194420613Y-113728556D02*
G01*
X194415813Y-113733356D01*
X194411013Y-113728556D01*
X194415813Y-113723756D01*
X194420613Y-113728556D01*
G37*
G36*
X206227869Y-113142993D02*
G01*
X206223069Y-113147792D01*
X206218269Y-113142993D01*
X206223069Y-113138193D01*
X206227869Y-113142993D01*
G37*
G36*
X194406532Y-113755790D02*
G01*
X194401706Y-113780431D01*
X194393676Y-113815497D01*
X194386514Y-113844431D01*
X194362164Y-113950926D01*
X194339542Y-114071079D01*
X194319576Y-114199367D01*
X194303193Y-114330266D01*
X194300302Y-114357506D01*
X194294509Y-114431611D01*
X194290510Y-114520575D01*
X194288259Y-114620169D01*
X194287711Y-114726165D01*
X194288822Y-114834333D01*
X194291548Y-114940446D01*
X194295842Y-115040274D01*
X194301661Y-115129588D01*
X194308960Y-115204161D01*
X194309292Y-115206863D01*
X194355290Y-115499964D01*
X194419819Y-115791244D01*
X194502228Y-116079664D01*
X194601866Y-116364183D01*
X194718081Y-116643764D01*
X194850223Y-116917366D01*
X194997638Y-117183949D01*
X195159677Y-117442476D01*
X195335688Y-117691906D01*
X195525019Y-117931199D01*
X195727019Y-118159317D01*
X195941036Y-118375221D01*
X196166420Y-118577870D01*
X196402518Y-118766226D01*
X196648299Y-118938998D01*
X196887733Y-119086721D01*
X197128462Y-119215646D01*
X197371526Y-119326172D01*
X197617962Y-119418699D01*
X197868809Y-119493624D01*
X198125105Y-119551348D01*
X198327566Y-119584427D01*
X198413276Y-119593843D01*
X198511375Y-119600614D01*
X198617839Y-119604766D01*
X198728646Y-119606329D01*
X198839771Y-119605329D01*
X198947194Y-119601794D01*
X199046889Y-119595752D01*
X199134835Y-119587229D01*
X199194909Y-119578490D01*
X199225494Y-119573861D01*
X199247563Y-119571951D01*
X199255298Y-119572778D01*
X199248962Y-119576687D01*
X199226560Y-119582710D01*
X199191046Y-119590336D01*
X199145373Y-119599049D01*
X199092495Y-119608339D01*
X199035363Y-119617690D01*
X198976931Y-119626590D01*
X198920153Y-119634526D01*
X198867980Y-119640984D01*
X198853987Y-119642522D01*
X198768591Y-119649354D01*
X198670330Y-119653466D01*
X198563901Y-119654949D01*
X198454003Y-119653888D01*
X198345334Y-119650373D01*
X198242591Y-119644490D01*
X198150472Y-119636328D01*
X198087582Y-119628215D01*
X198039179Y-119620893D01*
X197997157Y-119614774D01*
X197965389Y-119610403D01*
X197947744Y-119608326D01*
X197945991Y-119608230D01*
X197944448Y-119611642D01*
X197943035Y-119622363D01*
X197941746Y-119641099D01*
X197940577Y-119668557D01*
X197939522Y-119705445D01*
X197938577Y-119752471D01*
X197937737Y-119810340D01*
X197936997Y-119879761D01*
X197936352Y-119961441D01*
X197935796Y-120056086D01*
X197935325Y-120164404D01*
X197934935Y-120287103D01*
X197934619Y-120424889D01*
X197934373Y-120578469D01*
X197934193Y-120748552D01*
X197934072Y-120935843D01*
X197934007Y-121141051D01*
X197933991Y-121321678D01*
X197933991Y-123035170D01*
X197871621Y-123035170D01*
X197809251Y-123035170D01*
X197806825Y-121306469D01*
X197804399Y-119577768D01*
X197694006Y-119549518D01*
X197458416Y-119479887D01*
X197222363Y-119391613D01*
X196986858Y-119285198D01*
X196752908Y-119161140D01*
X196521523Y-119019940D01*
X196293713Y-118862098D01*
X196266747Y-118842124D01*
X196110841Y-118719191D01*
X195951999Y-118581358D01*
X195793454Y-118431905D01*
X195638439Y-118274114D01*
X195490184Y-118111264D01*
X195351924Y-117946638D01*
X195236022Y-117796014D01*
X195208349Y-117759056D01*
X195184400Y-117728482D01*
X195166580Y-117707262D01*
X195157293Y-117698367D01*
X195156916Y-117698269D01*
X195145619Y-117702835D01*
X195119284Y-117716263D01*
X195079426Y-117737687D01*
X195027556Y-117766238D01*
X194965188Y-117801049D01*
X194893833Y-117841251D01*
X194815006Y-117885977D01*
X194730219Y-117934359D01*
X194640984Y-117985529D01*
X194548815Y-118038619D01*
X194455225Y-118092760D01*
X194361725Y-118147087D01*
X194269830Y-118200729D01*
X194181051Y-118252820D01*
X194096903Y-118302492D01*
X194018897Y-118348876D01*
X193948546Y-118391105D01*
X193935843Y-118398785D01*
X193745557Y-118515251D01*
X193555529Y-118634021D01*
X193368546Y-118753281D01*
X193187394Y-118871215D01*
X193014860Y-118986006D01*
X192853732Y-119095842D01*
X192706796Y-119198904D01*
X192699608Y-119204036D01*
X192509706Y-119339726D01*
X192317557Y-119329762D01*
X192068750Y-119324534D01*
X191808350Y-119333944D01*
X191537032Y-119357858D01*
X191255471Y-119396146D01*
X190964341Y-119448676D01*
X190664317Y-119515316D01*
X190356074Y-119595936D01*
X190040286Y-119690403D01*
X189717629Y-119798586D01*
X189493482Y-119880355D01*
X189437822Y-119901038D01*
X189389112Y-119918606D01*
X189349873Y-119932194D01*
X189322626Y-119940938D01*
X189309891Y-119943972D01*
X189309334Y-119943517D01*
X189318957Y-119935487D01*
X189342838Y-119918277D01*
X189379106Y-119893124D01*
X189425893Y-119861266D01*
X189481329Y-119823940D01*
X189543545Y-119782383D01*
X189610672Y-119737832D01*
X189680840Y-119691526D01*
X189752180Y-119644701D01*
X189822822Y-119598594D01*
X189890898Y-119554443D01*
X189954537Y-119513486D01*
X190011871Y-119476959D01*
X190057687Y-119448179D01*
X190407600Y-119234924D01*
X190775984Y-119019143D01*
X191162319Y-118801103D01*
X191566081Y-118581073D01*
X191986750Y-118359324D01*
X192423802Y-118136124D01*
X192876717Y-117911742D01*
X193344972Y-117686448D01*
X193828045Y-117460511D01*
X194325414Y-117234199D01*
X194516607Y-117148802D01*
X194577209Y-117121812D01*
X194632570Y-117097048D01*
X194680079Y-117075687D01*
X194717125Y-117058904D01*
X194741097Y-117047877D01*
X194748775Y-117044174D01*
X194753912Y-117039283D01*
X194754992Y-117030291D01*
X194751142Y-117014708D01*
X194741488Y-116990043D01*
X194725154Y-116953807D01*
X194701267Y-116903508D01*
X194694353Y-116889149D01*
X194660819Y-116817158D01*
X194624889Y-116735743D01*
X194588425Y-116649477D01*
X194553291Y-116562933D01*
X194521348Y-116480681D01*
X194494460Y-116407296D01*
X194477315Y-116356390D01*
X194455231Y-116286795D01*
X192762827Y-116286795D01*
X191070424Y-116286795D01*
X191070424Y-116229198D01*
X191070424Y-116171602D01*
X192744585Y-116171602D01*
X194418746Y-116171602D01*
X194401125Y-116111606D01*
X194389766Y-116072170D01*
X194378889Y-116033169D01*
X194372890Y-116010812D01*
X194362276Y-115970015D01*
X192716350Y-115970015D01*
X191070424Y-115970015D01*
X191070424Y-115912418D01*
X191070424Y-115854822D01*
X192703440Y-115854822D01*
X194336457Y-115854822D01*
X194330546Y-115833223D01*
X194324328Y-115806413D01*
X194316005Y-115764751D01*
X194306294Y-115712376D01*
X194295909Y-115653427D01*
X194285568Y-115592042D01*
X194275986Y-115532360D01*
X194267878Y-115478519D01*
X194262885Y-115442048D01*
X194239718Y-115205138D01*
X194229914Y-114964878D01*
X194233389Y-114725429D01*
X194250062Y-114490956D01*
X194279848Y-114265620D01*
X194287209Y-114222925D01*
X194296999Y-114171829D01*
X194309070Y-114114283D01*
X194322740Y-114052988D01*
X194337331Y-113990643D01*
X194352163Y-113929950D01*
X194366558Y-113873608D01*
X194379834Y-113824320D01*
X194391313Y-113784784D01*
X194400315Y-113757702D01*
X194406161Y-113745774D01*
X194407299Y-113745641D01*
X194406532Y-113755790D01*
G37*
G36*
X197933992Y-110937532D02*
G01*
X197933993Y-112490234D01*
X198099582Y-112556019D01*
X198342108Y-112661335D01*
X198584968Y-112784436D01*
X198826046Y-112924068D01*
X199063224Y-113078976D01*
X199294383Y-113247903D01*
X199378700Y-113314301D01*
X199630972Y-113528343D01*
X199868593Y-113753160D01*
X200090884Y-113988017D01*
X200297164Y-114232176D01*
X200486753Y-114484901D01*
X200565021Y-114599092D01*
X200596082Y-114645722D01*
X200623219Y-114686455D01*
X200644743Y-114718754D01*
X200658965Y-114740085D01*
X200664188Y-114747904D01*
X200673239Y-114745331D01*
X200698554Y-114737228D01*
X200738214Y-114724232D01*
X200790302Y-114706980D01*
X200852899Y-114686106D01*
X200924088Y-114662249D01*
X201001950Y-114636043D01*
X201034808Y-114624953D01*
X201454220Y-114484827D01*
X201875060Y-114347253D01*
X202294901Y-114212974D01*
X202711317Y-114082734D01*
X203121879Y-113957279D01*
X203524160Y-113837351D01*
X203915733Y-113723695D01*
X204294170Y-113617056D01*
X204557574Y-113544923D01*
X204661703Y-113517066D01*
X204772237Y-113488025D01*
X204887694Y-113458155D01*
X205006594Y-113427810D01*
X205127454Y-113397344D01*
X205248793Y-113367113D01*
X205369129Y-113337470D01*
X205486980Y-113308771D01*
X205600866Y-113281369D01*
X205709303Y-113255619D01*
X205810811Y-113231877D01*
X205903908Y-113210495D01*
X205987112Y-113191829D01*
X206058941Y-113176234D01*
X206117915Y-113164063D01*
X206162550Y-113155672D01*
X206191367Y-113151415D01*
X206202415Y-113151349D01*
X206205116Y-113155508D01*
X206198721Y-113156634D01*
X206182727Y-113159528D01*
X206150247Y-113167124D01*
X206103263Y-113178888D01*
X206043761Y-113194286D01*
X205973724Y-113212781D01*
X205895135Y-113233840D01*
X205809980Y-113256929D01*
X205720241Y-113281511D01*
X205627902Y-113307052D01*
X205534948Y-113333019D01*
X205443362Y-113358875D01*
X205359124Y-113382938D01*
X204899264Y-113519112D01*
X204425035Y-113667337D01*
X203936888Y-113827460D01*
X203435271Y-113999324D01*
X202920635Y-114182776D01*
X202393430Y-114377661D01*
X201854107Y-114583825D01*
X201783349Y-114611360D01*
X201693857Y-114646378D01*
X201600705Y-114683050D01*
X201505609Y-114720685D01*
X201410283Y-114758590D01*
X201316442Y-114796073D01*
X201225800Y-114832442D01*
X201140073Y-114867004D01*
X201060975Y-114899067D01*
X200990221Y-114927938D01*
X200929525Y-114952927D01*
X200880603Y-114973339D01*
X200845168Y-114988483D01*
X200824936Y-114997667D01*
X200820906Y-114999930D01*
X200822890Y-115010020D01*
X200832530Y-115034615D01*
X200848679Y-115071158D01*
X200870191Y-115117092D01*
X200895920Y-115169859D01*
X200907507Y-115193047D01*
X200968014Y-115316920D01*
X201026904Y-115444408D01*
X201081829Y-115570176D01*
X201130438Y-115688890D01*
X201159849Y-115766028D01*
X201192456Y-115854822D01*
X203690964Y-115854822D01*
X206189471Y-115854822D01*
X206189471Y-115912418D01*
X206189471Y-115970015D01*
X203712827Y-115970015D01*
X203496133Y-115970042D01*
X203284505Y-115970123D01*
X203078745Y-115970255D01*
X202879653Y-115970436D01*
X202688028Y-115970664D01*
X202504671Y-115970936D01*
X202330382Y-115971249D01*
X202165960Y-115971602D01*
X202012206Y-115971992D01*
X201869920Y-115972418D01*
X201739902Y-115972875D01*
X201622952Y-115973363D01*
X201519870Y-115973879D01*
X201431457Y-115974420D01*
X201358511Y-115974985D01*
X201301834Y-115975571D01*
X201262224Y-115976175D01*
X201240484Y-115976795D01*
X201236312Y-115977214D01*
X201238974Y-115988947D01*
X201246037Y-116014720D01*
X201256292Y-116050213D01*
X201263844Y-116075608D01*
X201291248Y-116166802D01*
X203740359Y-116169221D01*
X206189471Y-116171639D01*
X206189471Y-116229217D01*
X206189471Y-116286795D01*
X203754998Y-116286795D01*
X203497200Y-116286804D01*
X203257932Y-116286836D01*
X203036523Y-116286892D01*
X202832303Y-116286979D01*
X202644602Y-116287099D01*
X202472750Y-116287256D01*
X202316078Y-116287454D01*
X202173915Y-116287697D01*
X202045591Y-116287990D01*
X201930437Y-116288335D01*
X201827783Y-116288737D01*
X201736959Y-116289200D01*
X201657294Y-116289727D01*
X201588119Y-116290323D01*
X201528764Y-116290991D01*
X201478560Y-116291735D01*
X201436836Y-116292560D01*
X201402921Y-116293469D01*
X201376148Y-116294465D01*
X201355845Y-116295554D01*
X201341342Y-116296738D01*
X201331970Y-116298022D01*
X201327059Y-116299409D01*
X201325938Y-116300904D01*
X201325946Y-116300926D01*
X201329703Y-116314950D01*
X201336416Y-116344108D01*
X201345272Y-116384709D01*
X201355457Y-116433060D01*
X201360369Y-116456916D01*
X201401624Y-116695455D01*
X201426959Y-116928497D01*
X201436579Y-117155410D01*
X201430688Y-117375563D01*
X201409490Y-117588322D01*
X201373189Y-117793054D01*
X201321990Y-117989128D01*
X201256096Y-118175912D01*
X201175712Y-118352772D01*
X201081041Y-118519076D01*
X200972288Y-118674191D01*
X200849658Y-118817486D01*
X200713353Y-118948328D01*
X200563579Y-119066084D01*
X200505374Y-119105827D01*
X200423071Y-119155685D01*
X200328187Y-119206162D01*
X200226998Y-119254264D01*
X200125781Y-119296996D01*
X200036259Y-119329581D01*
X199941617Y-119357650D01*
X199835126Y-119383881D01*
X199724132Y-119406739D01*
X199615982Y-119424686D01*
X199533023Y-119434813D01*
X199453109Y-119440368D01*
X199360443Y-119443194D01*
X199261268Y-119443348D01*
X199161826Y-119440889D01*
X199068362Y-119435874D01*
X199000380Y-119429876D01*
X198773552Y-119395933D01*
X198544527Y-119343630D01*
X198314212Y-119273555D01*
X198083515Y-119186295D01*
X197853344Y-119082435D01*
X197624604Y-118962563D01*
X197398205Y-118827266D01*
X197175052Y-118677129D01*
X196956053Y-118512741D01*
X196742117Y-118334688D01*
X196534149Y-118143557D01*
X196333058Y-117939934D01*
X196139750Y-117724406D01*
X195955133Y-117497560D01*
X195899276Y-117424323D01*
X195849627Y-117356390D01*
X195794763Y-117278224D01*
X195737259Y-117193739D01*
X195679690Y-117106847D01*
X195624631Y-117021462D01*
X195600683Y-116983144D01*
X196505438Y-116983144D01*
X196593373Y-117094275D01*
X196765767Y-117300096D01*
X196951802Y-117499732D01*
X197147682Y-117689399D01*
X197349612Y-117865315D01*
X197438866Y-117936970D01*
X197468094Y-117959237D01*
X197506133Y-117987361D01*
X197550308Y-118019451D01*
X197597939Y-118053620D01*
X197646351Y-118087977D01*
X197692867Y-118120634D01*
X197734809Y-118149702D01*
X197769501Y-118173292D01*
X197794265Y-118189515D01*
X197806425Y-118196483D01*
X197806799Y-118196589D01*
X197807140Y-118187278D01*
X197807466Y-118160074D01*
X197807775Y-118116286D01*
X197808062Y-118057220D01*
X197808325Y-117984182D01*
X197808559Y-117898480D01*
X197808763Y-117801421D01*
X197808931Y-117694311D01*
X197809062Y-117578458D01*
X197809151Y-117455168D01*
X197809195Y-117325749D01*
X197809199Y-117270086D01*
X197809199Y-116343097D01*
X197787963Y-116349837D01*
X197774680Y-116355541D01*
X197745984Y-116368905D01*
X197703657Y-116389055D01*
X197649483Y-116415117D01*
X197585245Y-116446215D01*
X197512727Y-116481474D01*
X197433711Y-116520020D01*
X197349981Y-116560977D01*
X197263321Y-116603471D01*
X197175512Y-116646626D01*
X197088340Y-116689569D01*
X197003586Y-116731423D01*
X196923034Y-116771314D01*
X196848468Y-116808367D01*
X196781671Y-116841708D01*
X196724425Y-116870460D01*
X196678514Y-116893750D01*
X196660550Y-116902979D01*
X196505438Y-116983144D01*
X195600683Y-116983144D01*
X195574655Y-116941497D01*
X195532339Y-116870865D01*
X195514012Y-116838760D01*
X195388291Y-116597004D01*
X195275628Y-116346503D01*
X195254946Y-116292804D01*
X196081308Y-116292804D01*
X196085583Y-116303415D01*
X196097004Y-116326631D01*
X196113464Y-116358233D01*
X196121288Y-116372835D01*
X196161269Y-116446856D01*
X196310876Y-116385211D01*
X196364314Y-116363188D01*
X196414892Y-116342337D01*
X196458492Y-116324356D01*
X196490994Y-116310945D01*
X196503681Y-116305704D01*
X196546879Y-116287842D01*
X196314093Y-116287318D01*
X196249532Y-116287410D01*
X196191847Y-116287945D01*
X196143648Y-116288862D01*
X196107544Y-116290100D01*
X196086145Y-116291597D01*
X196081308Y-116292804D01*
X195254946Y-116292804D01*
X195252632Y-116286795D01*
X197933991Y-116286795D01*
X197933991Y-117278807D01*
X197933991Y-118270819D01*
X198041984Y-118329040D01*
X198249709Y-118432012D01*
X198458880Y-118517310D01*
X198672322Y-118585825D01*
X198892855Y-118638443D01*
X199123304Y-118676055D01*
X199157914Y-118680340D01*
X199191705Y-118682829D01*
X199239938Y-118684375D01*
X199297884Y-118685018D01*
X199360810Y-118684798D01*
X199423987Y-118683755D01*
X199482683Y-118681931D01*
X199532168Y-118679365D01*
X199561089Y-118676901D01*
X199752495Y-118647177D01*
X199933214Y-118601770D01*
X200102968Y-118540870D01*
X200261482Y-118464666D01*
X200408478Y-118373348D01*
X200543680Y-118267107D01*
X200666811Y-118146132D01*
X200777593Y-118010614D01*
X200875751Y-117860743D01*
X200947881Y-117724659D01*
X201019756Y-117552997D01*
X201076000Y-117371110D01*
X201116470Y-117180113D01*
X201141028Y-116981123D01*
X201149532Y-116775254D01*
X201141841Y-116563625D01*
X201119828Y-116361190D01*
X201109182Y-116286795D01*
X200707112Y-116286795D01*
X200621352Y-116286897D01*
X200541844Y-116287188D01*
X200470573Y-116287646D01*
X200409527Y-116288250D01*
X200360690Y-116288978D01*
X200326048Y-116289807D01*
X200307587Y-116290717D01*
X200305042Y-116291214D01*
X200307679Y-116301406D01*
X200314988Y-116326889D01*
X200326064Y-116364583D01*
X200340005Y-116411408D01*
X200352594Y-116453310D01*
X200402615Y-116626914D01*
X200444469Y-116789781D01*
X200479552Y-116947822D01*
X200509259Y-117106948D01*
X200514959Y-117141141D01*
X200531931Y-117254711D01*
X200546310Y-117370596D01*
X200557848Y-117485426D01*
X200566298Y-117595832D01*
X200571412Y-117698443D01*
X200572944Y-117789891D01*
X200570645Y-117866805D01*
X200569440Y-117883402D01*
X200562463Y-117967158D01*
X200488526Y-118041794D01*
X200392800Y-118126552D01*
X200282103Y-118202423D01*
X200155488Y-118269978D01*
X200012011Y-118329788D01*
X200011989Y-118329796D01*
X199966799Y-118345612D01*
X199919063Y-118360904D01*
X199872466Y-118374665D01*
X199830694Y-118385883D01*
X199797433Y-118393547D01*
X199776369Y-118396649D01*
X199771049Y-118395835D01*
X199774119Y-118386462D01*
X199786838Y-118366106D01*
X199806708Y-118338653D01*
X199813488Y-118329871D01*
X199921350Y-118176962D01*
X200015253Y-118012272D01*
X200093911Y-117838445D01*
X200156036Y-117658124D01*
X200175611Y-117586192D01*
X200204166Y-117456940D01*
X200223906Y-117328735D01*
X200235548Y-117195422D01*
X200239812Y-117050846D01*
X200239860Y-117035548D01*
X200236772Y-116887823D01*
X200226646Y-116748857D01*
X200208646Y-116611500D01*
X200181935Y-116468600D01*
X200164387Y-116389988D01*
X200140244Y-116286795D01*
X199037117Y-116286795D01*
X197933991Y-116286795D01*
X195252632Y-116286795D01*
X195176598Y-116089378D01*
X195139301Y-115974337D01*
X195948994Y-115974337D01*
X195950250Y-115985719D01*
X195959495Y-116013790D01*
X195976485Y-116057894D01*
X196000978Y-116117377D01*
X196008683Y-116135604D01*
X196023969Y-116171602D01*
X196431606Y-116171602D01*
X196839243Y-116171602D01*
X196847828Y-116168176D01*
X198173976Y-116168176D01*
X198183362Y-116168652D01*
X198210665Y-116169110D01*
X198254604Y-116169543D01*
X198313897Y-116169947D01*
X198387262Y-116170318D01*
X198473419Y-116170650D01*
X198571085Y-116170941D01*
X198678979Y-116171185D01*
X198795819Y-116171377D01*
X198920325Y-116171512D01*
X199051213Y-116171588D01*
X199139362Y-116171602D01*
X199296701Y-116171595D01*
X199435939Y-116171560D01*
X199558174Y-116171477D01*
X199664504Y-116171323D01*
X199756026Y-116171077D01*
X199833839Y-116170720D01*
X199899040Y-116170229D01*
X199952728Y-116169583D01*
X199995999Y-116168761D01*
X200029953Y-116167743D01*
X200055687Y-116166506D01*
X200074298Y-116165031D01*
X200086885Y-116163295D01*
X200094546Y-116161277D01*
X200098378Y-116158957D01*
X200099479Y-116156313D01*
X200098947Y-116153325D01*
X200098887Y-116153134D01*
X200093241Y-116135866D01*
X200083285Y-116105878D01*
X200070837Y-116068646D01*
X200066170Y-116054740D01*
X200039314Y-115974814D01*
X199315943Y-115972353D01*
X198628726Y-115970015D01*
X200182615Y-115970015D01*
X200221757Y-116070808D01*
X200260899Y-116171602D01*
X200671746Y-116171602D01*
X200771762Y-116171550D01*
X200854244Y-116171353D01*
X200920855Y-116170946D01*
X200973259Y-116170268D01*
X201013121Y-116169254D01*
X201042104Y-116167842D01*
X201061872Y-116165967D01*
X201074090Y-116163568D01*
X201080422Y-116160581D01*
X201082530Y-116156941D01*
X201082593Y-116155991D01*
X201080483Y-116140045D01*
X201074841Y-116110653D01*
X201066699Y-116073014D01*
X201062594Y-116055198D01*
X201042596Y-115970015D01*
X200612605Y-115970015D01*
X200182615Y-115970015D01*
X198628726Y-115970015D01*
X198592572Y-115969892D01*
X198383274Y-116067321D01*
X198324958Y-116094603D01*
X198272896Y-116119221D01*
X198229469Y-116140026D01*
X198197057Y-116155872D01*
X198178041Y-116165611D01*
X198173976Y-116168176D01*
X196847828Y-116168176D01*
X197085789Y-116073208D01*
X197332335Y-115974814D01*
X196642889Y-115972351D01*
X196529608Y-115972006D01*
X196422004Y-115971797D01*
X196321608Y-115971719D01*
X196229949Y-115971766D01*
X196148556Y-115971936D01*
X196078959Y-115972223D01*
X196022688Y-115972623D01*
X195981271Y-115973131D01*
X195956239Y-115973745D01*
X195948994Y-115974337D01*
X195139301Y-115974337D01*
X195091777Y-115827752D01*
X195021741Y-115563746D01*
X194967064Y-115299482D01*
X194928323Y-115037081D01*
X194906092Y-114778666D01*
X194900582Y-114577231D01*
X194900842Y-114569032D01*
X195667468Y-114569032D01*
X195674316Y-114796474D01*
X195694972Y-115018351D01*
X195730106Y-115239682D01*
X195780387Y-115465487D01*
X195794234Y-115518843D01*
X195806293Y-115562647D01*
X195820762Y-115612879D01*
X195836532Y-115665946D01*
X195852493Y-115718253D01*
X195867534Y-115766207D01*
X195880545Y-115806214D01*
X195890417Y-115834681D01*
X195895792Y-115847622D01*
X195905800Y-115848677D01*
X195933650Y-115849685D01*
X195977982Y-115850635D01*
X196037440Y-115851516D01*
X196110664Y-115852318D01*
X196196298Y-115853028D01*
X196292983Y-115853636D01*
X196399361Y-115854131D01*
X196514075Y-115854500D01*
X196635766Y-115854735D01*
X196763077Y-115854822D01*
X196771175Y-115854822D01*
X197642297Y-115854822D01*
X197645510Y-115853570D01*
X198850734Y-115853570D01*
X199419498Y-115854196D01*
X199522017Y-115854250D01*
X199618601Y-115854185D01*
X199707579Y-115854010D01*
X199787282Y-115853735D01*
X199856040Y-115853368D01*
X199912184Y-115852918D01*
X199954043Y-115852393D01*
X199979949Y-115851803D01*
X199988262Y-115851195D01*
X199983871Y-115836449D01*
X199970821Y-115805074D01*
X199949300Y-115757477D01*
X199919492Y-115694069D01*
X199881584Y-115615261D01*
X199875925Y-115603606D01*
X199847600Y-115545563D01*
X199826186Y-115502699D01*
X199810287Y-115472885D01*
X199798506Y-115453988D01*
X199789449Y-115443881D01*
X199781719Y-115440432D01*
X199773921Y-115441512D01*
X199770506Y-115442721D01*
X199756000Y-115448805D01*
X199726147Y-115461768D01*
X199683125Y-115480642D01*
X199629109Y-115504458D01*
X199566275Y-115532249D01*
X199496800Y-115563045D01*
X199422860Y-115595880D01*
X199346630Y-115629784D01*
X199270286Y-115663790D01*
X199196006Y-115696929D01*
X199125964Y-115728234D01*
X199062337Y-115756736D01*
X199007302Y-115781467D01*
X198963033Y-115801458D01*
X198931708Y-115815743D01*
X198922729Y-115819903D01*
X198850734Y-115853570D01*
X197645510Y-115853570D01*
X197723348Y-115823236D01*
X197804399Y-115791650D01*
X197806837Y-114624836D01*
X197809125Y-113529936D01*
X197933991Y-113529936D01*
X197933991Y-114635809D01*
X197934002Y-114805066D01*
X197934045Y-114956145D01*
X197934136Y-115090067D01*
X197934290Y-115207854D01*
X197934524Y-115310526D01*
X197934852Y-115399105D01*
X197935290Y-115474612D01*
X197935854Y-115538067D01*
X197936559Y-115590493D01*
X197937422Y-115632909D01*
X197938457Y-115666337D01*
X197939680Y-115691799D01*
X197941107Y-115710314D01*
X197942754Y-115722905D01*
X197944636Y-115730593D01*
X197946768Y-115734398D01*
X197949167Y-115735341D01*
X197950790Y-115734938D01*
X197962656Y-115730406D01*
X197990845Y-115719757D01*
X198033703Y-115703612D01*
X198089577Y-115682592D01*
X198156813Y-115657320D01*
X198233756Y-115628417D01*
X198318754Y-115596505D01*
X198410152Y-115562206D01*
X198485957Y-115533769D01*
X198592927Y-115493722D01*
X198704175Y-115452209D01*
X198816630Y-115410369D01*
X198897004Y-115380549D01*
X199912771Y-115380549D01*
X199915791Y-115389603D01*
X199926205Y-115413307D01*
X199942833Y-115449133D01*
X199964494Y-115494555D01*
X199990007Y-115547044D01*
X200000673Y-115568735D01*
X200029281Y-115627075D01*
X200056330Y-115682864D01*
X200080165Y-115732643D01*
X200099133Y-115772951D01*
X200111579Y-115800327D01*
X200113343Y-115804425D01*
X200134617Y-115854822D01*
X200570207Y-115854822D01*
X200683207Y-115854615D01*
X200780163Y-115854001D01*
X200860546Y-115852993D01*
X200923829Y-115851601D01*
X200969482Y-115849837D01*
X200996977Y-115847713D01*
X201005798Y-115845337D01*
X201002032Y-115822843D01*
X200991403Y-115785328D01*
X200974919Y-115735286D01*
X200953583Y-115675210D01*
X200928401Y-115607593D01*
X200900379Y-115534928D01*
X200870522Y-115459707D01*
X200839836Y-115384423D01*
X200809325Y-115311569D01*
X200779996Y-115243639D01*
X200752854Y-115183124D01*
X200728904Y-115132519D01*
X200709152Y-115094314D01*
X200694602Y-115071005D01*
X200692439Y-115068387D01*
X200687320Y-115065920D01*
X200677531Y-115066230D01*
X200661556Y-115069888D01*
X200637878Y-115077460D01*
X200604983Y-115089515D01*
X200561352Y-115106622D01*
X200505472Y-115129350D01*
X200435824Y-115158265D01*
X200350893Y-115193938D01*
X200298215Y-115216180D01*
X200217786Y-115250215D01*
X200142957Y-115281941D01*
X200075552Y-115310580D01*
X200017396Y-115335356D01*
X199970312Y-115355489D01*
X199936124Y-115370202D01*
X199916656Y-115378718D01*
X199912771Y-115380549D01*
X198897004Y-115380549D01*
X198927218Y-115369339D01*
X199032866Y-115330257D01*
X199130503Y-115294261D01*
X199217056Y-115262489D01*
X199289452Y-115236079D01*
X199304342Y-115230678D01*
X199604360Y-115122011D01*
X199588443Y-115097241D01*
X199537643Y-115021754D01*
X199475997Y-114936006D01*
X199406168Y-114843381D01*
X199330819Y-114747261D01*
X199252612Y-114651026D01*
X199174211Y-114558060D01*
X199098279Y-114471745D01*
X199080559Y-114452220D01*
X198958828Y-114324676D01*
X198827100Y-114197018D01*
X198688252Y-114071598D01*
X198545162Y-113950765D01*
X198400709Y-113836869D01*
X198257770Y-113732261D01*
X198119224Y-113639291D01*
X197989188Y-113561006D01*
X197933991Y-113529936D01*
X197809125Y-113529936D01*
X197809275Y-113458023D01*
X197676204Y-113394260D01*
X197462742Y-113299843D01*
X197252637Y-113223093D01*
X197043502Y-113163358D01*
X196832950Y-113119984D01*
X196618594Y-113092319D01*
X196551960Y-113086899D01*
X196393851Y-113075743D01*
X196494364Y-113007544D01*
X196591331Y-112944973D01*
X196683791Y-112891624D01*
X196767986Y-112849630D01*
X196789238Y-112840335D01*
X196839610Y-112819071D01*
X196976426Y-112869535D01*
X197103066Y-112918443D01*
X197238180Y-112974563D01*
X197376053Y-113035325D01*
X197510972Y-113098158D01*
X197637221Y-113160494D01*
X197720549Y-113204168D01*
X197809487Y-113252186D01*
X197806943Y-112972004D01*
X197804685Y-112723282D01*
X197933991Y-112723282D01*
X197933991Y-113024964D01*
X197933991Y-113326646D01*
X197974133Y-113349207D01*
X198008305Y-113369624D01*
X198054682Y-113399067D01*
X198109937Y-113435284D01*
X198170738Y-113476019D01*
X198233758Y-113519019D01*
X198295668Y-113562028D01*
X198353138Y-113602794D01*
X198402838Y-113639061D01*
X198409161Y-113643781D01*
X198511624Y-113722300D01*
X198607187Y-113799495D01*
X198699799Y-113878824D01*
X198793411Y-113963746D01*
X198891971Y-114057719D01*
X198971401Y-114136106D01*
X199122084Y-114291323D01*
X199258369Y-114442022D01*
X199383242Y-114591831D01*
X199499692Y-114744377D01*
X199610705Y-114903288D01*
X199641380Y-114949659D01*
X199679057Y-115005620D01*
X199707960Y-115044858D01*
X199728019Y-115067289D01*
X199738678Y-115072991D01*
X199750593Y-115069149D01*
X199778631Y-115059608D01*
X199820808Y-115045058D01*
X199875144Y-115026187D01*
X199939654Y-115003684D01*
X200012358Y-114978240D01*
X200091271Y-114950543D01*
X200127453Y-114937819D01*
X200208864Y-114909159D01*
X200285253Y-114882241D01*
X200354581Y-114857784D01*
X200414810Y-114836510D01*
X200463900Y-114819138D01*
X200499814Y-114806389D01*
X200520512Y-114798984D01*
X200524181Y-114797639D01*
X200546533Y-114789192D01*
X200525084Y-114753243D01*
X200381184Y-114529092D01*
X200219922Y-114309218D01*
X200042968Y-114095395D01*
X199851996Y-113889398D01*
X199648678Y-113693003D01*
X199434685Y-113507985D01*
X199211690Y-113336119D01*
X199146224Y-113289444D01*
X198965627Y-113170324D01*
X198777299Y-113059992D01*
X198584890Y-112960277D01*
X198392051Y-112873005D01*
X198202430Y-112800005D01*
X198104840Y-112767837D01*
X198059444Y-112754167D01*
X198017346Y-112742148D01*
X197984002Y-112733302D01*
X197968049Y-112729672D01*
X197933991Y-112723282D01*
X197804685Y-112723282D01*
X197804399Y-112691821D01*
X197737204Y-112680296D01*
X197562670Y-112658340D01*
X197385756Y-112651385D01*
X197209928Y-112659210D01*
X197038650Y-112681589D01*
X196875390Y-112718297D01*
X196801263Y-112740818D01*
X196637389Y-112803989D01*
X196486705Y-112880592D01*
X196347997Y-112971365D01*
X196220053Y-113077044D01*
X196172153Y-113123117D01*
X196063172Y-113243467D01*
X195968752Y-113371839D01*
X195888124Y-113509770D01*
X195820517Y-113658796D01*
X195765159Y-113820453D01*
X195721280Y-113996276D01*
X195712828Y-114038377D01*
X195696049Y-114133430D01*
X195683602Y-114223642D01*
X195675026Y-114314423D01*
X195669858Y-114411188D01*
X195667635Y-114519349D01*
X195667468Y-114569032D01*
X194900842Y-114569032D01*
X194907813Y-114348996D01*
X194929344Y-114130350D01*
X194964938Y-113921839D01*
X195014353Y-113724007D01*
X195077350Y-113537402D01*
X195153690Y-113362568D01*
X195243134Y-113200051D01*
X195345440Y-113050396D01*
X195460370Y-112914149D01*
X195587685Y-112791856D01*
X195727144Y-112684061D01*
X195734326Y-112679134D01*
X195894306Y-112579683D01*
X196058838Y-112496946D01*
X196230208Y-112430049D01*
X196410703Y-112378119D01*
X196602609Y-112340282D01*
X196633273Y-112335658D01*
X196698462Y-112328457D01*
X196777753Y-112323248D01*
X196866152Y-112320072D01*
X196958661Y-112318968D01*
X197050284Y-112319977D01*
X197136025Y-112323139D01*
X197210889Y-112328494D01*
X197233235Y-112330851D01*
X197300281Y-112339942D01*
X197377362Y-112352458D01*
X197459151Y-112367360D01*
X197540323Y-112383606D01*
X197615552Y-112400158D01*
X197679512Y-112415974D01*
X197703871Y-112422770D01*
X197741801Y-112433542D01*
X197773325Y-112441835D01*
X197793456Y-112446365D01*
X197797200Y-112446835D01*
X197798828Y-112443427D01*
X197800312Y-112432648D01*
X197801657Y-112413750D01*
X197802869Y-112385987D01*
X197803954Y-112348610D01*
X197804918Y-112300874D01*
X197805766Y-112242029D01*
X197806505Y-112171330D01*
X197807141Y-112088029D01*
X197807679Y-111991379D01*
X197808125Y-111880632D01*
X197808484Y-111755042D01*
X197808764Y-111613860D01*
X197808970Y-111456340D01*
X197809106Y-111281735D01*
X197809181Y-111089297D01*
X197809199Y-110915933D01*
X197809199Y-109384830D01*
X197871595Y-109384830D01*
X197933991Y-109384830D01*
X197933992Y-110937532D01*
G37*
%TO.C,R1*%
X209295000Y-93320000D02*
X209295000Y-96100000D01*
X209295000Y-93320000D02*
X217915000Y-93320000D01*
X209295000Y-96100000D02*
X217915000Y-96100000D01*
X217915000Y-93320000D02*
X217915000Y-96100000D01*
%TO.C,Rele2*%
X238157500Y-124280000D02*
X215457500Y-124280000D01*
X215457500Y-124280000D02*
X215457500Y-140980000D01*
X233307500Y-128130000D02*
X233307500Y-131280000D01*
X238417500Y-131630000D02*
X238417500Y-133630000D01*
X233907500Y-132280000D02*
X232707500Y-132280000D01*
X233107500Y-132280000D02*
X233507500Y-132980000D01*
X232707500Y-132280000D02*
X232707500Y-132980000D01*
X233907500Y-132980000D02*
X233907500Y-132280000D01*
X232707500Y-132980000D02*
X233907500Y-132980000D01*
X233307500Y-133980000D02*
X233307500Y-137130000D01*
X238157500Y-140980000D02*
X238157500Y-124280000D01*
X215457500Y-140980000D02*
X238157500Y-140980000D01*
%TO.C,SensorAPDS9960*%
X199410000Y-89410000D02*
X199410000Y-88080000D01*
X200740000Y-89410000D02*
X199410000Y-89410000D01*
X202010000Y-89410000D02*
X212230000Y-89410000D01*
X202010000Y-89410000D02*
X202010000Y-86750000D01*
X212230000Y-89410000D02*
X212230000Y-86750000D01*
X202010000Y-86750000D02*
X212230000Y-86750000D01*
%TD*%
M02*
