%TF.GenerationSoftware,KiCad,Pcbnew,7.0.7*%
%TF.CreationDate,2025-12-05T14:06:05+01:00*%
%TF.ProjectId,centralv2,63656e74-7261-46c7-9632-2e6b69636164,rev?*%
%TF.SameCoordinates,Original*%
%TF.FileFunction,Soldermask,Bot*%
%TF.FilePolarity,Negative*%
%FSLAX46Y46*%
G04 Gerber Fmt 4.6, Leading zero omitted, Abs format (unit mm)*
G04 Created by KiCad (PCBNEW 7.0.7) date 2025-12-05 14:06:05*
%MOMM*%
%LPD*%
G01*
G04 APERTURE LIST*
%ADD10C,1.397000*%
%ADD11C,2.000000*%
%ADD12C,1.500000*%
%ADD13R,1.700000X1.700000*%
%ADD14O,1.700000X1.700000*%
%ADD15C,5.000000*%
%ADD16R,1.200000X1.200000*%
%ADD17C,1.200000*%
%ADD18R,3.000000X3.000000*%
%ADD19C,3.000000*%
%ADD20R,1.050000X1.500000*%
%ADD21O,1.050000X1.500000*%
%ADD22C,1.400000*%
%ADD23O,1.400000X1.400000*%
%ADD24R,2.000000X2.000000*%
%ADD25C,1.600000*%
%ADD26O,1.600000X1.600000*%
G04 APERTURE END LIST*
D10*
%TO.C,Reset*%
X109760000Y-59560000D03*
X117380000Y-59560000D03*
X109760000Y-64640000D03*
X117380000Y-64640000D03*
%TD*%
D11*
%TO.C,PIR1*%
X62300000Y-54410000D03*
X92300000Y-54410000D03*
D12*
X74800000Y-63410000D03*
X77300000Y-63410000D03*
X79800000Y-63410000D03*
%TD*%
D13*
%TO.C,Fotoresistencia1*%
X103840000Y-85855000D03*
D14*
X103840000Y-88395000D03*
%TD*%
D13*
%TO.C,Uart*%
X85990000Y-74070000D03*
D14*
X85990000Y-76610000D03*
X85990000Y-79150000D03*
X85990000Y-81690000D03*
%TD*%
D15*
%TO.C,REF3*%
X116310000Y-87020000D03*
%TD*%
D10*
%TO.C,Boot*%
X109990000Y-69330000D03*
X117610000Y-69330000D03*
X109990000Y-74410000D03*
X117610000Y-74410000D03*
%TD*%
D16*
%TO.C,C2*%
X82560000Y-56220000D03*
D17*
X84060000Y-56220000D03*
%TD*%
D18*
%TO.C,Alimentacion220V*%
X114340000Y-52550000D03*
D19*
X114340000Y-47470000D03*
%TD*%
D16*
%TO.C,C1*%
X82420000Y-49510000D03*
D17*
X83920000Y-49510000D03*
%TD*%
D20*
%TO.C,U3*%
X92400000Y-87370000D03*
D21*
X93670000Y-87370000D03*
X94940000Y-87370000D03*
%TD*%
D15*
%TO.C,REF3*%
X61800000Y-41190000D03*
%TD*%
D22*
%TO.C,R2*%
X112240000Y-82010000D03*
D23*
X117320000Y-82010000D03*
%TD*%
D13*
%TO.C,LP*%
X100595000Y-48680000D03*
D14*
X103135000Y-48680000D03*
%TD*%
D24*
%TO.C,PS2*%
X95200000Y-41060000D03*
D11*
X101200000Y-41060000D03*
X89200000Y-74660000D03*
X107200000Y-74660000D03*
%TD*%
D15*
%TO.C,REF3*%
X116660000Y-41180000D03*
%TD*%
D25*
%TO.C,Res_F*%
X98290000Y-44050000D03*
D26*
X105910000Y-44050000D03*
%TD*%
D22*
%TO.C,R1*%
X112390000Y-78350000D03*
D23*
X117470000Y-78350000D03*
%TD*%
M02*
