%TF.GenerationSoftware,KiCad,Pcbnew,7.0.7*%
%TF.CreationDate,2025-12-05T14:06:05+01:00*%
%TF.ProjectId,centralv2,63656e74-7261-46c7-9632-2e6b69636164,rev?*%
%TF.SameCoordinates,Original*%
%TF.FileFunction,Copper,L2,Bot*%
%TF.FilePolarity,Positive*%
%FSLAX46Y46*%
G04 Gerber Fmt 4.6, Leading zero omitted, Abs format (unit mm)*
G04 Created by KiCad (PCBNEW 7.0.7) date 2025-12-05 14:06:05*
%MOMM*%
%LPD*%
G01*
G04 APERTURE LIST*
%TA.AperFunction,ComponentPad*%
%ADD10C,1.397000*%
%TD*%
%TA.AperFunction,ComponentPad*%
%ADD11C,1.500000*%
%TD*%
%TA.AperFunction,ComponentPad*%
%ADD12R,1.700000X1.700000*%
%TD*%
%TA.AperFunction,ComponentPad*%
%ADD13O,1.700000X1.700000*%
%TD*%
%TA.AperFunction,ComponentPad*%
%ADD14C,5.000000*%
%TD*%
%TA.AperFunction,ComponentPad*%
%ADD15R,1.200000X1.200000*%
%TD*%
%TA.AperFunction,ComponentPad*%
%ADD16C,1.200000*%
%TD*%
%TA.AperFunction,ComponentPad*%
%ADD17R,3.000000X3.000000*%
%TD*%
%TA.AperFunction,ComponentPad*%
%ADD18C,3.000000*%
%TD*%
%TA.AperFunction,ComponentPad*%
%ADD19R,1.050000X1.500000*%
%TD*%
%TA.AperFunction,ComponentPad*%
%ADD20O,1.050000X1.500000*%
%TD*%
%TA.AperFunction,ComponentPad*%
%ADD21C,1.400000*%
%TD*%
%TA.AperFunction,ComponentPad*%
%ADD22O,1.400000X1.400000*%
%TD*%
%TA.AperFunction,ComponentPad*%
%ADD23C,0.400000*%
%TD*%
%TA.AperFunction,ComponentPad*%
%ADD24R,2.000000X2.000000*%
%TD*%
%TA.AperFunction,ComponentPad*%
%ADD25C,2.000000*%
%TD*%
%TA.AperFunction,ComponentPad*%
%ADD26C,1.600000*%
%TD*%
%TA.AperFunction,ComponentPad*%
%ADD27O,1.600000X1.600000*%
%TD*%
%TA.AperFunction,ViaPad*%
%ADD28C,0.800000*%
%TD*%
%TA.AperFunction,Conductor*%
%ADD29C,0.250000*%
%TD*%
G04 APERTURE END LIST*
D10*
%TO.P,Reset,1,Pin_1*%
%TO.N,GND*%
X109760000Y-59560000D03*
X117380000Y-59560000D03*
%TO.P,Reset,2,Pin_2*%
%TO.N,+3V3*%
X109760000Y-64640000D03*
X117380000Y-64640000D03*
%TD*%
D11*
%TO.P,PIR1,1,Pin_1*%
%TO.N,+5V*%
X74800000Y-63410000D03*
%TO.P,PIR1,2,Pin_2*%
%TO.N,PIR*%
X77300000Y-63410000D03*
%TO.P,PIR1,3,Pin_3*%
%TO.N,GND*%
X79800000Y-63410000D03*
%TD*%
D12*
%TO.P,Fotoresistencia1,1,Pin_1*%
%TO.N,GND*%
X103840000Y-85855000D03*
D13*
%TO.P,Fotoresistencia1,2,Pin_2*%
%TO.N,Fresistor*%
X103840000Y-88395000D03*
%TD*%
D12*
%TO.P,Uart,1,Pin_1*%
%TO.N,+5V*%
X85990000Y-74070000D03*
D13*
%TO.P,Uart,2,Pin_2*%
%TO.N,Net-(U1-RXD)*%
X85990000Y-76610000D03*
%TO.P,Uart,3,Pin_3*%
%TO.N,Net-(U1-TXD)*%
X85990000Y-79150000D03*
%TO.P,Uart,4,Pin_4*%
%TO.N,GND*%
X85990000Y-81690000D03*
%TD*%
D14*
%TO.P,REF3,1*%
%TO.N,N/C*%
X116310000Y-87020000D03*
%TD*%
D10*
%TO.P,Boot,1,Pin_1*%
%TO.N,unconnected-(Boot1-Pin_1-Pad1)*%
X109990000Y-69330000D03*
X117610000Y-69330000D03*
%TO.P,Boot,2,Pin_2*%
%TO.N,GND*%
X109990000Y-74410000D03*
X117610000Y-74410000D03*
%TD*%
D15*
%TO.P,C2,1*%
%TO.N,+3V3*%
X82560000Y-56220000D03*
D16*
%TO.P,C2,2*%
%TO.N,GND*%
X84060000Y-56220000D03*
%TD*%
D17*
%TO.P,Alimentacion220V,1,Pin_1*%
%TO.N,AC*%
X114340000Y-52550000D03*
D18*
%TO.P,Alimentacion220V,2,Pin_2*%
%TO.N,Earth*%
X114340000Y-47470000D03*
%TD*%
D15*
%TO.P,C1,1*%
%TO.N,+5V*%
X82420000Y-49510000D03*
D16*
%TO.P,C1,2*%
%TO.N,GND*%
X83920000Y-49510000D03*
%TD*%
D19*
%TO.P,U3,1,GND*%
%TO.N,GND*%
X92400000Y-87370000D03*
D20*
%TO.P,U3,2,DQ*%
%TO.N,tem*%
X93670000Y-87370000D03*
%TO.P,U3,3,V_{DD}*%
%TO.N,+3V3*%
X94940000Y-87370000D03*
%TD*%
D14*
%TO.P,REF3,1*%
%TO.N,N/C*%
X61800000Y-41190000D03*
%TD*%
D21*
%TO.P,R2,1*%
%TO.N,tem*%
X112240000Y-82010000D03*
D22*
%TO.P,R2,2*%
%TO.N,+3V3*%
X117320000Y-82010000D03*
%TD*%
D12*
%TO.P,LP,1,Pin_1*%
%TO.N,GND*%
X100595000Y-48680000D03*
D13*
%TO.P,LP,2,Pin_2*%
%TO.N,Net-(LP1-Pin_2)*%
X103135000Y-48680000D03*
%TD*%
D23*
%TO.P,U1,28,GND*%
%TO.N,GND*%
X70090000Y-77140000D03*
%TO.P,U1,29,GND*%
X68990000Y-77140000D03*
%TO.P,U1,30,GND*%
X70640000Y-76590000D03*
%TO.P,U1,31,GND*%
X69540000Y-76590000D03*
%TO.P,U1,32,GND*%
X68440000Y-76590000D03*
%TO.P,U1,33,GND*%
X70090000Y-76040000D03*
%TO.P,U1,34,GND*%
X68990000Y-76040000D03*
%TO.P,U1,35,GND*%
X70640000Y-75490000D03*
%TO.P,U1,36,GND*%
X69540000Y-75490000D03*
%TO.P,U1,37,GND*%
X68440000Y-75490000D03*
%TO.P,U1,38,GND*%
X70090000Y-74940000D03*
%TO.P,U1,39,GND*%
X68990000Y-74940000D03*
%TD*%
D24*
%TO.P,PS2,1,AC/L*%
%TO.N,AC*%
X95200000Y-41060000D03*
D25*
%TO.P,PS2,2,AC/N*%
%TO.N,Earth*%
X101200000Y-41060000D03*
%TO.P,PS2,3,-Vout*%
%TO.N,GND*%
X89200000Y-74660000D03*
%TO.P,PS2,4,+Vout*%
%TO.N,+5V*%
X107200000Y-74660000D03*
%TD*%
D14*
%TO.P,REF3,1*%
%TO.N,N/C*%
X116660000Y-41180000D03*
%TD*%
D26*
%TO.P,Res_F,1*%
%TO.N,+3.3V*%
X98290000Y-44050000D03*
D27*
%TO.P,Res_F,2*%
%TO.N,Fresistor*%
X105910000Y-44050000D03*
%TD*%
D21*
%TO.P,R1,1*%
%TO.N,Net-(LP1-Pin_2)*%
X112390000Y-78350000D03*
D22*
%TO.P,R1,2*%
%TO.N,Led*%
X117470000Y-78350000D03*
%TD*%
D28*
%TO.N,AC*%
X94570000Y-44790000D03*
%TO.N,+5V*%
X97700000Y-72910000D03*
%TO.N,GND*%
X81370000Y-70090000D03*
X72850000Y-73770000D03*
%TO.N,+3V3*%
X87190000Y-61620000D03*
%TO.N,Net-(LP1-Pin_2)*%
X105110000Y-68130000D03*
%TO.N,boot*%
X80890000Y-71610000D03*
%TO.N,Net-(U1-RXD)*%
X63670000Y-72180000D03*
X82890000Y-76520000D03*
%TO.N,Net-(U1-TXD)*%
X63610000Y-73570000D03*
X83260000Y-79040000D03*
%TD*%
D29*
%TO.N,AC*%
X95200000Y-44160000D02*
X94570000Y-44790000D01*
X95200000Y-41060000D02*
X95200000Y-44160000D01*
%TO.N,+5V*%
X105450000Y-72910000D02*
X97700000Y-72910000D01*
X107200000Y-74660000D02*
X105450000Y-72910000D01*
%TO.N,+3V3*%
X87190000Y-61620000D02*
X98210000Y-50600000D01*
X98210000Y-50600000D02*
X98210000Y-44030000D01*
%TO.N,Net-(LP1-Pin_2)*%
X105110000Y-50545000D02*
X103175000Y-48610000D01*
X105110000Y-68130000D02*
X105110000Y-50545000D01*
%TO.N,boot*%
X110010000Y-69320000D02*
X108500000Y-69320000D01*
X80890000Y-71610000D02*
X102655305Y-71610000D01*
X104995305Y-69270000D02*
X108450000Y-69270000D01*
X108500000Y-69320000D02*
X108450000Y-69270000D01*
X102655305Y-71610000D02*
X104995305Y-69270000D01*
%TO.N,Net-(U1-RXD)*%
X82890000Y-76520000D02*
X74540000Y-76520000D01*
X64100000Y-72210000D02*
X63670000Y-72180000D01*
X74540000Y-76520000D02*
X70230000Y-72210000D01*
X64040000Y-72210000D02*
X64070000Y-72210000D01*
X63670000Y-72180000D02*
X64040000Y-72210000D01*
X70230000Y-72210000D02*
X64100000Y-72210000D01*
%TO.N,Net-(U1-TXD)*%
X83260000Y-79040000D02*
X81100000Y-81200000D01*
X81100000Y-81200000D02*
X81100000Y-81290000D01*
X63610000Y-73440000D02*
X63640000Y-73410000D01*
X81100000Y-81290000D02*
X69270000Y-81290000D01*
X63610000Y-75630000D02*
X63610000Y-73570000D01*
X63610000Y-73570000D02*
X63610000Y-73440000D01*
X69270000Y-81290000D02*
X63610000Y-75630000D01*
%TD*%
%TA.AperFunction,Conductor*%
%TO.N,GND*%
G36*
X68760444Y-76628842D02*
G01*
X68771476Y-76638634D01*
X68941365Y-76808523D01*
X68974850Y-76869846D01*
X68969866Y-76939538D01*
X68927994Y-76995471D01*
X68915689Y-77003588D01*
X68912359Y-77005510D01*
X68855510Y-77062358D01*
X68853585Y-77065693D01*
X68803014Y-77113904D01*
X68734406Y-77127122D01*
X68669544Y-77101149D01*
X68658521Y-77091365D01*
X68536384Y-76969226D01*
X68488634Y-76921476D01*
X68455149Y-76860153D01*
X68460133Y-76790461D01*
X68502005Y-76734528D01*
X68514318Y-76726406D01*
X68517639Y-76724487D01*
X68517645Y-76724486D01*
X68574486Y-76667646D01*
X68574487Y-76667639D01*
X68576406Y-76664318D01*
X68626971Y-76616101D01*
X68695578Y-76602876D01*
X68760444Y-76628842D01*
G37*
%TD.AperFunction*%
%TA.AperFunction,Conductor*%
G36*
X69860444Y-76628842D02*
G01*
X69871476Y-76638634D01*
X70041365Y-76808523D01*
X70074850Y-76869846D01*
X70069866Y-76939538D01*
X70027994Y-76995471D01*
X70015689Y-77003588D01*
X70012359Y-77005510D01*
X69955510Y-77062358D01*
X69953585Y-77065693D01*
X69903014Y-77113904D01*
X69834406Y-77127122D01*
X69769544Y-77101149D01*
X69758521Y-77091365D01*
X69636384Y-76969226D01*
X69588634Y-76921476D01*
X69555149Y-76860153D01*
X69560133Y-76790461D01*
X69602005Y-76734528D01*
X69614318Y-76726406D01*
X69617639Y-76724487D01*
X69617645Y-76724486D01*
X69674486Y-76667646D01*
X69674487Y-76667639D01*
X69676406Y-76664318D01*
X69726971Y-76616101D01*
X69795578Y-76602876D01*
X69860444Y-76628842D01*
G37*
%TD.AperFunction*%
%TA.AperFunction,Conductor*%
G36*
X69339536Y-76610132D02*
G01*
X69395470Y-76652003D01*
X69403592Y-76664316D01*
X69405515Y-76667647D01*
X69462352Y-76724484D01*
X69465681Y-76726406D01*
X69513898Y-76776972D01*
X69527123Y-76845579D01*
X69501156Y-76910444D01*
X69491366Y-76921475D01*
X69443617Y-76969226D01*
X69321476Y-77091366D01*
X69260153Y-77124850D01*
X69190461Y-77119866D01*
X69134528Y-77077994D01*
X69126406Y-77065681D01*
X69124484Y-77062352D01*
X69067647Y-77005515D01*
X69064316Y-77003592D01*
X69016100Y-76953025D01*
X69002876Y-76884418D01*
X69028844Y-76819553D01*
X69038634Y-76808522D01*
X69179512Y-76667645D01*
X69208521Y-76638635D01*
X69269844Y-76605149D01*
X69339536Y-76610132D01*
G37*
%TD.AperFunction*%
%TA.AperFunction,Conductor*%
G36*
X70439536Y-76610132D02*
G01*
X70495470Y-76652003D01*
X70503592Y-76664316D01*
X70505515Y-76667647D01*
X70562352Y-76724484D01*
X70565681Y-76726406D01*
X70613898Y-76776972D01*
X70627123Y-76845579D01*
X70601156Y-76910444D01*
X70591366Y-76921475D01*
X70543617Y-76969226D01*
X70421476Y-77091366D01*
X70360153Y-77124850D01*
X70290461Y-77119866D01*
X70234528Y-77077994D01*
X70226406Y-77065681D01*
X70224484Y-77062352D01*
X70167647Y-77005515D01*
X70164316Y-77003592D01*
X70116100Y-76953025D01*
X70102876Y-76884418D01*
X70128844Y-76819553D01*
X70138634Y-76808522D01*
X70279512Y-76667645D01*
X70308521Y-76638635D01*
X70369844Y-76605149D01*
X70439536Y-76610132D01*
G37*
%TD.AperFunction*%
%TA.AperFunction,Conductor*%
G36*
X69310444Y-76078842D02*
G01*
X69321476Y-76088634D01*
X69491365Y-76258523D01*
X69524850Y-76319846D01*
X69519866Y-76389538D01*
X69477994Y-76445471D01*
X69465689Y-76453588D01*
X69462359Y-76455510D01*
X69405510Y-76512358D01*
X69403585Y-76515693D01*
X69353014Y-76563904D01*
X69284406Y-76577122D01*
X69219544Y-76551149D01*
X69208521Y-76541365D01*
X69041750Y-76374592D01*
X69038634Y-76371476D01*
X69005149Y-76310153D01*
X69010133Y-76240461D01*
X69052005Y-76184528D01*
X69064318Y-76176406D01*
X69067639Y-76174487D01*
X69067645Y-76174486D01*
X69124486Y-76117646D01*
X69124487Y-76117639D01*
X69126406Y-76114318D01*
X69176971Y-76066101D01*
X69245578Y-76052876D01*
X69310444Y-76078842D01*
G37*
%TD.AperFunction*%
%TA.AperFunction,Conductor*%
G36*
X70410444Y-76078842D02*
G01*
X70421476Y-76088634D01*
X70591365Y-76258523D01*
X70624850Y-76319846D01*
X70619866Y-76389538D01*
X70577994Y-76445471D01*
X70565689Y-76453588D01*
X70562359Y-76455510D01*
X70505510Y-76512358D01*
X70503585Y-76515693D01*
X70453014Y-76563904D01*
X70384406Y-76577122D01*
X70319544Y-76551149D01*
X70308521Y-76541365D01*
X70141750Y-76374592D01*
X70138634Y-76371476D01*
X70105149Y-76310153D01*
X70110133Y-76240461D01*
X70152005Y-76184528D01*
X70164318Y-76176406D01*
X70167639Y-76174487D01*
X70167645Y-76174486D01*
X70224486Y-76117646D01*
X70224487Y-76117639D01*
X70226406Y-76114318D01*
X70276971Y-76066101D01*
X70345578Y-76052876D01*
X70410444Y-76078842D01*
G37*
%TD.AperFunction*%
%TA.AperFunction,Conductor*%
G36*
X68789525Y-76060129D02*
G01*
X68845463Y-76101995D01*
X68853590Y-76114314D01*
X68855513Y-76117645D01*
X68912352Y-76174484D01*
X68915681Y-76176406D01*
X68963898Y-76226972D01*
X68977123Y-76295579D01*
X68951156Y-76360444D01*
X68941379Y-76371462D01*
X68938257Y-76374585D01*
X68771476Y-76541366D01*
X68710153Y-76574850D01*
X68640461Y-76569866D01*
X68584528Y-76527994D01*
X68576406Y-76515681D01*
X68574484Y-76512352D01*
X68517647Y-76455515D01*
X68514316Y-76453592D01*
X68466100Y-76403025D01*
X68452876Y-76334418D01*
X68478844Y-76269553D01*
X68488634Y-76258522D01*
X68654002Y-76093156D01*
X68658513Y-76088644D01*
X68719832Y-76055153D01*
X68789525Y-76060129D01*
G37*
%TD.AperFunction*%
%TA.AperFunction,Conductor*%
G36*
X69889525Y-76060129D02*
G01*
X69945463Y-76101995D01*
X69953590Y-76114314D01*
X69955513Y-76117645D01*
X70012352Y-76174484D01*
X70015681Y-76176406D01*
X70063898Y-76226972D01*
X70077123Y-76295579D01*
X70051156Y-76360444D01*
X70041379Y-76371462D01*
X70038257Y-76374585D01*
X69871476Y-76541366D01*
X69810153Y-76574850D01*
X69740461Y-76569866D01*
X69684528Y-76527994D01*
X69676406Y-76515681D01*
X69674484Y-76512352D01*
X69617647Y-76455515D01*
X69614316Y-76453592D01*
X69566100Y-76403025D01*
X69552876Y-76334418D01*
X69578844Y-76269553D01*
X69588634Y-76258522D01*
X69754002Y-76093156D01*
X69758513Y-76088644D01*
X69819832Y-76055153D01*
X69889525Y-76060129D01*
G37*
%TD.AperFunction*%
%TA.AperFunction,Conductor*%
G36*
X68760444Y-75528842D02*
G01*
X68771476Y-75538634D01*
X68941365Y-75708523D01*
X68974850Y-75769846D01*
X68969866Y-75839538D01*
X68927994Y-75895471D01*
X68915689Y-75903588D01*
X68912359Y-75905510D01*
X68855510Y-75962358D01*
X68853585Y-75965693D01*
X68803014Y-76013904D01*
X68734406Y-76027122D01*
X68669544Y-76001149D01*
X68658521Y-75991365D01*
X68499995Y-75832837D01*
X68488634Y-75821476D01*
X68455149Y-75760153D01*
X68460133Y-75690461D01*
X68502005Y-75634528D01*
X68514318Y-75626406D01*
X68517639Y-75624487D01*
X68517645Y-75624486D01*
X68574486Y-75567646D01*
X68574487Y-75567639D01*
X68576406Y-75564318D01*
X68626971Y-75516101D01*
X68695578Y-75502876D01*
X68760444Y-75528842D01*
G37*
%TD.AperFunction*%
%TA.AperFunction,Conductor*%
G36*
X69860444Y-75528842D02*
G01*
X69871476Y-75538634D01*
X70041365Y-75708523D01*
X70074850Y-75769846D01*
X70069866Y-75839538D01*
X70027994Y-75895471D01*
X70015689Y-75903588D01*
X70012359Y-75905510D01*
X69955510Y-75962358D01*
X69953585Y-75965693D01*
X69903014Y-76013904D01*
X69834406Y-76027122D01*
X69769544Y-76001149D01*
X69758521Y-75991365D01*
X69599995Y-75832837D01*
X69588634Y-75821476D01*
X69555149Y-75760153D01*
X69560133Y-75690461D01*
X69602005Y-75634528D01*
X69614318Y-75626406D01*
X69617639Y-75624487D01*
X69617645Y-75624486D01*
X69674486Y-75567646D01*
X69674487Y-75567639D01*
X69676406Y-75564318D01*
X69726971Y-75516101D01*
X69795578Y-75502876D01*
X69860444Y-75528842D01*
G37*
%TD.AperFunction*%
%TA.AperFunction,Conductor*%
G36*
X69339535Y-75510132D02*
G01*
X69395469Y-75552002D01*
X69403592Y-75564316D01*
X69405515Y-75567647D01*
X69462352Y-75624484D01*
X69465681Y-75626406D01*
X69513898Y-75676972D01*
X69527123Y-75745579D01*
X69501156Y-75810444D01*
X69491369Y-75821472D01*
X69480007Y-75832835D01*
X69321476Y-75991366D01*
X69260153Y-76024850D01*
X69190461Y-76019866D01*
X69134528Y-75977994D01*
X69126406Y-75965681D01*
X69124484Y-75962352D01*
X69067647Y-75905515D01*
X69064316Y-75903592D01*
X69016100Y-75853025D01*
X69002876Y-75784418D01*
X69028844Y-75719553D01*
X69038634Y-75708522D01*
X69186212Y-75560946D01*
X69208521Y-75538636D01*
X69269843Y-75505149D01*
X69339535Y-75510132D01*
G37*
%TD.AperFunction*%
%TA.AperFunction,Conductor*%
G36*
X70439535Y-75510132D02*
G01*
X70495469Y-75552002D01*
X70503592Y-75564316D01*
X70505515Y-75567647D01*
X70562352Y-75624484D01*
X70565681Y-75626406D01*
X70613898Y-75676972D01*
X70627123Y-75745579D01*
X70601156Y-75810444D01*
X70591369Y-75821472D01*
X70580007Y-75832835D01*
X70421476Y-75991366D01*
X70360153Y-76024850D01*
X70290461Y-76019866D01*
X70234528Y-75977994D01*
X70226406Y-75965681D01*
X70224484Y-75962352D01*
X70167647Y-75905515D01*
X70164316Y-75903592D01*
X70116100Y-75853025D01*
X70102876Y-75784418D01*
X70128844Y-75719553D01*
X70138634Y-75708522D01*
X70286212Y-75560946D01*
X70308521Y-75538636D01*
X70369843Y-75505149D01*
X70439535Y-75510132D01*
G37*
%TD.AperFunction*%
%TA.AperFunction,Conductor*%
G36*
X69310444Y-74978842D02*
G01*
X69321476Y-74988634D01*
X69491365Y-75158523D01*
X69524850Y-75219846D01*
X69519866Y-75289538D01*
X69477994Y-75345471D01*
X69465689Y-75353588D01*
X69462359Y-75355510D01*
X69405510Y-75412358D01*
X69403585Y-75415693D01*
X69353014Y-75463904D01*
X69284406Y-75477122D01*
X69219544Y-75451149D01*
X69208521Y-75441365D01*
X69044704Y-75277546D01*
X69038634Y-75271476D01*
X69005149Y-75210153D01*
X69010133Y-75140461D01*
X69052005Y-75084528D01*
X69064318Y-75076406D01*
X69067639Y-75074487D01*
X69067645Y-75074486D01*
X69124486Y-75017646D01*
X69124487Y-75017639D01*
X69126406Y-75014318D01*
X69176971Y-74966101D01*
X69245578Y-74952876D01*
X69310444Y-74978842D01*
G37*
%TD.AperFunction*%
%TA.AperFunction,Conductor*%
G36*
X70410444Y-74978842D02*
G01*
X70421476Y-74988634D01*
X70591365Y-75158523D01*
X70624850Y-75219846D01*
X70619866Y-75289538D01*
X70577994Y-75345471D01*
X70565689Y-75353588D01*
X70562359Y-75355510D01*
X70505510Y-75412358D01*
X70503585Y-75415693D01*
X70453014Y-75463904D01*
X70384406Y-75477122D01*
X70319544Y-75451149D01*
X70308521Y-75441365D01*
X70144704Y-75277546D01*
X70138634Y-75271476D01*
X70105149Y-75210153D01*
X70110133Y-75140461D01*
X70152005Y-75084528D01*
X70164318Y-75076406D01*
X70167639Y-75074487D01*
X70167645Y-75074486D01*
X70224486Y-75017646D01*
X70224487Y-75017639D01*
X70226406Y-75014318D01*
X70276971Y-74966101D01*
X70345578Y-74952876D01*
X70410444Y-74978842D01*
G37*
%TD.AperFunction*%
%TA.AperFunction,Conductor*%
G36*
X68789511Y-74960124D02*
G01*
X68845454Y-75001983D01*
X68853590Y-75014314D01*
X68855513Y-75017645D01*
X68912352Y-75074484D01*
X68915681Y-75076406D01*
X68963898Y-75126972D01*
X68977123Y-75195579D01*
X68951156Y-75260444D01*
X68941372Y-75271469D01*
X68935300Y-75277543D01*
X68771476Y-75441366D01*
X68710153Y-75474850D01*
X68640461Y-75469866D01*
X68584528Y-75427994D01*
X68576406Y-75415681D01*
X68574484Y-75412352D01*
X68517647Y-75355515D01*
X68514316Y-75353592D01*
X68466100Y-75303025D01*
X68452876Y-75234418D01*
X68478844Y-75169553D01*
X68488634Y-75158522D01*
X68656351Y-74990808D01*
X68658502Y-74988655D01*
X68719818Y-74955156D01*
X68789511Y-74960124D01*
G37*
%TD.AperFunction*%
%TA.AperFunction,Conductor*%
G36*
X69889511Y-74960124D02*
G01*
X69945454Y-75001983D01*
X69953590Y-75014314D01*
X69955513Y-75017645D01*
X70012352Y-75074484D01*
X70015681Y-75076406D01*
X70063898Y-75126972D01*
X70077123Y-75195579D01*
X70051156Y-75260444D01*
X70041372Y-75271469D01*
X70035300Y-75277543D01*
X69871476Y-75441366D01*
X69810153Y-75474850D01*
X69740461Y-75469866D01*
X69684528Y-75427994D01*
X69676406Y-75415681D01*
X69674484Y-75412352D01*
X69617647Y-75355515D01*
X69614316Y-75353592D01*
X69566100Y-75303025D01*
X69552876Y-75234418D01*
X69578844Y-75169553D01*
X69588634Y-75158522D01*
X69756351Y-74990808D01*
X69758502Y-74988655D01*
X69819818Y-74955156D01*
X69889511Y-74960124D01*
G37*
%TD.AperFunction*%
%TA.AperFunction,Conductor*%
G36*
X115252775Y-38319685D02*
G01*
X115298530Y-38372489D01*
X115308474Y-38441647D01*
X115279449Y-38505203D01*
X115241387Y-38534810D01*
X115157203Y-38577088D01*
X114865194Y-38769146D01*
X114865186Y-38769152D01*
X114597442Y-38993817D01*
X114597440Y-38993819D01*
X114357589Y-39248044D01*
X114357584Y-39248050D01*
X114148870Y-39528402D01*
X113974113Y-39831091D01*
X113974107Y-39831104D01*
X113835674Y-40152027D01*
X113735430Y-40486865D01*
X113735428Y-40486872D01*
X113674739Y-40831061D01*
X113674738Y-40831072D01*
X113654415Y-41179996D01*
X113654415Y-41180003D01*
X113674738Y-41528927D01*
X113674739Y-41528938D01*
X113735428Y-41873127D01*
X113735430Y-41873134D01*
X113835674Y-42207972D01*
X113974107Y-42528895D01*
X113974113Y-42528908D01*
X114148870Y-42831597D01*
X114357584Y-43111949D01*
X114357589Y-43111955D01*
X114367024Y-43121955D01*
X114597442Y-43366183D01*
X114634487Y-43397267D01*
X114865186Y-43590847D01*
X114865194Y-43590853D01*
X115157203Y-43782911D01*
X115447801Y-43928855D01*
X115469549Y-43939777D01*
X115797989Y-44059319D01*
X116138086Y-44139923D01*
X116485241Y-44180500D01*
X116485248Y-44180500D01*
X116834752Y-44180500D01*
X116834759Y-44180500D01*
X117181914Y-44139923D01*
X117522011Y-44059319D01*
X117850451Y-43939777D01*
X118162793Y-43782913D01*
X118260132Y-43718891D01*
X118454805Y-43590853D01*
X118454805Y-43590852D01*
X118454811Y-43590849D01*
X118722558Y-43366183D01*
X118962412Y-43111953D01*
X119008569Y-43049953D01*
X119131636Y-42884646D01*
X119187458Y-42842627D01*
X119257136Y-42837458D01*
X119318548Y-42870781D01*
X119352195Y-42932015D01*
X119355098Y-42958292D01*
X119495871Y-86391061D01*
X119476404Y-86458164D01*
X119423749Y-86504090D01*
X119354623Y-86514257D01*
X119290973Y-86485439D01*
X119253009Y-86426783D01*
X119249756Y-86412994D01*
X119234571Y-86326875D01*
X119234569Y-86326865D01*
X119227906Y-86304609D01*
X119134326Y-85992029D01*
X118995889Y-85671096D01*
X118821130Y-85368404D01*
X118821129Y-85368402D01*
X118612415Y-85088050D01*
X118612410Y-85088044D01*
X118488922Y-84957155D01*
X118372558Y-84833817D01*
X118224488Y-84709572D01*
X118104813Y-84609152D01*
X118104805Y-84609146D01*
X117812796Y-84417088D01*
X117500458Y-84260226D01*
X117500452Y-84260223D01*
X117172012Y-84140681D01*
X117172009Y-84140680D01*
X116831915Y-84060077D01*
X116788519Y-84055004D01*
X116484759Y-84019500D01*
X116135241Y-84019500D01*
X115831480Y-84055004D01*
X115788085Y-84060077D01*
X115788083Y-84060077D01*
X115447990Y-84140680D01*
X115447987Y-84140681D01*
X115119547Y-84260223D01*
X115119541Y-84260226D01*
X114807203Y-84417088D01*
X114515194Y-84609146D01*
X114515186Y-84609152D01*
X114247442Y-84833817D01*
X114247440Y-84833819D01*
X114007589Y-85088044D01*
X114007584Y-85088050D01*
X113798870Y-85368402D01*
X113624113Y-85671091D01*
X113624107Y-85671104D01*
X113485674Y-85992027D01*
X113385430Y-86326865D01*
X113385428Y-86326872D01*
X113324739Y-86671061D01*
X113324738Y-86671072D01*
X113304415Y-87019996D01*
X113304415Y-87020003D01*
X113324738Y-87368927D01*
X113324739Y-87368938D01*
X113385428Y-87713127D01*
X113385430Y-87713134D01*
X113485674Y-88047972D01*
X113624107Y-88368895D01*
X113624113Y-88368908D01*
X113798870Y-88671597D01*
X114007584Y-88951949D01*
X114007589Y-88951955D01*
X114131463Y-89083253D01*
X114247442Y-89206183D01*
X114406919Y-89340000D01*
X114515186Y-89430847D01*
X114515194Y-89430853D01*
X114807203Y-89622911D01*
X114807207Y-89622913D01*
X115119549Y-89779777D01*
X115447989Y-89899319D01*
X115788086Y-89979923D01*
X116135241Y-90020500D01*
X116135248Y-90020500D01*
X116484752Y-90020500D01*
X116484759Y-90020500D01*
X116831914Y-89979923D01*
X117172011Y-89899319D01*
X117500451Y-89779777D01*
X117812793Y-89622913D01*
X118104811Y-89430849D01*
X118372558Y-89206183D01*
X118612412Y-88951953D01*
X118821130Y-88671596D01*
X118995889Y-88368904D01*
X119134326Y-88047971D01*
X119234569Y-87713136D01*
X119253756Y-87604315D01*
X119284783Y-87541712D01*
X119344730Y-87505821D01*
X119414564Y-87508037D01*
X119472115Y-87547657D01*
X119499109Y-87612101D01*
X119499872Y-87625444D01*
X119509597Y-90625598D01*
X119490130Y-90692701D01*
X119437475Y-90738627D01*
X119385598Y-90750000D01*
X59243740Y-90750000D01*
X59176701Y-90730315D01*
X59130946Y-90677511D01*
X59119740Y-90626260D01*
X59118470Y-90020499D01*
X59104459Y-83340000D01*
X61500000Y-83340000D01*
X61500000Y-89340000D01*
X79500000Y-89340000D01*
X79500000Y-88167844D01*
X91375000Y-88167844D01*
X91381401Y-88227372D01*
X91381403Y-88227379D01*
X91431645Y-88362086D01*
X91431649Y-88362093D01*
X91517809Y-88477187D01*
X91517812Y-88477190D01*
X91632906Y-88563350D01*
X91632913Y-88563354D01*
X91767620Y-88613596D01*
X91767627Y-88613598D01*
X91827155Y-88619999D01*
X91827172Y-88620000D01*
X92150000Y-88620000D01*
X92150000Y-87854330D01*
X92169685Y-87787291D01*
X92222489Y-87741536D01*
X92291647Y-87731592D01*
X92314262Y-87737048D01*
X92337424Y-87745000D01*
X92431072Y-87745000D01*
X92431073Y-87745000D01*
X92505592Y-87732565D01*
X92574955Y-87740947D01*
X92628777Y-87785500D01*
X92649968Y-87852078D01*
X92650000Y-87854874D01*
X92650000Y-88620000D01*
X92972828Y-88620000D01*
X92972844Y-88619999D01*
X93032372Y-88613598D01*
X93032376Y-88613597D01*
X93167093Y-88563350D01*
X93174876Y-88559101D01*
X93176071Y-88561289D01*
X93229109Y-88541492D01*
X93273982Y-88546513D01*
X93275653Y-88547020D01*
X93275659Y-88547023D01*
X93468967Y-88605662D01*
X93670000Y-88625462D01*
X93871033Y-88605662D01*
X94064341Y-88547023D01*
X94242494Y-88451798D01*
X94242498Y-88451794D01*
X94246546Y-88449631D01*
X94314949Y-88435389D01*
X94363454Y-88449631D01*
X94367502Y-88451794D01*
X94367506Y-88451798D01*
X94545659Y-88547023D01*
X94738967Y-88605662D01*
X94940000Y-88625462D01*
X95141033Y-88605662D01*
X95334341Y-88547023D01*
X95512494Y-88451798D01*
X95581703Y-88395000D01*
X102484341Y-88395000D01*
X102504936Y-88630403D01*
X102504938Y-88630413D01*
X102566094Y-88858655D01*
X102566096Y-88858659D01*
X102566097Y-88858663D01*
X102609597Y-88951949D01*
X102665965Y-89072830D01*
X102665967Y-89072834D01*
X102759338Y-89206180D01*
X102801505Y-89266401D01*
X102968599Y-89433495D01*
X103065384Y-89501264D01*
X103162165Y-89569032D01*
X103162167Y-89569033D01*
X103162170Y-89569035D01*
X103376337Y-89668903D01*
X103604592Y-89730063D01*
X103792918Y-89746539D01*
X103839999Y-89750659D01*
X103840000Y-89750659D01*
X103840001Y-89750659D01*
X103879234Y-89747226D01*
X104075408Y-89730063D01*
X104303663Y-89668903D01*
X104517830Y-89569035D01*
X104711401Y-89433495D01*
X104878495Y-89266401D01*
X105014035Y-89072830D01*
X105113903Y-88858663D01*
X105175063Y-88630408D01*
X105195659Y-88395000D01*
X105175063Y-88159592D01*
X105113903Y-87931337D01*
X105014035Y-87717171D01*
X105011208Y-87713134D01*
X104878496Y-87523600D01*
X104818226Y-87463330D01*
X104756179Y-87401283D01*
X104722696Y-87339963D01*
X104727680Y-87270271D01*
X104769551Y-87214337D01*
X104800529Y-87197422D01*
X104932086Y-87148354D01*
X104932093Y-87148350D01*
X105047187Y-87062190D01*
X105047190Y-87062187D01*
X105133350Y-86947093D01*
X105133354Y-86947086D01*
X105183596Y-86812379D01*
X105183598Y-86812372D01*
X105189999Y-86752844D01*
X105190000Y-86752827D01*
X105190000Y-86105000D01*
X104453347Y-86105000D01*
X104386308Y-86085315D01*
X104340553Y-86032511D01*
X104330609Y-85963353D01*
X104334369Y-85946067D01*
X104340000Y-85926888D01*
X104340000Y-85783111D01*
X104334369Y-85763933D01*
X104334370Y-85694064D01*
X104372145Y-85635286D01*
X104435701Y-85606262D01*
X104453347Y-85605000D01*
X105190000Y-85605000D01*
X105190000Y-84957172D01*
X105189999Y-84957155D01*
X105183598Y-84897627D01*
X105183596Y-84897620D01*
X105133354Y-84762913D01*
X105133350Y-84762906D01*
X105047190Y-84647812D01*
X105047187Y-84647809D01*
X104932093Y-84561649D01*
X104932086Y-84561645D01*
X104797379Y-84511403D01*
X104797372Y-84511401D01*
X104737844Y-84505000D01*
X104090000Y-84505000D01*
X104090000Y-85242698D01*
X104070315Y-85309737D01*
X104017511Y-85355492D01*
X103948355Y-85365436D01*
X103875766Y-85355000D01*
X103875763Y-85355000D01*
X103804237Y-85355000D01*
X103804233Y-85355000D01*
X103731645Y-85365436D01*
X103662487Y-85355492D01*
X103609684Y-85309736D01*
X103590000Y-85242698D01*
X103590000Y-84505000D01*
X102942155Y-84505000D01*
X102882627Y-84511401D01*
X102882620Y-84511403D01*
X102747913Y-84561645D01*
X102747906Y-84561649D01*
X102632812Y-84647809D01*
X102632809Y-84647812D01*
X102546649Y-84762906D01*
X102546645Y-84762913D01*
X102496403Y-84897620D01*
X102496401Y-84897627D01*
X102490000Y-84957155D01*
X102490000Y-85605000D01*
X103226653Y-85605000D01*
X103293692Y-85624685D01*
X103339447Y-85677489D01*
X103349391Y-85746647D01*
X103345631Y-85763933D01*
X103340000Y-85783111D01*
X103340000Y-85926888D01*
X103345631Y-85946067D01*
X103345630Y-86015936D01*
X103307855Y-86074714D01*
X103244299Y-86103738D01*
X103226653Y-86105000D01*
X102490000Y-86105000D01*
X102490000Y-86752844D01*
X102496401Y-86812372D01*
X102496403Y-86812379D01*
X102546645Y-86947086D01*
X102546649Y-86947093D01*
X102632809Y-87062187D01*
X102632812Y-87062190D01*
X102747906Y-87148350D01*
X102747913Y-87148354D01*
X102879470Y-87197421D01*
X102935403Y-87239292D01*
X102959821Y-87304756D01*
X102944970Y-87373029D01*
X102923819Y-87401284D01*
X102801503Y-87523600D01*
X102665965Y-87717169D01*
X102665964Y-87717171D01*
X102566098Y-87931335D01*
X102566094Y-87931344D01*
X102504938Y-88159586D01*
X102504936Y-88159596D01*
X102484341Y-88394999D01*
X102484341Y-88395000D01*
X95581703Y-88395000D01*
X95668647Y-88323647D01*
X95796798Y-88167494D01*
X95892023Y-87989341D01*
X95950662Y-87796033D01*
X95965500Y-87645380D01*
X95965500Y-87094620D01*
X95950662Y-86943967D01*
X95892023Y-86750659D01*
X95892021Y-86750656D01*
X95892021Y-86750654D01*
X95796801Y-86572511D01*
X95796799Y-86572509D01*
X95796798Y-86572506D01*
X95757824Y-86525016D01*
X95668647Y-86416352D01*
X95512495Y-86288203D01*
X95512488Y-86288198D01*
X95334345Y-86192978D01*
X95141031Y-86134337D01*
X94940000Y-86114538D01*
X94738968Y-86134337D01*
X94545654Y-86192978D01*
X94363453Y-86290367D01*
X94295050Y-86304609D01*
X94246547Y-86290367D01*
X94064345Y-86192978D01*
X93871031Y-86134337D01*
X93691962Y-86116701D01*
X93670000Y-86114538D01*
X93669999Y-86114538D01*
X93468968Y-86134337D01*
X93331371Y-86176076D01*
X93275659Y-86192977D01*
X93275657Y-86192977D01*
X93273982Y-86193486D01*
X93204115Y-86194109D01*
X93175414Y-86179902D01*
X93174872Y-86180897D01*
X93167086Y-86176645D01*
X93032379Y-86126403D01*
X93032372Y-86126401D01*
X92972844Y-86120000D01*
X92650000Y-86120000D01*
X92650000Y-86885669D01*
X92630315Y-86952708D01*
X92577511Y-86998463D01*
X92508353Y-87008407D01*
X92485740Y-87002951D01*
X92462578Y-86995000D01*
X92462576Y-86995000D01*
X92368927Y-86995000D01*
X92368926Y-86995000D01*
X92294408Y-87007434D01*
X92225043Y-86999052D01*
X92171222Y-86954498D01*
X92150031Y-86887919D01*
X92150000Y-86885125D01*
X92150000Y-86120000D01*
X91827155Y-86120000D01*
X91767627Y-86126401D01*
X91767620Y-86126403D01*
X91632913Y-86176645D01*
X91632906Y-86176649D01*
X91517812Y-86262809D01*
X91517809Y-86262812D01*
X91431649Y-86377906D01*
X91431645Y-86377913D01*
X91381403Y-86512620D01*
X91381401Y-86512627D01*
X91375000Y-86572155D01*
X91375000Y-87120000D01*
X91911808Y-87120000D01*
X91978847Y-87139685D01*
X92024602Y-87192489D01*
X92034546Y-87261647D01*
X92032013Y-87274441D01*
X92031448Y-87276670D01*
X92021113Y-87401392D01*
X92037363Y-87465560D01*
X92034738Y-87535381D01*
X91994781Y-87592698D01*
X91930180Y-87619314D01*
X91917157Y-87620000D01*
X91375000Y-87620000D01*
X91375000Y-88167844D01*
X79500000Y-88167844D01*
X79500000Y-83340000D01*
X61500000Y-83340000D01*
X59104459Y-83340000D01*
X59083969Y-73570000D01*
X62704540Y-73570000D01*
X62724326Y-73758256D01*
X62724327Y-73758259D01*
X62782818Y-73938277D01*
X62782821Y-73938284D01*
X62877467Y-74102216D01*
X62913515Y-74142251D01*
X62952650Y-74185715D01*
X62982880Y-74248706D01*
X62984500Y-74268687D01*
X62984500Y-75547255D01*
X62982775Y-75562872D01*
X62983061Y-75562899D01*
X62982326Y-75570665D01*
X62984500Y-75639814D01*
X62984500Y-75669343D01*
X62984501Y-75669360D01*
X62985368Y-75676231D01*
X62985826Y-75682050D01*
X62987290Y-75728624D01*
X62987291Y-75728627D01*
X62992880Y-75747867D01*
X62996824Y-75766911D01*
X62999336Y-75786792D01*
X63013068Y-75821476D01*
X63016490Y-75830119D01*
X63018382Y-75835647D01*
X63023561Y-75853474D01*
X63031382Y-75880390D01*
X63039726Y-75894500D01*
X63041580Y-75897634D01*
X63050136Y-75915100D01*
X63052265Y-75920475D01*
X63057514Y-75933732D01*
X63084898Y-75971423D01*
X63088106Y-75976307D01*
X63111827Y-76016416D01*
X63111833Y-76016424D01*
X63125990Y-76030580D01*
X63138628Y-76045376D01*
X63150405Y-76061586D01*
X63150406Y-76061587D01*
X63186309Y-76091288D01*
X63190620Y-76095210D01*
X66009996Y-78914586D01*
X68769194Y-81673784D01*
X68779019Y-81686048D01*
X68779240Y-81685866D01*
X68784210Y-81691873D01*
X68784213Y-81691876D01*
X68784214Y-81691877D01*
X68834651Y-81739241D01*
X68855530Y-81760120D01*
X68861004Y-81764366D01*
X68865442Y-81768156D01*
X68899418Y-81800062D01*
X68899422Y-81800064D01*
X68916973Y-81809713D01*
X68933231Y-81820392D01*
X68949064Y-81832674D01*
X68971015Y-81842172D01*
X68991837Y-81851183D01*
X68997081Y-81853752D01*
X69037908Y-81876197D01*
X69057312Y-81881179D01*
X69075710Y-81887478D01*
X69094105Y-81895438D01*
X69140129Y-81902726D01*
X69145832Y-81903907D01*
X69190981Y-81915500D01*
X69211016Y-81915500D01*
X69230413Y-81917026D01*
X69250196Y-81920160D01*
X69296583Y-81915775D01*
X69302422Y-81915500D01*
X81029153Y-81915500D01*
X81052385Y-81917696D01*
X81053989Y-81918001D01*
X81060412Y-81919227D01*
X81117724Y-81915621D01*
X81121597Y-81915500D01*
X81139342Y-81915500D01*
X81139350Y-81915500D01*
X81156990Y-81913271D01*
X81160807Y-81912910D01*
X81218138Y-81909304D01*
X81225905Y-81906780D01*
X81248680Y-81901688D01*
X81256792Y-81900664D01*
X81310195Y-81879519D01*
X81313835Y-81878209D01*
X81368441Y-81860467D01*
X81375337Y-81856090D01*
X81396133Y-81845494D01*
X81403732Y-81842486D01*
X81450191Y-81808730D01*
X81453390Y-81806555D01*
X81501877Y-81775786D01*
X81507466Y-81769833D01*
X81524979Y-81754394D01*
X81531587Y-81749594D01*
X81568190Y-81705347D01*
X81570736Y-81702457D01*
X81610062Y-81660582D01*
X81613998Y-81653421D01*
X81627119Y-81634114D01*
X81632324Y-81627823D01*
X81656769Y-81575874D01*
X81658528Y-81572419D01*
X81686197Y-81522092D01*
X81686198Y-81522084D01*
X81689067Y-81514842D01*
X81690348Y-81515349D01*
X81718369Y-81466219D01*
X83207771Y-79976819D01*
X83269095Y-79943334D01*
X83295453Y-79940500D01*
X83354644Y-79940500D01*
X83354646Y-79940500D01*
X83539803Y-79901144D01*
X83712730Y-79824151D01*
X83865871Y-79712888D01*
X83992533Y-79572216D01*
X84087179Y-79408284D01*
X84145674Y-79228256D01*
X84153899Y-79150000D01*
X84634341Y-79150000D01*
X84654936Y-79385403D01*
X84654938Y-79385413D01*
X84716094Y-79613655D01*
X84716096Y-79613659D01*
X84716097Y-79613663D01*
X84762367Y-79712888D01*
X84815965Y-79827830D01*
X84815967Y-79827834D01*
X84951501Y-80021395D01*
X84951506Y-80021402D01*
X85118597Y-80188493D01*
X85118603Y-80188498D01*
X85304594Y-80318730D01*
X85348219Y-80373307D01*
X85355413Y-80442805D01*
X85323890Y-80505160D01*
X85304595Y-80521880D01*
X85118922Y-80651890D01*
X85118920Y-80651891D01*
X84951891Y-80818920D01*
X84951886Y-80818926D01*
X84816400Y-81012420D01*
X84816399Y-81012422D01*
X84716570Y-81226507D01*
X84716567Y-81226513D01*
X84659364Y-81439999D01*
X84659364Y-81440000D01*
X85376653Y-81440000D01*
X85443692Y-81459685D01*
X85489447Y-81512489D01*
X85499391Y-81581647D01*
X85495631Y-81598933D01*
X85490000Y-81618111D01*
X85490000Y-81761888D01*
X85495631Y-81781067D01*
X85495630Y-81850936D01*
X85457855Y-81909714D01*
X85394299Y-81938738D01*
X85376653Y-81940000D01*
X84659364Y-81940000D01*
X84716567Y-82153486D01*
X84716570Y-82153492D01*
X84816399Y-82367578D01*
X84951894Y-82561082D01*
X85118917Y-82728105D01*
X85312421Y-82863600D01*
X85526507Y-82963429D01*
X85526516Y-82963433D01*
X85740000Y-83020634D01*
X85740000Y-82302301D01*
X85759685Y-82235262D01*
X85812489Y-82189507D01*
X85881647Y-82179563D01*
X85954237Y-82190000D01*
X85954238Y-82190000D01*
X86025762Y-82190000D01*
X86025763Y-82190000D01*
X86098353Y-82179563D01*
X86167512Y-82189507D01*
X86220315Y-82235262D01*
X86240000Y-82302301D01*
X86240000Y-83020633D01*
X86453483Y-82963433D01*
X86453492Y-82963429D01*
X86667578Y-82863600D01*
X86861082Y-82728105D01*
X87028105Y-82561082D01*
X87163600Y-82367578D01*
X87263429Y-82153492D01*
X87263432Y-82153486D01*
X87301879Y-82010000D01*
X111034357Y-82010000D01*
X111054884Y-82231535D01*
X111054885Y-82231537D01*
X111115769Y-82445523D01*
X111115775Y-82445538D01*
X111214938Y-82644683D01*
X111214943Y-82644691D01*
X111349020Y-82822238D01*
X111513437Y-82972123D01*
X111513439Y-82972125D01*
X111702595Y-83089245D01*
X111702596Y-83089245D01*
X111702599Y-83089247D01*
X111910060Y-83169618D01*
X112128757Y-83210500D01*
X112128759Y-83210500D01*
X112351241Y-83210500D01*
X112351243Y-83210500D01*
X112569940Y-83169618D01*
X112777401Y-83089247D01*
X112966562Y-82972124D01*
X113130981Y-82822236D01*
X113265058Y-82644689D01*
X113364229Y-82445528D01*
X113425115Y-82231536D01*
X113445643Y-82010000D01*
X116114357Y-82010000D01*
X116134884Y-82231535D01*
X116134885Y-82231537D01*
X116195769Y-82445523D01*
X116195775Y-82445538D01*
X116294938Y-82644683D01*
X116294943Y-82644691D01*
X116429020Y-82822238D01*
X116593437Y-82972123D01*
X116593439Y-82972125D01*
X116782595Y-83089245D01*
X116782596Y-83089245D01*
X116782599Y-83089247D01*
X116990060Y-83169618D01*
X117208757Y-83210500D01*
X117208759Y-83210500D01*
X117431241Y-83210500D01*
X117431243Y-83210500D01*
X117649940Y-83169618D01*
X117857401Y-83089247D01*
X118046562Y-82972124D01*
X118210981Y-82822236D01*
X118345058Y-82644689D01*
X118444229Y-82445528D01*
X118505115Y-82231536D01*
X118525643Y-82010000D01*
X118513486Y-81878808D01*
X118505115Y-81788464D01*
X118505114Y-81788462D01*
X118501507Y-81775786D01*
X118444229Y-81574472D01*
X118443198Y-81572401D01*
X118345061Y-81375316D01*
X118345056Y-81375308D01*
X118210979Y-81197761D01*
X118046562Y-81047876D01*
X118046560Y-81047874D01*
X117857404Y-80930754D01*
X117857398Y-80930752D01*
X117649940Y-80850382D01*
X117431243Y-80809500D01*
X117208757Y-80809500D01*
X116990060Y-80850382D01*
X116858864Y-80901207D01*
X116782601Y-80930752D01*
X116782595Y-80930754D01*
X116593439Y-81047874D01*
X116593437Y-81047876D01*
X116429020Y-81197761D01*
X116294943Y-81375308D01*
X116294938Y-81375316D01*
X116195775Y-81574461D01*
X116195769Y-81574476D01*
X116134885Y-81788462D01*
X116134884Y-81788464D01*
X116114357Y-82009999D01*
X116114357Y-82010000D01*
X113445643Y-82010000D01*
X113433486Y-81878808D01*
X113425115Y-81788464D01*
X113425114Y-81788462D01*
X113421507Y-81775786D01*
X113364229Y-81574472D01*
X113363198Y-81572401D01*
X113265061Y-81375316D01*
X113265056Y-81375308D01*
X113130979Y-81197761D01*
X112966562Y-81047876D01*
X112966560Y-81047874D01*
X112777404Y-80930754D01*
X112777398Y-80930752D01*
X112569940Y-80850382D01*
X112351243Y-80809500D01*
X112128757Y-80809500D01*
X111910060Y-80850382D01*
X111778864Y-80901207D01*
X111702601Y-80930752D01*
X111702595Y-80930754D01*
X111513439Y-81047874D01*
X111513437Y-81047876D01*
X111349020Y-81197761D01*
X111214943Y-81375308D01*
X111214938Y-81375316D01*
X111115775Y-81574461D01*
X111115769Y-81574476D01*
X111054885Y-81788462D01*
X111054884Y-81788464D01*
X111034357Y-82009999D01*
X111034357Y-82010000D01*
X87301879Y-82010000D01*
X87320636Y-81940000D01*
X86603347Y-81940000D01*
X86536308Y-81920315D01*
X86490553Y-81867511D01*
X86480609Y-81798353D01*
X86484369Y-81781067D01*
X86490000Y-81761888D01*
X86490000Y-81618111D01*
X86484369Y-81598933D01*
X86484370Y-81529064D01*
X86522145Y-81470286D01*
X86585701Y-81441262D01*
X86603347Y-81440000D01*
X87320636Y-81440000D01*
X87320635Y-81439999D01*
X87263432Y-81226513D01*
X87263429Y-81226507D01*
X87163600Y-81012422D01*
X87163599Y-81012420D01*
X87028113Y-80818926D01*
X87028108Y-80818920D01*
X86861078Y-80651890D01*
X86675405Y-80521879D01*
X86631780Y-80467302D01*
X86624588Y-80397804D01*
X86656110Y-80335449D01*
X86675406Y-80318730D01*
X86861401Y-80188495D01*
X87028495Y-80021401D01*
X87164035Y-79827830D01*
X87263903Y-79613663D01*
X87325063Y-79385408D01*
X87345659Y-79150000D01*
X87325063Y-78914592D01*
X87263903Y-78686337D01*
X87164035Y-78472171D01*
X87090473Y-78367112D01*
X87078491Y-78350000D01*
X111184357Y-78350000D01*
X111204884Y-78571535D01*
X111204885Y-78571537D01*
X111265769Y-78785523D01*
X111265775Y-78785538D01*
X111364938Y-78984683D01*
X111364943Y-78984691D01*
X111499020Y-79162238D01*
X111663437Y-79312123D01*
X111663439Y-79312125D01*
X111852595Y-79429245D01*
X111852596Y-79429245D01*
X111852599Y-79429247D01*
X112060060Y-79509618D01*
X112278757Y-79550500D01*
X112278759Y-79550500D01*
X112501241Y-79550500D01*
X112501243Y-79550500D01*
X112719940Y-79509618D01*
X112927401Y-79429247D01*
X113116562Y-79312124D01*
X113280981Y-79162236D01*
X113415058Y-78984689D01*
X113514229Y-78785528D01*
X113575115Y-78571536D01*
X113595643Y-78350000D01*
X116264357Y-78350000D01*
X116284884Y-78571535D01*
X116284885Y-78571537D01*
X116345769Y-78785523D01*
X116345775Y-78785538D01*
X116444938Y-78984683D01*
X116444943Y-78984691D01*
X116579020Y-79162238D01*
X116743437Y-79312123D01*
X116743439Y-79312125D01*
X116932595Y-79429245D01*
X116932596Y-79429245D01*
X116932599Y-79429247D01*
X117140060Y-79509618D01*
X117358757Y-79550500D01*
X117358759Y-79550500D01*
X117581241Y-79550500D01*
X117581243Y-79550500D01*
X117799940Y-79509618D01*
X118007401Y-79429247D01*
X118196562Y-79312124D01*
X118360981Y-79162236D01*
X118495058Y-78984689D01*
X118594229Y-78785528D01*
X118655115Y-78571536D01*
X118675643Y-78350000D01*
X118655115Y-78128464D01*
X118594229Y-77914472D01*
X118577064Y-77880000D01*
X118495061Y-77715316D01*
X118495056Y-77715308D01*
X118360979Y-77537761D01*
X118196562Y-77387876D01*
X118196560Y-77387874D01*
X118007404Y-77270754D01*
X118007398Y-77270752D01*
X117799940Y-77190382D01*
X117581243Y-77149500D01*
X117358757Y-77149500D01*
X117140060Y-77190382D01*
X117008864Y-77241207D01*
X116932601Y-77270752D01*
X116932595Y-77270754D01*
X116743439Y-77387874D01*
X116743437Y-77387876D01*
X116579020Y-77537761D01*
X116444943Y-77715308D01*
X116444938Y-77715316D01*
X116345775Y-77914461D01*
X116345769Y-77914476D01*
X116284885Y-78128462D01*
X116284884Y-78128464D01*
X116264357Y-78349999D01*
X116264357Y-78350000D01*
X113595643Y-78350000D01*
X113575115Y-78128464D01*
X113514229Y-77914472D01*
X113497064Y-77880000D01*
X113415061Y-77715316D01*
X113415056Y-77715308D01*
X113280979Y-77537761D01*
X113116562Y-77387876D01*
X113116560Y-77387874D01*
X112927404Y-77270754D01*
X112927398Y-77270752D01*
X112719940Y-77190382D01*
X112501243Y-77149500D01*
X112278757Y-77149500D01*
X112060060Y-77190382D01*
X111928864Y-77241207D01*
X111852601Y-77270752D01*
X111852595Y-77270754D01*
X111663439Y-77387874D01*
X111663437Y-77387876D01*
X111499020Y-77537761D01*
X111364943Y-77715308D01*
X111364938Y-77715316D01*
X111265775Y-77914461D01*
X111265769Y-77914476D01*
X111204885Y-78128462D01*
X111204884Y-78128464D01*
X111184357Y-78349999D01*
X111184357Y-78350000D01*
X87078491Y-78350000D01*
X87028494Y-78278597D01*
X86861402Y-78111506D01*
X86861396Y-78111501D01*
X86675842Y-77981575D01*
X86632217Y-77926998D01*
X86625023Y-77857500D01*
X86656546Y-77795145D01*
X86675842Y-77778425D01*
X86765982Y-77715308D01*
X86861401Y-77648495D01*
X87028495Y-77481401D01*
X87164035Y-77287830D01*
X87263903Y-77073663D01*
X87325063Y-76845408D01*
X87345659Y-76610000D01*
X87342782Y-76577122D01*
X87332143Y-76455514D01*
X87325063Y-76374592D01*
X87271960Y-76176406D01*
X87263905Y-76146344D01*
X87263904Y-76146343D01*
X87263903Y-76146337D01*
X87164035Y-75932171D01*
X87155845Y-75920475D01*
X87028496Y-75738600D01*
X86969026Y-75679130D01*
X86906567Y-75616671D01*
X86873084Y-75555351D01*
X86878068Y-75485659D01*
X86919939Y-75429725D01*
X86950915Y-75412810D01*
X87082331Y-75363796D01*
X87197546Y-75277546D01*
X87197549Y-75277543D01*
X87283793Y-75162335D01*
X87283792Y-75162335D01*
X87283796Y-75162331D01*
X87334091Y-75027483D01*
X87340500Y-74967873D01*
X87340500Y-74660005D01*
X87694858Y-74660005D01*
X87715385Y-74907729D01*
X87715387Y-74907738D01*
X87776412Y-75148717D01*
X87876266Y-75376364D01*
X87976564Y-75529882D01*
X88591050Y-74915395D01*
X88652373Y-74881910D01*
X88722064Y-74886894D01*
X88777998Y-74928765D01*
X88783039Y-74936025D01*
X88818239Y-74990798D01*
X88914821Y-75074486D01*
X88933602Y-75090759D01*
X88931293Y-75093422D01*
X88966006Y-75133499D01*
X88975935Y-75202660D01*
X88946898Y-75266210D01*
X88940882Y-75272669D01*
X88329942Y-75883609D01*
X88376768Y-75920055D01*
X88376770Y-75920056D01*
X88595385Y-76038364D01*
X88595396Y-76038369D01*
X88830506Y-76119083D01*
X89075707Y-76160000D01*
X89324293Y-76160000D01*
X89569493Y-76119083D01*
X89804603Y-76038369D01*
X89804614Y-76038364D01*
X90023228Y-75920057D01*
X90023231Y-75920055D01*
X90070056Y-75883609D01*
X89459116Y-75272669D01*
X89425631Y-75211346D01*
X89430615Y-75141654D01*
X89467641Y-75092193D01*
X89466398Y-75090759D01*
X89473589Y-75084528D01*
X89581761Y-74990798D01*
X89616954Y-74936037D01*
X89669755Y-74890283D01*
X89738914Y-74880339D01*
X89802470Y-74909363D01*
X89808949Y-74915396D01*
X90423434Y-75529882D01*
X90523731Y-75376369D01*
X90623587Y-75148717D01*
X90684612Y-74907738D01*
X90684614Y-74907729D01*
X90705141Y-74660005D01*
X90705141Y-74659994D01*
X90684614Y-74412270D01*
X90684612Y-74412261D01*
X90623587Y-74171282D01*
X90523731Y-73943630D01*
X90423434Y-73790116D01*
X89808949Y-74404602D01*
X89747626Y-74438087D01*
X89677934Y-74433103D01*
X89622001Y-74391231D01*
X89616953Y-74383961D01*
X89581761Y-74329202D01*
X89511922Y-74268687D01*
X89473100Y-74235048D01*
X89473099Y-74235047D01*
X89466398Y-74229241D01*
X89468698Y-74226585D01*
X89433960Y-74186428D01*
X89424074Y-74117261D01*
X89453152Y-74053729D01*
X89459116Y-74047329D01*
X90070056Y-73436389D01*
X90023229Y-73399943D01*
X89804614Y-73281635D01*
X89804603Y-73281630D01*
X89569493Y-73200916D01*
X89324293Y-73160000D01*
X89075707Y-73160000D01*
X88830506Y-73200916D01*
X88595396Y-73281630D01*
X88595390Y-73281632D01*
X88376761Y-73399949D01*
X88329942Y-73436388D01*
X88329942Y-73436390D01*
X88940883Y-74047330D01*
X88974368Y-74108653D01*
X88969384Y-74178344D01*
X88932358Y-74227805D01*
X88933602Y-74229241D01*
X88926900Y-74235047D01*
X88926900Y-74235048D01*
X88908879Y-74250662D01*
X88818238Y-74329202D01*
X88783046Y-74383962D01*
X88730242Y-74429717D01*
X88661083Y-74439660D01*
X88597528Y-74410634D01*
X88591050Y-74404603D01*
X87976564Y-73790116D01*
X87876267Y-73943632D01*
X87776412Y-74171282D01*
X87715387Y-74412261D01*
X87715385Y-74412270D01*
X87694858Y-74659994D01*
X87694858Y-74660005D01*
X87340500Y-74660005D01*
X87340499Y-73172128D01*
X87334091Y-73112517D01*
X87306217Y-73037784D01*
X87283797Y-72977671D01*
X87283793Y-72977664D01*
X87197547Y-72862455D01*
X87197544Y-72862452D01*
X87082335Y-72776206D01*
X87082328Y-72776202D01*
X86947482Y-72725908D01*
X86947483Y-72725908D01*
X86887883Y-72719501D01*
X86887881Y-72719500D01*
X86887873Y-72719500D01*
X86887864Y-72719500D01*
X85092129Y-72719500D01*
X85092123Y-72719501D01*
X85032516Y-72725908D01*
X84897671Y-72776202D01*
X84897664Y-72776206D01*
X84782455Y-72862452D01*
X84782452Y-72862455D01*
X84696206Y-72977664D01*
X84696202Y-72977671D01*
X84645908Y-73112517D01*
X84639501Y-73172116D01*
X84639501Y-73172123D01*
X84639500Y-73172135D01*
X84639500Y-74967870D01*
X84639501Y-74967876D01*
X84645908Y-75027483D01*
X84696202Y-75162328D01*
X84696206Y-75162335D01*
X84782451Y-75277543D01*
X84782454Y-75277546D01*
X84897664Y-75363793D01*
X84897671Y-75363797D01*
X85029081Y-75412810D01*
X85085015Y-75454681D01*
X85109432Y-75520145D01*
X85094580Y-75588418D01*
X85073430Y-75616673D01*
X84951503Y-75738600D01*
X84815965Y-75932169D01*
X84815964Y-75932171D01*
X84716098Y-76146335D01*
X84716094Y-76146344D01*
X84654939Y-76374585D01*
X84654936Y-76374596D01*
X84634341Y-76609999D01*
X84634341Y-76610000D01*
X84654936Y-76845403D01*
X84654938Y-76845413D01*
X84716094Y-77073655D01*
X84716096Y-77073659D01*
X84716097Y-77073663D01*
X84771693Y-77192888D01*
X84815965Y-77287830D01*
X84815967Y-77287834D01*
X84908862Y-77420500D01*
X84947638Y-77475879D01*
X84951501Y-77481395D01*
X84951506Y-77481402D01*
X85118597Y-77648493D01*
X85118603Y-77648498D01*
X85304158Y-77778425D01*
X85347783Y-77833002D01*
X85354977Y-77902500D01*
X85323454Y-77964855D01*
X85304158Y-77981575D01*
X85118597Y-78111505D01*
X84951505Y-78278597D01*
X84815965Y-78472169D01*
X84815964Y-78472171D01*
X84716098Y-78686335D01*
X84716094Y-78686344D01*
X84654938Y-78914586D01*
X84654936Y-78914596D01*
X84634341Y-79149999D01*
X84634341Y-79150000D01*
X84153899Y-79150000D01*
X84165460Y-79040000D01*
X84145674Y-78851744D01*
X84087179Y-78671716D01*
X83992533Y-78507784D01*
X83865871Y-78367112D01*
X83865870Y-78367111D01*
X83712734Y-78255851D01*
X83712729Y-78255848D01*
X83539807Y-78178857D01*
X83539802Y-78178855D01*
X83394000Y-78147865D01*
X83354646Y-78139500D01*
X83165354Y-78139500D01*
X83132897Y-78146398D01*
X82980197Y-78178855D01*
X82980192Y-78178857D01*
X82807270Y-78255848D01*
X82807265Y-78255851D01*
X82654129Y-78367111D01*
X82527466Y-78507785D01*
X82432821Y-78671715D01*
X82432818Y-78671722D01*
X82374327Y-78851740D01*
X82374326Y-78851744D01*
X82360354Y-78984683D01*
X82356679Y-79019649D01*
X82330094Y-79084263D01*
X82321039Y-79094368D01*
X80787228Y-80628181D01*
X80725905Y-80661666D01*
X80699547Y-80664500D01*
X69580452Y-80664500D01*
X69513413Y-80644815D01*
X69492771Y-80628181D01*
X65454590Y-76590000D01*
X67734859Y-76590000D01*
X67755348Y-76758748D01*
X67755349Y-76758751D01*
X67815629Y-76917694D01*
X67821278Y-76925879D01*
X68108523Y-76638634D01*
X68169846Y-76605149D01*
X68239537Y-76610133D01*
X68295471Y-76652004D01*
X68303592Y-76664316D01*
X68305515Y-76667647D01*
X68362352Y-76724484D01*
X68365681Y-76726406D01*
X68413898Y-76776972D01*
X68427123Y-76845579D01*
X68401156Y-76910444D01*
X68391365Y-76921476D01*
X68107039Y-77205800D01*
X68189954Y-77249318D01*
X68189956Y-77249319D01*
X68229192Y-77258989D01*
X68289573Y-77294144D01*
X68315461Y-77335414D01*
X68365629Y-77467694D01*
X68371278Y-77475879D01*
X68658523Y-77188634D01*
X68719846Y-77155149D01*
X68789537Y-77160133D01*
X68845471Y-77202004D01*
X68853592Y-77214316D01*
X68855515Y-77217647D01*
X68912352Y-77274484D01*
X68915681Y-77276406D01*
X68963898Y-77326972D01*
X68977123Y-77395579D01*
X68951156Y-77460444D01*
X68941365Y-77471476D01*
X68657039Y-77755800D01*
X68739951Y-77799317D01*
X68905006Y-77840000D01*
X69074994Y-77840000D01*
X69240046Y-77799317D01*
X69322959Y-77755800D01*
X69038635Y-77471476D01*
X69005150Y-77410153D01*
X69010134Y-77340461D01*
X69052006Y-77284528D01*
X69064316Y-77276408D01*
X69067642Y-77274487D01*
X69067642Y-77274486D01*
X69067645Y-77274486D01*
X69124486Y-77217646D01*
X69124487Y-77217640D01*
X69126407Y-77214317D01*
X69176974Y-77166101D01*
X69245581Y-77152877D01*
X69310446Y-77178845D01*
X69321476Y-77188634D01*
X69540000Y-77407157D01*
X69758523Y-77188634D01*
X69819846Y-77155149D01*
X69889537Y-77160133D01*
X69945471Y-77202004D01*
X69953592Y-77214316D01*
X69955515Y-77217647D01*
X70012352Y-77274484D01*
X70015681Y-77276406D01*
X70063898Y-77326972D01*
X70077123Y-77395579D01*
X70051156Y-77460444D01*
X70041365Y-77471476D01*
X69757039Y-77755800D01*
X69839951Y-77799317D01*
X70005006Y-77840000D01*
X70174994Y-77840000D01*
X70340046Y-77799317D01*
X70422959Y-77755800D01*
X70138635Y-77471476D01*
X70105150Y-77410153D01*
X70110134Y-77340461D01*
X70152006Y-77284528D01*
X70164316Y-77276408D01*
X70167642Y-77274487D01*
X70167642Y-77274486D01*
X70167645Y-77274486D01*
X70224486Y-77217646D01*
X70224487Y-77217639D01*
X70226406Y-77214318D01*
X70276971Y-77166101D01*
X70345578Y-77152876D01*
X70410444Y-77178842D01*
X70421476Y-77188634D01*
X70708720Y-77475879D01*
X70708720Y-77475878D01*
X70714370Y-77467695D01*
X70714370Y-77467694D01*
X70764538Y-77335415D01*
X70806716Y-77279712D01*
X70850808Y-77258989D01*
X70890043Y-77249319D01*
X70972959Y-77205800D01*
X70688634Y-76921476D01*
X70655149Y-76860153D01*
X70660133Y-76790462D01*
X70702004Y-76734528D01*
X70714318Y-76726406D01*
X70717639Y-76724487D01*
X70717645Y-76724486D01*
X70774486Y-76667646D01*
X70774487Y-76667640D01*
X70776407Y-76664317D01*
X70826974Y-76616101D01*
X70895581Y-76602877D01*
X70960446Y-76628845D01*
X70971476Y-76638635D01*
X71258720Y-76925879D01*
X71258720Y-76925878D01*
X71264369Y-76917696D01*
X71324650Y-76758751D01*
X71324651Y-76758748D01*
X71345141Y-76590000D01*
X71345141Y-76589999D01*
X71324651Y-76421251D01*
X71324650Y-76421245D01*
X71264371Y-76262304D01*
X71258721Y-76254119D01*
X70971476Y-76541365D01*
X70910153Y-76574850D01*
X70840461Y-76569866D01*
X70784528Y-76527994D01*
X70776406Y-76515681D01*
X70774484Y-76512352D01*
X70717647Y-76455515D01*
X70714316Y-76453592D01*
X70666100Y-76403025D01*
X70652876Y-76334418D01*
X70678844Y-76269553D01*
X70688634Y-76258523D01*
X70907157Y-76040000D01*
X70907157Y-76039999D01*
X70688634Y-75821476D01*
X70655149Y-75760153D01*
X70660133Y-75690461D01*
X70702005Y-75634528D01*
X70714318Y-75626406D01*
X70717639Y-75624487D01*
X70717645Y-75624486D01*
X70774486Y-75567646D01*
X70774487Y-75567640D01*
X70776407Y-75564317D01*
X70826974Y-75516101D01*
X70895581Y-75502877D01*
X70960446Y-75528845D01*
X70971476Y-75538635D01*
X71258720Y-75825879D01*
X71258720Y-75825878D01*
X71264369Y-75817696D01*
X71324650Y-75658751D01*
X71324651Y-75658748D01*
X71345141Y-75490000D01*
X71345141Y-75489999D01*
X71324651Y-75321251D01*
X71324650Y-75321245D01*
X71264371Y-75162304D01*
X71258721Y-75154119D01*
X70971476Y-75441365D01*
X70910153Y-75474850D01*
X70840461Y-75469866D01*
X70784528Y-75427994D01*
X70776406Y-75415681D01*
X70774484Y-75412352D01*
X70717647Y-75355515D01*
X70714316Y-75353592D01*
X70666100Y-75303025D01*
X70652876Y-75234418D01*
X70678844Y-75169553D01*
X70688634Y-75158523D01*
X70972959Y-74874198D01*
X70890041Y-74830680D01*
X70850803Y-74821008D01*
X70790423Y-74785851D01*
X70764538Y-74744583D01*
X70714371Y-74612304D01*
X70708721Y-74604119D01*
X70421476Y-74891365D01*
X70360153Y-74924850D01*
X70290461Y-74919866D01*
X70234528Y-74877994D01*
X70226406Y-74865681D01*
X70224484Y-74862352D01*
X70167647Y-74805515D01*
X70164316Y-74803592D01*
X70116100Y-74753025D01*
X70102876Y-74684418D01*
X70128844Y-74619553D01*
X70138634Y-74608523D01*
X70422959Y-74324198D01*
X70340044Y-74280681D01*
X70174994Y-74240000D01*
X70005006Y-74240000D01*
X69839955Y-74280681D01*
X69757039Y-74324198D01*
X70041365Y-74608523D01*
X70074850Y-74669846D01*
X70069866Y-74739537D01*
X70027995Y-74795471D01*
X70015689Y-74803588D01*
X70012359Y-74805510D01*
X69955512Y-74862356D01*
X69953589Y-74865688D01*
X69903020Y-74913902D01*
X69834413Y-74927122D01*
X69769549Y-74901152D01*
X69758523Y-74891365D01*
X69540001Y-74672842D01*
X69540000Y-74672842D01*
X69321476Y-74891365D01*
X69260153Y-74924850D01*
X69190461Y-74919866D01*
X69134528Y-74877994D01*
X69126406Y-74865681D01*
X69124484Y-74862352D01*
X69067647Y-74805515D01*
X69064316Y-74803592D01*
X69016100Y-74753025D01*
X69002876Y-74684418D01*
X69028844Y-74619553D01*
X69038634Y-74608523D01*
X69322959Y-74324198D01*
X69240044Y-74280681D01*
X69074994Y-74240000D01*
X68905006Y-74240000D01*
X68739955Y-74280681D01*
X68657039Y-74324198D01*
X68941365Y-74608523D01*
X68974850Y-74669846D01*
X68969866Y-74739537D01*
X68927995Y-74795471D01*
X68915689Y-74803588D01*
X68912359Y-74805510D01*
X68855512Y-74862356D01*
X68853589Y-74865688D01*
X68803020Y-74913902D01*
X68734413Y-74927122D01*
X68669549Y-74901152D01*
X68658523Y-74891365D01*
X68371278Y-74604120D01*
X68371277Y-74604120D01*
X68365629Y-74612304D01*
X68315461Y-74744584D01*
X68273282Y-74800286D01*
X68229197Y-74821008D01*
X68189957Y-74830680D01*
X68107039Y-74874198D01*
X68391365Y-75158523D01*
X68424850Y-75219846D01*
X68419866Y-75289537D01*
X68377995Y-75345471D01*
X68365689Y-75353588D01*
X68362359Y-75355510D01*
X68305510Y-75412358D01*
X68303585Y-75415693D01*
X68253014Y-75463904D01*
X68184406Y-75477122D01*
X68119544Y-75451149D01*
X68108522Y-75441365D01*
X67821277Y-75154120D01*
X67815628Y-75162305D01*
X67755349Y-75321245D01*
X67755348Y-75321251D01*
X67734859Y-75489999D01*
X67734859Y-75490000D01*
X67755348Y-75658748D01*
X67755349Y-75658751D01*
X67815629Y-75817694D01*
X67821278Y-75825879D01*
X68108523Y-75538634D01*
X68169846Y-75505149D01*
X68239537Y-75510133D01*
X68295471Y-75552004D01*
X68303592Y-75564316D01*
X68305515Y-75567647D01*
X68362352Y-75624484D01*
X68365681Y-75626406D01*
X68413898Y-75676972D01*
X68427123Y-75745579D01*
X68401156Y-75810444D01*
X68391365Y-75821476D01*
X68172842Y-76039999D01*
X68172842Y-76040000D01*
X68391365Y-76258523D01*
X68424850Y-76319846D01*
X68419866Y-76389537D01*
X68377995Y-76445471D01*
X68365689Y-76453588D01*
X68362359Y-76455510D01*
X68305510Y-76512358D01*
X68303585Y-76515693D01*
X68253014Y-76563904D01*
X68184406Y-76577122D01*
X68119544Y-76551149D01*
X68108522Y-76541365D01*
X67821277Y-76254120D01*
X67815628Y-76262305D01*
X67755349Y-76421245D01*
X67755348Y-76421251D01*
X67734859Y-76589999D01*
X67734859Y-76590000D01*
X65454590Y-76590000D01*
X64271818Y-75407228D01*
X64238333Y-75345905D01*
X64235499Y-75319547D01*
X64235499Y-74800286D01*
X64235499Y-74268683D01*
X64255184Y-74201648D01*
X64267350Y-74185714D01*
X64280345Y-74171282D01*
X64342533Y-74102216D01*
X64437179Y-73938284D01*
X64495674Y-73758256D01*
X64515460Y-73570000D01*
X64495674Y-73381744D01*
X64437179Y-73201716D01*
X64342533Y-73037784D01*
X64338715Y-73032529D01*
X64341140Y-73030766D01*
X64316528Y-72979501D01*
X64325141Y-72910165D01*
X64369873Y-72856491D01*
X64436522Y-72835523D01*
X64438904Y-72835500D01*
X69919548Y-72835500D01*
X69986587Y-72855185D01*
X70007228Y-72871818D01*
X72025692Y-74890283D01*
X74039197Y-76903788D01*
X74049022Y-76916051D01*
X74049243Y-76915869D01*
X74054214Y-76921878D01*
X74073021Y-76939538D01*
X74104635Y-76969226D01*
X74125529Y-76990120D01*
X74131011Y-76994373D01*
X74135443Y-76998157D01*
X74169418Y-77030062D01*
X74186976Y-77039714D01*
X74203235Y-77050395D01*
X74219064Y-77062673D01*
X74261838Y-77081182D01*
X74267056Y-77083738D01*
X74307908Y-77106197D01*
X74327316Y-77111180D01*
X74345717Y-77117480D01*
X74364104Y-77125437D01*
X74407488Y-77132308D01*
X74410119Y-77132725D01*
X74415839Y-77133909D01*
X74460981Y-77145500D01*
X74481016Y-77145500D01*
X74500414Y-77147026D01*
X74520194Y-77150159D01*
X74520195Y-77150160D01*
X74520195Y-77150159D01*
X74520196Y-77150160D01*
X74566583Y-77145775D01*
X74572422Y-77145500D01*
X82186252Y-77145500D01*
X82253291Y-77165185D01*
X82278400Y-77186526D01*
X82284126Y-77192885D01*
X82284130Y-77192889D01*
X82437265Y-77304148D01*
X82437270Y-77304151D01*
X82610192Y-77381142D01*
X82610197Y-77381144D01*
X82795354Y-77420500D01*
X82795355Y-77420500D01*
X82984644Y-77420500D01*
X82984646Y-77420500D01*
X83169803Y-77381144D01*
X83342730Y-77304151D01*
X83495871Y-77192888D01*
X83622533Y-77052216D01*
X83717179Y-76888284D01*
X83775674Y-76708256D01*
X83795460Y-76520000D01*
X83775674Y-76331744D01*
X83717179Y-76151716D01*
X83622533Y-75987784D01*
X83495871Y-75847112D01*
X83495870Y-75847111D01*
X83342734Y-75735851D01*
X83342729Y-75735848D01*
X83169807Y-75658857D01*
X83169802Y-75658855D01*
X83008103Y-75624486D01*
X82984646Y-75619500D01*
X82795354Y-75619500D01*
X82771906Y-75624484D01*
X82610197Y-75658855D01*
X82610192Y-75658857D01*
X82437270Y-75735848D01*
X82437265Y-75735851D01*
X82284130Y-75847110D01*
X82284126Y-75847114D01*
X82278400Y-75853474D01*
X82218913Y-75890121D01*
X82186252Y-75894500D01*
X74850453Y-75894500D01*
X74783414Y-75874815D01*
X74762772Y-75858181D01*
X70730803Y-71826212D01*
X70720980Y-71813950D01*
X70720759Y-71814134D01*
X70715786Y-71808123D01*
X70705279Y-71798256D01*
X70665364Y-71760773D01*
X70654919Y-71750328D01*
X70644475Y-71739883D01*
X70638986Y-71735625D01*
X70634561Y-71731847D01*
X70600582Y-71699938D01*
X70600580Y-71699936D01*
X70600577Y-71699935D01*
X70583029Y-71690288D01*
X70566763Y-71679604D01*
X70550933Y-71667325D01*
X70508168Y-71648818D01*
X70502922Y-71646248D01*
X70462093Y-71623803D01*
X70462092Y-71623802D01*
X70442693Y-71618822D01*
X70424281Y-71612518D01*
X70418463Y-71610000D01*
X79984540Y-71610000D01*
X80004326Y-71798256D01*
X80004327Y-71798259D01*
X80062818Y-71978277D01*
X80062821Y-71978284D01*
X80157467Y-72142216D01*
X80259185Y-72255185D01*
X80284129Y-72282888D01*
X80437265Y-72394148D01*
X80437270Y-72394151D01*
X80610192Y-72471142D01*
X80610197Y-72471144D01*
X80795354Y-72510500D01*
X80795355Y-72510500D01*
X80984644Y-72510500D01*
X80984646Y-72510500D01*
X81169803Y-72471144D01*
X81342730Y-72394151D01*
X81495871Y-72282888D01*
X81498788Y-72279647D01*
X81501600Y-72276526D01*
X81561087Y-72239879D01*
X81593748Y-72235500D01*
X96834840Y-72235500D01*
X96901879Y-72255185D01*
X96947634Y-72307989D01*
X96957578Y-72377147D01*
X96942228Y-72421499D01*
X96931616Y-72439880D01*
X96888746Y-72514134D01*
X96872820Y-72541718D01*
X96872818Y-72541722D01*
X96814327Y-72721740D01*
X96814326Y-72721744D01*
X96794540Y-72910000D01*
X96814326Y-73098256D01*
X96814327Y-73098259D01*
X96872818Y-73278277D01*
X96872821Y-73278284D01*
X96967467Y-73442216D01*
X97066552Y-73552261D01*
X97094129Y-73582888D01*
X97247265Y-73694148D01*
X97247270Y-73694151D01*
X97420192Y-73771142D01*
X97420197Y-73771144D01*
X97605354Y-73810500D01*
X97605355Y-73810500D01*
X97794644Y-73810500D01*
X97794646Y-73810500D01*
X97979803Y-73771144D01*
X98152730Y-73694151D01*
X98305871Y-73582888D01*
X98308788Y-73579647D01*
X98311600Y-73576526D01*
X98371087Y-73539879D01*
X98403748Y-73535500D01*
X105139548Y-73535500D01*
X105206587Y-73555185D01*
X105227229Y-73571819D01*
X105736338Y-74080928D01*
X105769823Y-74142251D01*
X105768863Y-74199049D01*
X105714892Y-74412174D01*
X105714890Y-74412187D01*
X105694357Y-74659994D01*
X105694357Y-74660005D01*
X105714890Y-74907812D01*
X105714892Y-74907824D01*
X105775936Y-75148881D01*
X105875826Y-75376606D01*
X106011833Y-75584782D01*
X106011836Y-75584785D01*
X106180256Y-75767738D01*
X106376491Y-75920474D01*
X106475021Y-75973796D01*
X106594332Y-76038364D01*
X106595190Y-76038828D01*
X106753442Y-76093156D01*
X106828964Y-76119083D01*
X106830386Y-76119571D01*
X107075665Y-76160500D01*
X107324335Y-76160500D01*
X107569614Y-76119571D01*
X107804810Y-76038828D01*
X108023509Y-75920474D01*
X108219744Y-75767738D01*
X108388164Y-75584785D01*
X108524173Y-75376607D01*
X108624063Y-75148881D01*
X108675111Y-74947296D01*
X108710650Y-74887143D01*
X108773070Y-74855751D01*
X108842553Y-74863089D01*
X108897039Y-74906827D01*
X108906316Y-74922467D01*
X108966646Y-75043625D01*
X108966651Y-75043634D01*
X108982209Y-75064235D01*
X109447821Y-74598624D01*
X109509144Y-74565139D01*
X109578835Y-74570123D01*
X109634769Y-74611994D01*
X109645987Y-74630011D01*
X109657115Y-74651852D01*
X109748147Y-74742884D01*
X109769984Y-74754010D01*
X109820781Y-74801983D01*
X109837578Y-74869804D01*
X109815042Y-74935939D01*
X109801373Y-74952177D01*
X109337760Y-75415790D01*
X109337761Y-75415791D01*
X109453488Y-75487445D01*
X109453495Y-75487449D01*
X109660607Y-75567684D01*
X109878945Y-75608500D01*
X110101055Y-75608500D01*
X110319392Y-75567684D01*
X110526503Y-75487450D01*
X110526509Y-75487447D01*
X110642237Y-75415791D01*
X110642238Y-75415790D01*
X110178625Y-74952178D01*
X110145140Y-74890855D01*
X110150124Y-74821164D01*
X110191995Y-74765230D01*
X110210014Y-74754011D01*
X110231852Y-74742884D01*
X110231851Y-74742884D01*
X110231854Y-74742883D01*
X110322883Y-74651854D01*
X110334010Y-74630014D01*
X110381984Y-74579217D01*
X110449805Y-74562420D01*
X110515940Y-74584956D01*
X110532178Y-74598625D01*
X110997788Y-75064235D01*
X110997789Y-75064235D01*
X111013349Y-75043632D01*
X111013350Y-75043629D01*
X111112350Y-74844813D01*
X111112356Y-74844798D01*
X111173139Y-74631168D01*
X111173140Y-74631166D01*
X111193634Y-74410000D01*
X116406366Y-74410000D01*
X116426859Y-74631166D01*
X116426860Y-74631168D01*
X116487643Y-74844798D01*
X116487649Y-74844813D01*
X116586646Y-75043626D01*
X116586651Y-75043634D01*
X116602209Y-75064235D01*
X117067821Y-74598624D01*
X117129144Y-74565139D01*
X117198835Y-74570123D01*
X117254769Y-74611994D01*
X117265987Y-74630011D01*
X117277115Y-74651852D01*
X117368147Y-74742884D01*
X117389984Y-74754010D01*
X117440781Y-74801983D01*
X117457578Y-74869804D01*
X117435042Y-74935939D01*
X117421373Y-74952177D01*
X116957760Y-75415790D01*
X116957761Y-75415791D01*
X117073488Y-75487445D01*
X117073495Y-75487449D01*
X117280607Y-75567684D01*
X117498945Y-75608500D01*
X117721055Y-75608500D01*
X117939392Y-75567684D01*
X118146503Y-75487450D01*
X118146509Y-75487447D01*
X118262237Y-75415791D01*
X118262238Y-75415790D01*
X117798625Y-74952178D01*
X117765140Y-74890855D01*
X117770124Y-74821164D01*
X117811995Y-74765230D01*
X117830014Y-74754011D01*
X117851852Y-74742884D01*
X117851851Y-74742884D01*
X117851854Y-74742883D01*
X117942883Y-74651854D01*
X117954010Y-74630014D01*
X118001984Y-74579217D01*
X118069805Y-74562420D01*
X118135940Y-74584956D01*
X118152178Y-74598625D01*
X118617788Y-75064235D01*
X118617789Y-75064235D01*
X118633349Y-75043632D01*
X118633350Y-75043629D01*
X118732350Y-74844813D01*
X118732356Y-74844798D01*
X118793139Y-74631168D01*
X118793140Y-74631166D01*
X118813634Y-74410000D01*
X118813634Y-74409999D01*
X118793140Y-74188833D01*
X118793139Y-74188831D01*
X118732356Y-73975201D01*
X118732350Y-73975186D01*
X118633351Y-73776370D01*
X118633349Y-73776367D01*
X118617788Y-73755762D01*
X118152177Y-74221374D01*
X118090854Y-74254859D01*
X118021162Y-74249875D01*
X117965229Y-74208003D01*
X117954013Y-74189990D01*
X117942883Y-74168146D01*
X117851854Y-74077117D01*
X117851852Y-74077115D01*
X117830011Y-74065987D01*
X117779215Y-74018014D01*
X117762419Y-73950193D01*
X117784956Y-73884058D01*
X117798624Y-73867821D01*
X118262238Y-73404208D01*
X118146503Y-73332550D01*
X118146504Y-73332550D01*
X117939392Y-73252315D01*
X117721055Y-73211500D01*
X117498945Y-73211500D01*
X117280607Y-73252315D01*
X117073497Y-73332549D01*
X117073494Y-73332551D01*
X116957760Y-73404208D01*
X117421374Y-73867821D01*
X117454859Y-73929144D01*
X117449875Y-73998835D01*
X117408004Y-74054769D01*
X117389990Y-74065986D01*
X117368146Y-74077116D01*
X117277116Y-74168146D01*
X117265986Y-74189990D01*
X117218011Y-74240785D01*
X117150189Y-74257579D01*
X117084055Y-74235040D01*
X117067821Y-74221374D01*
X116602210Y-73755762D01*
X116586651Y-73776367D01*
X116586646Y-73776374D01*
X116487649Y-73975186D01*
X116487643Y-73975201D01*
X116426860Y-74188831D01*
X116426859Y-74188833D01*
X116406366Y-74409999D01*
X116406366Y-74410000D01*
X111193634Y-74410000D01*
X111193634Y-74409999D01*
X111173140Y-74188833D01*
X111173139Y-74188831D01*
X111112356Y-73975201D01*
X111112350Y-73975186D01*
X111013351Y-73776370D01*
X111013349Y-73776367D01*
X110997788Y-73755762D01*
X110532177Y-74221374D01*
X110470854Y-74254859D01*
X110401162Y-74249875D01*
X110345229Y-74208003D01*
X110334013Y-74189990D01*
X110322883Y-74168146D01*
X110231854Y-74077117D01*
X110231852Y-74077115D01*
X110210011Y-74065987D01*
X110159215Y-74018014D01*
X110142419Y-73950193D01*
X110164956Y-73884058D01*
X110178624Y-73867821D01*
X110642238Y-73404208D01*
X110526503Y-73332550D01*
X110526504Y-73332550D01*
X110319392Y-73252315D01*
X110101055Y-73211500D01*
X109878945Y-73211500D01*
X109660607Y-73252315D01*
X109453497Y-73332549D01*
X109453494Y-73332551D01*
X109337760Y-73404208D01*
X109801374Y-73867821D01*
X109834859Y-73929144D01*
X109829875Y-73998835D01*
X109788004Y-74054769D01*
X109769990Y-74065986D01*
X109748146Y-74077116D01*
X109657116Y-74168146D01*
X109645986Y-74189990D01*
X109598011Y-74240785D01*
X109530189Y-74257579D01*
X109464055Y-74235040D01*
X109447821Y-74221374D01*
X108982210Y-73755762D01*
X108966651Y-73776367D01*
X108966646Y-73776374D01*
X108867649Y-73975186D01*
X108867644Y-73975199D01*
X108832339Y-74099284D01*
X108795060Y-74158377D01*
X108731750Y-74187934D01*
X108662510Y-74178572D01*
X108609324Y-74133262D01*
X108599517Y-74115159D01*
X108524173Y-73943393D01*
X108388166Y-73735217D01*
X108350359Y-73694148D01*
X108219744Y-73552262D01*
X108023509Y-73399526D01*
X108023507Y-73399525D01*
X108023506Y-73399524D01*
X107804811Y-73281172D01*
X107804802Y-73281169D01*
X107569616Y-73200429D01*
X107324335Y-73159500D01*
X107075665Y-73159500D01*
X106830386Y-73200428D01*
X106750713Y-73227780D01*
X106680914Y-73230929D01*
X106622770Y-73198179D01*
X105950803Y-72526212D01*
X105940980Y-72513950D01*
X105940759Y-72514134D01*
X105935786Y-72508123D01*
X105885364Y-72460773D01*
X105874919Y-72450328D01*
X105864475Y-72439883D01*
X105858986Y-72435625D01*
X105854561Y-72431847D01*
X105820582Y-72399938D01*
X105820580Y-72399936D01*
X105820577Y-72399935D01*
X105803029Y-72390288D01*
X105786763Y-72379604D01*
X105784417Y-72377784D01*
X105770936Y-72367327D01*
X105770935Y-72367326D01*
X105770933Y-72367325D01*
X105728168Y-72348818D01*
X105722922Y-72346248D01*
X105682093Y-72323803D01*
X105682092Y-72323802D01*
X105662693Y-72318822D01*
X105644281Y-72312518D01*
X105625898Y-72304562D01*
X105625892Y-72304560D01*
X105579874Y-72297272D01*
X105574152Y-72296087D01*
X105529021Y-72284500D01*
X105529019Y-72284500D01*
X105508984Y-72284500D01*
X105489586Y-72282973D01*
X105482162Y-72281797D01*
X105469805Y-72279840D01*
X105469804Y-72279840D01*
X105423416Y-72284225D01*
X105417578Y-72284500D01*
X103171229Y-72284500D01*
X103104190Y-72264815D01*
X103058435Y-72212011D01*
X103048491Y-72142853D01*
X103077516Y-72079297D01*
X103086346Y-72070107D01*
X103086887Y-72069596D01*
X103086892Y-72069594D01*
X103116604Y-72033676D01*
X103120517Y-72029376D01*
X105218075Y-69931819D01*
X105279399Y-69898334D01*
X105305757Y-69895500D01*
X108217235Y-69895500D01*
X108262878Y-69904206D01*
X108267903Y-69906195D01*
X108267905Y-69906195D01*
X108267908Y-69906197D01*
X108287312Y-69911179D01*
X108305710Y-69917478D01*
X108324105Y-69925438D01*
X108370129Y-69932726D01*
X108375832Y-69933907D01*
X108420981Y-69945500D01*
X108441016Y-69945500D01*
X108460413Y-69947026D01*
X108480196Y-69950160D01*
X108526583Y-69945775D01*
X108532422Y-69945500D01*
X108890585Y-69945500D01*
X108957624Y-69965185D01*
X108989539Y-69994773D01*
X109100133Y-70141224D01*
X109264344Y-70290921D01*
X109264346Y-70290923D01*
X109453266Y-70407897D01*
X109453272Y-70407900D01*
X109482206Y-70419109D01*
X109660472Y-70488170D01*
X109878896Y-70529000D01*
X109878899Y-70529000D01*
X110101101Y-70529000D01*
X110101104Y-70529000D01*
X110319528Y-70488170D01*
X110526730Y-70407899D01*
X110715655Y-70290922D01*
X110879868Y-70141222D01*
X111013778Y-69963896D01*
X111112824Y-69764984D01*
X111173634Y-69551260D01*
X111194137Y-69330000D01*
X116405863Y-69330000D01*
X116426365Y-69551259D01*
X116426366Y-69551261D01*
X116487174Y-69764979D01*
X116487180Y-69764994D01*
X116586222Y-69963896D01*
X116720133Y-70141224D01*
X116884344Y-70290921D01*
X116884346Y-70290923D01*
X117073266Y-70407897D01*
X117073272Y-70407900D01*
X117102206Y-70419109D01*
X117280472Y-70488170D01*
X117498896Y-70529000D01*
X117498899Y-70529000D01*
X117721101Y-70529000D01*
X117721104Y-70529000D01*
X117939528Y-70488170D01*
X118146730Y-70407899D01*
X118335655Y-70290922D01*
X118499868Y-70141222D01*
X118633778Y-69963896D01*
X118732824Y-69764984D01*
X118793634Y-69551260D01*
X118814137Y-69330000D01*
X118793634Y-69108740D01*
X118732824Y-68895016D01*
X118728607Y-68886548D01*
X118684548Y-68798065D01*
X118633778Y-68696104D01*
X118499868Y-68518778D01*
X118499866Y-68518775D01*
X118335655Y-68369078D01*
X118335653Y-68369076D01*
X118146733Y-68252102D01*
X118146727Y-68252099D01*
X118039080Y-68210397D01*
X117939528Y-68171830D01*
X117721104Y-68131000D01*
X117498896Y-68131000D01*
X117280472Y-68171830D01*
X117230695Y-68191113D01*
X117073272Y-68252099D01*
X117073266Y-68252102D01*
X116884346Y-68369076D01*
X116884344Y-68369078D01*
X116720133Y-68518775D01*
X116586222Y-68696103D01*
X116487180Y-68895005D01*
X116487174Y-68895020D01*
X116426366Y-69108738D01*
X116426365Y-69108740D01*
X116405863Y-69329999D01*
X116405863Y-69330000D01*
X111194137Y-69330000D01*
X111173634Y-69108740D01*
X111112824Y-68895016D01*
X111108607Y-68886548D01*
X111064548Y-68798065D01*
X111013778Y-68696104D01*
X110879868Y-68518778D01*
X110879866Y-68518775D01*
X110715655Y-68369078D01*
X110715653Y-68369076D01*
X110526733Y-68252102D01*
X110526727Y-68252099D01*
X110419080Y-68210397D01*
X110319528Y-68171830D01*
X110101104Y-68131000D01*
X109878896Y-68131000D01*
X109660472Y-68171830D01*
X109610695Y-68191113D01*
X109453272Y-68252099D01*
X109453266Y-68252102D01*
X109264346Y-68369076D01*
X109264344Y-68369078D01*
X109100133Y-68518775D01*
X109004642Y-68645227D01*
X108948533Y-68686863D01*
X108905688Y-68694500D01*
X108732765Y-68694500D01*
X108687122Y-68685794D01*
X108682091Y-68683802D01*
X108662693Y-68678822D01*
X108644281Y-68672518D01*
X108625898Y-68664562D01*
X108625892Y-68664560D01*
X108579874Y-68657272D01*
X108574152Y-68656087D01*
X108529021Y-68644500D01*
X108529019Y-68644500D01*
X108508984Y-68644500D01*
X108489586Y-68642973D01*
X108482162Y-68641797D01*
X108469805Y-68639840D01*
X108469804Y-68639840D01*
X108423416Y-68644225D01*
X108417578Y-68644500D01*
X106060342Y-68644500D01*
X105993303Y-68624815D01*
X105947548Y-68572011D01*
X105937604Y-68502853D01*
X105942411Y-68482182D01*
X105947619Y-68466151D01*
X105995674Y-68318256D01*
X106015460Y-68130000D01*
X105995674Y-67941744D01*
X105937179Y-67761716D01*
X105842533Y-67597784D01*
X105842532Y-67597784D01*
X105767350Y-67514284D01*
X105737120Y-67451292D01*
X105735500Y-67431312D01*
X105735500Y-64640000D01*
X108555863Y-64640000D01*
X108576365Y-64861259D01*
X108576366Y-64861261D01*
X108637174Y-65074979D01*
X108637180Y-65074994D01*
X108736222Y-65273896D01*
X108870133Y-65451224D01*
X109034344Y-65600921D01*
X109034346Y-65600923D01*
X109223266Y-65717897D01*
X109223272Y-65717900D01*
X109252206Y-65729109D01*
X109430472Y-65798170D01*
X109648896Y-65839000D01*
X109648899Y-65839000D01*
X109871101Y-65839000D01*
X109871104Y-65839000D01*
X110089528Y-65798170D01*
X110296730Y-65717899D01*
X110485655Y-65600922D01*
X110649868Y-65451222D01*
X110783778Y-65273896D01*
X110882824Y-65074984D01*
X110943634Y-64861260D01*
X110964137Y-64640000D01*
X116175863Y-64640000D01*
X116196365Y-64861259D01*
X116196366Y-64861261D01*
X116257174Y-65074979D01*
X116257180Y-65074994D01*
X116356222Y-65273896D01*
X116490133Y-65451224D01*
X116654344Y-65600921D01*
X116654346Y-65600923D01*
X116843266Y-65717897D01*
X116843272Y-65717900D01*
X116872206Y-65729109D01*
X117050472Y-65798170D01*
X117268896Y-65839000D01*
X117268899Y-65839000D01*
X117491101Y-65839000D01*
X117491104Y-65839000D01*
X117709528Y-65798170D01*
X117916730Y-65717899D01*
X118105655Y-65600922D01*
X118269868Y-65451222D01*
X118403778Y-65273896D01*
X118502824Y-65074984D01*
X118563634Y-64861260D01*
X118584137Y-64640000D01*
X118563634Y-64418740D01*
X118502824Y-64205016D01*
X118403778Y-64006104D01*
X118306987Y-63877931D01*
X118269866Y-63828775D01*
X118105655Y-63679078D01*
X118105653Y-63679076D01*
X117916733Y-63562102D01*
X117916727Y-63562099D01*
X117785508Y-63511265D01*
X117709528Y-63481830D01*
X117491104Y-63441000D01*
X117268896Y-63441000D01*
X117050472Y-63481830D01*
X117000695Y-63501113D01*
X116843272Y-63562099D01*
X116843266Y-63562102D01*
X116654346Y-63679076D01*
X116654344Y-63679078D01*
X116490133Y-63828775D01*
X116356222Y-64006103D01*
X116257180Y-64205005D01*
X116257174Y-64205020D01*
X116196366Y-64418738D01*
X116196365Y-64418740D01*
X116175863Y-64639999D01*
X116175863Y-64640000D01*
X110964137Y-64640000D01*
X110943634Y-64418740D01*
X110882824Y-64205016D01*
X110783778Y-64006104D01*
X110686987Y-63877931D01*
X110649866Y-63828775D01*
X110485655Y-63679078D01*
X110485653Y-63679076D01*
X110296733Y-63562102D01*
X110296727Y-63562099D01*
X110165508Y-63511265D01*
X110089528Y-63481830D01*
X109871104Y-63441000D01*
X109648896Y-63441000D01*
X109430472Y-63481830D01*
X109380695Y-63501113D01*
X109223272Y-63562099D01*
X109223266Y-63562102D01*
X109034346Y-63679076D01*
X109034344Y-63679078D01*
X108870133Y-63828775D01*
X108736222Y-64006103D01*
X108637180Y-64205005D01*
X108637174Y-64205020D01*
X108576366Y-64418738D01*
X108576365Y-64418740D01*
X108555863Y-64639999D01*
X108555863Y-64640000D01*
X105735500Y-64640000D01*
X105735500Y-59560000D01*
X108556366Y-59560000D01*
X108576859Y-59781166D01*
X108576860Y-59781168D01*
X108637643Y-59994798D01*
X108637649Y-59994813D01*
X108736646Y-60193626D01*
X108736651Y-60193634D01*
X108752209Y-60214235D01*
X109217821Y-59748624D01*
X109279144Y-59715139D01*
X109348835Y-59720123D01*
X109404769Y-59761994D01*
X109415987Y-59780011D01*
X109427115Y-59801852D01*
X109518147Y-59892884D01*
X109539984Y-59904010D01*
X109590781Y-59951983D01*
X109607578Y-60019804D01*
X109585042Y-60085939D01*
X109571373Y-60102177D01*
X109107760Y-60565790D01*
X109107761Y-60565791D01*
X109223488Y-60637445D01*
X109223495Y-60637449D01*
X109430607Y-60717684D01*
X109648945Y-60758500D01*
X109871055Y-60758500D01*
X110089392Y-60717684D01*
X110296503Y-60637450D01*
X110296509Y-60637447D01*
X110412237Y-60565791D01*
X110412238Y-60565790D01*
X109948625Y-60102178D01*
X109915140Y-60040855D01*
X109920124Y-59971164D01*
X109961995Y-59915230D01*
X109980014Y-59904011D01*
X110001852Y-59892884D01*
X110001851Y-59892884D01*
X110001854Y-59892883D01*
X110092883Y-59801854D01*
X110104010Y-59780014D01*
X110151984Y-59729217D01*
X110219805Y-59712420D01*
X110285940Y-59734956D01*
X110302178Y-59748625D01*
X110767788Y-60214235D01*
X110767789Y-60214235D01*
X110783349Y-60193632D01*
X110783350Y-60193629D01*
X110882350Y-59994813D01*
X110882356Y-59994798D01*
X110943139Y-59781168D01*
X110943140Y-59781166D01*
X110963634Y-59560000D01*
X116176366Y-59560000D01*
X116196859Y-59781166D01*
X116196860Y-59781168D01*
X116257643Y-59994798D01*
X116257649Y-59994813D01*
X116356646Y-60193626D01*
X116356651Y-60193634D01*
X116372209Y-60214235D01*
X116837821Y-59748624D01*
X116899144Y-59715139D01*
X116968835Y-59720123D01*
X117024769Y-59761994D01*
X117035987Y-59780011D01*
X117047115Y-59801852D01*
X117138147Y-59892884D01*
X117159984Y-59904010D01*
X117210781Y-59951983D01*
X117227578Y-60019804D01*
X117205042Y-60085939D01*
X117191373Y-60102177D01*
X116727760Y-60565790D01*
X116727761Y-60565791D01*
X116843488Y-60637445D01*
X116843495Y-60637449D01*
X117050607Y-60717684D01*
X117268945Y-60758500D01*
X117491055Y-60758500D01*
X117709392Y-60717684D01*
X117916503Y-60637450D01*
X117916509Y-60637447D01*
X118032237Y-60565791D01*
X118032238Y-60565790D01*
X117568625Y-60102178D01*
X117535140Y-60040855D01*
X117540124Y-59971164D01*
X117581995Y-59915230D01*
X117600014Y-59904011D01*
X117621852Y-59892884D01*
X117621851Y-59892884D01*
X117621854Y-59892883D01*
X117712883Y-59801854D01*
X117724010Y-59780014D01*
X117771984Y-59729217D01*
X117839805Y-59712420D01*
X117905940Y-59734956D01*
X117922178Y-59748625D01*
X118387788Y-60214235D01*
X118387789Y-60214235D01*
X118403349Y-60193632D01*
X118403350Y-60193629D01*
X118502350Y-59994813D01*
X118502356Y-59994798D01*
X118563139Y-59781168D01*
X118563140Y-59781166D01*
X118583634Y-59560000D01*
X118583634Y-59559999D01*
X118563140Y-59338833D01*
X118563139Y-59338831D01*
X118502356Y-59125201D01*
X118502350Y-59125186D01*
X118403351Y-58926370D01*
X118403349Y-58926367D01*
X118387788Y-58905762D01*
X117922177Y-59371374D01*
X117860854Y-59404859D01*
X117791162Y-59399875D01*
X117735229Y-59358003D01*
X117724013Y-59339990D01*
X117712883Y-59318146D01*
X117621854Y-59227117D01*
X117621852Y-59227115D01*
X117600011Y-59215987D01*
X117549215Y-59168014D01*
X117532419Y-59100193D01*
X117554956Y-59034058D01*
X117568624Y-59017821D01*
X118032238Y-58554208D01*
X117916503Y-58482550D01*
X117916504Y-58482550D01*
X117709392Y-58402315D01*
X117491055Y-58361500D01*
X117268945Y-58361500D01*
X117050607Y-58402315D01*
X116843497Y-58482549D01*
X116843494Y-58482551D01*
X116727760Y-58554208D01*
X117191374Y-59017821D01*
X117224859Y-59079144D01*
X117219875Y-59148835D01*
X117178004Y-59204769D01*
X117159990Y-59215986D01*
X117138146Y-59227116D01*
X117047116Y-59318146D01*
X117035986Y-59339990D01*
X116988011Y-59390785D01*
X116920189Y-59407579D01*
X116854055Y-59385040D01*
X116837821Y-59371374D01*
X116372210Y-58905762D01*
X116356651Y-58926367D01*
X116356646Y-58926374D01*
X116257649Y-59125186D01*
X116257643Y-59125201D01*
X116196860Y-59338831D01*
X116196859Y-59338833D01*
X116176366Y-59559999D01*
X116176366Y-59560000D01*
X110963634Y-59560000D01*
X110963634Y-59559999D01*
X110943140Y-59338833D01*
X110943139Y-59338831D01*
X110882356Y-59125201D01*
X110882350Y-59125186D01*
X110783351Y-58926370D01*
X110783349Y-58926367D01*
X110767788Y-58905762D01*
X110302177Y-59371374D01*
X110240854Y-59404859D01*
X110171162Y-59399875D01*
X110115229Y-59358003D01*
X110104013Y-59339990D01*
X110092883Y-59318146D01*
X110001854Y-59227117D01*
X110001852Y-59227115D01*
X109980011Y-59215987D01*
X109929215Y-59168014D01*
X109912419Y-59100193D01*
X109934956Y-59034058D01*
X109948624Y-59017821D01*
X110412238Y-58554208D01*
X110296503Y-58482550D01*
X110296504Y-58482550D01*
X110089392Y-58402315D01*
X109871055Y-58361500D01*
X109648945Y-58361500D01*
X109430607Y-58402315D01*
X109223497Y-58482549D01*
X109223494Y-58482551D01*
X109107760Y-58554208D01*
X109571374Y-59017821D01*
X109604859Y-59079144D01*
X109599875Y-59148835D01*
X109558004Y-59204769D01*
X109539990Y-59215986D01*
X109518146Y-59227116D01*
X109427116Y-59318146D01*
X109415986Y-59339990D01*
X109368011Y-59390785D01*
X109300189Y-59407579D01*
X109234055Y-59385040D01*
X109217821Y-59371374D01*
X108752210Y-58905762D01*
X108736651Y-58926367D01*
X108736646Y-58926374D01*
X108637649Y-59125186D01*
X108637643Y-59125201D01*
X108576860Y-59338831D01*
X108576859Y-59338833D01*
X108556366Y-59559999D01*
X108556366Y-59560000D01*
X105735500Y-59560000D01*
X105735500Y-54097870D01*
X112339500Y-54097870D01*
X112339501Y-54097876D01*
X112345908Y-54157483D01*
X112396202Y-54292328D01*
X112396206Y-54292335D01*
X112482452Y-54407544D01*
X112482455Y-54407547D01*
X112597664Y-54493793D01*
X112597671Y-54493797D01*
X112732517Y-54544091D01*
X112732516Y-54544091D01*
X112739444Y-54544835D01*
X112792127Y-54550500D01*
X115887872Y-54550499D01*
X115947483Y-54544091D01*
X116082331Y-54493796D01*
X116197546Y-54407546D01*
X116283796Y-54292331D01*
X116334091Y-54157483D01*
X116340500Y-54097873D01*
X116340499Y-51002128D01*
X116334091Y-50942517D01*
X116326042Y-50920937D01*
X116283797Y-50807671D01*
X116283793Y-50807664D01*
X116197547Y-50692455D01*
X116197544Y-50692452D01*
X116082335Y-50606206D01*
X116082328Y-50606202D01*
X115947482Y-50555908D01*
X115947483Y-50555908D01*
X115887883Y-50549501D01*
X115887881Y-50549500D01*
X115887873Y-50549500D01*
X115887864Y-50549500D01*
X112792129Y-50549500D01*
X112792123Y-50549501D01*
X112732516Y-50555908D01*
X112597671Y-50606202D01*
X112597664Y-50606206D01*
X112482455Y-50692452D01*
X112482452Y-50692455D01*
X112396206Y-50807664D01*
X112396202Y-50807671D01*
X112345908Y-50942517D01*
X112342891Y-50970583D01*
X112339501Y-51002123D01*
X112339500Y-51002135D01*
X112339500Y-54097870D01*
X105735500Y-54097870D01*
X105735500Y-50627737D01*
X105737224Y-50612123D01*
X105736938Y-50612096D01*
X105737672Y-50604333D01*
X105735500Y-50535203D01*
X105735500Y-50505651D01*
X105735500Y-50505650D01*
X105734629Y-50498759D01*
X105734172Y-50492945D01*
X105732709Y-50446372D01*
X105727122Y-50427144D01*
X105723174Y-50408084D01*
X105720664Y-50388208D01*
X105703507Y-50344875D01*
X105701619Y-50339359D01*
X105688619Y-50294612D01*
X105678418Y-50277363D01*
X105669860Y-50259894D01*
X105662486Y-50241268D01*
X105662483Y-50241264D01*
X105662483Y-50241263D01*
X105635098Y-50203571D01*
X105631890Y-50198687D01*
X105608172Y-50158582D01*
X105608163Y-50158571D01*
X105594005Y-50144413D01*
X105581370Y-50129620D01*
X105569593Y-50113412D01*
X105533693Y-50083713D01*
X105529381Y-50079790D01*
X104498483Y-49048892D01*
X104464998Y-48987569D01*
X104466390Y-48929114D01*
X104466491Y-48928738D01*
X104470063Y-48915408D01*
X104490659Y-48680000D01*
X104470063Y-48444592D01*
X104408903Y-48216337D01*
X104309035Y-48002171D01*
X104173495Y-47808599D01*
X104173494Y-47808597D01*
X104006402Y-47641506D01*
X104006395Y-47641501D01*
X103812834Y-47505967D01*
X103812830Y-47505965D01*
X103735705Y-47470001D01*
X112334390Y-47470001D01*
X112354804Y-47755433D01*
X112415628Y-48035037D01*
X112415630Y-48035043D01*
X112415631Y-48035046D01*
X112483249Y-48216337D01*
X112515635Y-48303166D01*
X112652770Y-48554309D01*
X112652775Y-48554317D01*
X112824254Y-48783387D01*
X112824270Y-48783405D01*
X113026594Y-48985729D01*
X113026612Y-48985745D01*
X113255682Y-49157224D01*
X113255690Y-49157229D01*
X113506833Y-49294364D01*
X113506832Y-49294364D01*
X113506836Y-49294365D01*
X113506839Y-49294367D01*
X113774954Y-49394369D01*
X113774960Y-49394370D01*
X113774962Y-49394371D01*
X114054566Y-49455195D01*
X114054568Y-49455195D01*
X114054572Y-49455196D01*
X114308220Y-49473337D01*
X114339999Y-49475610D01*
X114340000Y-49475610D01*
X114340001Y-49475610D01*
X114368595Y-49473564D01*
X114625428Y-49455196D01*
X114723247Y-49433917D01*
X114905037Y-49394371D01*
X114905037Y-49394370D01*
X114905046Y-49394369D01*
X115173161Y-49294367D01*
X115424315Y-49157226D01*
X115653395Y-48985739D01*
X115855739Y-48783395D01*
X116027226Y-48554315D01*
X116164367Y-48303161D01*
X116264369Y-48035046D01*
X116264371Y-48035037D01*
X116325195Y-47755433D01*
X116325195Y-47755432D01*
X116325196Y-47755428D01*
X116345610Y-47470000D01*
X116325196Y-47184572D01*
X116264369Y-46904954D01*
X116164367Y-46636839D01*
X116027226Y-46385685D01*
X116027224Y-46385682D01*
X115855745Y-46156612D01*
X115855729Y-46156594D01*
X115653405Y-45954270D01*
X115653387Y-45954254D01*
X115424317Y-45782775D01*
X115424309Y-45782770D01*
X115173166Y-45645635D01*
X115173167Y-45645635D01*
X115065914Y-45605632D01*
X114905046Y-45545631D01*
X114905043Y-45545630D01*
X114905037Y-45545628D01*
X114625433Y-45484804D01*
X114340001Y-45464390D01*
X114339999Y-45464390D01*
X114054566Y-45484804D01*
X113774962Y-45545628D01*
X113506833Y-45645635D01*
X113255690Y-45782770D01*
X113255682Y-45782775D01*
X113026612Y-45954254D01*
X113026594Y-45954270D01*
X112824270Y-46156594D01*
X112824254Y-46156612D01*
X112652775Y-46385682D01*
X112652770Y-46385690D01*
X112515635Y-46636833D01*
X112415628Y-46904962D01*
X112354804Y-47184566D01*
X112334390Y-47469998D01*
X112334390Y-47470001D01*
X103735705Y-47470001D01*
X103735703Y-47470000D01*
X103598663Y-47406097D01*
X103598659Y-47406096D01*
X103598655Y-47406094D01*
X103370413Y-47344938D01*
X103370403Y-47344936D01*
X103135001Y-47324341D01*
X103134999Y-47324341D01*
X102899596Y-47344936D01*
X102899586Y-47344938D01*
X102671344Y-47406094D01*
X102671335Y-47406098D01*
X102457171Y-47505964D01*
X102457169Y-47505965D01*
X102263600Y-47641503D01*
X102141284Y-47763819D01*
X102079961Y-47797303D01*
X102010269Y-47792319D01*
X101954336Y-47750447D01*
X101937421Y-47719470D01*
X101888354Y-47587913D01*
X101888350Y-47587906D01*
X101802190Y-47472812D01*
X101802187Y-47472809D01*
X101687093Y-47386649D01*
X101687086Y-47386645D01*
X101552379Y-47336403D01*
X101552372Y-47336401D01*
X101492844Y-47330000D01*
X100845000Y-47330000D01*
X100845000Y-48067698D01*
X100825315Y-48134737D01*
X100772511Y-48180492D01*
X100703355Y-48190436D01*
X100630766Y-48180000D01*
X100630763Y-48180000D01*
X100559237Y-48180000D01*
X100559233Y-48180000D01*
X100486645Y-48190436D01*
X100417487Y-48180492D01*
X100364684Y-48134736D01*
X100345000Y-48067698D01*
X100345000Y-47330000D01*
X99697155Y-47330000D01*
X99637627Y-47336401D01*
X99637620Y-47336403D01*
X99502913Y-47386645D01*
X99502906Y-47386649D01*
X99387812Y-47472809D01*
X99387809Y-47472812D01*
X99301649Y-47587906D01*
X99301645Y-47587913D01*
X99251403Y-47722620D01*
X99251401Y-47722627D01*
X99245000Y-47782155D01*
X99245000Y-48430000D01*
X99981653Y-48430000D01*
X100048692Y-48449685D01*
X100094447Y-48502489D01*
X100104391Y-48571647D01*
X100100631Y-48588933D01*
X100095000Y-48608111D01*
X100095000Y-48751888D01*
X100100631Y-48771067D01*
X100100630Y-48840936D01*
X100062855Y-48899714D01*
X99999299Y-48928738D01*
X99981653Y-48930000D01*
X99245000Y-48930000D01*
X99245000Y-49577844D01*
X99251401Y-49637372D01*
X99251403Y-49637379D01*
X99301645Y-49772086D01*
X99301649Y-49772093D01*
X99387809Y-49887187D01*
X99387812Y-49887190D01*
X99502906Y-49973350D01*
X99502913Y-49973354D01*
X99637620Y-50023596D01*
X99637627Y-50023598D01*
X99697155Y-50029999D01*
X99697172Y-50030000D01*
X100345000Y-50030000D01*
X100345000Y-49292301D01*
X100364685Y-49225262D01*
X100417489Y-49179507D01*
X100486647Y-49169563D01*
X100559237Y-49180000D01*
X100559238Y-49180000D01*
X100630762Y-49180000D01*
X100630763Y-49180000D01*
X100703353Y-49169563D01*
X100772512Y-49179507D01*
X100825315Y-49225262D01*
X100845000Y-49292301D01*
X100845000Y-50030000D01*
X101492828Y-50030000D01*
X101492844Y-50029999D01*
X101552372Y-50023598D01*
X101552379Y-50023596D01*
X101687086Y-49973354D01*
X101687093Y-49973350D01*
X101802187Y-49887190D01*
X101802190Y-49887187D01*
X101888350Y-49772093D01*
X101888354Y-49772086D01*
X101937422Y-49640529D01*
X101979293Y-49584595D01*
X102044757Y-49560178D01*
X102113030Y-49575030D01*
X102141285Y-49596181D01*
X102263599Y-49718495D01*
X102336419Y-49769484D01*
X102457165Y-49854032D01*
X102457167Y-49854033D01*
X102457170Y-49854035D01*
X102671337Y-49953903D01*
X102899592Y-50015063D01*
X103070319Y-50030000D01*
X103134999Y-50035659D01*
X103135000Y-50035659D01*
X103135001Y-50035659D01*
X103199681Y-50030000D01*
X103370408Y-50015063D01*
X103557631Y-49964897D01*
X103627476Y-49966560D01*
X103677401Y-49996991D01*
X104448181Y-50767771D01*
X104481666Y-50829094D01*
X104484500Y-50855452D01*
X104484500Y-67431312D01*
X104464815Y-67498351D01*
X104452650Y-67514284D01*
X104377466Y-67597784D01*
X104282821Y-67761715D01*
X104282818Y-67761722D01*
X104224327Y-67941740D01*
X104224326Y-67941744D01*
X104204540Y-68130000D01*
X104224326Y-68318256D01*
X104224327Y-68318259D01*
X104282818Y-68498277D01*
X104282821Y-68498284D01*
X104377466Y-68662215D01*
X104460308Y-68754221D01*
X104490538Y-68817213D01*
X104481912Y-68886548D01*
X104455839Y-68924874D01*
X102432533Y-70948181D01*
X102371210Y-70981666D01*
X102344852Y-70984500D01*
X81593748Y-70984500D01*
X81526709Y-70964815D01*
X81501600Y-70943474D01*
X81495873Y-70937114D01*
X81495869Y-70937110D01*
X81342734Y-70825851D01*
X81342729Y-70825848D01*
X81169807Y-70748857D01*
X81169802Y-70748855D01*
X81024000Y-70717865D01*
X80984646Y-70709500D01*
X80795354Y-70709500D01*
X80762897Y-70716398D01*
X80610197Y-70748855D01*
X80610192Y-70748857D01*
X80437270Y-70825848D01*
X80437265Y-70825851D01*
X80284129Y-70937111D01*
X80157466Y-71077785D01*
X80062821Y-71241715D01*
X80062818Y-71241722D01*
X80012739Y-71395851D01*
X80004326Y-71421744D01*
X79984540Y-71610000D01*
X70418463Y-71610000D01*
X70405898Y-71604562D01*
X70405892Y-71604560D01*
X70359874Y-71597272D01*
X70354152Y-71596087D01*
X70309021Y-71584500D01*
X70309019Y-71584500D01*
X70288984Y-71584500D01*
X70269586Y-71582973D01*
X70262162Y-71581797D01*
X70249805Y-71579840D01*
X70249804Y-71579840D01*
X70203416Y-71584225D01*
X70197578Y-71584500D01*
X64400760Y-71584500D01*
X64333721Y-71564815D01*
X64308613Y-71543476D01*
X64275871Y-71507112D01*
X64275869Y-71507110D01*
X64275866Y-71507107D01*
X64275864Y-71507106D01*
X64122734Y-71395851D01*
X64122729Y-71395848D01*
X63949807Y-71318857D01*
X63949802Y-71318855D01*
X63804000Y-71287865D01*
X63764646Y-71279500D01*
X63575354Y-71279500D01*
X63542897Y-71286398D01*
X63390197Y-71318855D01*
X63390192Y-71318857D01*
X63217270Y-71395848D01*
X63217265Y-71395851D01*
X63064129Y-71507111D01*
X62937466Y-71647785D01*
X62842821Y-71811715D01*
X62842818Y-71811722D01*
X62788699Y-71978284D01*
X62784326Y-71991744D01*
X62764540Y-72180000D01*
X62784326Y-72368256D01*
X62784327Y-72368259D01*
X62842818Y-72548277D01*
X62842821Y-72548284D01*
X62937467Y-72712216D01*
X62979331Y-72758711D01*
X63009560Y-72821700D01*
X63000935Y-72891035D01*
X62979330Y-72924653D01*
X62877466Y-73037785D01*
X62782821Y-73201715D01*
X62782818Y-73201722D01*
X62724327Y-73381740D01*
X62724326Y-73381744D01*
X62704540Y-73570000D01*
X59083969Y-73570000D01*
X59062661Y-63410000D01*
X73544723Y-63410000D01*
X73559268Y-63576260D01*
X73563793Y-63627975D01*
X73563793Y-63627979D01*
X73620422Y-63839322D01*
X73620424Y-63839326D01*
X73620425Y-63839330D01*
X73630064Y-63860000D01*
X73712897Y-64037638D01*
X73712898Y-64037639D01*
X73838402Y-64216877D01*
X73993123Y-64371598D01*
X74172361Y-64497102D01*
X74370670Y-64589575D01*
X74582023Y-64646207D01*
X74764926Y-64662208D01*
X74799998Y-64665277D01*
X74800000Y-64665277D01*
X74800002Y-64665277D01*
X74828254Y-64662805D01*
X75017977Y-64646207D01*
X75229330Y-64589575D01*
X75427639Y-64497102D01*
X75606877Y-64371598D01*
X75761598Y-64216877D01*
X75887102Y-64037639D01*
X75937618Y-63929306D01*
X75983790Y-63876867D01*
X76050984Y-63857715D01*
X76117865Y-63877931D01*
X76162382Y-63929307D01*
X76198192Y-64006103D01*
X76212898Y-64037639D01*
X76338402Y-64216877D01*
X76493123Y-64371598D01*
X76672361Y-64497102D01*
X76870670Y-64589575D01*
X77082023Y-64646207D01*
X77264926Y-64662208D01*
X77299998Y-64665277D01*
X77300000Y-64665277D01*
X77300002Y-64665277D01*
X77328254Y-64662805D01*
X77517977Y-64646207D01*
X77729330Y-64589575D01*
X77927639Y-64497102D01*
X78106877Y-64371598D01*
X78261598Y-64216877D01*
X78387102Y-64037639D01*
X78437894Y-63928714D01*
X78484066Y-63876275D01*
X78551259Y-63857123D01*
X78618141Y-63877339D01*
X78662658Y-63928715D01*
X78713333Y-64037388D01*
X78713334Y-64037390D01*
X78756873Y-64099571D01*
X78756874Y-64099572D01*
X79224814Y-63631631D01*
X79286137Y-63598146D01*
X79355828Y-63603130D01*
X79409443Y-63642000D01*
X79490464Y-63743599D01*
X79490466Y-63743600D01*
X79562723Y-63792865D01*
X79607025Y-63846894D01*
X79615083Y-63916297D01*
X79584340Y-63979040D01*
X79580552Y-63982999D01*
X79110426Y-64453124D01*
X79172611Y-64496666D01*
X79172613Y-64496667D01*
X79370840Y-64589101D01*
X79370849Y-64589105D01*
X79582105Y-64645710D01*
X79582115Y-64645712D01*
X79799999Y-64664775D01*
X79800001Y-64664775D01*
X80017884Y-64645712D01*
X80017894Y-64645710D01*
X80229150Y-64589105D01*
X80229159Y-64589101D01*
X80427387Y-64496666D01*
X80489572Y-64453124D01*
X80022057Y-63985610D01*
X79988572Y-63924287D01*
X79993556Y-63854596D01*
X80035427Y-63798662D01*
X80055930Y-63786212D01*
X80056357Y-63786007D01*
X80155798Y-63693740D01*
X80178032Y-63655228D01*
X80228597Y-63607014D01*
X80297204Y-63593790D01*
X80362069Y-63619757D01*
X80373100Y-63629548D01*
X80843124Y-64099572D01*
X80886666Y-64037387D01*
X80979101Y-63839159D01*
X80979105Y-63839150D01*
X81035710Y-63627894D01*
X81035712Y-63627884D01*
X81054775Y-63410000D01*
X81054775Y-63409999D01*
X81035712Y-63192115D01*
X81035710Y-63192105D01*
X80979105Y-62980849D01*
X80979101Y-62980840D01*
X80886668Y-62782615D01*
X80843123Y-62720427D01*
X80375184Y-63188367D01*
X80313861Y-63221852D01*
X80244169Y-63216868D01*
X80190555Y-63177998D01*
X80109535Y-63076400D01*
X80109533Y-63076399D01*
X80037275Y-63027134D01*
X79992973Y-62973106D01*
X79984915Y-62903702D01*
X80015657Y-62840959D01*
X80019446Y-62837000D01*
X80489572Y-62366874D01*
X80489571Y-62366873D01*
X80427391Y-62323335D01*
X80229159Y-62230898D01*
X80229150Y-62230894D01*
X80017894Y-62174289D01*
X80017884Y-62174287D01*
X79800001Y-62155225D01*
X79799999Y-62155225D01*
X79582115Y-62174287D01*
X79582105Y-62174289D01*
X79370849Y-62230894D01*
X79370840Y-62230898D01*
X79172614Y-62323332D01*
X79172612Y-62323333D01*
X79110428Y-62366875D01*
X79110427Y-62366875D01*
X79577942Y-62834389D01*
X79611427Y-62895712D01*
X79606443Y-62965403D01*
X79564572Y-63021337D01*
X79544073Y-63033785D01*
X79543646Y-63033990D01*
X79543645Y-63033990D01*
X79444202Y-63126260D01*
X79444199Y-63126264D01*
X79421967Y-63164771D01*
X79371400Y-63212987D01*
X79302793Y-63226209D01*
X79237928Y-63200241D01*
X79226899Y-63190452D01*
X78756875Y-62720427D01*
X78756875Y-62720428D01*
X78713333Y-62782612D01*
X78713332Y-62782614D01*
X78662658Y-62891285D01*
X78616485Y-62943724D01*
X78549292Y-62962876D01*
X78482411Y-62942660D01*
X78437894Y-62891285D01*
X78412580Y-62837000D01*
X78387102Y-62782362D01*
X78387099Y-62782358D01*
X78387099Y-62782357D01*
X78261599Y-62603124D01*
X78261596Y-62603121D01*
X78106877Y-62448402D01*
X77968978Y-62351844D01*
X77927638Y-62322897D01*
X77828484Y-62276661D01*
X77729330Y-62230425D01*
X77729326Y-62230424D01*
X77729322Y-62230422D01*
X77517977Y-62173793D01*
X77300002Y-62154723D01*
X77299998Y-62154723D01*
X77154681Y-62167436D01*
X77082023Y-62173793D01*
X77082020Y-62173793D01*
X76870677Y-62230422D01*
X76870668Y-62230426D01*
X76672361Y-62322898D01*
X76672357Y-62322900D01*
X76493121Y-62448402D01*
X76338402Y-62603121D01*
X76212900Y-62782357D01*
X76212898Y-62782362D01*
X76162382Y-62890693D01*
X76116209Y-62943132D01*
X76049016Y-62962284D01*
X75982135Y-62942068D01*
X75937618Y-62890693D01*
X75912580Y-62837000D01*
X75887102Y-62782362D01*
X75887099Y-62782358D01*
X75887099Y-62782357D01*
X75761599Y-62603124D01*
X75761596Y-62603121D01*
X75606877Y-62448402D01*
X75468978Y-62351844D01*
X75427638Y-62322897D01*
X75328484Y-62276661D01*
X75229330Y-62230425D01*
X75229326Y-62230424D01*
X75229322Y-62230422D01*
X75017977Y-62173793D01*
X74800002Y-62154723D01*
X74799998Y-62154723D01*
X74654682Y-62167436D01*
X74582023Y-62173793D01*
X74582020Y-62173793D01*
X74370677Y-62230422D01*
X74370668Y-62230426D01*
X74172361Y-62322898D01*
X74172357Y-62322900D01*
X73993121Y-62448402D01*
X73838402Y-62603121D01*
X73712900Y-62782357D01*
X73712898Y-62782361D01*
X73620426Y-62980668D01*
X73620422Y-62980677D01*
X73563793Y-63192020D01*
X73563793Y-63192023D01*
X73544723Y-63410000D01*
X59062661Y-63410000D01*
X59058907Y-61620000D01*
X86284540Y-61620000D01*
X86304326Y-61808256D01*
X86304327Y-61808259D01*
X86362818Y-61988277D01*
X86362821Y-61988284D01*
X86457467Y-62152216D01*
X86528313Y-62230898D01*
X86584129Y-62292888D01*
X86737265Y-62404148D01*
X86737270Y-62404151D01*
X86910192Y-62481142D01*
X86910197Y-62481144D01*
X87095354Y-62520500D01*
X87095355Y-62520500D01*
X87284644Y-62520500D01*
X87284646Y-62520500D01*
X87469803Y-62481144D01*
X87642730Y-62404151D01*
X87795871Y-62292888D01*
X87922533Y-62152216D01*
X88017179Y-61988284D01*
X88075674Y-61808256D01*
X88093321Y-61640345D01*
X88119905Y-61575732D01*
X88128952Y-61565636D01*
X98593788Y-51100801D01*
X98606042Y-51090986D01*
X98605859Y-51090764D01*
X98611866Y-51085792D01*
X98611877Y-51085786D01*
X98642775Y-51052882D01*
X98659227Y-51035364D01*
X98669671Y-51024918D01*
X98680120Y-51014471D01*
X98684379Y-51008978D01*
X98688152Y-51004561D01*
X98720062Y-50970582D01*
X98729713Y-50953024D01*
X98740396Y-50936761D01*
X98752673Y-50920936D01*
X98771185Y-50878153D01*
X98773738Y-50872941D01*
X98796197Y-50832092D01*
X98801180Y-50812680D01*
X98807481Y-50794280D01*
X98815437Y-50775896D01*
X98822729Y-50729852D01*
X98823906Y-50724171D01*
X98835500Y-50679019D01*
X98835500Y-50658982D01*
X98837027Y-50639582D01*
X98838903Y-50627737D01*
X98840160Y-50619804D01*
X98835775Y-50573415D01*
X98835500Y-50567577D01*
X98835500Y-45309568D01*
X98855185Y-45242529D01*
X98907092Y-45197187D01*
X98942734Y-45180568D01*
X99129139Y-45050047D01*
X99290047Y-44889139D01*
X99420568Y-44702734D01*
X99516739Y-44496496D01*
X99575635Y-44276692D01*
X99595468Y-44050001D01*
X104604532Y-44050001D01*
X104624364Y-44276686D01*
X104624366Y-44276697D01*
X104683258Y-44496488D01*
X104683261Y-44496497D01*
X104779431Y-44702732D01*
X104779432Y-44702734D01*
X104909954Y-44889141D01*
X105070858Y-45050045D01*
X105070861Y-45050047D01*
X105257266Y-45180568D01*
X105463504Y-45276739D01*
X105683308Y-45335635D01*
X105845230Y-45349801D01*
X105909998Y-45355468D01*
X105910000Y-45355468D01*
X105910002Y-45355468D01*
X105966672Y-45350509D01*
X106136692Y-45335635D01*
X106356496Y-45276739D01*
X106562734Y-45180568D01*
X106749139Y-45050047D01*
X106910047Y-44889139D01*
X107040568Y-44702734D01*
X107136739Y-44496496D01*
X107195635Y-44276692D01*
X107215468Y-44050000D01*
X107211605Y-44005851D01*
X107206700Y-43949777D01*
X107195635Y-43823308D01*
X107136739Y-43603504D01*
X107040568Y-43397266D01*
X106910047Y-43210861D01*
X106910045Y-43210858D01*
X106749141Y-43049954D01*
X106562734Y-42919432D01*
X106562732Y-42919431D01*
X106356497Y-42823261D01*
X106356488Y-42823258D01*
X106136697Y-42764366D01*
X106136693Y-42764365D01*
X106136692Y-42764365D01*
X106136691Y-42764364D01*
X106136686Y-42764364D01*
X105910002Y-42744532D01*
X105909998Y-42744532D01*
X105683313Y-42764364D01*
X105683302Y-42764366D01*
X105463511Y-42823258D01*
X105463502Y-42823261D01*
X105257267Y-42919431D01*
X105257265Y-42919432D01*
X105070858Y-43049954D01*
X104909954Y-43210858D01*
X104779432Y-43397265D01*
X104779431Y-43397267D01*
X104683261Y-43603502D01*
X104683258Y-43603511D01*
X104624366Y-43823302D01*
X104624364Y-43823313D01*
X104604532Y-44049998D01*
X104604532Y-44050001D01*
X99595468Y-44050001D01*
X99595468Y-44050000D01*
X99591605Y-44005851D01*
X99586700Y-43949777D01*
X99575635Y-43823308D01*
X99516739Y-43603504D01*
X99420568Y-43397266D01*
X99290047Y-43210861D01*
X99290045Y-43210858D01*
X99129141Y-43049954D01*
X98942734Y-42919432D01*
X98942732Y-42919431D01*
X98736497Y-42823261D01*
X98736488Y-42823258D01*
X98516697Y-42764366D01*
X98516693Y-42764365D01*
X98516692Y-42764365D01*
X98516691Y-42764364D01*
X98516686Y-42764364D01*
X98290002Y-42744532D01*
X98289998Y-42744532D01*
X98063313Y-42764364D01*
X98063302Y-42764366D01*
X97843511Y-42823258D01*
X97843502Y-42823261D01*
X97637267Y-42919431D01*
X97637265Y-42919432D01*
X97450858Y-43049954D01*
X97289954Y-43210858D01*
X97159432Y-43397265D01*
X97159431Y-43397267D01*
X97063261Y-43603502D01*
X97063258Y-43603511D01*
X97004366Y-43823302D01*
X97004364Y-43823313D01*
X96984532Y-44049998D01*
X96984532Y-44050001D01*
X97004364Y-44276686D01*
X97004366Y-44276697D01*
X97063258Y-44496488D01*
X97063261Y-44496497D01*
X97159431Y-44702732D01*
X97159432Y-44702734D01*
X97289954Y-44889141D01*
X97450857Y-45050044D01*
X97450860Y-45050046D01*
X97450861Y-45050047D01*
X97531623Y-45106596D01*
X97575248Y-45161172D01*
X97584500Y-45208171D01*
X97584500Y-50289546D01*
X97564815Y-50356585D01*
X97548181Y-50377227D01*
X93733029Y-54192378D01*
X93671706Y-54225863D01*
X93602014Y-54220879D01*
X93546081Y-54179007D01*
X93526091Y-54135813D01*
X93525796Y-54135909D01*
X93524995Y-54133444D01*
X93524454Y-54132275D01*
X93524074Y-54130609D01*
X93454516Y-53916534D01*
X93347853Y-53718321D01*
X93347851Y-53718318D01*
X93207510Y-53542336D01*
X93207508Y-53542334D01*
X93037996Y-53394235D01*
X92844764Y-53278785D01*
X92726775Y-53234503D01*
X92634023Y-53199692D01*
X92412550Y-53159500D01*
X92412547Y-53159500D01*
X92243845Y-53159500D01*
X92205399Y-53162960D01*
X92075813Y-53174622D01*
X92075807Y-53174623D01*
X91858839Y-53234503D01*
X91858826Y-53234508D01*
X91656033Y-53332167D01*
X91656025Y-53332171D01*
X91473927Y-53464473D01*
X91473925Y-53464474D01*
X91318366Y-53627176D01*
X91194363Y-53815033D01*
X91105899Y-54022004D01*
X91105895Y-54022017D01*
X91055810Y-54241457D01*
X91055808Y-54241468D01*
X91050769Y-54353674D01*
X91045710Y-54466330D01*
X91075925Y-54689387D01*
X91075926Y-54689390D01*
X91145483Y-54903465D01*
X91252146Y-55101678D01*
X91252148Y-55101681D01*
X91392489Y-55277663D01*
X91392491Y-55277664D01*
X91392492Y-55277666D01*
X91562004Y-55425765D01*
X91755236Y-55541215D01*
X91965976Y-55620307D01*
X91984224Y-55623618D01*
X92020058Y-55630122D01*
X92082505Y-55661460D01*
X92118096Y-55721586D01*
X92115531Y-55791408D01*
X92085598Y-55839810D01*
X87242228Y-60683181D01*
X87180905Y-60716666D01*
X87154547Y-60719500D01*
X87095354Y-60719500D01*
X87062897Y-60726398D01*
X86910197Y-60758855D01*
X86910192Y-60758857D01*
X86737270Y-60835848D01*
X86737265Y-60835851D01*
X86584129Y-60947111D01*
X86457466Y-61087785D01*
X86362821Y-61251715D01*
X86362818Y-61251722D01*
X86304327Y-61431740D01*
X86304326Y-61431744D01*
X86284540Y-61620000D01*
X59058907Y-61620000D01*
X59048941Y-56867870D01*
X81459500Y-56867870D01*
X81459501Y-56867876D01*
X81465908Y-56927483D01*
X81516202Y-57062328D01*
X81516206Y-57062335D01*
X81602452Y-57177544D01*
X81602455Y-57177547D01*
X81717664Y-57263793D01*
X81717671Y-57263797D01*
X81852517Y-57314091D01*
X81852516Y-57314091D01*
X81859444Y-57314835D01*
X81912127Y-57320500D01*
X83207872Y-57320499D01*
X83267483Y-57314091D01*
X83267482Y-57314091D01*
X83402329Y-57263797D01*
X83402329Y-57263796D01*
X83402331Y-57263796D01*
X83451993Y-57226618D01*
X83517454Y-57202201D01*
X83571097Y-57210258D01*
X83757678Y-57282539D01*
X83958072Y-57320000D01*
X84161928Y-57320000D01*
X84362321Y-57282539D01*
X84552414Y-57208897D01*
X84640688Y-57154240D01*
X84170263Y-56683816D01*
X84136778Y-56622493D01*
X84141762Y-56552802D01*
X84183633Y-56496868D01*
X84192658Y-56490713D01*
X84265610Y-56445543D01*
X84333201Y-56356038D01*
X84333200Y-56356038D01*
X84340126Y-56346868D01*
X84343547Y-56349451D01*
X84375631Y-56314725D01*
X84443263Y-56297186D01*
X84509642Y-56318996D01*
X84526995Y-56333442D01*
X84997465Y-56803912D01*
X84999247Y-56801552D01*
X84999249Y-56801550D01*
X85090113Y-56619069D01*
X85090116Y-56619063D01*
X85145902Y-56422992D01*
X85145903Y-56422989D01*
X85164713Y-56220000D01*
X85164713Y-56219999D01*
X85145903Y-56017010D01*
X85145902Y-56017007D01*
X85090116Y-55820936D01*
X85090113Y-55820930D01*
X84999244Y-55638441D01*
X84997466Y-55636086D01*
X84997465Y-55636085D01*
X84523119Y-56110432D01*
X84461796Y-56143917D01*
X84392104Y-56138933D01*
X84336171Y-56097061D01*
X84324440Y-56078028D01*
X84303552Y-56036078D01*
X84220666Y-55960516D01*
X84214511Y-55958131D01*
X84159110Y-55915561D01*
X84135518Y-55849795D01*
X84151228Y-55781714D01*
X84171623Y-55754824D01*
X84640688Y-55285758D01*
X84640687Y-55285757D01*
X84552418Y-55231104D01*
X84552411Y-55231100D01*
X84362321Y-55157460D01*
X84161928Y-55120000D01*
X83958072Y-55120000D01*
X83757677Y-55157460D01*
X83571098Y-55229741D01*
X83501474Y-55235603D01*
X83451993Y-55213381D01*
X83402331Y-55176204D01*
X83402329Y-55176203D01*
X83402328Y-55176202D01*
X83267482Y-55125908D01*
X83267483Y-55125908D01*
X83207883Y-55119501D01*
X83207881Y-55119500D01*
X83207873Y-55119500D01*
X83207864Y-55119500D01*
X81912129Y-55119500D01*
X81912123Y-55119501D01*
X81852516Y-55125908D01*
X81717671Y-55176202D01*
X81717664Y-55176206D01*
X81602455Y-55262452D01*
X81602452Y-55262455D01*
X81516206Y-55377664D01*
X81516202Y-55377671D01*
X81465908Y-55512517D01*
X81459501Y-55572116D01*
X81459500Y-55572135D01*
X81459500Y-56867870D01*
X59048941Y-56867870D01*
X59043904Y-54466330D01*
X61045710Y-54466330D01*
X61075925Y-54689387D01*
X61075926Y-54689390D01*
X61145483Y-54903465D01*
X61252146Y-55101678D01*
X61252148Y-55101681D01*
X61392489Y-55277663D01*
X61392491Y-55277664D01*
X61392492Y-55277666D01*
X61562004Y-55425765D01*
X61755236Y-55541215D01*
X61965976Y-55620307D01*
X62187450Y-55660500D01*
X62187453Y-55660500D01*
X62356148Y-55660500D01*
X62356155Y-55660500D01*
X62524188Y-55645377D01*
X62557853Y-55636086D01*
X62741160Y-55585496D01*
X62741162Y-55585495D01*
X62741170Y-55585493D01*
X62943973Y-55487829D01*
X63126078Y-55355522D01*
X63281632Y-55192825D01*
X63405635Y-55004968D01*
X63494103Y-54797988D01*
X63544191Y-54578537D01*
X63554290Y-54353670D01*
X63524075Y-54130613D01*
X63454517Y-53916536D01*
X63347852Y-53718319D01*
X63207508Y-53542334D01*
X63037996Y-53394235D01*
X62844764Y-53278785D01*
X62726775Y-53234503D01*
X62634023Y-53199692D01*
X62412550Y-53159500D01*
X62412547Y-53159500D01*
X62243845Y-53159500D01*
X62205399Y-53162960D01*
X62075813Y-53174622D01*
X62075807Y-53174623D01*
X61858839Y-53234503D01*
X61858826Y-53234508D01*
X61656033Y-53332167D01*
X61656025Y-53332171D01*
X61473927Y-53464473D01*
X61473925Y-53464474D01*
X61318366Y-53627176D01*
X61194363Y-53815033D01*
X61105899Y-54022004D01*
X61105895Y-54022017D01*
X61055810Y-54241457D01*
X61055808Y-54241468D01*
X61050769Y-54353674D01*
X61045710Y-54466330D01*
X59043904Y-54466330D01*
X59034868Y-50157870D01*
X81319500Y-50157870D01*
X81319501Y-50157876D01*
X81325908Y-50217483D01*
X81376202Y-50352328D01*
X81376206Y-50352335D01*
X81462452Y-50467544D01*
X81462455Y-50467547D01*
X81577664Y-50553793D01*
X81577671Y-50553797D01*
X81712517Y-50604091D01*
X81712516Y-50604091D01*
X81719444Y-50604835D01*
X81772127Y-50610500D01*
X83067872Y-50610499D01*
X83127483Y-50604091D01*
X83209730Y-50573415D01*
X83262329Y-50553797D01*
X83262329Y-50553796D01*
X83262331Y-50553796D01*
X83311993Y-50516618D01*
X83377454Y-50492201D01*
X83431097Y-50500258D01*
X83617678Y-50572539D01*
X83818072Y-50610000D01*
X84021928Y-50610000D01*
X84222321Y-50572539D01*
X84412414Y-50498897D01*
X84500688Y-50444240D01*
X84030263Y-49973816D01*
X83996778Y-49912493D01*
X84001762Y-49842802D01*
X84043633Y-49786868D01*
X84052658Y-49780713D01*
X84125610Y-49735543D01*
X84193201Y-49646038D01*
X84193200Y-49646038D01*
X84200126Y-49636868D01*
X84203540Y-49639446D01*
X84235721Y-49604673D01*
X84303368Y-49587190D01*
X84369728Y-49609056D01*
X84386995Y-49623443D01*
X84857465Y-50093912D01*
X84859247Y-50091552D01*
X84859249Y-50091550D01*
X84950113Y-49909069D01*
X84950116Y-49909063D01*
X85005902Y-49712992D01*
X85005903Y-49712989D01*
X85024713Y-49510000D01*
X85024713Y-49509999D01*
X85005903Y-49307010D01*
X85005902Y-49307007D01*
X84950116Y-49110936D01*
X84950113Y-49110930D01*
X84859244Y-48928441D01*
X84857466Y-48926086D01*
X84857465Y-48926085D01*
X84383119Y-49400432D01*
X84321796Y-49433917D01*
X84252104Y-49428933D01*
X84196171Y-49387061D01*
X84184440Y-49368028D01*
X84163552Y-49326078D01*
X84080666Y-49250516D01*
X84074511Y-49248131D01*
X84019110Y-49205561D01*
X83995518Y-49139795D01*
X84011228Y-49071714D01*
X84031623Y-49044824D01*
X84500688Y-48575758D01*
X84500687Y-48575757D01*
X84412418Y-48521104D01*
X84412411Y-48521100D01*
X84222321Y-48447460D01*
X84021928Y-48410000D01*
X83818072Y-48410000D01*
X83617677Y-48447460D01*
X83431098Y-48519741D01*
X83361474Y-48525603D01*
X83311993Y-48503381D01*
X83310801Y-48502489D01*
X83262331Y-48466204D01*
X83262329Y-48466203D01*
X83262328Y-48466202D01*
X83127482Y-48415908D01*
X83127483Y-48415908D01*
X83067883Y-48409501D01*
X83067881Y-48409500D01*
X83067873Y-48409500D01*
X83067864Y-48409500D01*
X81772129Y-48409500D01*
X81772123Y-48409501D01*
X81712516Y-48415908D01*
X81577671Y-48466202D01*
X81577664Y-48466206D01*
X81462455Y-48552452D01*
X81462452Y-48552455D01*
X81376206Y-48667664D01*
X81376202Y-48667671D01*
X81325908Y-48802517D01*
X81319501Y-48862116D01*
X81319500Y-48862135D01*
X81319500Y-50157870D01*
X59034868Y-50157870D01*
X59023611Y-44790000D01*
X93664540Y-44790000D01*
X93684326Y-44978256D01*
X93684327Y-44978259D01*
X93742818Y-45158277D01*
X93742821Y-45158284D01*
X93837467Y-45322216D01*
X93964128Y-45462888D01*
X93964129Y-45462888D01*
X94117265Y-45574148D01*
X94117270Y-45574151D01*
X94290192Y-45651142D01*
X94290197Y-45651144D01*
X94475354Y-45690500D01*
X94475355Y-45690500D01*
X94664644Y-45690500D01*
X94664646Y-45690500D01*
X94849803Y-45651144D01*
X95022730Y-45574151D01*
X95175871Y-45462888D01*
X95302533Y-45322216D01*
X95397179Y-45158284D01*
X95455674Y-44978256D01*
X95473321Y-44810345D01*
X95499905Y-44745732D01*
X95508952Y-44735636D01*
X95583786Y-44660802D01*
X95596048Y-44650980D01*
X95595865Y-44650759D01*
X95601867Y-44645792D01*
X95601877Y-44645786D01*
X95649241Y-44595348D01*
X95670120Y-44574470D01*
X95674373Y-44568986D01*
X95678150Y-44564563D01*
X95710062Y-44530582D01*
X95719714Y-44513023D01*
X95730389Y-44496772D01*
X95742674Y-44480936D01*
X95761186Y-44438152D01*
X95763742Y-44432935D01*
X95786197Y-44392092D01*
X95791180Y-44372680D01*
X95797477Y-44354291D01*
X95805438Y-44335895D01*
X95812729Y-44289853D01*
X95813908Y-44284162D01*
X95825500Y-44239019D01*
X95825500Y-44218982D01*
X95827027Y-44199582D01*
X95830160Y-44179803D01*
X95830160Y-44179800D01*
X95827335Y-44149922D01*
X95825772Y-44133394D01*
X95825500Y-44127599D01*
X95825500Y-42684498D01*
X95845185Y-42617459D01*
X95897989Y-42571705D01*
X95949500Y-42560499D01*
X96247871Y-42560499D01*
X96247872Y-42560499D01*
X96307483Y-42554091D01*
X96442331Y-42503796D01*
X96557546Y-42417546D01*
X96643796Y-42302331D01*
X96694091Y-42167483D01*
X96700500Y-42107873D01*
X96700500Y-41060005D01*
X99694357Y-41060005D01*
X99714890Y-41307812D01*
X99714892Y-41307824D01*
X99775936Y-41548881D01*
X99875826Y-41776606D01*
X100011833Y-41984782D01*
X100011836Y-41984785D01*
X100180256Y-42167738D01*
X100376491Y-42320474D01*
X100595190Y-42438828D01*
X100830386Y-42519571D01*
X101075665Y-42560500D01*
X101324335Y-42560500D01*
X101569614Y-42519571D01*
X101804810Y-42438828D01*
X102023509Y-42320474D01*
X102219744Y-42167738D01*
X102388164Y-41984785D01*
X102524173Y-41776607D01*
X102624063Y-41548881D01*
X102685108Y-41307821D01*
X102694871Y-41190000D01*
X102705643Y-41060005D01*
X102705643Y-41059994D01*
X102685109Y-40812187D01*
X102685107Y-40812175D01*
X102624063Y-40571118D01*
X102524173Y-40343393D01*
X102388166Y-40135217D01*
X102366557Y-40111744D01*
X102219744Y-39952262D01*
X102023509Y-39799526D01*
X102023507Y-39799525D01*
X102023506Y-39799524D01*
X101804811Y-39681172D01*
X101804802Y-39681169D01*
X101569616Y-39600429D01*
X101324335Y-39559500D01*
X101075665Y-39559500D01*
X100830383Y-39600429D01*
X100595197Y-39681169D01*
X100595188Y-39681172D01*
X100376493Y-39799524D01*
X100180257Y-39952261D01*
X100011833Y-40135217D01*
X99875826Y-40343393D01*
X99775936Y-40571118D01*
X99714892Y-40812175D01*
X99714890Y-40812187D01*
X99694357Y-41059994D01*
X99694357Y-41060005D01*
X96700500Y-41060005D01*
X96700499Y-40012128D01*
X96694091Y-39952517D01*
X96643796Y-39817669D01*
X96643795Y-39817668D01*
X96643793Y-39817664D01*
X96557547Y-39702455D01*
X96557544Y-39702452D01*
X96442335Y-39616206D01*
X96442328Y-39616202D01*
X96307482Y-39565908D01*
X96307483Y-39565908D01*
X96247883Y-39559501D01*
X96247881Y-39559500D01*
X96247873Y-39559500D01*
X96247864Y-39559500D01*
X94152129Y-39559500D01*
X94152123Y-39559501D01*
X94092516Y-39565908D01*
X93957671Y-39616202D01*
X93957664Y-39616206D01*
X93842455Y-39702452D01*
X93842452Y-39702455D01*
X93756206Y-39817664D01*
X93756202Y-39817671D01*
X93705908Y-39952517D01*
X93699501Y-40012116D01*
X93699501Y-40012123D01*
X93699500Y-40012135D01*
X93699500Y-42107870D01*
X93699501Y-42107876D01*
X93705908Y-42167483D01*
X93756202Y-42302328D01*
X93756206Y-42302335D01*
X93842452Y-42417544D01*
X93842455Y-42417547D01*
X93957664Y-42503793D01*
X93957671Y-42503797D01*
X93999961Y-42519570D01*
X94092517Y-42554091D01*
X94152127Y-42560500D01*
X94450500Y-42560499D01*
X94517539Y-42580183D01*
X94563294Y-42632987D01*
X94574500Y-42684499D01*
X94574500Y-43768013D01*
X94554815Y-43835052D01*
X94502011Y-43880807D01*
X94476281Y-43889303D01*
X94290197Y-43928855D01*
X94290192Y-43928857D01*
X94117270Y-44005848D01*
X94117265Y-44005851D01*
X93964129Y-44117111D01*
X93837466Y-44257785D01*
X93742821Y-44421715D01*
X93742818Y-44421722D01*
X93686404Y-44595348D01*
X93684326Y-44601744D01*
X93664540Y-44790000D01*
X59023611Y-44790000D01*
X59019517Y-42838091D01*
X59039060Y-42771015D01*
X59091768Y-42725150D01*
X59160906Y-42715061D01*
X59224522Y-42743953D01*
X59250903Y-42775836D01*
X59288870Y-42841597D01*
X59497584Y-43121949D01*
X59497589Y-43121955D01*
X59581468Y-43210861D01*
X59737442Y-43376183D01*
X59913903Y-43524251D01*
X60005186Y-43600847D01*
X60005194Y-43600853D01*
X60297203Y-43792911D01*
X60297207Y-43792913D01*
X60609549Y-43949777D01*
X60937989Y-44069319D01*
X61278086Y-44149923D01*
X61625241Y-44190500D01*
X61625248Y-44190500D01*
X61974752Y-44190500D01*
X61974759Y-44190500D01*
X62321914Y-44149923D01*
X62662011Y-44069319D01*
X62990451Y-43949777D01*
X63302793Y-43792913D01*
X63594811Y-43600849D01*
X63862558Y-43376183D01*
X64102412Y-43121953D01*
X64311130Y-42841596D01*
X64485889Y-42538904D01*
X64624326Y-42217971D01*
X64724569Y-41883136D01*
X64726333Y-41873136D01*
X64785260Y-41538938D01*
X64785259Y-41538938D01*
X64785262Y-41538927D01*
X64805585Y-41190000D01*
X64805002Y-41179996D01*
X64801554Y-41120796D01*
X64785262Y-40841073D01*
X64780167Y-40812175D01*
X64724571Y-40496872D01*
X64724569Y-40496865D01*
X64724569Y-40496864D01*
X64624326Y-40162029D01*
X64485889Y-39841096D01*
X64327010Y-39565909D01*
X64311129Y-39538402D01*
X64102415Y-39258050D01*
X64102410Y-39258044D01*
X63986433Y-39135117D01*
X63862558Y-39003817D01*
X63714488Y-38879572D01*
X63594813Y-38779152D01*
X63594805Y-38779146D01*
X63302796Y-38587088D01*
X63198702Y-38534810D01*
X63147627Y-38487132D01*
X63130438Y-38419410D01*
X63152591Y-38353145D01*
X63207052Y-38309376D01*
X63254353Y-38300000D01*
X115185736Y-38300000D01*
X115252775Y-38319685D01*
G37*
%TD.AperFunction*%
%TD*%
M02*
