M48
; DRILL file {KiCad 7.0.7} date Fri Dec  5 14:06:07 2025
; FORMAT={-:-/ absolute / inch / decimal}
; #@! TF.CreationDate,2025-12-05T14:06:07+01:00
; #@! TF.GenerationSoftware,Kicad,Pcbnew,7.0.7
; #@! TF.FileFunction,MixedPlating,1,2
FMAT,2
INCH
; #@! TA.AperFunction,Plated,PTH,ComponentDrill
T1C0.0118
; #@! TA.AperFunction,Plated,PTH,ViaDrill
T2C0.0157
; #@! TA.AperFunction,Plated,PTH,ComponentDrill
T3C0.0236
; #@! TA.AperFunction,Plated,PTH,ComponentDrill
T4C0.0276
; #@! TA.AperFunction,Plated,PTH,ComponentDrill
T5C0.0295
; #@! TA.AperFunction,Plated,PTH,ComponentDrill
T6C0.0315
; #@! TA.AperFunction,Plated,PTH,ComponentDrill
T7C0.0320
; #@! TA.AperFunction,Plated,PTH,ComponentDrill
T8C0.0354
; #@! TA.AperFunction,Plated,PTH,ComponentDrill
T9C0.0394
; #@! TA.AperFunction,Plated,PTH,ComponentDrill
T10C0.0598
; #@! TA.AperFunction,Plated,PTH,ComponentDrill
T11C0.0984
; #@! TA.AperFunction,NonPlated,NPTH,ComponentDrill
T12C0.0787
%
G90
G05
T1
X2.6945Y-2.972
X2.6945Y-3.0154
X2.7161Y-2.9504
X2.7161Y-2.9937
X2.7161Y-3.037
X2.7378Y-2.972
X2.7378Y-3.0154
X2.7594Y-2.9504
X2.7594Y-2.9937
X2.7594Y-3.037
X2.7811Y-2.972
X2.7811Y-3.0154
T2
X2.5043Y-2.8965
X2.5067Y-2.8417
X2.8681Y-2.9043
X3.1846Y-2.8193
X3.2035Y-2.7594
X3.2634Y-3.0126
X3.278Y-3.1118
X3.4327Y-2.426
X3.7232Y-1.7634
X3.8465Y-2.8705
X4.1382Y-2.6823
T3
X3.2449Y-1.9492
X3.2504Y-2.2134
X3.3039Y-1.9492
X3.3094Y-2.2134
T4
X4.4189Y-3.2287
X4.4248Y-3.0846
X4.6189Y-3.2287
X4.6248Y-3.0846
T5
X3.6378Y-3.4398
X3.6878Y-3.4398
X3.7378Y-3.4398
T6
X3.8697Y-1.7343
X4.1697Y-1.7343
T7
X4.3213Y-2.3449
X4.3213Y-2.5449
X4.3303Y-2.7295
X4.3303Y-2.9295
X4.6213Y-2.3449
X4.6213Y-2.5449
X4.6303Y-2.7295
X4.6303Y-2.9295
T8
X2.9449Y-2.4965
X3.0433Y-2.4965
X3.1417Y-2.4965
T9
X3.3854Y-2.9161
X3.3854Y-3.0161
X3.3854Y-3.1161
X3.3854Y-3.2161
X3.5118Y-2.9394
X3.748Y-1.6165
X3.9604Y-1.9165
X3.9843Y-1.6165
X4.0604Y-1.9165
X4.0882Y-3.3801
X4.0882Y-3.4801
X4.2205Y-2.9394
T10
X4.5016Y-1.8689
X4.5016Y-2.0689
T11
X2.4331Y-1.6217
X4.5791Y-3.426
X4.5929Y-1.6213
T12
X2.4528Y-2.1421
X3.6339Y-2.1421
T0
M30
