%TF.GenerationSoftware,KiCad,Pcbnew,7.0.7*%
%TF.CreationDate,2025-12-05T14:06:05+01:00*%
%TF.ProjectId,centralv2,63656e74-7261-46c7-9632-2e6b69636164,rev?*%
%TF.SameCoordinates,Original*%
%TF.FileFunction,Copper,L1,Top*%
%TF.FilePolarity,Positive*%
%FSLAX46Y46*%
G04 Gerber Fmt 4.6, Leading zero omitted, Abs format (unit mm)*
G04 Created by KiCad (PCBNEW 7.0.7) date 2025-12-05 14:06:05*
%MOMM*%
%LPD*%
G01*
G04 APERTURE LIST*
%TA.AperFunction,ComponentPad*%
%ADD10C,1.397000*%
%TD*%
%TA.AperFunction,ComponentPad*%
%ADD11C,1.500000*%
%TD*%
%TA.AperFunction,ComponentPad*%
%ADD12R,1.700000X1.700000*%
%TD*%
%TA.AperFunction,ComponentPad*%
%ADD13O,1.700000X1.700000*%
%TD*%
%TA.AperFunction,ComponentPad*%
%ADD14C,5.000000*%
%TD*%
%TA.AperFunction,ComponentPad*%
%ADD15R,1.200000X1.200000*%
%TD*%
%TA.AperFunction,ComponentPad*%
%ADD16C,1.200000*%
%TD*%
%TA.AperFunction,ComponentPad*%
%ADD17R,3.000000X3.000000*%
%TD*%
%TA.AperFunction,ComponentPad*%
%ADD18C,3.000000*%
%TD*%
%TA.AperFunction,ComponentPad*%
%ADD19R,1.050000X1.500000*%
%TD*%
%TA.AperFunction,ComponentPad*%
%ADD20O,1.050000X1.500000*%
%TD*%
%TA.AperFunction,ComponentPad*%
%ADD21C,1.400000*%
%TD*%
%TA.AperFunction,ComponentPad*%
%ADD22O,1.400000X1.400000*%
%TD*%
%TA.AperFunction,SMDPad,CuDef*%
%ADD23R,2.000000X1.500000*%
%TD*%
%TA.AperFunction,SMDPad,CuDef*%
%ADD24R,2.000000X3.800000*%
%TD*%
%TA.AperFunction,SMDPad,CuDef*%
%ADD25R,1.500000X0.900000*%
%TD*%
%TA.AperFunction,SMDPad,CuDef*%
%ADD26R,0.700000X0.700000*%
%TD*%
%TA.AperFunction,ComponentPad*%
%ADD27C,0.400000*%
%TD*%
%TA.AperFunction,ComponentPad*%
%ADD28R,2.000000X2.000000*%
%TD*%
%TA.AperFunction,ComponentPad*%
%ADD29C,2.000000*%
%TD*%
%TA.AperFunction,ComponentPad*%
%ADD30C,1.600000*%
%TD*%
%TA.AperFunction,ComponentPad*%
%ADD31O,1.600000X1.600000*%
%TD*%
%TA.AperFunction,ViaPad*%
%ADD32C,0.800000*%
%TD*%
%TA.AperFunction,Conductor*%
%ADD33C,0.250000*%
%TD*%
G04 APERTURE END LIST*
D10*
%TO.P,Reset,1,Pin_1*%
%TO.N,GND*%
X109760000Y-59560000D03*
X117380000Y-59560000D03*
%TO.P,Reset,2,Pin_2*%
%TO.N,+3V3*%
X109760000Y-64640000D03*
X117380000Y-64640000D03*
%TD*%
D11*
%TO.P,PIR1,1,Pin_1*%
%TO.N,+5V*%
X74800000Y-63410000D03*
%TO.P,PIR1,2,Pin_2*%
%TO.N,PIR*%
X77300000Y-63410000D03*
%TO.P,PIR1,3,Pin_3*%
%TO.N,GND*%
X79800000Y-63410000D03*
%TD*%
D12*
%TO.P,Fotoresistencia1,1,Pin_1*%
%TO.N,GND*%
X103840000Y-85855000D03*
D13*
%TO.P,Fotoresistencia1,2,Pin_2*%
%TO.N,Fresistor*%
X103840000Y-88395000D03*
%TD*%
D12*
%TO.P,Uart,1,Pin_1*%
%TO.N,+5V*%
X85990000Y-74070000D03*
D13*
%TO.P,Uart,2,Pin_2*%
%TO.N,Net-(U1-RXD)*%
X85990000Y-76610000D03*
%TO.P,Uart,3,Pin_3*%
%TO.N,Net-(U1-TXD)*%
X85990000Y-79150000D03*
%TO.P,Uart,4,Pin_4*%
%TO.N,GND*%
X85990000Y-81690000D03*
%TD*%
D14*
%TO.P,REF3,1*%
%TO.N,N/C*%
X116310000Y-87020000D03*
%TD*%
D10*
%TO.P,Boot,1,Pin_1*%
%TO.N,unconnected-(Boot1-Pin_1-Pad1)*%
X109990000Y-69330000D03*
X117610000Y-69330000D03*
%TO.P,Boot,2,Pin_2*%
%TO.N,GND*%
X109990000Y-74410000D03*
X117610000Y-74410000D03*
%TD*%
D15*
%TO.P,C2,1*%
%TO.N,+3V3*%
X82560000Y-56220000D03*
D16*
%TO.P,C2,2*%
%TO.N,GND*%
X84060000Y-56220000D03*
%TD*%
D17*
%TO.P,Alimentacion220V,1,Pin_1*%
%TO.N,AC*%
X114340000Y-52550000D03*
D18*
%TO.P,Alimentacion220V,2,Pin_2*%
%TO.N,Earth*%
X114340000Y-47470000D03*
%TD*%
D15*
%TO.P,C1,1*%
%TO.N,+5V*%
X82420000Y-49510000D03*
D16*
%TO.P,C1,2*%
%TO.N,GND*%
X83920000Y-49510000D03*
%TD*%
D19*
%TO.P,U3,1,GND*%
%TO.N,GND*%
X92400000Y-87370000D03*
D20*
%TO.P,U3,2,DQ*%
%TO.N,tem*%
X93670000Y-87370000D03*
%TO.P,U3,3,V_{DD}*%
%TO.N,+3V3*%
X94940000Y-87370000D03*
%TD*%
D14*
%TO.P,REF3,1*%
%TO.N,N/C*%
X61800000Y-41190000D03*
%TD*%
D21*
%TO.P,R2,1*%
%TO.N,tem*%
X112240000Y-82010000D03*
D22*
%TO.P,R2,2*%
%TO.N,+3V3*%
X117320000Y-82010000D03*
%TD*%
D12*
%TO.P,LP,1,Pin_1*%
%TO.N,GND*%
X100595000Y-48680000D03*
D13*
%TO.P,LP,2,Pin_2*%
%TO.N,Net-(LP1-Pin_2)*%
X103135000Y-48680000D03*
%TD*%
D23*
%TO.P,U2,1,GND*%
%TO.N,GND*%
X69190000Y-48050000D03*
%TO.P,U2,2,VO*%
%TO.N,+3V3*%
X69190000Y-50350000D03*
%TO.P,U2,3,VI*%
%TO.N,+5V*%
X69190000Y-52650000D03*
D24*
%TO.P,U2,4*%
%TO.N,N/C*%
X75490000Y-50350000D03*
%TD*%
D25*
%TO.P,U1,1,3V3*%
%TO.N,+3V3*%
X79250000Y-82240000D03*
%TO.P,U1,2,EN*%
%TO.N,Net-(Reset1-Pin_4)*%
X79250000Y-80740000D03*
%TO.P,U1,3,IO4*%
%TO.N,Fresistor*%
X79250000Y-79240000D03*
%TO.P,U1,4,IO5*%
%TO.N,tem*%
X79250000Y-77740000D03*
%TO.P,U1,5,IO6*%
%TO.N,unconnected-(U1-IO6-Pad5)*%
X79250000Y-76240000D03*
%TO.P,U1,6,IO7*%
%TO.N,PIR*%
X79250000Y-74740000D03*
%TO.P,U1,7,IO8*%
%TO.N,+3V3*%
X79250000Y-73240000D03*
%TO.P,U1,8,IO9*%
%TO.N,boot*%
X79250000Y-71740000D03*
%TO.P,U1,9,GND*%
%TO.N,GND*%
X79250000Y-70240000D03*
%TO.P,U1,10,IO10*%
%TO.N,unconnected-(U1-IO10-Pad10)*%
X61750000Y-70240000D03*
%TO.P,U1,11,RXD*%
%TO.N,Net-(U1-RXD)*%
X61750000Y-71740000D03*
%TO.P,U1,12,TXD*%
%TO.N,Net-(U1-TXD)*%
X61750000Y-73240000D03*
%TO.P,U1,13,IO18*%
%TO.N,Led*%
X61750000Y-74740000D03*
%TO.P,U1,14,IO19*%
%TO.N,unconnected-(U1-IO19-Pad14)*%
X61750000Y-76240000D03*
%TO.P,U1,15,IO3*%
%TO.N,unconnected-(U1-IO3-Pad15)*%
X61750000Y-77740000D03*
%TO.P,U1,16,IO2*%
%TO.N,unconnected-(U1-IO2-Pad16)*%
X61750000Y-79240000D03*
%TO.P,U1,17,IO1*%
%TO.N,unconnected-(U1-IO1-Pad17)*%
X61750000Y-80740000D03*
%TO.P,U1,18,IO0*%
%TO.N,unconnected-(U1-IO0-Pad18)*%
X61750000Y-82240000D03*
D26*
%TO.P,U1,19,GND*%
%TO.N,GND*%
X70640000Y-77140000D03*
%TO.P,U1,20,GND*%
X69540000Y-77140000D03*
%TO.P,U1,21,GND*%
X68440000Y-77140000D03*
%TO.P,U1,22,GND*%
X70640000Y-76040000D03*
%TO.P,U1,23,GND*%
X69540000Y-76040000D03*
%TO.P,U1,24,GND*%
X68440000Y-76040000D03*
%TO.P,U1,25,GND*%
X70640000Y-74940000D03*
%TO.P,U1,26,GND*%
X69540000Y-74940000D03*
%TO.P,U1,27,GND*%
X68440000Y-74940000D03*
D27*
%TO.P,U1,28,GND*%
X70090000Y-77140000D03*
%TO.P,U1,29,GND*%
X68990000Y-77140000D03*
%TO.P,U1,30,GND*%
X70640000Y-76590000D03*
%TO.P,U1,31,GND*%
X69540000Y-76590000D03*
%TO.P,U1,32,GND*%
X68440000Y-76590000D03*
%TO.P,U1,33,GND*%
X70090000Y-76040000D03*
%TO.P,U1,34,GND*%
X68990000Y-76040000D03*
%TO.P,U1,35,GND*%
X70640000Y-75490000D03*
%TO.P,U1,36,GND*%
X69540000Y-75490000D03*
%TO.P,U1,37,GND*%
X68440000Y-75490000D03*
%TO.P,U1,38,GND*%
X70090000Y-74940000D03*
%TO.P,U1,39,GND*%
X68990000Y-74940000D03*
%TD*%
D28*
%TO.P,PS2,1,AC/L*%
%TO.N,AC*%
X95200000Y-41060000D03*
D29*
%TO.P,PS2,2,AC/N*%
%TO.N,Earth*%
X101200000Y-41060000D03*
%TO.P,PS2,3,-Vout*%
%TO.N,GND*%
X89200000Y-74660000D03*
%TO.P,PS2,4,+Vout*%
%TO.N,+5V*%
X107200000Y-74660000D03*
%TD*%
D14*
%TO.P,REF3,1*%
%TO.N,N/C*%
X116660000Y-41180000D03*
%TD*%
D30*
%TO.P,Res_F,1*%
%TO.N,+3.3V*%
X98290000Y-44050000D03*
D31*
%TO.P,Res_F,2*%
%TO.N,Fresistor*%
X105910000Y-44050000D03*
%TD*%
D21*
%TO.P,R1,1*%
%TO.N,Net-(LP1-Pin_2)*%
X112390000Y-78350000D03*
D22*
%TO.P,R1,2*%
%TO.N,Led*%
X117470000Y-78350000D03*
%TD*%
D32*
%TO.N,AC*%
X94570000Y-44790000D03*
%TO.N,+5V*%
X97700000Y-72910000D03*
%TO.N,GND*%
X81370000Y-70090000D03*
X72850000Y-73770000D03*
%TO.N,+3V3*%
X87190000Y-61620000D03*
%TO.N,Net-(LP1-Pin_2)*%
X105110000Y-68130000D03*
%TO.N,boot*%
X80890000Y-71610000D03*
%TO.N,Net-(U1-RXD)*%
X63670000Y-72180000D03*
X82890000Y-76520000D03*
%TO.N,Net-(U1-TXD)*%
X63610000Y-73570000D03*
X83260000Y-79040000D03*
%TD*%
D33*
%TO.N,AC*%
X94570000Y-44790500D02*
X102339500Y-52560000D01*
X94570000Y-44790000D02*
X94570000Y-44790500D01*
X94569500Y-44790000D02*
X94570000Y-44790000D01*
%TO.N,Earth*%
X101200000Y-41060000D02*
X107950000Y-41060000D01*
X107950000Y-41060000D02*
X107995000Y-41105000D01*
X114370000Y-47480000D02*
X107995000Y-41105000D01*
%TO.N,+5V*%
X97700000Y-72900000D02*
X100320000Y-70280000D01*
X97700000Y-72910000D02*
X97700000Y-72900000D01*
X97690000Y-72910000D02*
X97700000Y-72910000D01*
X97600000Y-72880000D02*
X97660000Y-72940000D01*
X88040000Y-72880000D02*
X97600000Y-72880000D01*
X97660000Y-72940000D02*
X97690000Y-72910000D01*
X86850000Y-74070000D02*
X88040000Y-72880000D01*
X85990000Y-74070000D02*
X86850000Y-74070000D01*
%TO.N,GND*%
X72850000Y-73810000D02*
X72850000Y-73770000D01*
X69190000Y-48050000D02*
X69830300Y-47409700D01*
X81220000Y-70240000D02*
X81370000Y-70090000D01*
X83920000Y-49160000D02*
X83920000Y-49510000D01*
X70640000Y-74940000D02*
X71720000Y-74940000D01*
X72890000Y-73770000D02*
X72850000Y-73810000D01*
X79250000Y-70240000D02*
X81220000Y-70240000D01*
X69830300Y-47409700D02*
X82169700Y-47409700D01*
X82169700Y-47409700D02*
X83920000Y-49160000D01*
X72850000Y-73770000D02*
X72890000Y-73770000D01*
X71720000Y-74940000D02*
X72850000Y-73810000D01*
%TO.N,+5V*%
X72340000Y-48124800D02*
X80109700Y-48124800D01*
X118435200Y-65083400D02*
X116398400Y-67120200D01*
X69190000Y-52650000D02*
X67864800Y-51324800D01*
X117549800Y-63300700D02*
X118435200Y-64186100D01*
X69190000Y-52650000D02*
X69190000Y-53725100D01*
X85400000Y-74660000D02*
X85990000Y-74070000D01*
X67864800Y-49402900D02*
X67992900Y-49274800D01*
X67864800Y-51324800D02*
X67864800Y-49402900D01*
X82420000Y-49510000D02*
X81957500Y-49510000D01*
X103479800Y-67120200D02*
X100320000Y-70280000D01*
X67992900Y-49274800D02*
X71190000Y-49274800D01*
X80109700Y-48124800D02*
X81494900Y-49510000D01*
X74790000Y-63420000D02*
X74790000Y-59325100D01*
X74790000Y-59325100D02*
X69190000Y-53725100D01*
X81957500Y-49510000D02*
X81494900Y-49510000D01*
X81957500Y-49510000D02*
X95748200Y-63300700D01*
X95748200Y-63300700D02*
X117549800Y-63300700D01*
X118435200Y-64186100D02*
X118435200Y-65083400D01*
X116398400Y-67120200D02*
X103479800Y-67120200D01*
X71190000Y-49274800D02*
X72340000Y-48124800D01*
%TO.N,+3V3*%
X79450000Y-80540000D02*
X80325100Y-80540000D01*
X95170000Y-87330000D02*
X96020100Y-87330000D01*
X80325100Y-82240000D02*
X84340000Y-86254900D01*
X80325100Y-82240000D02*
X80325100Y-80540000D01*
X80325100Y-80540000D02*
X80325100Y-73388700D01*
X95170000Y-86884900D02*
X94540000Y-86254900D01*
X114887900Y-83487000D02*
X99863100Y-83487000D01*
X88895100Y-63480200D02*
X88895100Y-64670000D01*
X87190000Y-61620000D02*
X87190000Y-61775100D01*
X79250000Y-82240000D02*
X80212600Y-82240000D01*
X88895100Y-64670000D02*
X109780000Y-64670000D01*
X82560000Y-56220000D02*
X82560000Y-57145100D01*
X79250000Y-73240000D02*
X80176400Y-73240000D01*
X69190000Y-50350000D02*
X75060000Y-56220000D01*
X84340000Y-86254900D02*
X94540000Y-86254900D01*
X80176400Y-73240000D02*
X80325100Y-73240000D01*
X87034900Y-61620000D02*
X87190000Y-61620000D01*
X80325100Y-73388700D02*
X80176400Y-73240000D01*
X80325100Y-73240000D02*
X88895100Y-64670000D01*
X117400000Y-64670000D02*
X109780000Y-64670000D01*
X75060000Y-56220000D02*
X82560000Y-56220000D01*
X116374900Y-82000000D02*
X114887900Y-83487000D01*
X79250000Y-80740000D02*
X79450000Y-80540000D01*
X117400000Y-82000000D02*
X116374900Y-82000000D01*
X87190000Y-61775100D02*
X88895100Y-63480200D01*
X82560000Y-57145100D02*
X87034900Y-61620000D01*
X95170000Y-87330000D02*
X95170000Y-86884900D01*
X80212600Y-82240000D02*
X80325100Y-82240000D01*
X99863100Y-83487000D02*
X96020100Y-87330000D01*
%TO.N,Fresistor*%
X103056000Y-42381100D02*
X94229600Y-42381100D01*
X64440100Y-74309100D02*
X64440100Y-69464900D01*
X102604900Y-88425000D02*
X100855900Y-90174000D01*
X91649300Y-39800800D02*
X74586500Y-39800800D01*
X60200000Y-89148800D02*
X60200000Y-70130300D01*
X61225200Y-90174000D02*
X60200000Y-89148800D01*
X69371000Y-79240000D02*
X64440100Y-74309100D01*
X64440100Y-65890200D02*
X64440100Y-65840000D01*
X94229600Y-42381100D02*
X91649300Y-39800800D01*
X64440100Y-49947200D02*
X64440100Y-65840000D01*
X79250000Y-79240000D02*
X69371000Y-79240000D01*
X64440100Y-65840000D02*
X64440100Y-69464900D01*
X74586500Y-39800800D02*
X64440100Y-49947200D01*
X105830000Y-44030000D02*
X104704900Y-44030000D01*
X60200000Y-70130300D02*
X64440100Y-65890200D01*
X100855900Y-90174000D02*
X61225200Y-90174000D01*
X104704900Y-44030000D02*
X103056000Y-42381100D01*
X103780000Y-88425000D02*
X102604900Y-88425000D01*
%TO.N,Net-(LP1-Pin_2)*%
X107120000Y-77380000D02*
X105000000Y-75260000D01*
X105000000Y-68170000D02*
X105040000Y-68130000D01*
X112390000Y-78350000D02*
X111420000Y-77380000D01*
X105110000Y-68060000D02*
X105030000Y-68140000D01*
X111420000Y-77380000D02*
X107120000Y-77380000D01*
X105040000Y-68130000D02*
X105110000Y-68130000D01*
X105000000Y-75260000D02*
X105000000Y-68170000D01*
X105110000Y-68130000D02*
X105110000Y-68060000D01*
%TO.N,PIR*%
X78174900Y-64304900D02*
X77290000Y-63420000D01*
X79250000Y-74740000D02*
X78174900Y-74740000D01*
X78174900Y-74740000D02*
X78174900Y-64304900D01*
%TO.N,AC*%
X102339500Y-52560000D02*
X114370000Y-52560000D01*
%TO.N,Led*%
X100637400Y-89667600D02*
X103072300Y-87232700D01*
X61750000Y-74740000D02*
X60674900Y-74740000D01*
X112347500Y-87232700D02*
X115229900Y-90115100D01*
X117470000Y-78350000D02*
X117470000Y-79375100D01*
X115229900Y-90115100D02*
X117570200Y-90115100D01*
X117570200Y-90115100D02*
X119225100Y-88460200D01*
X119225100Y-81130200D02*
X117470000Y-79375100D01*
X60674900Y-88987100D02*
X61355400Y-89667600D01*
X60674900Y-74740000D02*
X60674900Y-88987100D01*
X119225100Y-88460200D02*
X119225100Y-81130200D01*
X61355400Y-89667600D02*
X100637400Y-89667600D01*
X103072300Y-87232700D02*
X112347500Y-87232700D01*
%TO.N,tem*%
X93900000Y-87330000D02*
X93900000Y-87845100D01*
X67412900Y-47611000D02*
X68064200Y-46959700D01*
X103395900Y-84096100D02*
X99086900Y-88405100D01*
X68064200Y-46959700D02*
X89877000Y-46959700D01*
X116798400Y-84096100D02*
X103395900Y-84096100D01*
X118902500Y-64005700D02*
X118902500Y-75417500D01*
X112320000Y-82000000D02*
X114983200Y-79336800D01*
X118452300Y-82442200D02*
X116798400Y-84096100D01*
X118902500Y-75417500D02*
X116225300Y-78094700D01*
X114983200Y-79336800D02*
X116225300Y-79336800D01*
X78174900Y-77740000D02*
X67412900Y-66978000D01*
X79250000Y-77740000D02*
X78174900Y-77740000D01*
X67412900Y-66978000D02*
X67412900Y-47611000D01*
X118452300Y-81563800D02*
X118452300Y-82442200D01*
X105700200Y-62782900D02*
X117679700Y-62782900D01*
X117679700Y-62782900D02*
X118902500Y-64005700D01*
X99086900Y-88405100D02*
X94460000Y-88405100D01*
X89877000Y-46959700D02*
X105700200Y-62782900D01*
X116225300Y-79336800D02*
X118452300Y-81563800D01*
X116225300Y-78094700D02*
X116225300Y-79336800D01*
X93900000Y-87845100D02*
X94460000Y-88405100D01*
%TO.N,boot*%
X79250000Y-71740000D02*
X80890000Y-71610000D01*
X80890000Y-71610000D02*
X80760000Y-71740000D01*
X80760000Y-71740000D02*
X80770000Y-71750000D01*
%TO.N,Net-(U1-RXD)*%
X86010000Y-76550000D02*
X82890000Y-76520000D01*
X82890000Y-76520000D02*
X82870000Y-76550000D01*
X82870000Y-76550000D02*
X82860000Y-76560000D01*
X61750000Y-71740000D02*
X63230000Y-71740000D01*
X63230000Y-71740000D02*
X63670000Y-72180000D01*
%TO.N,Net-(U1-TXD)*%
X83180000Y-79090000D02*
X83160000Y-79110000D01*
X83310000Y-79090000D02*
X83260000Y-79040000D01*
X83210000Y-79090000D02*
X83180000Y-79090000D01*
X63280000Y-73240000D02*
X63610000Y-73570000D01*
X86010000Y-79090000D02*
X83310000Y-79090000D01*
X83260000Y-79040000D02*
X83210000Y-79090000D01*
X61750000Y-73240000D02*
X63280000Y-73240000D01*
%TD*%
M02*
