%TF.GenerationSoftware,KiCad,Pcbnew,7.0.7*%
%TF.CreationDate,2025-12-05T14:06:05+01:00*%
%TF.ProjectId,centralv2,63656e74-7261-46c7-9632-2e6b69636164,rev?*%
%TF.SameCoordinates,Original*%
%TF.FileFunction,Legend,Top*%
%TF.FilePolarity,Positive*%
%FSLAX46Y46*%
G04 Gerber Fmt 4.6, Leading zero omitted, Abs format (unit mm)*
G04 Created by KiCad (PCBNEW 7.0.7) date 2025-12-05 14:06:05*
%MOMM*%
%LPD*%
G01*
G04 APERTURE LIST*
%ADD10C,0.150000*%
%ADD11C,0.300000*%
%ADD12C,0.200000*%
%ADD13C,0.120000*%
%ADD14C,0.010000*%
%ADD15C,0.127000*%
%ADD16C,2.000000*%
%ADD17C,1.500000*%
G04 APERTURE END LIST*
D10*
X88362969Y-72299819D02*
X87886779Y-72299819D01*
X87886779Y-72299819D02*
X87839160Y-72776009D01*
X87839160Y-72776009D02*
X87886779Y-72728390D01*
X87886779Y-72728390D02*
X87982017Y-72680771D01*
X87982017Y-72680771D02*
X88220112Y-72680771D01*
X88220112Y-72680771D02*
X88315350Y-72728390D01*
X88315350Y-72728390D02*
X88362969Y-72776009D01*
X88362969Y-72776009D02*
X88410588Y-72871247D01*
X88410588Y-72871247D02*
X88410588Y-73109342D01*
X88410588Y-73109342D02*
X88362969Y-73204580D01*
X88362969Y-73204580D02*
X88315350Y-73252200D01*
X88315350Y-73252200D02*
X88220112Y-73299819D01*
X88220112Y-73299819D02*
X87982017Y-73299819D01*
X87982017Y-73299819D02*
X87886779Y-73252200D01*
X87886779Y-73252200D02*
X87839160Y-73204580D01*
X88696303Y-72299819D02*
X89029636Y-73299819D01*
X89029636Y-73299819D02*
X89362969Y-72299819D01*
X82210588Y-81457438D02*
X82115350Y-81409819D01*
X82115350Y-81409819D02*
X81972493Y-81409819D01*
X81972493Y-81409819D02*
X81829636Y-81457438D01*
X81829636Y-81457438D02*
X81734398Y-81552676D01*
X81734398Y-81552676D02*
X81686779Y-81647914D01*
X81686779Y-81647914D02*
X81639160Y-81838390D01*
X81639160Y-81838390D02*
X81639160Y-81981247D01*
X81639160Y-81981247D02*
X81686779Y-82171723D01*
X81686779Y-82171723D02*
X81734398Y-82266961D01*
X81734398Y-82266961D02*
X81829636Y-82362200D01*
X81829636Y-82362200D02*
X81972493Y-82409819D01*
X81972493Y-82409819D02*
X82067731Y-82409819D01*
X82067731Y-82409819D02*
X82210588Y-82362200D01*
X82210588Y-82362200D02*
X82258207Y-82314580D01*
X82258207Y-82314580D02*
X82258207Y-81981247D01*
X82258207Y-81981247D02*
X82067731Y-81981247D01*
X82686779Y-82409819D02*
X82686779Y-81409819D01*
X82686779Y-81409819D02*
X83258207Y-82409819D01*
X83258207Y-82409819D02*
X83258207Y-81409819D01*
X83734398Y-82409819D02*
X83734398Y-81409819D01*
X83734398Y-81409819D02*
X83972493Y-81409819D01*
X83972493Y-81409819D02*
X84115350Y-81457438D01*
X84115350Y-81457438D02*
X84210588Y-81552676D01*
X84210588Y-81552676D02*
X84258207Y-81647914D01*
X84258207Y-81647914D02*
X84305826Y-81838390D01*
X84305826Y-81838390D02*
X84305826Y-81981247D01*
X84305826Y-81981247D02*
X84258207Y-82171723D01*
X84258207Y-82171723D02*
X84210588Y-82266961D01*
X84210588Y-82266961D02*
X84115350Y-82362200D01*
X84115350Y-82362200D02*
X83972493Y-82409819D01*
X83972493Y-82409819D02*
X83734398Y-82409819D01*
X85290588Y-46689819D02*
X84719160Y-46689819D01*
X85004874Y-46689819D02*
X85004874Y-45689819D01*
X85004874Y-45689819D02*
X84909636Y-45832676D01*
X84909636Y-45832676D02*
X84814398Y-45927914D01*
X84814398Y-45927914D02*
X84719160Y-45975533D01*
X85909636Y-45689819D02*
X86004874Y-45689819D01*
X86004874Y-45689819D02*
X86100112Y-45737438D01*
X86100112Y-45737438D02*
X86147731Y-45785057D01*
X86147731Y-45785057D02*
X86195350Y-45880295D01*
X86195350Y-45880295D02*
X86242969Y-46070771D01*
X86242969Y-46070771D02*
X86242969Y-46308866D01*
X86242969Y-46308866D02*
X86195350Y-46499342D01*
X86195350Y-46499342D02*
X86147731Y-46594580D01*
X86147731Y-46594580D02*
X86100112Y-46642200D01*
X86100112Y-46642200D02*
X86004874Y-46689819D01*
X86004874Y-46689819D02*
X85909636Y-46689819D01*
X85909636Y-46689819D02*
X85814398Y-46642200D01*
X85814398Y-46642200D02*
X85766779Y-46594580D01*
X85766779Y-46594580D02*
X85719160Y-46499342D01*
X85719160Y-46499342D02*
X85671541Y-46308866D01*
X85671541Y-46308866D02*
X85671541Y-46070771D01*
X85671541Y-46070771D02*
X85719160Y-45880295D01*
X85719160Y-45880295D02*
X85766779Y-45785057D01*
X85766779Y-45785057D02*
X85814398Y-45737438D01*
X85814398Y-45737438D02*
X85909636Y-45689819D01*
X86862017Y-45689819D02*
X86957255Y-45689819D01*
X86957255Y-45689819D02*
X87052493Y-45737438D01*
X87052493Y-45737438D02*
X87100112Y-45785057D01*
X87100112Y-45785057D02*
X87147731Y-45880295D01*
X87147731Y-45880295D02*
X87195350Y-46070771D01*
X87195350Y-46070771D02*
X87195350Y-46308866D01*
X87195350Y-46308866D02*
X87147731Y-46499342D01*
X87147731Y-46499342D02*
X87100112Y-46594580D01*
X87100112Y-46594580D02*
X87052493Y-46642200D01*
X87052493Y-46642200D02*
X86957255Y-46689819D01*
X86957255Y-46689819D02*
X86862017Y-46689819D01*
X86862017Y-46689819D02*
X86766779Y-46642200D01*
X86766779Y-46642200D02*
X86719160Y-46594580D01*
X86719160Y-46594580D02*
X86671541Y-46499342D01*
X86671541Y-46499342D02*
X86623922Y-46308866D01*
X86623922Y-46308866D02*
X86623922Y-46070771D01*
X86623922Y-46070771D02*
X86671541Y-45880295D01*
X86671541Y-45880295D02*
X86719160Y-45785057D01*
X86719160Y-45785057D02*
X86766779Y-45737438D01*
X86766779Y-45737438D02*
X86862017Y-45689819D01*
X88052493Y-46023152D02*
X88052493Y-46689819D01*
X87623922Y-46023152D02*
X87623922Y-46546961D01*
X87623922Y-46546961D02*
X87671541Y-46642200D01*
X87671541Y-46642200D02*
X87766779Y-46689819D01*
X87766779Y-46689819D02*
X87909636Y-46689819D01*
X87909636Y-46689819D02*
X88004874Y-46642200D01*
X88004874Y-46642200D02*
X88052493Y-46594580D01*
X88957255Y-46642200D02*
X88862017Y-46689819D01*
X88862017Y-46689819D02*
X88671541Y-46689819D01*
X88671541Y-46689819D02*
X88576303Y-46642200D01*
X88576303Y-46642200D02*
X88528684Y-46594580D01*
X88528684Y-46594580D02*
X88481065Y-46499342D01*
X88481065Y-46499342D02*
X88481065Y-46213628D01*
X88481065Y-46213628D02*
X88528684Y-46118390D01*
X88528684Y-46118390D02*
X88576303Y-46070771D01*
X88576303Y-46070771D02*
X88671541Y-46023152D01*
X88671541Y-46023152D02*
X88862017Y-46023152D01*
X88862017Y-46023152D02*
X88957255Y-46070771D01*
X85730588Y-53429819D02*
X85159160Y-53429819D01*
X85444874Y-53429819D02*
X85444874Y-52429819D01*
X85444874Y-52429819D02*
X85349636Y-52572676D01*
X85349636Y-52572676D02*
X85254398Y-52667914D01*
X85254398Y-52667914D02*
X85159160Y-52715533D01*
X86349636Y-52429819D02*
X86444874Y-52429819D01*
X86444874Y-52429819D02*
X86540112Y-52477438D01*
X86540112Y-52477438D02*
X86587731Y-52525057D01*
X86587731Y-52525057D02*
X86635350Y-52620295D01*
X86635350Y-52620295D02*
X86682969Y-52810771D01*
X86682969Y-52810771D02*
X86682969Y-53048866D01*
X86682969Y-53048866D02*
X86635350Y-53239342D01*
X86635350Y-53239342D02*
X86587731Y-53334580D01*
X86587731Y-53334580D02*
X86540112Y-53382200D01*
X86540112Y-53382200D02*
X86444874Y-53429819D01*
X86444874Y-53429819D02*
X86349636Y-53429819D01*
X86349636Y-53429819D02*
X86254398Y-53382200D01*
X86254398Y-53382200D02*
X86206779Y-53334580D01*
X86206779Y-53334580D02*
X86159160Y-53239342D01*
X86159160Y-53239342D02*
X86111541Y-53048866D01*
X86111541Y-53048866D02*
X86111541Y-52810771D01*
X86111541Y-52810771D02*
X86159160Y-52620295D01*
X86159160Y-52620295D02*
X86206779Y-52525057D01*
X86206779Y-52525057D02*
X86254398Y-52477438D01*
X86254398Y-52477438D02*
X86349636Y-52429819D01*
X87540112Y-52763152D02*
X87540112Y-53429819D01*
X87111541Y-52763152D02*
X87111541Y-53286961D01*
X87111541Y-53286961D02*
X87159160Y-53382200D01*
X87159160Y-53382200D02*
X87254398Y-53429819D01*
X87254398Y-53429819D02*
X87397255Y-53429819D01*
X87397255Y-53429819D02*
X87492493Y-53382200D01*
X87492493Y-53382200D02*
X87540112Y-53334580D01*
X88444874Y-53382200D02*
X88349636Y-53429819D01*
X88349636Y-53429819D02*
X88159160Y-53429819D01*
X88159160Y-53429819D02*
X88063922Y-53382200D01*
X88063922Y-53382200D02*
X88016303Y-53334580D01*
X88016303Y-53334580D02*
X87968684Y-53239342D01*
X87968684Y-53239342D02*
X87968684Y-52953628D01*
X87968684Y-52953628D02*
X88016303Y-52858390D01*
X88016303Y-52858390D02*
X88063922Y-52810771D01*
X88063922Y-52810771D02*
X88159160Y-52763152D01*
X88159160Y-52763152D02*
X88349636Y-52763152D01*
X88349636Y-52763152D02*
X88444874Y-52810771D01*
D11*
X89443082Y-79950828D02*
X89443082Y-81022257D01*
X89443082Y-81022257D02*
X89371653Y-81236542D01*
X89371653Y-81236542D02*
X89228796Y-81379400D01*
X89228796Y-81379400D02*
X89014510Y-81450828D01*
X89014510Y-81450828D02*
X88871653Y-81450828D01*
X90157367Y-81307971D02*
X90228796Y-81379400D01*
X90228796Y-81379400D02*
X90157367Y-81450828D01*
X90157367Y-81450828D02*
X90085939Y-81379400D01*
X90085939Y-81379400D02*
X90157367Y-81307971D01*
X90157367Y-81307971D02*
X90157367Y-81450828D01*
X90871653Y-81450828D02*
X90871653Y-79950828D01*
X90871653Y-79950828D02*
X91371653Y-81022257D01*
X91371653Y-81022257D02*
X91871653Y-79950828D01*
X91871653Y-79950828D02*
X91871653Y-81450828D01*
X92585939Y-81307971D02*
X92657368Y-81379400D01*
X92657368Y-81379400D02*
X92585939Y-81450828D01*
X92585939Y-81450828D02*
X92514511Y-81379400D01*
X92514511Y-81379400D02*
X92585939Y-81307971D01*
X92585939Y-81307971D02*
X92585939Y-81450828D01*
X95228797Y-80022257D02*
X95085940Y-79950828D01*
X95085940Y-79950828D02*
X94871654Y-79950828D01*
X94871654Y-79950828D02*
X94657368Y-80022257D01*
X94657368Y-80022257D02*
X94514511Y-80165114D01*
X94514511Y-80165114D02*
X94443082Y-80307971D01*
X94443082Y-80307971D02*
X94371654Y-80593685D01*
X94371654Y-80593685D02*
X94371654Y-80807971D01*
X94371654Y-80807971D02*
X94443082Y-81093685D01*
X94443082Y-81093685D02*
X94514511Y-81236542D01*
X94514511Y-81236542D02*
X94657368Y-81379400D01*
X94657368Y-81379400D02*
X94871654Y-81450828D01*
X94871654Y-81450828D02*
X95014511Y-81450828D01*
X95014511Y-81450828D02*
X95228797Y-81379400D01*
X95228797Y-81379400D02*
X95300225Y-81307971D01*
X95300225Y-81307971D02*
X95300225Y-80807971D01*
X95300225Y-80807971D02*
X95014511Y-80807971D01*
X96157368Y-81450828D02*
X96014511Y-81379400D01*
X96014511Y-81379400D02*
X95943082Y-81307971D01*
X95943082Y-81307971D02*
X95871654Y-81165114D01*
X95871654Y-81165114D02*
X95871654Y-80736542D01*
X95871654Y-80736542D02*
X95943082Y-80593685D01*
X95943082Y-80593685D02*
X96014511Y-80522257D01*
X96014511Y-80522257D02*
X96157368Y-80450828D01*
X96157368Y-80450828D02*
X96371654Y-80450828D01*
X96371654Y-80450828D02*
X96514511Y-80522257D01*
X96514511Y-80522257D02*
X96585940Y-80593685D01*
X96585940Y-80593685D02*
X96657368Y-80736542D01*
X96657368Y-80736542D02*
X96657368Y-81165114D01*
X96657368Y-81165114D02*
X96585940Y-81307971D01*
X96585940Y-81307971D02*
X96514511Y-81379400D01*
X96514511Y-81379400D02*
X96371654Y-81450828D01*
X96371654Y-81450828D02*
X96157368Y-81450828D01*
X96443082Y-79879400D02*
X96228797Y-80093685D01*
X97300225Y-81450828D02*
X97300225Y-80450828D01*
X97300225Y-80593685D02*
X97371654Y-80522257D01*
X97371654Y-80522257D02*
X97514511Y-80450828D01*
X97514511Y-80450828D02*
X97728797Y-80450828D01*
X97728797Y-80450828D02*
X97871654Y-80522257D01*
X97871654Y-80522257D02*
X97943083Y-80665114D01*
X97943083Y-80665114D02*
X97943083Y-81450828D01*
X97943083Y-80665114D02*
X98014511Y-80522257D01*
X98014511Y-80522257D02*
X98157368Y-80450828D01*
X98157368Y-80450828D02*
X98371654Y-80450828D01*
X98371654Y-80450828D02*
X98514511Y-80522257D01*
X98514511Y-80522257D02*
X98585940Y-80665114D01*
X98585940Y-80665114D02*
X98585940Y-81450828D01*
X99871654Y-81379400D02*
X99728797Y-81450828D01*
X99728797Y-81450828D02*
X99443083Y-81450828D01*
X99443083Y-81450828D02*
X99300225Y-81379400D01*
X99300225Y-81379400D02*
X99228797Y-81236542D01*
X99228797Y-81236542D02*
X99228797Y-80665114D01*
X99228797Y-80665114D02*
X99300225Y-80522257D01*
X99300225Y-80522257D02*
X99443083Y-80450828D01*
X99443083Y-80450828D02*
X99728797Y-80450828D01*
X99728797Y-80450828D02*
X99871654Y-80522257D01*
X99871654Y-80522257D02*
X99943083Y-80665114D01*
X99943083Y-80665114D02*
X99943083Y-80807971D01*
X99943083Y-80807971D02*
X99228797Y-80950828D01*
X100443082Y-80450828D02*
X101228797Y-80450828D01*
X101228797Y-80450828D02*
X100443082Y-81450828D01*
X100443082Y-81450828D02*
X101228797Y-81450828D01*
X102728797Y-79950828D02*
X103228797Y-81450828D01*
X103228797Y-81450828D02*
X103728797Y-79950828D01*
X104871654Y-81450828D02*
X104871654Y-80665114D01*
X104871654Y-80665114D02*
X104800225Y-80522257D01*
X104800225Y-80522257D02*
X104657368Y-80450828D01*
X104657368Y-80450828D02*
X104371654Y-80450828D01*
X104371654Y-80450828D02*
X104228796Y-80522257D01*
X104871654Y-81379400D02*
X104728796Y-81450828D01*
X104728796Y-81450828D02*
X104371654Y-81450828D01*
X104371654Y-81450828D02*
X104228796Y-81379400D01*
X104228796Y-81379400D02*
X104157368Y-81236542D01*
X104157368Y-81236542D02*
X104157368Y-81093685D01*
X104157368Y-81093685D02*
X104228796Y-80950828D01*
X104228796Y-80950828D02*
X104371654Y-80879400D01*
X104371654Y-80879400D02*
X104728796Y-80879400D01*
X104728796Y-80879400D02*
X104871654Y-80807971D01*
X105585939Y-81450828D02*
X105585939Y-80450828D01*
X105585939Y-80736542D02*
X105657368Y-80593685D01*
X105657368Y-80593685D02*
X105728797Y-80522257D01*
X105728797Y-80522257D02*
X105871654Y-80450828D01*
X105871654Y-80450828D02*
X106014511Y-80450828D01*
X107157368Y-81450828D02*
X107157368Y-80665114D01*
X107157368Y-80665114D02*
X107085939Y-80522257D01*
X107085939Y-80522257D02*
X106943082Y-80450828D01*
X106943082Y-80450828D02*
X106657368Y-80450828D01*
X106657368Y-80450828D02*
X106514510Y-80522257D01*
X107157368Y-81379400D02*
X107014510Y-81450828D01*
X107014510Y-81450828D02*
X106657368Y-81450828D01*
X106657368Y-81450828D02*
X106514510Y-81379400D01*
X106514510Y-81379400D02*
X106443082Y-81236542D01*
X106443082Y-81236542D02*
X106443082Y-81093685D01*
X106443082Y-81093685D02*
X106514510Y-80950828D01*
X106514510Y-80950828D02*
X106657368Y-80879400D01*
X106657368Y-80879400D02*
X107014510Y-80879400D01*
X107014510Y-80879400D02*
X107157368Y-80807971D01*
X107800225Y-81379400D02*
X107943082Y-81450828D01*
X107943082Y-81450828D02*
X108228796Y-81450828D01*
X108228796Y-81450828D02*
X108371653Y-81379400D01*
X108371653Y-81379400D02*
X108443082Y-81236542D01*
X108443082Y-81236542D02*
X108443082Y-81165114D01*
X108443082Y-81165114D02*
X108371653Y-81022257D01*
X108371653Y-81022257D02*
X108228796Y-80950828D01*
X108228796Y-80950828D02*
X108014511Y-80950828D01*
X108014511Y-80950828D02*
X107871653Y-80879400D01*
X107871653Y-80879400D02*
X107800225Y-80736542D01*
X107800225Y-80736542D02*
X107800225Y-80665114D01*
X107800225Y-80665114D02*
X107871653Y-80522257D01*
X107871653Y-80522257D02*
X108014511Y-80450828D01*
X108014511Y-80450828D02*
X108228796Y-80450828D01*
X108228796Y-80450828D02*
X108371653Y-80522257D01*
D10*
X88113922Y-78219819D02*
X88685350Y-78219819D01*
X88399636Y-79219819D02*
X88399636Y-78219819D01*
X88923446Y-78219819D02*
X89590112Y-79219819D01*
X89590112Y-78219819D02*
X88923446Y-79219819D01*
X88588207Y-77009819D02*
X88254874Y-76533628D01*
X88016779Y-77009819D02*
X88016779Y-76009819D01*
X88016779Y-76009819D02*
X88397731Y-76009819D01*
X88397731Y-76009819D02*
X88492969Y-76057438D01*
X88492969Y-76057438D02*
X88540588Y-76105057D01*
X88540588Y-76105057D02*
X88588207Y-76200295D01*
X88588207Y-76200295D02*
X88588207Y-76343152D01*
X88588207Y-76343152D02*
X88540588Y-76438390D01*
X88540588Y-76438390D02*
X88492969Y-76486009D01*
X88492969Y-76486009D02*
X88397731Y-76533628D01*
X88397731Y-76533628D02*
X88016779Y-76533628D01*
X88921541Y-76009819D02*
X89588207Y-77009819D01*
X89588207Y-76009819D02*
X88921541Y-77009819D01*
X112331904Y-57934819D02*
X111998571Y-57458628D01*
X111760476Y-57934819D02*
X111760476Y-56934819D01*
X111760476Y-56934819D02*
X112141428Y-56934819D01*
X112141428Y-56934819D02*
X112236666Y-56982438D01*
X112236666Y-56982438D02*
X112284285Y-57030057D01*
X112284285Y-57030057D02*
X112331904Y-57125295D01*
X112331904Y-57125295D02*
X112331904Y-57268152D01*
X112331904Y-57268152D02*
X112284285Y-57363390D01*
X112284285Y-57363390D02*
X112236666Y-57411009D01*
X112236666Y-57411009D02*
X112141428Y-57458628D01*
X112141428Y-57458628D02*
X111760476Y-57458628D01*
X113141428Y-57887200D02*
X113046190Y-57934819D01*
X113046190Y-57934819D02*
X112855714Y-57934819D01*
X112855714Y-57934819D02*
X112760476Y-57887200D01*
X112760476Y-57887200D02*
X112712857Y-57791961D01*
X112712857Y-57791961D02*
X112712857Y-57411009D01*
X112712857Y-57411009D02*
X112760476Y-57315771D01*
X112760476Y-57315771D02*
X112855714Y-57268152D01*
X112855714Y-57268152D02*
X113046190Y-57268152D01*
X113046190Y-57268152D02*
X113141428Y-57315771D01*
X113141428Y-57315771D02*
X113189047Y-57411009D01*
X113189047Y-57411009D02*
X113189047Y-57506247D01*
X113189047Y-57506247D02*
X112712857Y-57601485D01*
X113570000Y-57887200D02*
X113665238Y-57934819D01*
X113665238Y-57934819D02*
X113855714Y-57934819D01*
X113855714Y-57934819D02*
X113950952Y-57887200D01*
X113950952Y-57887200D02*
X113998571Y-57791961D01*
X113998571Y-57791961D02*
X113998571Y-57744342D01*
X113998571Y-57744342D02*
X113950952Y-57649104D01*
X113950952Y-57649104D02*
X113855714Y-57601485D01*
X113855714Y-57601485D02*
X113712857Y-57601485D01*
X113712857Y-57601485D02*
X113617619Y-57553866D01*
X113617619Y-57553866D02*
X113570000Y-57458628D01*
X113570000Y-57458628D02*
X113570000Y-57411009D01*
X113570000Y-57411009D02*
X113617619Y-57315771D01*
X113617619Y-57315771D02*
X113712857Y-57268152D01*
X113712857Y-57268152D02*
X113855714Y-57268152D01*
X113855714Y-57268152D02*
X113950952Y-57315771D01*
X114808095Y-57887200D02*
X114712857Y-57934819D01*
X114712857Y-57934819D02*
X114522381Y-57934819D01*
X114522381Y-57934819D02*
X114427143Y-57887200D01*
X114427143Y-57887200D02*
X114379524Y-57791961D01*
X114379524Y-57791961D02*
X114379524Y-57411009D01*
X114379524Y-57411009D02*
X114427143Y-57315771D01*
X114427143Y-57315771D02*
X114522381Y-57268152D01*
X114522381Y-57268152D02*
X114712857Y-57268152D01*
X114712857Y-57268152D02*
X114808095Y-57315771D01*
X114808095Y-57315771D02*
X114855714Y-57411009D01*
X114855714Y-57411009D02*
X114855714Y-57506247D01*
X114855714Y-57506247D02*
X114379524Y-57601485D01*
X115141429Y-57268152D02*
X115522381Y-57268152D01*
X115284286Y-56934819D02*
X115284286Y-57791961D01*
X115284286Y-57791961D02*
X115331905Y-57887200D01*
X115331905Y-57887200D02*
X115427143Y-57934819D01*
X115427143Y-57934819D02*
X115522381Y-57934819D01*
D12*
X76119048Y-56269695D02*
X76119048Y-55469695D01*
X76119048Y-55469695D02*
X76423810Y-55469695D01*
X76423810Y-55469695D02*
X76500000Y-55507790D01*
X76500000Y-55507790D02*
X76538095Y-55545885D01*
X76538095Y-55545885D02*
X76576191Y-55622076D01*
X76576191Y-55622076D02*
X76576191Y-55736361D01*
X76576191Y-55736361D02*
X76538095Y-55812552D01*
X76538095Y-55812552D02*
X76500000Y-55850647D01*
X76500000Y-55850647D02*
X76423810Y-55888742D01*
X76423810Y-55888742D02*
X76119048Y-55888742D01*
X76919048Y-56269695D02*
X76919048Y-55469695D01*
X77757143Y-56269695D02*
X77490476Y-55888742D01*
X77300000Y-56269695D02*
X77300000Y-55469695D01*
X77300000Y-55469695D02*
X77604762Y-55469695D01*
X77604762Y-55469695D02*
X77680952Y-55507790D01*
X77680952Y-55507790D02*
X77719047Y-55545885D01*
X77719047Y-55545885D02*
X77757143Y-55622076D01*
X77757143Y-55622076D02*
X77757143Y-55736361D01*
X77757143Y-55736361D02*
X77719047Y-55812552D01*
X77719047Y-55812552D02*
X77680952Y-55850647D01*
X77680952Y-55850647D02*
X77604762Y-55888742D01*
X77604762Y-55888742D02*
X77300000Y-55888742D01*
X78519047Y-56269695D02*
X78061904Y-56269695D01*
X78290476Y-56269695D02*
X78290476Y-55469695D01*
X78290476Y-55469695D02*
X78214285Y-55583980D01*
X78214285Y-55583980D02*
X78138095Y-55660171D01*
X78138095Y-55660171D02*
X78061904Y-55698266D01*
X74309523Y-53693504D02*
X74271427Y-53731600D01*
X74271427Y-53731600D02*
X74157142Y-53769695D01*
X74157142Y-53769695D02*
X74080951Y-53769695D01*
X74080951Y-53769695D02*
X73966665Y-53731600D01*
X73966665Y-53731600D02*
X73890475Y-53655409D01*
X73890475Y-53655409D02*
X73852380Y-53579219D01*
X73852380Y-53579219D02*
X73814284Y-53426838D01*
X73814284Y-53426838D02*
X73814284Y-53312552D01*
X73814284Y-53312552D02*
X73852380Y-53160171D01*
X73852380Y-53160171D02*
X73890475Y-53083980D01*
X73890475Y-53083980D02*
X73966665Y-53007790D01*
X73966665Y-53007790D02*
X74080951Y-52969695D01*
X74080951Y-52969695D02*
X74157142Y-52969695D01*
X74157142Y-52969695D02*
X74271427Y-53007790D01*
X74271427Y-53007790D02*
X74309523Y-53045885D01*
X74766665Y-53769695D02*
X74690475Y-53731600D01*
X74690475Y-53731600D02*
X74652380Y-53693504D01*
X74652380Y-53693504D02*
X74614284Y-53617314D01*
X74614284Y-53617314D02*
X74614284Y-53388742D01*
X74614284Y-53388742D02*
X74652380Y-53312552D01*
X74652380Y-53312552D02*
X74690475Y-53274457D01*
X74690475Y-53274457D02*
X74766665Y-53236361D01*
X74766665Y-53236361D02*
X74880951Y-53236361D01*
X74880951Y-53236361D02*
X74957142Y-53274457D01*
X74957142Y-53274457D02*
X74995237Y-53312552D01*
X74995237Y-53312552D02*
X75033332Y-53388742D01*
X75033332Y-53388742D02*
X75033332Y-53617314D01*
X75033332Y-53617314D02*
X74995237Y-53693504D01*
X74995237Y-53693504D02*
X74957142Y-53731600D01*
X74957142Y-53731600D02*
X74880951Y-53769695D01*
X74880951Y-53769695D02*
X74766665Y-53769695D01*
X75376190Y-53236361D02*
X75376190Y-53769695D01*
X75376190Y-53312552D02*
X75414285Y-53274457D01*
X75414285Y-53274457D02*
X75490475Y-53236361D01*
X75490475Y-53236361D02*
X75604761Y-53236361D01*
X75604761Y-53236361D02*
X75680952Y-53274457D01*
X75680952Y-53274457D02*
X75719047Y-53350647D01*
X75719047Y-53350647D02*
X75719047Y-53769695D01*
X76100000Y-53236361D02*
X76100000Y-53769695D01*
X76100000Y-53312552D02*
X76138095Y-53274457D01*
X76138095Y-53274457D02*
X76214285Y-53236361D01*
X76214285Y-53236361D02*
X76328571Y-53236361D01*
X76328571Y-53236361D02*
X76404762Y-53274457D01*
X76404762Y-53274457D02*
X76442857Y-53350647D01*
X76442857Y-53350647D02*
X76442857Y-53769695D01*
X76633334Y-53845885D02*
X77242857Y-53845885D01*
X77585715Y-52969695D02*
X77661905Y-52969695D01*
X77661905Y-52969695D02*
X77738096Y-53007790D01*
X77738096Y-53007790D02*
X77776191Y-53045885D01*
X77776191Y-53045885D02*
X77814286Y-53122076D01*
X77814286Y-53122076D02*
X77852381Y-53274457D01*
X77852381Y-53274457D02*
X77852381Y-53464933D01*
X77852381Y-53464933D02*
X77814286Y-53617314D01*
X77814286Y-53617314D02*
X77776191Y-53693504D01*
X77776191Y-53693504D02*
X77738096Y-53731600D01*
X77738096Y-53731600D02*
X77661905Y-53769695D01*
X77661905Y-53769695D02*
X77585715Y-53769695D01*
X77585715Y-53769695D02*
X77509524Y-53731600D01*
X77509524Y-53731600D02*
X77471429Y-53693504D01*
X77471429Y-53693504D02*
X77433334Y-53617314D01*
X77433334Y-53617314D02*
X77395238Y-53464933D01*
X77395238Y-53464933D02*
X77395238Y-53274457D01*
X77395238Y-53274457D02*
X77433334Y-53122076D01*
X77433334Y-53122076D02*
X77471429Y-53045885D01*
X77471429Y-53045885D02*
X77509524Y-53007790D01*
X77509524Y-53007790D02*
X77585715Y-52969695D01*
X78614286Y-53769695D02*
X78157143Y-53769695D01*
X78385715Y-53769695D02*
X78385715Y-52969695D01*
X78385715Y-52969695D02*
X78309524Y-53083980D01*
X78309524Y-53083980D02*
X78233334Y-53160171D01*
X78233334Y-53160171D02*
X78157143Y-53198266D01*
X78880953Y-53769695D02*
X79300001Y-53236361D01*
X78880953Y-53236361D02*
X79300001Y-53769695D01*
X79757144Y-52969695D02*
X79833334Y-52969695D01*
X79833334Y-52969695D02*
X79909525Y-53007790D01*
X79909525Y-53007790D02*
X79947620Y-53045885D01*
X79947620Y-53045885D02*
X79985715Y-53122076D01*
X79985715Y-53122076D02*
X80023810Y-53274457D01*
X80023810Y-53274457D02*
X80023810Y-53464933D01*
X80023810Y-53464933D02*
X79985715Y-53617314D01*
X79985715Y-53617314D02*
X79947620Y-53693504D01*
X79947620Y-53693504D02*
X79909525Y-53731600D01*
X79909525Y-53731600D02*
X79833334Y-53769695D01*
X79833334Y-53769695D02*
X79757144Y-53769695D01*
X79757144Y-53769695D02*
X79680953Y-53731600D01*
X79680953Y-53731600D02*
X79642858Y-53693504D01*
X79642858Y-53693504D02*
X79604763Y-53617314D01*
X79604763Y-53617314D02*
X79566667Y-53464933D01*
X79566667Y-53464933D02*
X79566667Y-53274457D01*
X79566667Y-53274457D02*
X79604763Y-53122076D01*
X79604763Y-53122076D02*
X79642858Y-53045885D01*
X79642858Y-53045885D02*
X79680953Y-53007790D01*
X79680953Y-53007790D02*
X79757144Y-52969695D01*
X80290477Y-52969695D02*
X80785715Y-52969695D01*
X80785715Y-52969695D02*
X80519049Y-53274457D01*
X80519049Y-53274457D02*
X80633334Y-53274457D01*
X80633334Y-53274457D02*
X80709525Y-53312552D01*
X80709525Y-53312552D02*
X80747620Y-53350647D01*
X80747620Y-53350647D02*
X80785715Y-53426838D01*
X80785715Y-53426838D02*
X80785715Y-53617314D01*
X80785715Y-53617314D02*
X80747620Y-53693504D01*
X80747620Y-53693504D02*
X80709525Y-53731600D01*
X80709525Y-53731600D02*
X80633334Y-53769695D01*
X80633334Y-53769695D02*
X80404763Y-53769695D01*
X80404763Y-53769695D02*
X80328572Y-53731600D01*
X80328572Y-53731600D02*
X80290477Y-53693504D01*
D10*
X98244761Y-83456009D02*
X97911428Y-83456009D01*
X97911428Y-83979819D02*
X97911428Y-82979819D01*
X97911428Y-82979819D02*
X98387618Y-82979819D01*
X98911428Y-83979819D02*
X98816190Y-83932200D01*
X98816190Y-83932200D02*
X98768571Y-83884580D01*
X98768571Y-83884580D02*
X98720952Y-83789342D01*
X98720952Y-83789342D02*
X98720952Y-83503628D01*
X98720952Y-83503628D02*
X98768571Y-83408390D01*
X98768571Y-83408390D02*
X98816190Y-83360771D01*
X98816190Y-83360771D02*
X98911428Y-83313152D01*
X98911428Y-83313152D02*
X99054285Y-83313152D01*
X99054285Y-83313152D02*
X99149523Y-83360771D01*
X99149523Y-83360771D02*
X99197142Y-83408390D01*
X99197142Y-83408390D02*
X99244761Y-83503628D01*
X99244761Y-83503628D02*
X99244761Y-83789342D01*
X99244761Y-83789342D02*
X99197142Y-83884580D01*
X99197142Y-83884580D02*
X99149523Y-83932200D01*
X99149523Y-83932200D02*
X99054285Y-83979819D01*
X99054285Y-83979819D02*
X98911428Y-83979819D01*
X99530476Y-83313152D02*
X99911428Y-83313152D01*
X99673333Y-82979819D02*
X99673333Y-83836961D01*
X99673333Y-83836961D02*
X99720952Y-83932200D01*
X99720952Y-83932200D02*
X99816190Y-83979819D01*
X99816190Y-83979819D02*
X99911428Y-83979819D01*
X100387619Y-83979819D02*
X100292381Y-83932200D01*
X100292381Y-83932200D02*
X100244762Y-83884580D01*
X100244762Y-83884580D02*
X100197143Y-83789342D01*
X100197143Y-83789342D02*
X100197143Y-83503628D01*
X100197143Y-83503628D02*
X100244762Y-83408390D01*
X100244762Y-83408390D02*
X100292381Y-83360771D01*
X100292381Y-83360771D02*
X100387619Y-83313152D01*
X100387619Y-83313152D02*
X100530476Y-83313152D01*
X100530476Y-83313152D02*
X100625714Y-83360771D01*
X100625714Y-83360771D02*
X100673333Y-83408390D01*
X100673333Y-83408390D02*
X100720952Y-83503628D01*
X100720952Y-83503628D02*
X100720952Y-83789342D01*
X100720952Y-83789342D02*
X100673333Y-83884580D01*
X100673333Y-83884580D02*
X100625714Y-83932200D01*
X100625714Y-83932200D02*
X100530476Y-83979819D01*
X100530476Y-83979819D02*
X100387619Y-83979819D01*
X101149524Y-83979819D02*
X101149524Y-83313152D01*
X101149524Y-83503628D02*
X101197143Y-83408390D01*
X101197143Y-83408390D02*
X101244762Y-83360771D01*
X101244762Y-83360771D02*
X101340000Y-83313152D01*
X101340000Y-83313152D02*
X101435238Y-83313152D01*
X102149524Y-83932200D02*
X102054286Y-83979819D01*
X102054286Y-83979819D02*
X101863810Y-83979819D01*
X101863810Y-83979819D02*
X101768572Y-83932200D01*
X101768572Y-83932200D02*
X101720953Y-83836961D01*
X101720953Y-83836961D02*
X101720953Y-83456009D01*
X101720953Y-83456009D02*
X101768572Y-83360771D01*
X101768572Y-83360771D02*
X101863810Y-83313152D01*
X101863810Y-83313152D02*
X102054286Y-83313152D01*
X102054286Y-83313152D02*
X102149524Y-83360771D01*
X102149524Y-83360771D02*
X102197143Y-83456009D01*
X102197143Y-83456009D02*
X102197143Y-83551247D01*
X102197143Y-83551247D02*
X101720953Y-83646485D01*
X102578096Y-83932200D02*
X102673334Y-83979819D01*
X102673334Y-83979819D02*
X102863810Y-83979819D01*
X102863810Y-83979819D02*
X102959048Y-83932200D01*
X102959048Y-83932200D02*
X103006667Y-83836961D01*
X103006667Y-83836961D02*
X103006667Y-83789342D01*
X103006667Y-83789342D02*
X102959048Y-83694104D01*
X102959048Y-83694104D02*
X102863810Y-83646485D01*
X102863810Y-83646485D02*
X102720953Y-83646485D01*
X102720953Y-83646485D02*
X102625715Y-83598866D01*
X102625715Y-83598866D02*
X102578096Y-83503628D01*
X102578096Y-83503628D02*
X102578096Y-83456009D01*
X102578096Y-83456009D02*
X102625715Y-83360771D01*
X102625715Y-83360771D02*
X102720953Y-83313152D01*
X102720953Y-83313152D02*
X102863810Y-83313152D01*
X102863810Y-83313152D02*
X102959048Y-83360771D01*
X103435239Y-83979819D02*
X103435239Y-83313152D01*
X103435239Y-82979819D02*
X103387620Y-83027438D01*
X103387620Y-83027438D02*
X103435239Y-83075057D01*
X103435239Y-83075057D02*
X103482858Y-83027438D01*
X103482858Y-83027438D02*
X103435239Y-82979819D01*
X103435239Y-82979819D02*
X103435239Y-83075057D01*
X103863810Y-83932200D02*
X103959048Y-83979819D01*
X103959048Y-83979819D02*
X104149524Y-83979819D01*
X104149524Y-83979819D02*
X104244762Y-83932200D01*
X104244762Y-83932200D02*
X104292381Y-83836961D01*
X104292381Y-83836961D02*
X104292381Y-83789342D01*
X104292381Y-83789342D02*
X104244762Y-83694104D01*
X104244762Y-83694104D02*
X104149524Y-83646485D01*
X104149524Y-83646485D02*
X104006667Y-83646485D01*
X104006667Y-83646485D02*
X103911429Y-83598866D01*
X103911429Y-83598866D02*
X103863810Y-83503628D01*
X103863810Y-83503628D02*
X103863810Y-83456009D01*
X103863810Y-83456009D02*
X103911429Y-83360771D01*
X103911429Y-83360771D02*
X104006667Y-83313152D01*
X104006667Y-83313152D02*
X104149524Y-83313152D01*
X104149524Y-83313152D02*
X104244762Y-83360771D01*
X104578096Y-83313152D02*
X104959048Y-83313152D01*
X104720953Y-82979819D02*
X104720953Y-83836961D01*
X104720953Y-83836961D02*
X104768572Y-83932200D01*
X104768572Y-83932200D02*
X104863810Y-83979819D01*
X104863810Y-83979819D02*
X104959048Y-83979819D01*
X105673334Y-83932200D02*
X105578096Y-83979819D01*
X105578096Y-83979819D02*
X105387620Y-83979819D01*
X105387620Y-83979819D02*
X105292382Y-83932200D01*
X105292382Y-83932200D02*
X105244763Y-83836961D01*
X105244763Y-83836961D02*
X105244763Y-83456009D01*
X105244763Y-83456009D02*
X105292382Y-83360771D01*
X105292382Y-83360771D02*
X105387620Y-83313152D01*
X105387620Y-83313152D02*
X105578096Y-83313152D01*
X105578096Y-83313152D02*
X105673334Y-83360771D01*
X105673334Y-83360771D02*
X105720953Y-83456009D01*
X105720953Y-83456009D02*
X105720953Y-83551247D01*
X105720953Y-83551247D02*
X105244763Y-83646485D01*
X106149525Y-83313152D02*
X106149525Y-83979819D01*
X106149525Y-83408390D02*
X106197144Y-83360771D01*
X106197144Y-83360771D02*
X106292382Y-83313152D01*
X106292382Y-83313152D02*
X106435239Y-83313152D01*
X106435239Y-83313152D02*
X106530477Y-83360771D01*
X106530477Y-83360771D02*
X106578096Y-83456009D01*
X106578096Y-83456009D02*
X106578096Y-83979819D01*
X107482858Y-83932200D02*
X107387620Y-83979819D01*
X107387620Y-83979819D02*
X107197144Y-83979819D01*
X107197144Y-83979819D02*
X107101906Y-83932200D01*
X107101906Y-83932200D02*
X107054287Y-83884580D01*
X107054287Y-83884580D02*
X107006668Y-83789342D01*
X107006668Y-83789342D02*
X107006668Y-83503628D01*
X107006668Y-83503628D02*
X107054287Y-83408390D01*
X107054287Y-83408390D02*
X107101906Y-83360771D01*
X107101906Y-83360771D02*
X107197144Y-83313152D01*
X107197144Y-83313152D02*
X107387620Y-83313152D01*
X107387620Y-83313152D02*
X107482858Y-83360771D01*
X107911430Y-83979819D02*
X107911430Y-83313152D01*
X107911430Y-82979819D02*
X107863811Y-83027438D01*
X107863811Y-83027438D02*
X107911430Y-83075057D01*
X107911430Y-83075057D02*
X107959049Y-83027438D01*
X107959049Y-83027438D02*
X107911430Y-82979819D01*
X107911430Y-82979819D02*
X107911430Y-83075057D01*
X108816191Y-83979819D02*
X108816191Y-83456009D01*
X108816191Y-83456009D02*
X108768572Y-83360771D01*
X108768572Y-83360771D02*
X108673334Y-83313152D01*
X108673334Y-83313152D02*
X108482858Y-83313152D01*
X108482858Y-83313152D02*
X108387620Y-83360771D01*
X108816191Y-83932200D02*
X108720953Y-83979819D01*
X108720953Y-83979819D02*
X108482858Y-83979819D01*
X108482858Y-83979819D02*
X108387620Y-83932200D01*
X108387620Y-83932200D02*
X108340001Y-83836961D01*
X108340001Y-83836961D02*
X108340001Y-83741723D01*
X108340001Y-83741723D02*
X108387620Y-83646485D01*
X108387620Y-83646485D02*
X108482858Y-83598866D01*
X108482858Y-83598866D02*
X108720953Y-83598866D01*
X108720953Y-83598866D02*
X108816191Y-83551247D01*
X109816191Y-83979819D02*
X109244763Y-83979819D01*
X109530477Y-83979819D02*
X109530477Y-82979819D01*
X109530477Y-82979819D02*
X109435239Y-83122676D01*
X109435239Y-83122676D02*
X109340001Y-83217914D01*
X109340001Y-83217914D02*
X109244763Y-83265533D01*
X84656666Y-71194819D02*
X84656666Y-72004342D01*
X84656666Y-72004342D02*
X84704285Y-72099580D01*
X84704285Y-72099580D02*
X84751904Y-72147200D01*
X84751904Y-72147200D02*
X84847142Y-72194819D01*
X84847142Y-72194819D02*
X85037618Y-72194819D01*
X85037618Y-72194819D02*
X85132856Y-72147200D01*
X85132856Y-72147200D02*
X85180475Y-72099580D01*
X85180475Y-72099580D02*
X85228094Y-72004342D01*
X85228094Y-72004342D02*
X85228094Y-71194819D01*
X86132856Y-72194819D02*
X86132856Y-71671009D01*
X86132856Y-71671009D02*
X86085237Y-71575771D01*
X86085237Y-71575771D02*
X85989999Y-71528152D01*
X85989999Y-71528152D02*
X85799523Y-71528152D01*
X85799523Y-71528152D02*
X85704285Y-71575771D01*
X86132856Y-72147200D02*
X86037618Y-72194819D01*
X86037618Y-72194819D02*
X85799523Y-72194819D01*
X85799523Y-72194819D02*
X85704285Y-72147200D01*
X85704285Y-72147200D02*
X85656666Y-72051961D01*
X85656666Y-72051961D02*
X85656666Y-71956723D01*
X85656666Y-71956723D02*
X85704285Y-71861485D01*
X85704285Y-71861485D02*
X85799523Y-71813866D01*
X85799523Y-71813866D02*
X86037618Y-71813866D01*
X86037618Y-71813866D02*
X86132856Y-71766247D01*
X86609047Y-72194819D02*
X86609047Y-71528152D01*
X86609047Y-71718628D02*
X86656666Y-71623390D01*
X86656666Y-71623390D02*
X86704285Y-71575771D01*
X86704285Y-71575771D02*
X86799523Y-71528152D01*
X86799523Y-71528152D02*
X86894761Y-71528152D01*
X87085238Y-71528152D02*
X87466190Y-71528152D01*
X87228095Y-71194819D02*
X87228095Y-72051961D01*
X87228095Y-72051961D02*
X87275714Y-72147200D01*
X87275714Y-72147200D02*
X87370952Y-72194819D01*
X87370952Y-72194819D02*
X87466190Y-72194819D01*
X112680952Y-67181009D02*
X112823809Y-67228628D01*
X112823809Y-67228628D02*
X112871428Y-67276247D01*
X112871428Y-67276247D02*
X112919047Y-67371485D01*
X112919047Y-67371485D02*
X112919047Y-67514342D01*
X112919047Y-67514342D02*
X112871428Y-67609580D01*
X112871428Y-67609580D02*
X112823809Y-67657200D01*
X112823809Y-67657200D02*
X112728571Y-67704819D01*
X112728571Y-67704819D02*
X112347619Y-67704819D01*
X112347619Y-67704819D02*
X112347619Y-66704819D01*
X112347619Y-66704819D02*
X112680952Y-66704819D01*
X112680952Y-66704819D02*
X112776190Y-66752438D01*
X112776190Y-66752438D02*
X112823809Y-66800057D01*
X112823809Y-66800057D02*
X112871428Y-66895295D01*
X112871428Y-66895295D02*
X112871428Y-66990533D01*
X112871428Y-66990533D02*
X112823809Y-67085771D01*
X112823809Y-67085771D02*
X112776190Y-67133390D01*
X112776190Y-67133390D02*
X112680952Y-67181009D01*
X112680952Y-67181009D02*
X112347619Y-67181009D01*
X113490476Y-67704819D02*
X113395238Y-67657200D01*
X113395238Y-67657200D02*
X113347619Y-67609580D01*
X113347619Y-67609580D02*
X113300000Y-67514342D01*
X113300000Y-67514342D02*
X113300000Y-67228628D01*
X113300000Y-67228628D02*
X113347619Y-67133390D01*
X113347619Y-67133390D02*
X113395238Y-67085771D01*
X113395238Y-67085771D02*
X113490476Y-67038152D01*
X113490476Y-67038152D02*
X113633333Y-67038152D01*
X113633333Y-67038152D02*
X113728571Y-67085771D01*
X113728571Y-67085771D02*
X113776190Y-67133390D01*
X113776190Y-67133390D02*
X113823809Y-67228628D01*
X113823809Y-67228628D02*
X113823809Y-67514342D01*
X113823809Y-67514342D02*
X113776190Y-67609580D01*
X113776190Y-67609580D02*
X113728571Y-67657200D01*
X113728571Y-67657200D02*
X113633333Y-67704819D01*
X113633333Y-67704819D02*
X113490476Y-67704819D01*
X114395238Y-67704819D02*
X114300000Y-67657200D01*
X114300000Y-67657200D02*
X114252381Y-67609580D01*
X114252381Y-67609580D02*
X114204762Y-67514342D01*
X114204762Y-67514342D02*
X114204762Y-67228628D01*
X114204762Y-67228628D02*
X114252381Y-67133390D01*
X114252381Y-67133390D02*
X114300000Y-67085771D01*
X114300000Y-67085771D02*
X114395238Y-67038152D01*
X114395238Y-67038152D02*
X114538095Y-67038152D01*
X114538095Y-67038152D02*
X114633333Y-67085771D01*
X114633333Y-67085771D02*
X114680952Y-67133390D01*
X114680952Y-67133390D02*
X114728571Y-67228628D01*
X114728571Y-67228628D02*
X114728571Y-67514342D01*
X114728571Y-67514342D02*
X114680952Y-67609580D01*
X114680952Y-67609580D02*
X114633333Y-67657200D01*
X114633333Y-67657200D02*
X114538095Y-67704819D01*
X114538095Y-67704819D02*
X114395238Y-67704819D01*
X115014286Y-67038152D02*
X115395238Y-67038152D01*
X115157143Y-66704819D02*
X115157143Y-67561961D01*
X115157143Y-67561961D02*
X115204762Y-67657200D01*
X115204762Y-67657200D02*
X115300000Y-67704819D01*
X115300000Y-67704819D02*
X115395238Y-67704819D01*
X83143333Y-53329580D02*
X83095714Y-53377200D01*
X83095714Y-53377200D02*
X82952857Y-53424819D01*
X82952857Y-53424819D02*
X82857619Y-53424819D01*
X82857619Y-53424819D02*
X82714762Y-53377200D01*
X82714762Y-53377200D02*
X82619524Y-53281961D01*
X82619524Y-53281961D02*
X82571905Y-53186723D01*
X82571905Y-53186723D02*
X82524286Y-52996247D01*
X82524286Y-52996247D02*
X82524286Y-52853390D01*
X82524286Y-52853390D02*
X82571905Y-52662914D01*
X82571905Y-52662914D02*
X82619524Y-52567676D01*
X82619524Y-52567676D02*
X82714762Y-52472438D01*
X82714762Y-52472438D02*
X82857619Y-52424819D01*
X82857619Y-52424819D02*
X82952857Y-52424819D01*
X82952857Y-52424819D02*
X83095714Y-52472438D01*
X83095714Y-52472438D02*
X83143333Y-52520057D01*
X83524286Y-52520057D02*
X83571905Y-52472438D01*
X83571905Y-52472438D02*
X83667143Y-52424819D01*
X83667143Y-52424819D02*
X83905238Y-52424819D01*
X83905238Y-52424819D02*
X84000476Y-52472438D01*
X84000476Y-52472438D02*
X84048095Y-52520057D01*
X84048095Y-52520057D02*
X84095714Y-52615295D01*
X84095714Y-52615295D02*
X84095714Y-52710533D01*
X84095714Y-52710533D02*
X84048095Y-52853390D01*
X84048095Y-52853390D02*
X83476667Y-53424819D01*
X83476667Y-53424819D02*
X84095714Y-53424819D01*
X109429104Y-56462380D02*
X109429104Y-55986190D01*
X109714819Y-56557618D02*
X108714819Y-56224285D01*
X108714819Y-56224285D02*
X109714819Y-55890952D01*
X109714819Y-55414761D02*
X109667200Y-55509999D01*
X109667200Y-55509999D02*
X109571961Y-55557618D01*
X109571961Y-55557618D02*
X108714819Y-55557618D01*
X109714819Y-55033808D02*
X109048152Y-55033808D01*
X108714819Y-55033808D02*
X108762438Y-55081427D01*
X108762438Y-55081427D02*
X108810057Y-55033808D01*
X108810057Y-55033808D02*
X108762438Y-54986189D01*
X108762438Y-54986189D02*
X108714819Y-55033808D01*
X108714819Y-55033808D02*
X108810057Y-55033808D01*
X109714819Y-54557618D02*
X109048152Y-54557618D01*
X109143390Y-54557618D02*
X109095771Y-54509999D01*
X109095771Y-54509999D02*
X109048152Y-54414761D01*
X109048152Y-54414761D02*
X109048152Y-54271904D01*
X109048152Y-54271904D02*
X109095771Y-54176666D01*
X109095771Y-54176666D02*
X109191009Y-54129047D01*
X109191009Y-54129047D02*
X109714819Y-54129047D01*
X109191009Y-54129047D02*
X109095771Y-54081428D01*
X109095771Y-54081428D02*
X109048152Y-53986190D01*
X109048152Y-53986190D02*
X109048152Y-53843333D01*
X109048152Y-53843333D02*
X109095771Y-53748094D01*
X109095771Y-53748094D02*
X109191009Y-53700475D01*
X109191009Y-53700475D02*
X109714819Y-53700475D01*
X109667200Y-52843333D02*
X109714819Y-52938571D01*
X109714819Y-52938571D02*
X109714819Y-53129047D01*
X109714819Y-53129047D02*
X109667200Y-53224285D01*
X109667200Y-53224285D02*
X109571961Y-53271904D01*
X109571961Y-53271904D02*
X109191009Y-53271904D01*
X109191009Y-53271904D02*
X109095771Y-53224285D01*
X109095771Y-53224285D02*
X109048152Y-53129047D01*
X109048152Y-53129047D02*
X109048152Y-52938571D01*
X109048152Y-52938571D02*
X109095771Y-52843333D01*
X109095771Y-52843333D02*
X109191009Y-52795714D01*
X109191009Y-52795714D02*
X109286247Y-52795714D01*
X109286247Y-52795714D02*
X109381485Y-53271904D01*
X109048152Y-52367142D02*
X109714819Y-52367142D01*
X109143390Y-52367142D02*
X109095771Y-52319523D01*
X109095771Y-52319523D02*
X109048152Y-52224285D01*
X109048152Y-52224285D02*
X109048152Y-52081428D01*
X109048152Y-52081428D02*
X109095771Y-51986190D01*
X109095771Y-51986190D02*
X109191009Y-51938571D01*
X109191009Y-51938571D02*
X109714819Y-51938571D01*
X109048152Y-51605237D02*
X109048152Y-51224285D01*
X108714819Y-51462380D02*
X109571961Y-51462380D01*
X109571961Y-51462380D02*
X109667200Y-51414761D01*
X109667200Y-51414761D02*
X109714819Y-51319523D01*
X109714819Y-51319523D02*
X109714819Y-51224285D01*
X109714819Y-50462380D02*
X109191009Y-50462380D01*
X109191009Y-50462380D02*
X109095771Y-50509999D01*
X109095771Y-50509999D02*
X109048152Y-50605237D01*
X109048152Y-50605237D02*
X109048152Y-50795713D01*
X109048152Y-50795713D02*
X109095771Y-50890951D01*
X109667200Y-50462380D02*
X109714819Y-50557618D01*
X109714819Y-50557618D02*
X109714819Y-50795713D01*
X109714819Y-50795713D02*
X109667200Y-50890951D01*
X109667200Y-50890951D02*
X109571961Y-50938570D01*
X109571961Y-50938570D02*
X109476723Y-50938570D01*
X109476723Y-50938570D02*
X109381485Y-50890951D01*
X109381485Y-50890951D02*
X109333866Y-50795713D01*
X109333866Y-50795713D02*
X109333866Y-50557618D01*
X109333866Y-50557618D02*
X109286247Y-50462380D01*
X109667200Y-49557618D02*
X109714819Y-49652856D01*
X109714819Y-49652856D02*
X109714819Y-49843332D01*
X109714819Y-49843332D02*
X109667200Y-49938570D01*
X109667200Y-49938570D02*
X109619580Y-49986189D01*
X109619580Y-49986189D02*
X109524342Y-50033808D01*
X109524342Y-50033808D02*
X109238628Y-50033808D01*
X109238628Y-50033808D02*
X109143390Y-49986189D01*
X109143390Y-49986189D02*
X109095771Y-49938570D01*
X109095771Y-49938570D02*
X109048152Y-49843332D01*
X109048152Y-49843332D02*
X109048152Y-49652856D01*
X109048152Y-49652856D02*
X109095771Y-49557618D01*
X109714819Y-49129046D02*
X109048152Y-49129046D01*
X108714819Y-49129046D02*
X108762438Y-49176665D01*
X108762438Y-49176665D02*
X108810057Y-49129046D01*
X108810057Y-49129046D02*
X108762438Y-49081427D01*
X108762438Y-49081427D02*
X108714819Y-49129046D01*
X108714819Y-49129046D02*
X108810057Y-49129046D01*
X109714819Y-48509999D02*
X109667200Y-48605237D01*
X109667200Y-48605237D02*
X109619580Y-48652856D01*
X109619580Y-48652856D02*
X109524342Y-48700475D01*
X109524342Y-48700475D02*
X109238628Y-48700475D01*
X109238628Y-48700475D02*
X109143390Y-48652856D01*
X109143390Y-48652856D02*
X109095771Y-48605237D01*
X109095771Y-48605237D02*
X109048152Y-48509999D01*
X109048152Y-48509999D02*
X109048152Y-48367142D01*
X109048152Y-48367142D02*
X109095771Y-48271904D01*
X109095771Y-48271904D02*
X109143390Y-48224285D01*
X109143390Y-48224285D02*
X109238628Y-48176666D01*
X109238628Y-48176666D02*
X109524342Y-48176666D01*
X109524342Y-48176666D02*
X109619580Y-48224285D01*
X109619580Y-48224285D02*
X109667200Y-48271904D01*
X109667200Y-48271904D02*
X109714819Y-48367142D01*
X109714819Y-48367142D02*
X109714819Y-48509999D01*
X109048152Y-47748094D02*
X109714819Y-47748094D01*
X109143390Y-47748094D02*
X109095771Y-47700475D01*
X109095771Y-47700475D02*
X109048152Y-47605237D01*
X109048152Y-47605237D02*
X109048152Y-47462380D01*
X109048152Y-47462380D02*
X109095771Y-47367142D01*
X109095771Y-47367142D02*
X109191009Y-47319523D01*
X109191009Y-47319523D02*
X109714819Y-47319523D01*
X108810057Y-46890951D02*
X108762438Y-46843332D01*
X108762438Y-46843332D02*
X108714819Y-46748094D01*
X108714819Y-46748094D02*
X108714819Y-46509999D01*
X108714819Y-46509999D02*
X108762438Y-46414761D01*
X108762438Y-46414761D02*
X108810057Y-46367142D01*
X108810057Y-46367142D02*
X108905295Y-46319523D01*
X108905295Y-46319523D02*
X109000533Y-46319523D01*
X109000533Y-46319523D02*
X109143390Y-46367142D01*
X109143390Y-46367142D02*
X109714819Y-46938570D01*
X109714819Y-46938570D02*
X109714819Y-46319523D01*
X108810057Y-45938570D02*
X108762438Y-45890951D01*
X108762438Y-45890951D02*
X108714819Y-45795713D01*
X108714819Y-45795713D02*
X108714819Y-45557618D01*
X108714819Y-45557618D02*
X108762438Y-45462380D01*
X108762438Y-45462380D02*
X108810057Y-45414761D01*
X108810057Y-45414761D02*
X108905295Y-45367142D01*
X108905295Y-45367142D02*
X109000533Y-45367142D01*
X109000533Y-45367142D02*
X109143390Y-45414761D01*
X109143390Y-45414761D02*
X109714819Y-45986189D01*
X109714819Y-45986189D02*
X109714819Y-45367142D01*
X108714819Y-44748094D02*
X108714819Y-44652856D01*
X108714819Y-44652856D02*
X108762438Y-44557618D01*
X108762438Y-44557618D02*
X108810057Y-44509999D01*
X108810057Y-44509999D02*
X108905295Y-44462380D01*
X108905295Y-44462380D02*
X109095771Y-44414761D01*
X109095771Y-44414761D02*
X109333866Y-44414761D01*
X109333866Y-44414761D02*
X109524342Y-44462380D01*
X109524342Y-44462380D02*
X109619580Y-44509999D01*
X109619580Y-44509999D02*
X109667200Y-44557618D01*
X109667200Y-44557618D02*
X109714819Y-44652856D01*
X109714819Y-44652856D02*
X109714819Y-44748094D01*
X109714819Y-44748094D02*
X109667200Y-44843332D01*
X109667200Y-44843332D02*
X109619580Y-44890951D01*
X109619580Y-44890951D02*
X109524342Y-44938570D01*
X109524342Y-44938570D02*
X109333866Y-44986189D01*
X109333866Y-44986189D02*
X109095771Y-44986189D01*
X109095771Y-44986189D02*
X108905295Y-44938570D01*
X108905295Y-44938570D02*
X108810057Y-44890951D01*
X108810057Y-44890951D02*
X108762438Y-44843332D01*
X108762438Y-44843332D02*
X108714819Y-44748094D01*
X108714819Y-44129046D02*
X109714819Y-43795713D01*
X109714819Y-43795713D02*
X108714819Y-43462380D01*
X83003333Y-46619580D02*
X82955714Y-46667200D01*
X82955714Y-46667200D02*
X82812857Y-46714819D01*
X82812857Y-46714819D02*
X82717619Y-46714819D01*
X82717619Y-46714819D02*
X82574762Y-46667200D01*
X82574762Y-46667200D02*
X82479524Y-46571961D01*
X82479524Y-46571961D02*
X82431905Y-46476723D01*
X82431905Y-46476723D02*
X82384286Y-46286247D01*
X82384286Y-46286247D02*
X82384286Y-46143390D01*
X82384286Y-46143390D02*
X82431905Y-45952914D01*
X82431905Y-45952914D02*
X82479524Y-45857676D01*
X82479524Y-45857676D02*
X82574762Y-45762438D01*
X82574762Y-45762438D02*
X82717619Y-45714819D01*
X82717619Y-45714819D02*
X82812857Y-45714819D01*
X82812857Y-45714819D02*
X82955714Y-45762438D01*
X82955714Y-45762438D02*
X83003333Y-45810057D01*
X83955714Y-46714819D02*
X83384286Y-46714819D01*
X83670000Y-46714819D02*
X83670000Y-45714819D01*
X83670000Y-45714819D02*
X83574762Y-45857676D01*
X83574762Y-45857676D02*
X83479524Y-45952914D01*
X83479524Y-45952914D02*
X83384286Y-46000533D01*
X92908095Y-83264819D02*
X92908095Y-84074342D01*
X92908095Y-84074342D02*
X92955714Y-84169580D01*
X92955714Y-84169580D02*
X93003333Y-84217200D01*
X93003333Y-84217200D02*
X93098571Y-84264819D01*
X93098571Y-84264819D02*
X93289047Y-84264819D01*
X93289047Y-84264819D02*
X93384285Y-84217200D01*
X93384285Y-84217200D02*
X93431904Y-84169580D01*
X93431904Y-84169580D02*
X93479523Y-84074342D01*
X93479523Y-84074342D02*
X93479523Y-83264819D01*
X93860476Y-83264819D02*
X94479523Y-83264819D01*
X94479523Y-83264819D02*
X94146190Y-83645771D01*
X94146190Y-83645771D02*
X94289047Y-83645771D01*
X94289047Y-83645771D02*
X94384285Y-83693390D01*
X94384285Y-83693390D02*
X94431904Y-83741009D01*
X94431904Y-83741009D02*
X94479523Y-83836247D01*
X94479523Y-83836247D02*
X94479523Y-84074342D01*
X94479523Y-84074342D02*
X94431904Y-84169580D01*
X94431904Y-84169580D02*
X94384285Y-84217200D01*
X94384285Y-84217200D02*
X94289047Y-84264819D01*
X94289047Y-84264819D02*
X94003333Y-84264819D01*
X94003333Y-84264819D02*
X93908095Y-84217200D01*
X93908095Y-84217200D02*
X93860476Y-84169580D01*
X114613333Y-80544819D02*
X114280000Y-80068628D01*
X114041905Y-80544819D02*
X114041905Y-79544819D01*
X114041905Y-79544819D02*
X114422857Y-79544819D01*
X114422857Y-79544819D02*
X114518095Y-79592438D01*
X114518095Y-79592438D02*
X114565714Y-79640057D01*
X114565714Y-79640057D02*
X114613333Y-79735295D01*
X114613333Y-79735295D02*
X114613333Y-79878152D01*
X114613333Y-79878152D02*
X114565714Y-79973390D01*
X114565714Y-79973390D02*
X114518095Y-80021009D01*
X114518095Y-80021009D02*
X114422857Y-80068628D01*
X114422857Y-80068628D02*
X114041905Y-80068628D01*
X114994286Y-79640057D02*
X115041905Y-79592438D01*
X115041905Y-79592438D02*
X115137143Y-79544819D01*
X115137143Y-79544819D02*
X115375238Y-79544819D01*
X115375238Y-79544819D02*
X115470476Y-79592438D01*
X115470476Y-79592438D02*
X115518095Y-79640057D01*
X115518095Y-79640057D02*
X115565714Y-79735295D01*
X115565714Y-79735295D02*
X115565714Y-79830533D01*
X115565714Y-79830533D02*
X115518095Y-79973390D01*
X115518095Y-79973390D02*
X114946667Y-80544819D01*
X114946667Y-80544819D02*
X115565714Y-80544819D01*
X98719819Y-48870476D02*
X98719819Y-49346666D01*
X98719819Y-49346666D02*
X97719819Y-49346666D01*
X98719819Y-48537142D02*
X97719819Y-48537142D01*
X97719819Y-48537142D02*
X97719819Y-48156190D01*
X97719819Y-48156190D02*
X97767438Y-48060952D01*
X97767438Y-48060952D02*
X97815057Y-48013333D01*
X97815057Y-48013333D02*
X97910295Y-47965714D01*
X97910295Y-47965714D02*
X98053152Y-47965714D01*
X98053152Y-47965714D02*
X98148390Y-48013333D01*
X98148390Y-48013333D02*
X98196009Y-48060952D01*
X98196009Y-48060952D02*
X98243628Y-48156190D01*
X98243628Y-48156190D02*
X98243628Y-48537142D01*
X100766666Y-42134819D02*
X100433333Y-41658628D01*
X100195238Y-42134819D02*
X100195238Y-41134819D01*
X100195238Y-41134819D02*
X100576190Y-41134819D01*
X100576190Y-41134819D02*
X100671428Y-41182438D01*
X100671428Y-41182438D02*
X100719047Y-41230057D01*
X100719047Y-41230057D02*
X100766666Y-41325295D01*
X100766666Y-41325295D02*
X100766666Y-41468152D01*
X100766666Y-41468152D02*
X100719047Y-41563390D01*
X100719047Y-41563390D02*
X100671428Y-41611009D01*
X100671428Y-41611009D02*
X100576190Y-41658628D01*
X100576190Y-41658628D02*
X100195238Y-41658628D01*
X101576190Y-42087200D02*
X101480952Y-42134819D01*
X101480952Y-42134819D02*
X101290476Y-42134819D01*
X101290476Y-42134819D02*
X101195238Y-42087200D01*
X101195238Y-42087200D02*
X101147619Y-41991961D01*
X101147619Y-41991961D02*
X101147619Y-41611009D01*
X101147619Y-41611009D02*
X101195238Y-41515771D01*
X101195238Y-41515771D02*
X101290476Y-41468152D01*
X101290476Y-41468152D02*
X101480952Y-41468152D01*
X101480952Y-41468152D02*
X101576190Y-41515771D01*
X101576190Y-41515771D02*
X101623809Y-41611009D01*
X101623809Y-41611009D02*
X101623809Y-41706247D01*
X101623809Y-41706247D02*
X101147619Y-41801485D01*
X102004762Y-42087200D02*
X102100000Y-42134819D01*
X102100000Y-42134819D02*
X102290476Y-42134819D01*
X102290476Y-42134819D02*
X102385714Y-42087200D01*
X102385714Y-42087200D02*
X102433333Y-41991961D01*
X102433333Y-41991961D02*
X102433333Y-41944342D01*
X102433333Y-41944342D02*
X102385714Y-41849104D01*
X102385714Y-41849104D02*
X102290476Y-41801485D01*
X102290476Y-41801485D02*
X102147619Y-41801485D01*
X102147619Y-41801485D02*
X102052381Y-41753866D01*
X102052381Y-41753866D02*
X102004762Y-41658628D01*
X102004762Y-41658628D02*
X102004762Y-41611009D01*
X102004762Y-41611009D02*
X102052381Y-41515771D01*
X102052381Y-41515771D02*
X102147619Y-41468152D01*
X102147619Y-41468152D02*
X102290476Y-41468152D01*
X102290476Y-41468152D02*
X102385714Y-41515771D01*
X102623810Y-42230057D02*
X103385714Y-42230057D01*
X103957143Y-41611009D02*
X103623810Y-41611009D01*
X103623810Y-42134819D02*
X103623810Y-41134819D01*
X103623810Y-41134819D02*
X104100000Y-41134819D01*
X114763333Y-76884819D02*
X114430000Y-76408628D01*
X114191905Y-76884819D02*
X114191905Y-75884819D01*
X114191905Y-75884819D02*
X114572857Y-75884819D01*
X114572857Y-75884819D02*
X114668095Y-75932438D01*
X114668095Y-75932438D02*
X114715714Y-75980057D01*
X114715714Y-75980057D02*
X114763333Y-76075295D01*
X114763333Y-76075295D02*
X114763333Y-76218152D01*
X114763333Y-76218152D02*
X114715714Y-76313390D01*
X114715714Y-76313390D02*
X114668095Y-76361009D01*
X114668095Y-76361009D02*
X114572857Y-76408628D01*
X114572857Y-76408628D02*
X114191905Y-76408628D01*
X115715714Y-76884819D02*
X115144286Y-76884819D01*
X115430000Y-76884819D02*
X115430000Y-75884819D01*
X115430000Y-75884819D02*
X115334762Y-76027676D01*
X115334762Y-76027676D02*
X115239524Y-76122914D01*
X115239524Y-76122914D02*
X115144286Y-76170533D01*
D13*
%TO.C,Reset*%
X109760000Y-58290000D02*
X109760000Y-58590000D01*
X109760000Y-58290000D02*
X117380000Y-58290000D01*
X109760000Y-60530000D02*
X109760000Y-63670000D01*
X109760000Y-65610000D02*
X109760000Y-65910000D01*
X117380000Y-58290000D02*
X117380000Y-58590000D01*
X117380000Y-60530000D02*
X117380000Y-63670000D01*
X117380000Y-65610000D02*
X117380000Y-65910000D01*
X117380000Y-65910000D02*
X109760000Y-65910000D01*
X116110000Y-62100000D02*
G75*
G03*
X116110000Y-62100000I-2540000J0D01*
G01*
D14*
%TO.C,PIR1*%
X60800000Y-41410000D02*
X93800000Y-41410000D01*
X60800000Y-65410000D02*
X60800000Y-41410000D01*
X93800000Y-41410000D02*
X93800000Y-65410000D01*
X93800000Y-65410000D02*
X60800000Y-65410000D01*
X89300000Y-53410000D02*
G75*
G03*
X89300000Y-53410000I-12000000J0D01*
G01*
D13*
%TO.C,Fotoresistencia1*%
X102510000Y-84525000D02*
X103840000Y-84525000D01*
X102510000Y-85855000D02*
X102510000Y-84525000D01*
X102510000Y-87125000D02*
X102510000Y-89725000D01*
X102510000Y-87125000D02*
X105170000Y-87125000D01*
X102510000Y-89725000D02*
X105170000Y-89725000D01*
X105170000Y-87125000D02*
X105170000Y-89725000D01*
%TO.C,Uart*%
X84660000Y-72740000D02*
X85990000Y-72740000D01*
X84660000Y-74070000D02*
X84660000Y-72740000D01*
X84660000Y-75340000D02*
X84660000Y-83020000D01*
X84660000Y-75340000D02*
X87320000Y-75340000D01*
X84660000Y-83020000D02*
X87320000Y-83020000D01*
X87320000Y-75340000D02*
X87320000Y-83020000D01*
%TO.C,Boot*%
X109990000Y-68060000D02*
X109990000Y-68360000D01*
X109990000Y-68060000D02*
X117610000Y-68060000D01*
X109990000Y-70300000D02*
X109990000Y-73440000D01*
X109990000Y-75380000D02*
X109990000Y-75680000D01*
X117610000Y-68060000D02*
X117610000Y-68360000D01*
X117610000Y-70300000D02*
X117610000Y-73440000D01*
X117610000Y-75380000D02*
X117610000Y-75680000D01*
X117610000Y-75680000D02*
X109990000Y-75680000D01*
X116340000Y-71870000D02*
G75*
G03*
X116340000Y-71870000I-2540000J0D01*
G01*
%TO.C,C2*%
X81040199Y-55025000D02*
X81440199Y-55025000D01*
X81240199Y-54825000D02*
X81240199Y-55225000D01*
X83310000Y-54140000D02*
X83310000Y-55380000D01*
X83310000Y-57060000D02*
X83310000Y-58300000D01*
X83350000Y-54140000D02*
X83350000Y-55380000D01*
X83350000Y-57060000D02*
X83350000Y-58300000D01*
X83390000Y-54141000D02*
X83390000Y-55380000D01*
X83390000Y-57060000D02*
X83390000Y-58299000D01*
X83430000Y-54143000D02*
X83430000Y-55380000D01*
X83430000Y-57060000D02*
X83430000Y-58297000D01*
X83470000Y-54146000D02*
X83470000Y-55380000D01*
X83470000Y-57060000D02*
X83470000Y-58294000D01*
X83510000Y-54149000D02*
X83510000Y-55380000D01*
X83510000Y-57060000D02*
X83510000Y-58291000D01*
X83550000Y-54153000D02*
X83550000Y-55380000D01*
X83550000Y-57060000D02*
X83550000Y-58287000D01*
X83590000Y-54158000D02*
X83590000Y-55380000D01*
X83590000Y-57060000D02*
X83590000Y-58282000D01*
X83630000Y-54164000D02*
X83630000Y-55380000D01*
X83630000Y-57060000D02*
X83630000Y-58276000D01*
X83670000Y-54170000D02*
X83670000Y-55380000D01*
X83670000Y-57060000D02*
X83670000Y-58270000D01*
X83710000Y-54178000D02*
X83710000Y-55380000D01*
X83710000Y-57060000D02*
X83710000Y-58262000D01*
X83750000Y-54186000D02*
X83750000Y-55380000D01*
X83750000Y-57060000D02*
X83750000Y-58254000D01*
X83790000Y-54195000D02*
X83790000Y-55380000D01*
X83790000Y-57060000D02*
X83790000Y-58245000D01*
X83830000Y-54204000D02*
X83830000Y-55380000D01*
X83830000Y-57060000D02*
X83830000Y-58236000D01*
X83870000Y-54215000D02*
X83870000Y-55380000D01*
X83870000Y-57060000D02*
X83870000Y-58225000D01*
X83910000Y-54226000D02*
X83910000Y-55380000D01*
X83910000Y-57060000D02*
X83910000Y-58214000D01*
X83950000Y-54238000D02*
X83950000Y-55380000D01*
X83950000Y-57060000D02*
X83950000Y-58202000D01*
X83990000Y-54252000D02*
X83990000Y-55380000D01*
X83990000Y-57060000D02*
X83990000Y-58188000D01*
X84031000Y-54266000D02*
X84031000Y-55380000D01*
X84031000Y-57060000D02*
X84031000Y-58174000D01*
X84071000Y-54280000D02*
X84071000Y-55380000D01*
X84071000Y-57060000D02*
X84071000Y-58160000D01*
X84111000Y-54296000D02*
X84111000Y-55380000D01*
X84111000Y-57060000D02*
X84111000Y-58144000D01*
X84151000Y-54313000D02*
X84151000Y-55380000D01*
X84151000Y-57060000D02*
X84151000Y-58127000D01*
X84191000Y-54331000D02*
X84191000Y-55380000D01*
X84191000Y-57060000D02*
X84191000Y-58109000D01*
X84231000Y-54350000D02*
X84231000Y-55380000D01*
X84231000Y-57060000D02*
X84231000Y-58090000D01*
X84271000Y-54369000D02*
X84271000Y-55380000D01*
X84271000Y-57060000D02*
X84271000Y-58071000D01*
X84311000Y-54390000D02*
X84311000Y-55380000D01*
X84311000Y-57060000D02*
X84311000Y-58050000D01*
X84351000Y-54412000D02*
X84351000Y-55380000D01*
X84351000Y-57060000D02*
X84351000Y-58028000D01*
X84391000Y-54435000D02*
X84391000Y-55380000D01*
X84391000Y-57060000D02*
X84391000Y-58005000D01*
X84431000Y-54460000D02*
X84431000Y-55380000D01*
X84431000Y-57060000D02*
X84431000Y-57980000D01*
X84471000Y-54485000D02*
X84471000Y-55380000D01*
X84471000Y-57060000D02*
X84471000Y-57955000D01*
X84511000Y-54512000D02*
X84511000Y-55380000D01*
X84511000Y-57060000D02*
X84511000Y-57928000D01*
X84551000Y-54540000D02*
X84551000Y-55380000D01*
X84551000Y-57060000D02*
X84551000Y-57900000D01*
X84591000Y-54570000D02*
X84591000Y-55380000D01*
X84591000Y-57060000D02*
X84591000Y-57870000D01*
X84631000Y-54601000D02*
X84631000Y-55380000D01*
X84631000Y-57060000D02*
X84631000Y-57839000D01*
X84671000Y-54633000D02*
X84671000Y-55380000D01*
X84671000Y-57060000D02*
X84671000Y-57807000D01*
X84711000Y-54668000D02*
X84711000Y-55380000D01*
X84711000Y-57060000D02*
X84711000Y-57772000D01*
X84751000Y-54704000D02*
X84751000Y-55380000D01*
X84751000Y-57060000D02*
X84751000Y-57736000D01*
X84791000Y-54742000D02*
X84791000Y-55380000D01*
X84791000Y-57060000D02*
X84791000Y-57698000D01*
X84831000Y-54782000D02*
X84831000Y-55380000D01*
X84831000Y-57060000D02*
X84831000Y-57658000D01*
X84871000Y-54824000D02*
X84871000Y-55380000D01*
X84871000Y-57060000D02*
X84871000Y-57616000D01*
X84911000Y-54869000D02*
X84911000Y-57571000D01*
X84951000Y-54916000D02*
X84951000Y-57524000D01*
X84991000Y-54966000D02*
X84991000Y-57474000D01*
X85031000Y-55020000D02*
X85031000Y-57420000D01*
X85071000Y-55078000D02*
X85071000Y-57362000D01*
X85111000Y-55140000D02*
X85111000Y-57300000D01*
X85151000Y-55207000D02*
X85151000Y-57233000D01*
X85191000Y-55280000D02*
X85191000Y-57160000D01*
X85231000Y-55361000D02*
X85231000Y-57079000D01*
X85271000Y-55452000D02*
X85271000Y-56988000D01*
X85311000Y-55556000D02*
X85311000Y-56884000D01*
X85351000Y-55683000D02*
X85351000Y-56757000D01*
X85391000Y-55850000D02*
X85391000Y-56590000D01*
X85430000Y-56220000D02*
G75*
G03*
X85430000Y-56220000I-2120000J0D01*
G01*
%TO.C,Alimentacion220V*%
X110530000Y-55090000D02*
X118150000Y-55090000D01*
X118150000Y-55090000D02*
X118150000Y-44930000D01*
X110530000Y-44930000D02*
X110530000Y-55090000D01*
X116880000Y-44930000D02*
X116880000Y-55090000D01*
X118150000Y-44930000D02*
X110530000Y-44930000D01*
%TO.C,C1*%
X80900199Y-48315000D02*
X81300199Y-48315000D01*
X81100199Y-48115000D02*
X81100199Y-48515000D01*
X83170000Y-47430000D02*
X83170000Y-48670000D01*
X83170000Y-50350000D02*
X83170000Y-51590000D01*
X83210000Y-47430000D02*
X83210000Y-48670000D01*
X83210000Y-50350000D02*
X83210000Y-51590000D01*
X83250000Y-47431000D02*
X83250000Y-48670000D01*
X83250000Y-50350000D02*
X83250000Y-51589000D01*
X83290000Y-47433000D02*
X83290000Y-48670000D01*
X83290000Y-50350000D02*
X83290000Y-51587000D01*
X83330000Y-47436000D02*
X83330000Y-48670000D01*
X83330000Y-50350000D02*
X83330000Y-51584000D01*
X83370000Y-47439000D02*
X83370000Y-48670000D01*
X83370000Y-50350000D02*
X83370000Y-51581000D01*
X83410000Y-47443000D02*
X83410000Y-48670000D01*
X83410000Y-50350000D02*
X83410000Y-51577000D01*
X83450000Y-47448000D02*
X83450000Y-48670000D01*
X83450000Y-50350000D02*
X83450000Y-51572000D01*
X83490000Y-47454000D02*
X83490000Y-48670000D01*
X83490000Y-50350000D02*
X83490000Y-51566000D01*
X83530000Y-47460000D02*
X83530000Y-48670000D01*
X83530000Y-50350000D02*
X83530000Y-51560000D01*
X83570000Y-47468000D02*
X83570000Y-48670000D01*
X83570000Y-50350000D02*
X83570000Y-51552000D01*
X83610000Y-47476000D02*
X83610000Y-48670000D01*
X83610000Y-50350000D02*
X83610000Y-51544000D01*
X83650000Y-47485000D02*
X83650000Y-48670000D01*
X83650000Y-50350000D02*
X83650000Y-51535000D01*
X83690000Y-47494000D02*
X83690000Y-48670000D01*
X83690000Y-50350000D02*
X83690000Y-51526000D01*
X83730000Y-47505000D02*
X83730000Y-48670000D01*
X83730000Y-50350000D02*
X83730000Y-51515000D01*
X83770000Y-47516000D02*
X83770000Y-48670000D01*
X83770000Y-50350000D02*
X83770000Y-51504000D01*
X83810000Y-47528000D02*
X83810000Y-48670000D01*
X83810000Y-50350000D02*
X83810000Y-51492000D01*
X83850000Y-47542000D02*
X83850000Y-48670000D01*
X83850000Y-50350000D02*
X83850000Y-51478000D01*
X83891000Y-47556000D02*
X83891000Y-48670000D01*
X83891000Y-50350000D02*
X83891000Y-51464000D01*
X83931000Y-47570000D02*
X83931000Y-48670000D01*
X83931000Y-50350000D02*
X83931000Y-51450000D01*
X83971000Y-47586000D02*
X83971000Y-48670000D01*
X83971000Y-50350000D02*
X83971000Y-51434000D01*
X84011000Y-47603000D02*
X84011000Y-48670000D01*
X84011000Y-50350000D02*
X84011000Y-51417000D01*
X84051000Y-47621000D02*
X84051000Y-48670000D01*
X84051000Y-50350000D02*
X84051000Y-51399000D01*
X84091000Y-47640000D02*
X84091000Y-48670000D01*
X84091000Y-50350000D02*
X84091000Y-51380000D01*
X84131000Y-47659000D02*
X84131000Y-48670000D01*
X84131000Y-50350000D02*
X84131000Y-51361000D01*
X84171000Y-47680000D02*
X84171000Y-48670000D01*
X84171000Y-50350000D02*
X84171000Y-51340000D01*
X84211000Y-47702000D02*
X84211000Y-48670000D01*
X84211000Y-50350000D02*
X84211000Y-51318000D01*
X84251000Y-47725000D02*
X84251000Y-48670000D01*
X84251000Y-50350000D02*
X84251000Y-51295000D01*
X84291000Y-47750000D02*
X84291000Y-48670000D01*
X84291000Y-50350000D02*
X84291000Y-51270000D01*
X84331000Y-47775000D02*
X84331000Y-48670000D01*
X84331000Y-50350000D02*
X84331000Y-51245000D01*
X84371000Y-47802000D02*
X84371000Y-48670000D01*
X84371000Y-50350000D02*
X84371000Y-51218000D01*
X84411000Y-47830000D02*
X84411000Y-48670000D01*
X84411000Y-50350000D02*
X84411000Y-51190000D01*
X84451000Y-47860000D02*
X84451000Y-48670000D01*
X84451000Y-50350000D02*
X84451000Y-51160000D01*
X84491000Y-47891000D02*
X84491000Y-48670000D01*
X84491000Y-50350000D02*
X84491000Y-51129000D01*
X84531000Y-47923000D02*
X84531000Y-48670000D01*
X84531000Y-50350000D02*
X84531000Y-51097000D01*
X84571000Y-47958000D02*
X84571000Y-48670000D01*
X84571000Y-50350000D02*
X84571000Y-51062000D01*
X84611000Y-47994000D02*
X84611000Y-48670000D01*
X84611000Y-50350000D02*
X84611000Y-51026000D01*
X84651000Y-48032000D02*
X84651000Y-48670000D01*
X84651000Y-50350000D02*
X84651000Y-50988000D01*
X84691000Y-48072000D02*
X84691000Y-48670000D01*
X84691000Y-50350000D02*
X84691000Y-50948000D01*
X84731000Y-48114000D02*
X84731000Y-48670000D01*
X84731000Y-50350000D02*
X84731000Y-50906000D01*
X84771000Y-48159000D02*
X84771000Y-50861000D01*
X84811000Y-48206000D02*
X84811000Y-50814000D01*
X84851000Y-48256000D02*
X84851000Y-50764000D01*
X84891000Y-48310000D02*
X84891000Y-50710000D01*
X84931000Y-48368000D02*
X84931000Y-50652000D01*
X84971000Y-48430000D02*
X84971000Y-50590000D01*
X85011000Y-48497000D02*
X85011000Y-50523000D01*
X85051000Y-48570000D02*
X85051000Y-50450000D01*
X85091000Y-48651000D02*
X85091000Y-50369000D01*
X85131000Y-48742000D02*
X85131000Y-50278000D01*
X85171000Y-48846000D02*
X85171000Y-50174000D01*
X85211000Y-48973000D02*
X85211000Y-50047000D01*
X85251000Y-49140000D02*
X85251000Y-49880000D01*
X85290000Y-49510000D02*
G75*
G03*
X85290000Y-49510000I-2120000J0D01*
G01*
%TO.C,U3*%
X91870000Y-89220000D02*
X95470000Y-89220000D01*
X93670000Y-84770000D02*
G75*
G03*
X91831522Y-89208478I0J-2600000D01*
G01*
X95508478Y-89208478D02*
G75*
G03*
X93670000Y-84770000I-1838478J1838478D01*
G01*
%TO.C,R2*%
X112860000Y-81090000D02*
X116700000Y-81090000D01*
X112860000Y-82930000D02*
X116700000Y-82930000D01*
%TO.C,LP*%
X99265000Y-50010000D02*
X99265000Y-48680000D01*
X100595000Y-50010000D02*
X99265000Y-50010000D01*
X101865000Y-50010000D02*
X104465000Y-50010000D01*
X101865000Y-50010000D02*
X101865000Y-47350000D01*
X104465000Y-50010000D02*
X104465000Y-47350000D01*
X101865000Y-47350000D02*
X104465000Y-47350000D01*
%TO.C,U2*%
X68240000Y-46940000D02*
X74250000Y-46940000D01*
X70490000Y-53760000D02*
X74250000Y-53760000D01*
X74250000Y-46940000D02*
X74250000Y-48200000D01*
X74250000Y-53760000D02*
X74250000Y-52500000D01*
%TO.C,G\u002A\u002A\u002A*%
G36*
X93842012Y-71488556D02*
G01*
X93837212Y-71493356D01*
X93832412Y-71488556D01*
X93837212Y-71483756D01*
X93842012Y-71488556D01*
G37*
G36*
X105649268Y-70902993D02*
G01*
X105644468Y-70907792D01*
X105639668Y-70902993D01*
X105644468Y-70898193D01*
X105649268Y-70902993D01*
G37*
G36*
X93827931Y-71515790D02*
G01*
X93823105Y-71540431D01*
X93815075Y-71575497D01*
X93807913Y-71604431D01*
X93783563Y-71710926D01*
X93760941Y-71831079D01*
X93740975Y-71959367D01*
X93724592Y-72090266D01*
X93721701Y-72117506D01*
X93715908Y-72191611D01*
X93711909Y-72280575D01*
X93709658Y-72380169D01*
X93709110Y-72486165D01*
X93710221Y-72594333D01*
X93712947Y-72700446D01*
X93717241Y-72800274D01*
X93723060Y-72889588D01*
X93730359Y-72964161D01*
X93730691Y-72966863D01*
X93776689Y-73259964D01*
X93841218Y-73551244D01*
X93923627Y-73839664D01*
X94023265Y-74124183D01*
X94139480Y-74403764D01*
X94271622Y-74677366D01*
X94419037Y-74943949D01*
X94581076Y-75202476D01*
X94757087Y-75451906D01*
X94946418Y-75691199D01*
X95148418Y-75919317D01*
X95362435Y-76135221D01*
X95587819Y-76337870D01*
X95823917Y-76526226D01*
X96069698Y-76698998D01*
X96309132Y-76846721D01*
X96549861Y-76975646D01*
X96792925Y-77086172D01*
X97039361Y-77178699D01*
X97290208Y-77253624D01*
X97546504Y-77311348D01*
X97748965Y-77344427D01*
X97834675Y-77353843D01*
X97932774Y-77360614D01*
X98039238Y-77364766D01*
X98150045Y-77366329D01*
X98261170Y-77365329D01*
X98368593Y-77361794D01*
X98468288Y-77355752D01*
X98556234Y-77347229D01*
X98616308Y-77338490D01*
X98646893Y-77333861D01*
X98668962Y-77331951D01*
X98676697Y-77332778D01*
X98670361Y-77336687D01*
X98647959Y-77342710D01*
X98612445Y-77350336D01*
X98566772Y-77359049D01*
X98513894Y-77368339D01*
X98456762Y-77377690D01*
X98398330Y-77386590D01*
X98341552Y-77394526D01*
X98289379Y-77400984D01*
X98275386Y-77402522D01*
X98189990Y-77409354D01*
X98091729Y-77413466D01*
X97985300Y-77414949D01*
X97875402Y-77413888D01*
X97766733Y-77410373D01*
X97663990Y-77404490D01*
X97571871Y-77396328D01*
X97508981Y-77388215D01*
X97460578Y-77380893D01*
X97418556Y-77374774D01*
X97386788Y-77370403D01*
X97369143Y-77368326D01*
X97367390Y-77368230D01*
X97365847Y-77371642D01*
X97364434Y-77382363D01*
X97363145Y-77401099D01*
X97361976Y-77428557D01*
X97360921Y-77465445D01*
X97359976Y-77512471D01*
X97359136Y-77570340D01*
X97358396Y-77639761D01*
X97357751Y-77721441D01*
X97357195Y-77816086D01*
X97356724Y-77924404D01*
X97356334Y-78047103D01*
X97356018Y-78184889D01*
X97355772Y-78338469D01*
X97355592Y-78508552D01*
X97355471Y-78695843D01*
X97355406Y-78901051D01*
X97355390Y-79081678D01*
X97355390Y-80795170D01*
X97293020Y-80795170D01*
X97230650Y-80795170D01*
X97228224Y-79066469D01*
X97225798Y-77337768D01*
X97115405Y-77309518D01*
X96879815Y-77239887D01*
X96643762Y-77151613D01*
X96408257Y-77045198D01*
X96174307Y-76921140D01*
X95942922Y-76779940D01*
X95715112Y-76622098D01*
X95688146Y-76602124D01*
X95532240Y-76479191D01*
X95373398Y-76341358D01*
X95214853Y-76191905D01*
X95059838Y-76034114D01*
X94911583Y-75871264D01*
X94773323Y-75706638D01*
X94657421Y-75556014D01*
X94629748Y-75519056D01*
X94605799Y-75488482D01*
X94587979Y-75467262D01*
X94578692Y-75458367D01*
X94578315Y-75458269D01*
X94567018Y-75462835D01*
X94540683Y-75476263D01*
X94500825Y-75497687D01*
X94448955Y-75526238D01*
X94386587Y-75561049D01*
X94315232Y-75601251D01*
X94236405Y-75645977D01*
X94151618Y-75694359D01*
X94062383Y-75745529D01*
X93970214Y-75798619D01*
X93876624Y-75852760D01*
X93783124Y-75907087D01*
X93691229Y-75960729D01*
X93602450Y-76012820D01*
X93518302Y-76062492D01*
X93440296Y-76108876D01*
X93369945Y-76151105D01*
X93357242Y-76158785D01*
X93166956Y-76275251D01*
X92976928Y-76394021D01*
X92789945Y-76513281D01*
X92608793Y-76631215D01*
X92436259Y-76746006D01*
X92275131Y-76855842D01*
X92128195Y-76958904D01*
X92121007Y-76964036D01*
X91931105Y-77099726D01*
X91738956Y-77089762D01*
X91490149Y-77084534D01*
X91229749Y-77093944D01*
X90958431Y-77117858D01*
X90676870Y-77156146D01*
X90385740Y-77208676D01*
X90085716Y-77275316D01*
X89777473Y-77355936D01*
X89461685Y-77450403D01*
X89139028Y-77558586D01*
X88914881Y-77640355D01*
X88859221Y-77661038D01*
X88810511Y-77678606D01*
X88771272Y-77692194D01*
X88744025Y-77700938D01*
X88731290Y-77703972D01*
X88730733Y-77703517D01*
X88740356Y-77695487D01*
X88764237Y-77678277D01*
X88800505Y-77653124D01*
X88847292Y-77621266D01*
X88902728Y-77583940D01*
X88964944Y-77542383D01*
X89032071Y-77497832D01*
X89102239Y-77451526D01*
X89173579Y-77404701D01*
X89244221Y-77358594D01*
X89312297Y-77314443D01*
X89375936Y-77273486D01*
X89433270Y-77236959D01*
X89479086Y-77208179D01*
X89828999Y-76994924D01*
X90197383Y-76779143D01*
X90583718Y-76561103D01*
X90987480Y-76341073D01*
X91408149Y-76119324D01*
X91845201Y-75896124D01*
X92298116Y-75671742D01*
X92766371Y-75446448D01*
X93249444Y-75220511D01*
X93746813Y-74994199D01*
X93938006Y-74908802D01*
X93998608Y-74881812D01*
X94053969Y-74857048D01*
X94101478Y-74835687D01*
X94138524Y-74818904D01*
X94162496Y-74807877D01*
X94170174Y-74804174D01*
X94175311Y-74799283D01*
X94176391Y-74790291D01*
X94172541Y-74774708D01*
X94162887Y-74750043D01*
X94146553Y-74713807D01*
X94122666Y-74663508D01*
X94115752Y-74649149D01*
X94082218Y-74577158D01*
X94046288Y-74495743D01*
X94009824Y-74409477D01*
X93974690Y-74322933D01*
X93942747Y-74240681D01*
X93915859Y-74167296D01*
X93898714Y-74116390D01*
X93876630Y-74046795D01*
X92184226Y-74046795D01*
X90491823Y-74046795D01*
X90491823Y-73989198D01*
X90491823Y-73931602D01*
X92165984Y-73931602D01*
X93840145Y-73931602D01*
X93822524Y-73871606D01*
X93811165Y-73832170D01*
X93800288Y-73793169D01*
X93794289Y-73770812D01*
X93783675Y-73730015D01*
X92137749Y-73730015D01*
X90491823Y-73730015D01*
X90491823Y-73672418D01*
X90491823Y-73614822D01*
X92124839Y-73614822D01*
X93757856Y-73614822D01*
X93751945Y-73593223D01*
X93745727Y-73566413D01*
X93737404Y-73524751D01*
X93727693Y-73472376D01*
X93717308Y-73413427D01*
X93706967Y-73352042D01*
X93697385Y-73292360D01*
X93689277Y-73238519D01*
X93684284Y-73202048D01*
X93661117Y-72965138D01*
X93651313Y-72724878D01*
X93654788Y-72485429D01*
X93671461Y-72250956D01*
X93701247Y-72025620D01*
X93708608Y-71982925D01*
X93718398Y-71931829D01*
X93730469Y-71874283D01*
X93744139Y-71812988D01*
X93758730Y-71750643D01*
X93773562Y-71689950D01*
X93787957Y-71633608D01*
X93801233Y-71584320D01*
X93812712Y-71544784D01*
X93821714Y-71517702D01*
X93827560Y-71505774D01*
X93828698Y-71505641D01*
X93827931Y-71515790D01*
G37*
G36*
X97355391Y-68697532D02*
G01*
X97355392Y-70250234D01*
X97520981Y-70316019D01*
X97763507Y-70421335D01*
X98006367Y-70544436D01*
X98247445Y-70684068D01*
X98484623Y-70838976D01*
X98715782Y-71007903D01*
X98800099Y-71074301D01*
X99052371Y-71288343D01*
X99289992Y-71513160D01*
X99512283Y-71748017D01*
X99718563Y-71992176D01*
X99908152Y-72244901D01*
X99986420Y-72359092D01*
X100017481Y-72405722D01*
X100044618Y-72446455D01*
X100066142Y-72478754D01*
X100080364Y-72500085D01*
X100085587Y-72507904D01*
X100094638Y-72505331D01*
X100119953Y-72497228D01*
X100159613Y-72484232D01*
X100211701Y-72466980D01*
X100274298Y-72446106D01*
X100345487Y-72422249D01*
X100423349Y-72396043D01*
X100456207Y-72384953D01*
X100875619Y-72244827D01*
X101296459Y-72107253D01*
X101716300Y-71972974D01*
X102132716Y-71842734D01*
X102543278Y-71717279D01*
X102945559Y-71597351D01*
X103337132Y-71483695D01*
X103715569Y-71377056D01*
X103978973Y-71304923D01*
X104083102Y-71277066D01*
X104193636Y-71248025D01*
X104309093Y-71218155D01*
X104427993Y-71187810D01*
X104548853Y-71157344D01*
X104670192Y-71127113D01*
X104790528Y-71097470D01*
X104908379Y-71068771D01*
X105022265Y-71041369D01*
X105130702Y-71015619D01*
X105232210Y-70991877D01*
X105325307Y-70970495D01*
X105408511Y-70951829D01*
X105480340Y-70936234D01*
X105539314Y-70924063D01*
X105583949Y-70915672D01*
X105612766Y-70911415D01*
X105623814Y-70911349D01*
X105626515Y-70915508D01*
X105620120Y-70916634D01*
X105604126Y-70919528D01*
X105571646Y-70927124D01*
X105524662Y-70938888D01*
X105465160Y-70954286D01*
X105395123Y-70972781D01*
X105316534Y-70993840D01*
X105231379Y-71016929D01*
X105141640Y-71041511D01*
X105049301Y-71067052D01*
X104956347Y-71093019D01*
X104864761Y-71118875D01*
X104780523Y-71142938D01*
X104320663Y-71279112D01*
X103846434Y-71427337D01*
X103358287Y-71587460D01*
X102856670Y-71759324D01*
X102342034Y-71942776D01*
X101814829Y-72137661D01*
X101275506Y-72343825D01*
X101204748Y-72371360D01*
X101115256Y-72406378D01*
X101022104Y-72443050D01*
X100927008Y-72480685D01*
X100831682Y-72518590D01*
X100737841Y-72556073D01*
X100647199Y-72592442D01*
X100561472Y-72627004D01*
X100482374Y-72659067D01*
X100411620Y-72687938D01*
X100350924Y-72712927D01*
X100302002Y-72733339D01*
X100266567Y-72748483D01*
X100246335Y-72757667D01*
X100242305Y-72759930D01*
X100244289Y-72770020D01*
X100253929Y-72794615D01*
X100270078Y-72831158D01*
X100291590Y-72877092D01*
X100317319Y-72929859D01*
X100328906Y-72953047D01*
X100389413Y-73076920D01*
X100448303Y-73204408D01*
X100503228Y-73330176D01*
X100551837Y-73448890D01*
X100581248Y-73526028D01*
X100613855Y-73614822D01*
X103112363Y-73614822D01*
X105610870Y-73614822D01*
X105610870Y-73672418D01*
X105610870Y-73730015D01*
X103134226Y-73730015D01*
X102917532Y-73730042D01*
X102705904Y-73730123D01*
X102500144Y-73730255D01*
X102301052Y-73730436D01*
X102109427Y-73730664D01*
X101926070Y-73730936D01*
X101751781Y-73731249D01*
X101587359Y-73731602D01*
X101433605Y-73731992D01*
X101291319Y-73732418D01*
X101161301Y-73732875D01*
X101044351Y-73733363D01*
X100941269Y-73733879D01*
X100852856Y-73734420D01*
X100779910Y-73734985D01*
X100723233Y-73735571D01*
X100683623Y-73736175D01*
X100661883Y-73736795D01*
X100657711Y-73737214D01*
X100660373Y-73748947D01*
X100667436Y-73774720D01*
X100677691Y-73810213D01*
X100685243Y-73835608D01*
X100712647Y-73926802D01*
X103161758Y-73929221D01*
X105610870Y-73931639D01*
X105610870Y-73989217D01*
X105610870Y-74046795D01*
X103176397Y-74046795D01*
X102918599Y-74046804D01*
X102679331Y-74046836D01*
X102457922Y-74046892D01*
X102253702Y-74046979D01*
X102066001Y-74047099D01*
X101894149Y-74047256D01*
X101737477Y-74047454D01*
X101595314Y-74047697D01*
X101466990Y-74047990D01*
X101351836Y-74048335D01*
X101249182Y-74048737D01*
X101158358Y-74049200D01*
X101078693Y-74049727D01*
X101009518Y-74050323D01*
X100950163Y-74050991D01*
X100899959Y-74051735D01*
X100858235Y-74052560D01*
X100824320Y-74053469D01*
X100797547Y-74054465D01*
X100777244Y-74055554D01*
X100762741Y-74056738D01*
X100753369Y-74058022D01*
X100748458Y-74059409D01*
X100747337Y-74060904D01*
X100747345Y-74060926D01*
X100751102Y-74074950D01*
X100757815Y-74104108D01*
X100766671Y-74144709D01*
X100776856Y-74193060D01*
X100781768Y-74216916D01*
X100823023Y-74455455D01*
X100848358Y-74688497D01*
X100857978Y-74915410D01*
X100852087Y-75135563D01*
X100830889Y-75348322D01*
X100794588Y-75553054D01*
X100743389Y-75749128D01*
X100677495Y-75935912D01*
X100597111Y-76112772D01*
X100502440Y-76279076D01*
X100393687Y-76434191D01*
X100271057Y-76577486D01*
X100134752Y-76708328D01*
X99984978Y-76826084D01*
X99926773Y-76865827D01*
X99844470Y-76915685D01*
X99749586Y-76966162D01*
X99648397Y-77014264D01*
X99547180Y-77056996D01*
X99457658Y-77089581D01*
X99363016Y-77117650D01*
X99256525Y-77143881D01*
X99145531Y-77166739D01*
X99037381Y-77184686D01*
X98954422Y-77194813D01*
X98874508Y-77200368D01*
X98781842Y-77203194D01*
X98682667Y-77203348D01*
X98583225Y-77200889D01*
X98489761Y-77195874D01*
X98421779Y-77189876D01*
X98194951Y-77155933D01*
X97965926Y-77103630D01*
X97735611Y-77033555D01*
X97504914Y-76946295D01*
X97274743Y-76842435D01*
X97046003Y-76722563D01*
X96819604Y-76587266D01*
X96596451Y-76437129D01*
X96377452Y-76272741D01*
X96163516Y-76094688D01*
X95955548Y-75903557D01*
X95754457Y-75699934D01*
X95561149Y-75484406D01*
X95376532Y-75257560D01*
X95320675Y-75184323D01*
X95271026Y-75116390D01*
X95216162Y-75038224D01*
X95158658Y-74953739D01*
X95101089Y-74866847D01*
X95046030Y-74781462D01*
X95022082Y-74743144D01*
X95926837Y-74743144D01*
X96014772Y-74854275D01*
X96187166Y-75060096D01*
X96373201Y-75259732D01*
X96569081Y-75449399D01*
X96771011Y-75625315D01*
X96860265Y-75696970D01*
X96889493Y-75719237D01*
X96927532Y-75747361D01*
X96971707Y-75779451D01*
X97019338Y-75813620D01*
X97067750Y-75847977D01*
X97114266Y-75880634D01*
X97156208Y-75909702D01*
X97190900Y-75933292D01*
X97215664Y-75949515D01*
X97227824Y-75956483D01*
X97228198Y-75956589D01*
X97228539Y-75947278D01*
X97228865Y-75920074D01*
X97229174Y-75876286D01*
X97229461Y-75817220D01*
X97229724Y-75744182D01*
X97229958Y-75658480D01*
X97230162Y-75561421D01*
X97230330Y-75454311D01*
X97230461Y-75338458D01*
X97230550Y-75215168D01*
X97230594Y-75085749D01*
X97230598Y-75030086D01*
X97230598Y-74103097D01*
X97209362Y-74109837D01*
X97196079Y-74115541D01*
X97167383Y-74128905D01*
X97125056Y-74149055D01*
X97070882Y-74175117D01*
X97006644Y-74206215D01*
X96934126Y-74241474D01*
X96855110Y-74280020D01*
X96771380Y-74320977D01*
X96684720Y-74363471D01*
X96596911Y-74406626D01*
X96509739Y-74449569D01*
X96424985Y-74491423D01*
X96344433Y-74531314D01*
X96269867Y-74568367D01*
X96203070Y-74601708D01*
X96145824Y-74630460D01*
X96099913Y-74653750D01*
X96081949Y-74662979D01*
X95926837Y-74743144D01*
X95022082Y-74743144D01*
X94996054Y-74701497D01*
X94953738Y-74630865D01*
X94935411Y-74598760D01*
X94809690Y-74357004D01*
X94697027Y-74106503D01*
X94676345Y-74052804D01*
X95502707Y-74052804D01*
X95506982Y-74063415D01*
X95518403Y-74086631D01*
X95534863Y-74118233D01*
X95542687Y-74132835D01*
X95582668Y-74206856D01*
X95732275Y-74145211D01*
X95785713Y-74123188D01*
X95836291Y-74102337D01*
X95879891Y-74084356D01*
X95912393Y-74070945D01*
X95925080Y-74065704D01*
X95968278Y-74047842D01*
X95735492Y-74047318D01*
X95670931Y-74047410D01*
X95613246Y-74047945D01*
X95565047Y-74048862D01*
X95528943Y-74050100D01*
X95507544Y-74051597D01*
X95502707Y-74052804D01*
X94676345Y-74052804D01*
X94674031Y-74046795D01*
X97355390Y-74046795D01*
X97355390Y-75038807D01*
X97355390Y-76030819D01*
X97463383Y-76089040D01*
X97671108Y-76192012D01*
X97880279Y-76277310D01*
X98093721Y-76345825D01*
X98314254Y-76398443D01*
X98544703Y-76436055D01*
X98579313Y-76440340D01*
X98613104Y-76442829D01*
X98661337Y-76444375D01*
X98719283Y-76445018D01*
X98782209Y-76444798D01*
X98845386Y-76443755D01*
X98904082Y-76441931D01*
X98953567Y-76439365D01*
X98982488Y-76436901D01*
X99173894Y-76407177D01*
X99354613Y-76361770D01*
X99524367Y-76300870D01*
X99682881Y-76224666D01*
X99829877Y-76133348D01*
X99965079Y-76027107D01*
X100088210Y-75906132D01*
X100198992Y-75770614D01*
X100297150Y-75620743D01*
X100369280Y-75484659D01*
X100441155Y-75312997D01*
X100497399Y-75131110D01*
X100537869Y-74940113D01*
X100562427Y-74741123D01*
X100570931Y-74535254D01*
X100563240Y-74323625D01*
X100541227Y-74121190D01*
X100530581Y-74046795D01*
X100128511Y-74046795D01*
X100042751Y-74046897D01*
X99963243Y-74047188D01*
X99891972Y-74047646D01*
X99830926Y-74048250D01*
X99782089Y-74048978D01*
X99747447Y-74049807D01*
X99728986Y-74050717D01*
X99726441Y-74051214D01*
X99729078Y-74061406D01*
X99736387Y-74086889D01*
X99747463Y-74124583D01*
X99761404Y-74171408D01*
X99773993Y-74213310D01*
X99824014Y-74386914D01*
X99865868Y-74549781D01*
X99900951Y-74707822D01*
X99930658Y-74866948D01*
X99936358Y-74901141D01*
X99953330Y-75014711D01*
X99967709Y-75130596D01*
X99979247Y-75245426D01*
X99987697Y-75355832D01*
X99992811Y-75458443D01*
X99994343Y-75549891D01*
X99992044Y-75626805D01*
X99990839Y-75643402D01*
X99983862Y-75727158D01*
X99909925Y-75801794D01*
X99814199Y-75886552D01*
X99703502Y-75962423D01*
X99576887Y-76029978D01*
X99433410Y-76089788D01*
X99433388Y-76089796D01*
X99388198Y-76105612D01*
X99340462Y-76120904D01*
X99293865Y-76134665D01*
X99252093Y-76145883D01*
X99218832Y-76153547D01*
X99197768Y-76156649D01*
X99192448Y-76155835D01*
X99195518Y-76146462D01*
X99208237Y-76126106D01*
X99228107Y-76098653D01*
X99234887Y-76089871D01*
X99342749Y-75936962D01*
X99436652Y-75772272D01*
X99515310Y-75598445D01*
X99577435Y-75418124D01*
X99597010Y-75346192D01*
X99625565Y-75216940D01*
X99645305Y-75088735D01*
X99656947Y-74955422D01*
X99661211Y-74810846D01*
X99661259Y-74795548D01*
X99658171Y-74647823D01*
X99648045Y-74508857D01*
X99630045Y-74371500D01*
X99603334Y-74228600D01*
X99585786Y-74149988D01*
X99561643Y-74046795D01*
X98458516Y-74046795D01*
X97355390Y-74046795D01*
X94674031Y-74046795D01*
X94597997Y-73849378D01*
X94560700Y-73734337D01*
X95370393Y-73734337D01*
X95371649Y-73745719D01*
X95380894Y-73773790D01*
X95397884Y-73817894D01*
X95422377Y-73877377D01*
X95430082Y-73895604D01*
X95445368Y-73931602D01*
X95853005Y-73931602D01*
X96260642Y-73931602D01*
X96269227Y-73928176D01*
X97595375Y-73928176D01*
X97604761Y-73928652D01*
X97632064Y-73929110D01*
X97676003Y-73929543D01*
X97735296Y-73929947D01*
X97808661Y-73930318D01*
X97894818Y-73930650D01*
X97992484Y-73930941D01*
X98100378Y-73931185D01*
X98217218Y-73931377D01*
X98341724Y-73931512D01*
X98472612Y-73931588D01*
X98560761Y-73931602D01*
X98718100Y-73931595D01*
X98857338Y-73931560D01*
X98979573Y-73931477D01*
X99085903Y-73931323D01*
X99177425Y-73931077D01*
X99255238Y-73930720D01*
X99320439Y-73930229D01*
X99374127Y-73929583D01*
X99417398Y-73928761D01*
X99451352Y-73927743D01*
X99477086Y-73926506D01*
X99495697Y-73925031D01*
X99508284Y-73923295D01*
X99515945Y-73921277D01*
X99519777Y-73918957D01*
X99520878Y-73916313D01*
X99520346Y-73913325D01*
X99520286Y-73913134D01*
X99514640Y-73895866D01*
X99504684Y-73865878D01*
X99492236Y-73828646D01*
X99487569Y-73814740D01*
X99460713Y-73734814D01*
X98737342Y-73732353D01*
X98050125Y-73730015D01*
X99604014Y-73730015D01*
X99643156Y-73830808D01*
X99682298Y-73931602D01*
X100093145Y-73931602D01*
X100193161Y-73931550D01*
X100275643Y-73931353D01*
X100342254Y-73930946D01*
X100394658Y-73930268D01*
X100434520Y-73929254D01*
X100463503Y-73927842D01*
X100483271Y-73925967D01*
X100495489Y-73923568D01*
X100501821Y-73920581D01*
X100503929Y-73916941D01*
X100503992Y-73915991D01*
X100501882Y-73900045D01*
X100496240Y-73870653D01*
X100488098Y-73833014D01*
X100483993Y-73815198D01*
X100463995Y-73730015D01*
X100034004Y-73730015D01*
X99604014Y-73730015D01*
X98050125Y-73730015D01*
X98013971Y-73729892D01*
X97804673Y-73827321D01*
X97746357Y-73854603D01*
X97694295Y-73879221D01*
X97650868Y-73900026D01*
X97618456Y-73915872D01*
X97599440Y-73925611D01*
X97595375Y-73928176D01*
X96269227Y-73928176D01*
X96507188Y-73833208D01*
X96753734Y-73734814D01*
X96064288Y-73732351D01*
X95951007Y-73732006D01*
X95843403Y-73731797D01*
X95743007Y-73731719D01*
X95651348Y-73731766D01*
X95569955Y-73731936D01*
X95500358Y-73732223D01*
X95444087Y-73732623D01*
X95402670Y-73733131D01*
X95377638Y-73733745D01*
X95370393Y-73734337D01*
X94560700Y-73734337D01*
X94513176Y-73587752D01*
X94443140Y-73323746D01*
X94388463Y-73059482D01*
X94349722Y-72797081D01*
X94327491Y-72538666D01*
X94321981Y-72337231D01*
X94322241Y-72329032D01*
X95088867Y-72329032D01*
X95095715Y-72556474D01*
X95116371Y-72778351D01*
X95151505Y-72999682D01*
X95201786Y-73225487D01*
X95215633Y-73278843D01*
X95227692Y-73322647D01*
X95242161Y-73372879D01*
X95257931Y-73425946D01*
X95273892Y-73478253D01*
X95288933Y-73526207D01*
X95301944Y-73566214D01*
X95311816Y-73594681D01*
X95317191Y-73607622D01*
X95327199Y-73608677D01*
X95355049Y-73609685D01*
X95399381Y-73610635D01*
X95458839Y-73611516D01*
X95532063Y-73612318D01*
X95617697Y-73613028D01*
X95714382Y-73613636D01*
X95820760Y-73614131D01*
X95935474Y-73614500D01*
X96057165Y-73614735D01*
X96184476Y-73614822D01*
X96192574Y-73614822D01*
X97063696Y-73614822D01*
X97066909Y-73613570D01*
X98272133Y-73613570D01*
X98840897Y-73614196D01*
X98943416Y-73614250D01*
X99040000Y-73614185D01*
X99128978Y-73614010D01*
X99208681Y-73613735D01*
X99277439Y-73613368D01*
X99333583Y-73612918D01*
X99375442Y-73612393D01*
X99401348Y-73611803D01*
X99409661Y-73611195D01*
X99405270Y-73596449D01*
X99392220Y-73565074D01*
X99370699Y-73517477D01*
X99340891Y-73454069D01*
X99302983Y-73375261D01*
X99297324Y-73363606D01*
X99268999Y-73305563D01*
X99247585Y-73262699D01*
X99231686Y-73232885D01*
X99219905Y-73213988D01*
X99210848Y-73203881D01*
X99203118Y-73200432D01*
X99195320Y-73201512D01*
X99191905Y-73202721D01*
X99177399Y-73208805D01*
X99147546Y-73221768D01*
X99104524Y-73240642D01*
X99050508Y-73264458D01*
X98987674Y-73292249D01*
X98918199Y-73323045D01*
X98844259Y-73355880D01*
X98768029Y-73389784D01*
X98691685Y-73423790D01*
X98617405Y-73456929D01*
X98547363Y-73488234D01*
X98483736Y-73516736D01*
X98428701Y-73541467D01*
X98384432Y-73561458D01*
X98353107Y-73575743D01*
X98344128Y-73579903D01*
X98272133Y-73613570D01*
X97066909Y-73613570D01*
X97144747Y-73583236D01*
X97225798Y-73551650D01*
X97228236Y-72384836D01*
X97230524Y-71289936D01*
X97355390Y-71289936D01*
X97355390Y-72395809D01*
X97355401Y-72565066D01*
X97355444Y-72716145D01*
X97355535Y-72850067D01*
X97355689Y-72967854D01*
X97355923Y-73070526D01*
X97356251Y-73159105D01*
X97356689Y-73234612D01*
X97357253Y-73298067D01*
X97357958Y-73350493D01*
X97358821Y-73392909D01*
X97359856Y-73426337D01*
X97361079Y-73451799D01*
X97362506Y-73470314D01*
X97364153Y-73482905D01*
X97366035Y-73490593D01*
X97368167Y-73494398D01*
X97370566Y-73495341D01*
X97372189Y-73494938D01*
X97384055Y-73490406D01*
X97412244Y-73479757D01*
X97455102Y-73463612D01*
X97510976Y-73442592D01*
X97578212Y-73417320D01*
X97655155Y-73388417D01*
X97740153Y-73356505D01*
X97831551Y-73322206D01*
X97907356Y-73293769D01*
X98014326Y-73253722D01*
X98125574Y-73212209D01*
X98238029Y-73170369D01*
X98318403Y-73140549D01*
X99334170Y-73140549D01*
X99337190Y-73149603D01*
X99347604Y-73173307D01*
X99364232Y-73209133D01*
X99385893Y-73254555D01*
X99411406Y-73307044D01*
X99422072Y-73328735D01*
X99450680Y-73387075D01*
X99477729Y-73442864D01*
X99501564Y-73492643D01*
X99520532Y-73532951D01*
X99532978Y-73560327D01*
X99534742Y-73564425D01*
X99556016Y-73614822D01*
X99991606Y-73614822D01*
X100104606Y-73614615D01*
X100201562Y-73614001D01*
X100281945Y-73612993D01*
X100345228Y-73611601D01*
X100390881Y-73609837D01*
X100418376Y-73607713D01*
X100427197Y-73605337D01*
X100423431Y-73582843D01*
X100412802Y-73545328D01*
X100396318Y-73495286D01*
X100374982Y-73435210D01*
X100349800Y-73367593D01*
X100321778Y-73294928D01*
X100291921Y-73219707D01*
X100261235Y-73144423D01*
X100230724Y-73071569D01*
X100201395Y-73003639D01*
X100174253Y-72943124D01*
X100150303Y-72892519D01*
X100130551Y-72854314D01*
X100116001Y-72831005D01*
X100113838Y-72828387D01*
X100108719Y-72825920D01*
X100098930Y-72826230D01*
X100082955Y-72829888D01*
X100059277Y-72837460D01*
X100026382Y-72849515D01*
X99982751Y-72866622D01*
X99926871Y-72889350D01*
X99857223Y-72918265D01*
X99772292Y-72953938D01*
X99719614Y-72976180D01*
X99639185Y-73010215D01*
X99564356Y-73041941D01*
X99496951Y-73070580D01*
X99438795Y-73095356D01*
X99391711Y-73115489D01*
X99357523Y-73130202D01*
X99338055Y-73138718D01*
X99334170Y-73140549D01*
X98318403Y-73140549D01*
X98348617Y-73129339D01*
X98454265Y-73090257D01*
X98551902Y-73054261D01*
X98638455Y-73022489D01*
X98710851Y-72996079D01*
X98725741Y-72990678D01*
X99025759Y-72882011D01*
X99009842Y-72857241D01*
X98959042Y-72781754D01*
X98897396Y-72696006D01*
X98827567Y-72603381D01*
X98752218Y-72507261D01*
X98674011Y-72411026D01*
X98595610Y-72318060D01*
X98519678Y-72231745D01*
X98501958Y-72212220D01*
X98380227Y-72084676D01*
X98248499Y-71957018D01*
X98109651Y-71831598D01*
X97966561Y-71710765D01*
X97822108Y-71596869D01*
X97679169Y-71492261D01*
X97540623Y-71399291D01*
X97410587Y-71321006D01*
X97355390Y-71289936D01*
X97230524Y-71289936D01*
X97230674Y-71218023D01*
X97097603Y-71154260D01*
X96884141Y-71059843D01*
X96674036Y-70983093D01*
X96464901Y-70923358D01*
X96254349Y-70879984D01*
X96039993Y-70852319D01*
X95973359Y-70846899D01*
X95815250Y-70835743D01*
X95915763Y-70767544D01*
X96012730Y-70704973D01*
X96105190Y-70651624D01*
X96189385Y-70609630D01*
X96210637Y-70600335D01*
X96261009Y-70579071D01*
X96397825Y-70629535D01*
X96524465Y-70678443D01*
X96659579Y-70734563D01*
X96797452Y-70795325D01*
X96932371Y-70858158D01*
X97058620Y-70920494D01*
X97141948Y-70964168D01*
X97230886Y-71012186D01*
X97228342Y-70732004D01*
X97226084Y-70483282D01*
X97355390Y-70483282D01*
X97355390Y-70784964D01*
X97355390Y-71086646D01*
X97395532Y-71109207D01*
X97429704Y-71129624D01*
X97476081Y-71159067D01*
X97531336Y-71195284D01*
X97592137Y-71236019D01*
X97655157Y-71279019D01*
X97717067Y-71322028D01*
X97774537Y-71362794D01*
X97824237Y-71399061D01*
X97830560Y-71403781D01*
X97933023Y-71482300D01*
X98028586Y-71559495D01*
X98121198Y-71638824D01*
X98214810Y-71723746D01*
X98313370Y-71817719D01*
X98392800Y-71896106D01*
X98543483Y-72051323D01*
X98679768Y-72202022D01*
X98804641Y-72351831D01*
X98921091Y-72504377D01*
X99032104Y-72663288D01*
X99062779Y-72709659D01*
X99100456Y-72765620D01*
X99129359Y-72804858D01*
X99149418Y-72827289D01*
X99160077Y-72832991D01*
X99171992Y-72829149D01*
X99200030Y-72819608D01*
X99242207Y-72805058D01*
X99296543Y-72786187D01*
X99361053Y-72763684D01*
X99433757Y-72738240D01*
X99512670Y-72710543D01*
X99548852Y-72697819D01*
X99630263Y-72669159D01*
X99706652Y-72642241D01*
X99775980Y-72617784D01*
X99836209Y-72596510D01*
X99885299Y-72579138D01*
X99921213Y-72566389D01*
X99941911Y-72558984D01*
X99945580Y-72557639D01*
X99967932Y-72549192D01*
X99946483Y-72513243D01*
X99802583Y-72289092D01*
X99641321Y-72069218D01*
X99464367Y-71855395D01*
X99273395Y-71649398D01*
X99070077Y-71453003D01*
X98856084Y-71267985D01*
X98633089Y-71096119D01*
X98567623Y-71049444D01*
X98387026Y-70930324D01*
X98198698Y-70819992D01*
X98006289Y-70720277D01*
X97813450Y-70633005D01*
X97623829Y-70560005D01*
X97526239Y-70527837D01*
X97480843Y-70514167D01*
X97438745Y-70502148D01*
X97405401Y-70493302D01*
X97389448Y-70489672D01*
X97355390Y-70483282D01*
X97226084Y-70483282D01*
X97225798Y-70451821D01*
X97158603Y-70440296D01*
X96984069Y-70418340D01*
X96807155Y-70411385D01*
X96631327Y-70419210D01*
X96460049Y-70441589D01*
X96296789Y-70478297D01*
X96222662Y-70500818D01*
X96058788Y-70563989D01*
X95908104Y-70640592D01*
X95769396Y-70731365D01*
X95641452Y-70837044D01*
X95593552Y-70883117D01*
X95484571Y-71003467D01*
X95390151Y-71131839D01*
X95309523Y-71269770D01*
X95241916Y-71418796D01*
X95186558Y-71580453D01*
X95142679Y-71756276D01*
X95134227Y-71798377D01*
X95117448Y-71893430D01*
X95105001Y-71983642D01*
X95096425Y-72074423D01*
X95091257Y-72171188D01*
X95089034Y-72279349D01*
X95088867Y-72329032D01*
X94322241Y-72329032D01*
X94329212Y-72108996D01*
X94350743Y-71890350D01*
X94386337Y-71681839D01*
X94435752Y-71484007D01*
X94498749Y-71297402D01*
X94575089Y-71122568D01*
X94664533Y-70960051D01*
X94766839Y-70810396D01*
X94881769Y-70674149D01*
X95009084Y-70551856D01*
X95148543Y-70444061D01*
X95155725Y-70439134D01*
X95315705Y-70339683D01*
X95480237Y-70256946D01*
X95651607Y-70190049D01*
X95832102Y-70138119D01*
X96024008Y-70100282D01*
X96054672Y-70095658D01*
X96119861Y-70088457D01*
X96199152Y-70083248D01*
X96287551Y-70080072D01*
X96380060Y-70078968D01*
X96471683Y-70079977D01*
X96557424Y-70083139D01*
X96632288Y-70088494D01*
X96654634Y-70090851D01*
X96721680Y-70099942D01*
X96798761Y-70112458D01*
X96880550Y-70127360D01*
X96961722Y-70143606D01*
X97036951Y-70160158D01*
X97100911Y-70175974D01*
X97125270Y-70182770D01*
X97163200Y-70193542D01*
X97194724Y-70201835D01*
X97214855Y-70206365D01*
X97218599Y-70206835D01*
X97220227Y-70203427D01*
X97221711Y-70192648D01*
X97223056Y-70173750D01*
X97224268Y-70145987D01*
X97225353Y-70108610D01*
X97226317Y-70060874D01*
X97227165Y-70002029D01*
X97227904Y-69931330D01*
X97228540Y-69848029D01*
X97229078Y-69751379D01*
X97229524Y-69640632D01*
X97229883Y-69515042D01*
X97230163Y-69373860D01*
X97230369Y-69216340D01*
X97230505Y-69041735D01*
X97230580Y-68849297D01*
X97230598Y-68675933D01*
X97230598Y-67144830D01*
X97292994Y-67144830D01*
X97355390Y-67144830D01*
X97355391Y-68697532D01*
G37*
D15*
%TO.C,U1*%
X79500000Y-89340000D02*
X79500000Y-83010000D01*
X79500000Y-69340000D02*
X79500000Y-69470000D01*
X79500000Y-69340000D02*
X61500000Y-69340000D01*
X61500000Y-89340000D02*
X79500000Y-89340000D01*
X61500000Y-83010000D02*
X61500000Y-89340000D01*
X61500000Y-69340000D02*
X61500000Y-69470000D01*
D13*
%TO.C,Res_F*%
X98830000Y-42680000D02*
X105370000Y-42680000D01*
X98830000Y-43010000D02*
X98830000Y-42680000D01*
X98830000Y-45090000D02*
X98830000Y-45420000D01*
X98830000Y-45420000D02*
X105370000Y-45420000D01*
X105370000Y-42680000D02*
X105370000Y-43010000D01*
X105370000Y-45420000D02*
X105370000Y-45090000D01*
%TO.C,R1*%
X113010000Y-77430000D02*
X116850000Y-77430000D01*
X113010000Y-79270000D02*
X116850000Y-79270000D01*
%TD*%
D16*
%TO.C,PIR1*%
X62300000Y-54410000D03*
X92300000Y-54410000D03*
D17*
X74800000Y-63410000D03*
X77300000Y-63410000D03*
X79800000Y-63410000D03*
%TD*%
M02*
