%TF.GenerationSoftware,KiCad,Pcbnew,7.0.7*%
%TF.CreationDate,2025-12-05T14:06:05+01:00*%
%TF.ProjectId,centralv2,63656e74-7261-46c7-9632-2e6b69636164,rev?*%
%TF.SameCoordinates,Original*%
%TF.FileFunction,Legend,Bot*%
%TF.FilePolarity,Positive*%
%FSLAX46Y46*%
G04 Gerber Fmt 4.6, Leading zero omitted, Abs format (unit mm)*
G04 Created by KiCad (PCBNEW 7.0.7) date 2025-12-05 14:06:05*
%MOMM*%
%LPD*%
G01*
G04 APERTURE LIST*
%ADD10C,0.200000*%
%ADD11C,0.120000*%
G04 APERTURE END LIST*
D10*
X69557945Y-87281504D02*
X69081755Y-87281504D01*
X69653183Y-87567219D02*
X69319850Y-86567219D01*
X69319850Y-86567219D02*
X68986517Y-87567219D01*
X68653183Y-86567219D02*
X68653183Y-87376742D01*
X68653183Y-87376742D02*
X68605564Y-87471980D01*
X68605564Y-87471980D02*
X68557945Y-87519600D01*
X68557945Y-87519600D02*
X68462707Y-87567219D01*
X68462707Y-87567219D02*
X68272231Y-87567219D01*
X68272231Y-87567219D02*
X68176993Y-87519600D01*
X68176993Y-87519600D02*
X68129374Y-87471980D01*
X68129374Y-87471980D02*
X68081755Y-87376742D01*
X68081755Y-87376742D02*
X68081755Y-86567219D01*
X67700802Y-86567219D02*
X67034136Y-87567219D01*
X67034136Y-86567219D02*
X67700802Y-87567219D01*
X66034135Y-86567219D02*
X65700802Y-87567219D01*
X65700802Y-87567219D02*
X65367469Y-86567219D01*
X65081754Y-86662457D02*
X65034135Y-86614838D01*
X65034135Y-86614838D02*
X64938897Y-86567219D01*
X64938897Y-86567219D02*
X64700802Y-86567219D01*
X64700802Y-86567219D02*
X64605564Y-86614838D01*
X64605564Y-86614838D02*
X64557945Y-86662457D01*
X64557945Y-86662457D02*
X64510326Y-86757695D01*
X64510326Y-86757695D02*
X64510326Y-86852933D01*
X64510326Y-86852933D02*
X64557945Y-86995790D01*
X64557945Y-86995790D02*
X65129373Y-87567219D01*
X65129373Y-87567219D02*
X64510326Y-87567219D01*
D11*
%TO.C,PS2*%
X94200000Y-37870000D02*
X96210000Y-37870000D01*
X86340000Y-38250000D02*
X110060000Y-38250000D01*
X110060000Y-38260000D02*
X110060000Y-77470000D01*
X86340000Y-77470000D02*
X86340000Y-38260000D01*
X110060000Y-77470000D02*
X86340000Y-77470000D01*
%TD*%
M02*
